<?xml version="1.0" encoding="UTF-8"?> <svg xmlns="http://www.w3.org/2000/svg" width="83" height="96" viewBox="0 0 83 96" fill="none"> <path d="M0 29.7687C0 26.1986 1.90326 22.8993 4.99375 21.112L36.4938 2.89518C39.5909 1.10404 43.4091 1.10404 46.5063 2.89518L78.0062 21.112C81.0967 22.8993 83 26.1986 83 29.7687V66.2313C83 69.8014 81.0967 73.1007 78.0063 74.888L46.5062 93.1048C43.4091 94.896 39.5909 94.896 36.4937 93.1048L4.99375 74.888C1.90326 73.1007 0 69.8014 0 66.2313V29.7687Z" fill="#1C4F4A"></path> <path d="M56.8164 34.0485C56.1766 34.049 55.5496 33.8703 55.0062 33.5326C54.5692 33.2715 54.0679 33.1378 53.5589 33.1465H50.7725C50.5647 33.1464 50.3654 33.0638 50.2184 32.9169C50.0715 32.7699 49.9889 32.5706 49.9888 32.3628V28.8532C49.9889 28.6454 50.0715 28.4461 50.2184 28.2992C50.3654 28.1522 50.5647 28.0696 50.7725 28.0695H53.5589C54.0666 28.0788 54.5669 27.9459 55.0031 27.6857C55.7558 27.2185 56.6591 27.0582 57.5266 27.2379C58.3595 27.4133 59.0978 27.8911 59.599 28.5791C60.1001 29.267 60.3286 30.1163 60.2402 30.9628C60.1519 31.8094 59.753 32.5931 59.1205 33.1628C58.4881 33.7324 57.667 34.0475 56.8159 34.0471L56.8164 34.0485ZM51.5562 31.5791H53.5589C54.3606 31.5701 55.1488 31.7857 55.8343 32.2016C56.0665 32.3446 56.3271 32.4351 56.5979 32.467C56.8687 32.4988 57.1432 32.4711 57.4023 32.3859C57.6613 32.3007 57.8986 32.16 58.0976 31.9735C58.2966 31.7871 58.4525 31.5595 58.5545 31.3066C58.6564 31.0537 58.702 30.7815 58.6879 30.5092C58.6738 30.2369 58.6004 29.9709 58.4729 29.7299C58.3454 29.4889 58.1668 29.2786 57.9496 29.1137C57.7324 28.9488 57.4818 28.8333 57.2154 28.7753C56.7407 28.672 56.2444 28.7583 55.8325 29.0158C55.1475 29.4312 54.3599 29.6463 53.5589 29.6369H51.5562V31.5791Z" fill="url(#paint0_linear_296_297)"></path> <path d="M27.1804 34.0478C26.9429 34.0478 26.706 34.024 26.4733 33.9766C25.9816 33.8733 25.5185 33.6636 25.1165 33.3623C24.7146 33.0609 24.3834 32.6753 24.1464 32.2323C23.9093 31.7893 23.7722 31.2998 23.7445 30.7982C23.7168 30.2966 23.7993 29.7949 23.9861 29.3286C24.173 28.8622 24.4597 28.4424 24.8261 28.0987C25.1924 27.7549 25.6297 27.4956 26.107 27.3388C26.5843 27.1821 27.0901 27.1317 27.589 27.1913C28.0878 27.2509 28.5676 27.4189 28.9946 27.6837C29.4315 27.9445 29.9327 28.0781 30.4415 28.0693H33.2274C33.4352 28.0694 33.6345 28.152 33.7815 28.299C33.9284 28.4459 34.011 28.6452 34.0111 28.853V32.3626C34.011 32.5704 33.9284 32.7697 33.7815 32.9167C33.6345 33.0636 33.4352 33.1462 33.2274 33.1463H30.441C29.9333 33.137 29.433 33.27 28.9968 33.5301C28.4518 33.8695 27.8224 34.0488 27.1804 34.0478ZM26.785 32.4405C27.2595 32.5438 27.7556 32.4575 28.1674 32.2001C28.8524 31.7847 29.64 31.5695 30.441 31.5789H32.4437V29.6367H30.441C29.6394 29.6456 28.8513 29.4301 28.1656 29.0147C27.9334 28.8714 27.6727 28.7806 27.4018 28.7486C27.1308 28.7166 26.8562 28.7441 26.597 28.8293C26.3378 28.9145 26.1003 29.0552 25.9011 29.2417C25.702 29.4282 25.546 29.6559 25.444 29.909C25.342 30.162 25.2965 30.4343 25.3107 30.7068C25.3249 30.9792 25.3984 31.2453 25.5261 31.4864C25.6538 31.7275 25.8327 31.9378 26.0501 32.1026C26.2675 32.2674 26.5183 32.3828 26.785 32.4405Z" fill="url(#paint1_linear_296_297)"></path> <path d="M56.8164 48.9752C56.1766 48.9754 55.5496 48.7966 55.0062 48.4588C54.5692 48.1978 54.0679 48.0641 53.5589 48.0728H50.7725C50.5647 48.0727 50.3654 47.9901 50.2184 47.8431C50.0715 47.6962 49.9889 47.4969 49.9888 47.2891V43.7799C49.9889 43.5721 50.0715 43.3728 50.2184 43.2259C50.3654 43.0789 50.5647 42.9963 50.7725 42.9962H53.5589C54.0667 43.0053 54.5669 42.8722 55.0031 42.612C55.4554 42.3312 55.9667 42.1593 56.4968 42.1097C57.0268 42.0601 57.5611 42.1342 58.0577 42.3261C58.5542 42.5181 58.9994 42.8226 59.3583 43.2158C59.7172 43.609 59.9799 44.0802 60.1258 44.5922C60.2717 45.1041 60.2968 45.643 60.1991 46.1663C60.1014 46.6896 59.8836 47.1831 59.5628 47.608C59.242 48.0328 58.827 48.3774 58.3504 48.6147C57.8738 48.8519 57.3487 48.9753 56.8164 48.9752ZM51.5562 46.5072H53.5589C54.3605 46.4983 55.1486 46.7138 55.8343 47.1292C56.2209 47.3689 56.6817 47.4593 57.1302 47.3834C57.5787 47.3076 57.9841 47.0707 58.2705 46.7172C58.4729 46.4689 58.6083 46.1729 58.6636 45.8573C58.719 45.5417 58.6924 45.2173 58.5865 44.9149C58.4806 44.6126 58.2989 44.3424 58.0587 44.1304C57.8186 43.9183 57.5281 43.7714 57.2149 43.7038C56.7404 43.6003 56.2442 43.6866 55.8325 43.9443C55.1475 44.3596 54.3599 44.5747 53.5589 44.5654H51.5562V46.5072Z" fill="url(#paint2_linear_296_297)"></path> <path d="M27.1795 48.9733C26.942 48.9734 26.7051 48.9495 26.4724 48.9021C25.9804 48.7993 25.5168 48.5899 25.1144 48.2888C24.7119 47.9876 24.3803 47.6019 24.1429 47.1588C23.9055 46.7157 23.768 46.226 23.7402 45.7241C23.7123 45.2222 23.7947 44.7203 23.9816 44.2536C24.1686 43.787 24.4554 43.367 24.8221 43.0231C25.1887 42.6792 25.6263 42.4198 26.1039 42.2632C26.5816 42.1065 27.0877 42.0564 27.5868 42.1164C28.0859 42.1763 28.5658 42.3449 28.9928 42.6102C29.4299 42.8712 29.9312 43.0049 30.4402 42.9962H33.2266C33.4344 42.9963 33.6336 43.0789 33.7806 43.2259C33.9275 43.3728 34.0101 43.5721 34.0103 43.7799V47.2891C34.0101 47.4969 33.9275 47.6961 33.7806 47.8431C33.6336 47.99 33.4344 48.0726 33.2266 48.0728H30.4402C29.9323 48.0635 29.432 48.1966 28.9959 48.457C28.4507 48.7957 27.8214 48.9746 27.1795 48.9733ZM27.1827 43.6603C26.7201 43.6599 26.2737 43.8307 25.9294 44.1397C25.5851 44.4487 25.3672 44.8741 25.3178 45.3341C25.2683 45.794 25.3907 46.256 25.6614 46.6312C25.9321 47.0063 26.332 47.2681 26.7841 47.3661C27.2587 47.4689 27.7546 47.3826 28.1666 47.1256C28.8517 46.7109 29.6393 46.4964 30.4402 46.5063H32.4429V44.5627H30.4402C29.6385 44.5714 28.8504 44.3558 28.1648 43.9402C27.87 43.7569 27.5298 43.66 27.1827 43.6603Z" fill="url(#paint3_linear_296_297)"></path> <path d="M56.8164 63.8991C56.1765 63.8995 55.5493 63.7206 55.0058 63.3828C54.5689 63.1217 54.0677 62.988 53.5589 62.9968H50.7725C50.5646 62.9968 50.3653 62.9142 50.2183 62.7672C50.0713 62.6203 49.9888 62.4209 49.9888 62.2131V58.7039C49.9889 58.4961 50.0715 58.2968 50.2184 58.1499C50.3654 58.0029 50.5647 57.9203 50.7725 57.9202H53.5589C54.0666 57.9295 54.5669 57.7966 55.0031 57.5364C55.7557 57.069 56.6591 56.9087 57.5266 57.0886C58.3594 57.264 59.0977 57.7418 59.5989 58.4297C60.1001 59.1176 60.3286 59.9668 60.2403 60.8133C60.152 61.6598 59.7531 62.4436 59.1208 63.0132C58.4885 63.5829 57.6675 63.898 56.8164 63.8978V63.8991ZM51.5562 61.4294H53.5589C54.3605 61.4206 55.1487 61.6363 55.8343 62.0519C56.1181 62.2279 56.4438 62.3249 56.7777 62.3328C57.1116 62.3407 57.4416 62.2592 57.7334 62.0968C58.0253 61.9344 58.2684 61.6969 58.4377 61.409C58.607 61.1211 58.6962 60.7932 58.6962 60.4592C58.6962 60.1252 58.607 59.7972 58.4377 59.5093C58.2684 59.2214 58.0253 58.9839 57.7334 58.8215C57.4416 58.6591 57.1116 58.5776 56.7777 58.5855C56.4438 58.5934 56.1181 58.6904 55.8343 58.8665C55.1493 59.2819 54.3617 59.497 53.5606 59.4876H51.5562V61.4294Z" fill="url(#paint4_linear_296_297)"></path> <path d="M27.1806 63.8985C26.9431 63.8983 26.7062 63.8745 26.4735 63.8273C25.9818 63.7241 25.5186 63.5145 25.1165 63.2132C24.7144 62.9119 24.3832 62.5262 24.1461 62.0833C23.909 61.6403 23.7718 61.1508 23.744 60.6491C23.7163 60.1474 23.7987 59.6458 23.9856 59.1794C24.1724 58.713 24.4591 58.2931 24.8255 57.9493C25.1919 57.6055 25.6292 57.3462 26.1065 57.1894C26.5839 57.0326 27.0898 56.9823 27.5886 57.0419C28.0875 57.1015 28.5673 57.2696 28.9943 57.5344C29.4314 57.7955 29.9327 57.9292 30.4417 57.9205H33.2276C33.4354 57.9206 33.6347 58.0032 33.7816 58.1501C33.9286 58.2971 34.0112 58.4964 34.0113 58.7042V62.2134C34.0113 62.4212 33.9288 62.6205 33.7818 62.7675C33.6348 62.9145 33.4355 62.9971 33.2276 62.9971H30.4412C29.9334 62.9879 29.4331 63.121 28.997 63.3813C28.4519 63.7205 27.8226 63.8997 27.1806 63.8985ZM26.7847 62.2908C27.2593 62.3945 27.7557 62.3083 28.1676 62.0508C28.8524 61.6351 29.6401 61.4197 30.4412 61.4292H32.4439V59.4874H30.4412C29.6396 59.4962 28.8514 59.2805 28.1658 58.8649C27.9336 58.7218 27.673 58.631 27.4021 58.599C27.1312 58.567 26.8565 58.5946 26.5974 58.6797C26.3382 58.7649 26.1008 58.9056 25.9016 59.0921C25.7025 59.2785 25.5465 59.5062 25.4445 59.7592C25.3425 60.0122 25.297 60.2844 25.3111 60.5569C25.3253 60.8293 25.3987 61.0953 25.5263 61.3364C25.654 61.5775 25.8327 61.7879 26.0501 61.9527C26.2674 62.1175 26.5181 62.2329 26.7847 62.2908Z" fill="url(#paint5_linear_296_297)"></path> <path d="M67.2163 46.3174H62.7617C62.5539 46.3174 62.3545 46.2348 62.2076 46.0879C62.0606 45.9409 61.978 45.7415 61.978 45.5337C61.978 45.3258 62.0606 45.1265 62.2076 44.9795C62.3545 44.8326 62.5539 44.75 62.7617 44.75H67.2163C67.4241 44.75 67.6235 44.8326 67.7704 44.9795C67.9174 45.1265 68 45.3258 68 45.5337C68 45.7415 67.9174 45.9409 67.7704 46.0879C67.6235 46.2348 67.4241 46.3174 67.2163 46.3174Z" fill="url(#paint6_linear_296_297)"></path> <path d="M62.7622 42.1658C62.5829 42.1656 62.4091 42.1039 62.2697 41.9911C62.1303 41.8782 62.0338 41.721 61.9963 41.5457C61.9588 41.3703 61.9826 41.1874 62.0636 41.0274C62.1446 40.8674 62.278 40.74 62.4416 40.6665L66.5079 38.8465C66.602 38.8045 66.7034 38.7814 66.8064 38.7786C66.9094 38.7758 67.012 38.7933 67.1082 38.8301C67.2045 38.867 67.2925 38.9224 67.3674 38.9932C67.4422 39.0641 67.5023 39.149 67.5444 39.2431C67.5864 39.3372 67.6095 39.4386 67.6123 39.5416C67.6151 39.6446 67.5976 39.7472 67.5608 39.8434C67.5239 39.9397 67.4685 40.0277 67.3977 40.1026C67.3268 40.1774 67.2419 40.2375 67.1478 40.2796L63.082 42.0995C62.9813 42.1439 62.8723 42.1665 62.7622 42.1658Z" fill="url(#paint7_linear_296_297)"></path> <path d="M66.8272 52.293C66.7171 52.2929 66.6083 52.2696 66.5079 52.2244L62.4416 50.4045C62.2519 50.3195 62.1037 50.1627 62.0295 49.9685C61.9554 49.7743 61.9615 49.5586 62.0464 49.3689C62.1313 49.1791 62.2882 49.0309 62.4824 48.9568C62.6766 48.8827 62.8923 48.8887 63.082 48.9737L67.1478 50.7936C67.3118 50.8668 67.4457 50.9941 67.5271 51.1543C67.6084 51.3144 67.6323 51.4975 67.5948 51.6732C67.5572 51.8488 67.4605 52.0062 67.3207 52.119C67.181 52.2318 67.0068 52.2932 66.8272 52.293Z" fill="url(#paint8_linear_296_297)"></path> <path d="M21.2382 46.3213H16.7837C16.5758 46.3213 16.3765 46.2387 16.2295 46.0918C16.0826 45.9448 16 45.7455 16 45.5376C16 45.3298 16.0826 45.1304 16.2295 44.9834C16.3765 44.8365 16.5758 44.7539 16.7837 44.7539H21.2382C21.4461 44.7539 21.6454 44.8365 21.7924 44.9834C21.9394 45.1304 22.0219 45.3298 22.0219 45.5376C22.0219 45.7455 21.9394 45.9448 21.7924 46.0918C21.6454 46.2387 21.4461 46.3213 21.2382 46.3213Z" fill="url(#paint9_linear_296_297)"></path> <path d="M17.1726 52.293C16.993 52.2932 16.8188 52.2318 16.679 52.119C16.5393 52.0062 16.4426 51.8488 16.405 51.6732C16.3675 51.4975 16.3914 51.3144 16.4727 51.1543C16.5541 50.9941 16.6879 50.8668 16.8519 50.7936L20.9178 48.9737C21.1075 48.8887 21.3232 48.8827 21.5174 48.9568C21.7116 49.0309 21.8684 49.1791 21.9534 49.3689C22.0383 49.5586 22.0444 49.7743 21.9702 49.9685C21.8961 50.1627 21.7479 50.3195 21.5582 50.4045L17.4919 52.2244C17.3915 52.2696 17.2827 52.2929 17.1726 52.293Z" fill="url(#paint10_linear_296_297)"></path> <path d="M21.2376 42.1651C21.1274 42.1651 21.0184 42.1417 20.9179 42.0965L16.8521 40.2766C16.6731 40.1852 16.5361 40.0285 16.4693 39.839C16.4026 39.6495 16.4111 39.4416 16.4933 39.2582C16.5754 39.0749 16.7249 38.93 16.9107 38.8537C17.0966 38.7774 17.3047 38.7753 17.492 38.848L21.5583 40.668C21.7218 40.7415 21.8553 40.8689 21.9363 41.0289C22.0173 41.1889 22.041 41.3718 22.0035 41.5471C21.966 41.7225 21.8695 41.8797 21.7302 41.9926C21.5908 42.1054 21.417 42.1671 21.2376 42.1673V42.1651Z" fill="url(#paint11_linear_296_297)"></path> <path d="M48.9332 37.2154H35.0658C34.3707 37.2147 33.7042 36.9384 33.2125 36.447C32.7208 35.9557 32.4441 35.2894 32.4429 34.5943V26.6229C32.4436 25.9275 32.7202 25.2608 33.2119 24.769C33.7036 24.2773 34.3704 24.0007 35.0658 24H48.9332C49.6287 24.0007 50.2954 24.2773 50.7871 24.769C51.2789 25.2608 51.5555 25.9275 51.5562 26.6229V34.5943C51.555 35.2894 51.2782 35.9557 50.7865 36.447C50.2948 36.9384 49.6284 37.2147 48.9332 37.2154ZM35.0658 25.5678C34.786 25.5681 34.5177 25.6793 34.3198 25.8771C34.122 26.0749 34.0106 26.3431 34.0103 26.6229V34.5943C34.0105 34.8741 34.1218 35.1425 34.3197 35.3404C34.5176 35.5383 34.7859 35.6496 35.0658 35.6498H48.9332C49.2131 35.6496 49.4815 35.5383 49.6794 35.3404C49.8773 35.1425 49.9885 34.8741 49.9888 34.5943V26.6229C49.9885 26.3431 49.8773 26.0747 49.6794 25.8768C49.4815 25.6789 49.2131 25.5676 48.9332 25.5674L35.0658 25.5678Z" fill="white"></path> <path d="M45.0452 41.6698H38.9548C38.385 41.6687 37.8388 41.4419 37.4359 41.039C37.0331 40.6361 36.8062 40.09 36.8052 39.5202V36.4302C36.8052 36.2223 36.8877 36.023 37.0347 35.876C37.1817 35.7291 37.381 35.6465 37.5889 35.6465H46.4111C46.6189 35.6465 46.8183 35.7291 46.9652 35.876C47.1122 36.023 47.1948 36.2223 47.1948 36.4302V39.5162C47.1948 40.0866 46.9684 40.6338 46.5654 41.0376C46.1624 41.4413 45.6157 41.6687 45.0452 41.6698ZM38.3726 37.2152V39.5175C38.3726 39.6719 38.4339 39.82 38.5431 39.9292C38.6523 40.0383 38.8003 40.0997 38.9548 40.0997H45.0452C45.1996 40.0997 45.3477 40.0383 45.4569 39.9292C45.5661 39.82 45.6274 39.6719 45.6274 39.5175V37.2152H38.3726Z" fill="white"></path> <path d="M48.9279 52.1388H34.5706C34.0068 52.1381 33.4662 51.9138 33.0675 51.5151C32.6689 51.1164 32.4446 50.5759 32.4438 50.0121V41.0555C32.4438 40.491 32.6678 39.9495 33.0665 39.5499C33.4652 39.1503 34.0061 38.9251 34.5706 38.9238H37.5885C37.7963 38.9238 37.9957 39.0064 38.1427 39.1534C38.2896 39.3003 38.3722 39.4997 38.3722 39.7075C38.3722 39.9154 38.2896 40.1147 38.1427 40.2617C37.9957 40.4087 37.7963 40.4912 37.5885 40.4912H34.5706C34.4216 40.4921 34.2791 40.5519 34.1742 40.6577C34.0694 40.7635 34.0108 40.9065 34.0112 41.0555V50.0121C34.0115 50.1603 34.0705 50.3025 34.1753 50.4073C34.2802 50.5121 34.4223 50.5712 34.5706 50.5714H48.9279C49.2096 50.571 49.4795 50.459 49.6787 50.2599C49.8778 50.0607 49.9898 49.7908 49.9902 49.5091V41.5553C49.99 41.2736 49.878 41.0035 49.6788 40.8042C49.4797 40.605 49.2096 40.4929 48.9279 40.4926H46.4129C46.2051 40.4926 46.0058 40.41 45.8588 40.263C45.7118 40.1161 45.6292 39.9167 45.6292 39.7089C45.6292 39.501 45.7118 39.3017 45.8588 39.1547C46.0058 39.0077 46.2051 38.9252 46.4129 38.9252H48.9279C49.6252 38.926 50.2936 39.2034 50.7866 39.6965C51.2796 40.1895 51.5569 40.858 51.5576 41.5553V49.5091C51.5569 50.2063 51.2796 50.8748 50.7866 51.3678C50.2936 51.8608 49.6252 52.1381 48.9279 52.1388Z" fill="white"></path> <path d="M45.0452 56.5948H38.9548C38.3849 56.5939 37.8387 56.3671 37.4358 55.9642C37.0329 55.5613 36.8061 55.0151 36.8052 54.4452V51.3579C36.8052 51.1501 36.8877 50.9507 37.0347 50.8038C37.1817 50.6568 37.381 50.5742 37.5889 50.5742H46.4111C46.6189 50.5742 46.8183 50.6568 46.9652 50.8038C47.1122 50.9507 47.1948 51.1501 47.1948 51.3579V54.4439C47.1942 55.0139 46.9676 55.5605 46.5646 55.9637C46.1617 56.3669 45.6153 56.5939 45.0452 56.5948ZM38.3726 52.1416V54.4439C38.3726 54.5983 38.4339 54.7464 38.5431 54.8556C38.6523 54.9647 38.8003 55.0261 38.9548 55.0261H45.0452C45.1996 55.0261 45.3477 54.9647 45.4569 54.8556C45.5661 54.7464 45.6274 54.5983 45.6274 54.4439V52.1416H38.3726Z" fill="white"></path> <path d="M48.9279 67.0642H34.5706C34.0068 67.0635 33.4662 66.8392 33.0675 66.4405C32.6689 66.0418 32.4446 65.5013 32.4438 64.9375V55.9809C32.4442 55.4166 32.6683 54.8755 33.0669 54.4762C33.4656 54.0769 34.0063 53.8519 34.5706 53.8506H37.5885C37.7963 53.8506 37.9957 53.9332 38.1427 54.0801C38.2896 54.2271 38.3722 54.4264 38.3722 54.6343C38.3722 54.8421 38.2896 55.0415 38.1427 55.1884C37.9957 55.3354 37.7963 55.418 37.5885 55.418H34.5706C34.4217 55.4188 34.2793 55.4786 34.1744 55.5843C34.0696 55.69 34.0109 55.8329 34.0112 55.9818V64.9384C34.0115 65.0866 34.0705 65.2288 34.1753 65.3336C34.2802 65.4385 34.4223 65.4975 34.5706 65.4977H48.9279C49.2096 65.4973 49.4795 65.3853 49.6787 65.1862C49.8778 64.987 49.9898 64.7171 49.9902 64.4354V56.4807C49.99 56.199 49.878 55.9289 49.6788 55.7297C49.4797 55.5304 49.2096 55.4183 48.9279 55.418H46.4129C46.2051 55.418 46.0058 55.3354 45.8588 55.1884C45.7118 55.0415 45.6292 54.8421 45.6292 54.6343C45.6292 54.4264 45.7118 54.2271 45.8588 54.0801C46.0058 53.9332 46.2051 53.8506 46.4129 53.8506H48.9279C49.6252 53.8513 50.2936 54.1286 50.7866 54.6216C51.2796 55.1146 51.5569 55.783 51.5576 56.4802V64.4341C51.557 65.1314 51.2798 65.8 50.7868 66.2931C50.2937 66.7861 49.6252 67.0635 48.9279 67.0642Z" fill="white"></path> <path d="M45.0452 71.5202H38.9548C38.385 71.5192 37.8388 71.2924 37.4359 70.8895C37.0331 70.4866 36.8062 69.9404 36.8052 69.3707V66.2847C36.8053 66.0769 36.8879 65.8776 37.0348 65.7306C37.1818 65.5837 37.3811 65.5011 37.5889 65.501H46.4111C46.6189 65.5011 46.8182 65.5837 46.9651 65.7306C47.1121 65.8776 47.1947 66.0769 47.1948 66.2847V69.3707C47.1937 69.9404 46.9669 70.4866 46.564 70.8895C46.1611 71.2924 45.615 71.5192 45.0452 71.5202ZM38.3726 67.0666V69.3689C38.3726 69.5233 38.4339 69.6714 38.5431 69.7805C38.6523 69.8897 38.8003 69.951 38.9548 69.951H45.0452C45.1996 69.951 45.3477 69.8897 45.4569 69.7805C45.5661 69.6714 45.6274 69.5233 45.6274 69.3689V67.0666H38.3726Z" fill="white"></path> <defs> <linearGradient id="paint0_linear_296_297" x1="55.1238" y1="27.166" x2="55.1238" y2="34.0485" gradientUnits="userSpaceOnUse"> <stop stop-color="white"></stop> <stop offset="1" stop-color="white" stop-opacity="0.84"></stop> </linearGradient> <linearGradient id="paint1_linear_296_297" x1="26.3182" y1="27.439" x2="33.77" y2="32.0248" gradientUnits="userSpaceOnUse"> <stop stop-color="white"></stop> <stop offset="0.575288" stop-color="white"></stop> </linearGradient> <linearGradient id="paint2_linear_296_297" x1="55.1231" y1="42.0947" x2="50.9662" y2="45.7826" gradientUnits="userSpaceOnUse"> <stop stop-color="white"></stop> <stop offset="1" stop-color="white" stop-opacity="0.88"></stop> </linearGradient> <linearGradient id="paint3_linear_296_297" x1="24.0248" y1="48.648" x2="31.4767" y2="46.9283" gradientUnits="userSpaceOnUse"> <stop stop-color="white"></stop> <stop offset="1" stop-color="white" stop-opacity="0.85"></stop> </linearGradient> <linearGradient id="paint4_linear_296_297" x1="57.8448" y1="64.698" x2="52.6858" y2="61.2587" gradientUnits="userSpaceOnUse"> <stop stop-color="white"></stop> <stop offset="1" stop-color="white" stop-opacity="0.9"></stop> </linearGradient> <linearGradient id="paint5_linear_296_297" x1="25.1718" y1="63.5514" x2="32.6237" y2="57.246" gradientUnits="userSpaceOnUse"> <stop stop-color="white"></stop> <stop offset="1" stop-color="white"></stop> <stop offset="1" stop-color="white" stop-opacity="0.9"></stop> </linearGradient> <linearGradient id="paint6_linear_296_297" x1="64.989" y1="44.75" x2="64.989" y2="46.3174" gradientUnits="userSpaceOnUse"> <stop stop-color="white"></stop> <stop offset="1" stop-color="white"></stop> </linearGradient> <linearGradient id="paint7_linear_296_297" x1="64.7958" y1="38.7783" x2="64.7958" y2="42.1658" gradientUnits="userSpaceOnUse"> <stop stop-color="white"></stop> <stop offset="1" stop-color="white"></stop> </linearGradient> <linearGradient id="paint8_linear_296_297" x1="64.7951" y1="48.9053" x2="64.7951" y2="52.293" gradientUnits="userSpaceOnUse"> <stop stop-color="white"></stop> <stop offset="1" stop-color="white"></stop> </linearGradient> <linearGradient id="paint9_linear_296_297" x1="19.011" y1="44.7539" x2="19.011" y2="46.3213" gradientUnits="userSpaceOnUse"> <stop stop-color="white"></stop> <stop offset="0.911483" stop-color="white"></stop> </linearGradient> <linearGradient id="paint10_linear_296_297" x1="19.2047" y1="48.9053" x2="19.2047" y2="52.293" gradientUnits="userSpaceOnUse"> <stop stop-color="white"></stop> <stop offset="0.911483" stop-color="white"></stop> </linearGradient> <linearGradient id="paint11_linear_296_297" x1="19.2228" y1="38.7949" x2="19.2228" y2="42.1673" gradientUnits="userSpaceOnUse"> <stop stop-color="white"></stop> <stop offset="0.911483" stop-color="white"></stop> </linearGradient> </defs> </svg> 