<?xml version="1.0" encoding="UTF-8"?> <svg xmlns="http://www.w3.org/2000/svg" width="91" height="106" viewBox="0 0 91 106" fill="none"><path d="M0 32.0192C0 28.4449 1.90765 25.1425 5.00382 23.3567L40.5038 2.88162C43.5959 1.09822 47.4041 1.09822 50.4962 2.88161L85.9962 23.3567C89.0923 25.1425 91 28.4449 91 32.0192V73.0632C91 76.5775 89.1553 79.8338 86.1411 81.6405L50.6411 102.919C47.4762 104.816 43.5238 104.816 40.3589 102.919L4.85895 81.6405C1.84468 79.8338 0 76.5775 0 73.0632V32.0192Z" fill="#1C4F4A"></path><path d="M37.8249 61.3436C30.846 58.1635 26.6077 51.1473 27.0287 43.4678C27.533 34.2638 35.1293 26.6066 44.3233 26.0366C49.4881 25.7175 54.4077 27.4863 58.1667 31.0205C61.8742 34.5058 64 39.4225 64 44.5079C64 51.73 59.755 58.3372 53.1844 61.3408C52.9222 61.4609 52.6999 61.6536 52.5438 61.8962C52.3876 62.1387 52.3043 62.421 52.3035 62.7095V64.5753H53.5495C54.0226 64.5758 54.4762 64.764 54.8107 65.0986C55.1453 65.4332 55.3335 65.8869 55.3341 66.3602V67.3181H56.4104C56.5575 67.3181 56.6986 67.3766 56.8026 67.4807C56.9067 67.5848 56.9651 67.7259 56.9651 67.8731C56.9651 68.0203 56.9067 68.1615 56.8026 68.2656C56.6986 68.3696 56.5575 68.4281 56.4104 68.4281H55.3341V70.1231H56.4104C56.5575 70.1231 56.6986 70.1815 56.8026 70.2856C56.9067 70.3897 56.9651 70.5309 56.9651 70.6781C56.9651 70.8252 56.9067 70.9664 56.8026 71.0705C56.6986 71.1746 56.5575 71.233 56.4104 71.233H55.3341V71.4062C55.3341 74.3332 52.9808 76.7164 50.0678 76.7713V77.626C50.0675 78.0645 49.8933 78.4849 49.5835 78.795C49.2736 79.105 48.8535 79.2795 48.4152 79.2799H42.5858C42.1475 79.2795 41.7272 79.1051 41.4173 78.795C41.1074 78.4849 40.9331 78.0645 40.9326 77.626V76.7713C38.0201 76.7158 35.6669 74.3327 35.6669 71.4062V71.233H34.5906C34.4435 71.233 34.3024 71.1746 34.1983 71.0705C34.0943 70.9664 34.0359 70.8252 34.0359 70.6781C34.0359 70.5309 34.0943 70.3897 34.1983 70.2856C34.3024 70.1815 34.4435 70.1231 34.5906 70.1231H35.6669V68.4281H34.5906C34.4435 68.4281 34.3024 68.3696 34.1983 68.2656C34.0943 68.1615 34.0359 68.0203 34.0359 67.8731C34.0359 67.7259 34.0943 67.5848 34.1983 67.4807C34.3024 67.3766 34.4435 67.3181 34.5906 67.3181H35.6669V66.3602C35.6674 65.8869 35.8557 65.4332 36.1902 65.0986C36.5248 64.764 36.9784 64.5758 37.4515 64.5753H38.7036V62.7106C38.7036 62.1234 38.358 61.5862 37.8249 61.3436ZM42.0416 77.6255C42.0416 77.6969 42.0556 77.7676 42.083 77.8336C42.1103 77.8996 42.1503 77.9595 42.2008 78.0101C42.2513 78.0606 42.3112 78.1006 42.3772 78.1279C42.4431 78.1553 42.5138 78.1694 42.5852 78.1694H48.4146C48.5587 78.1692 48.6969 78.1118 48.7987 78.0099C48.9005 77.9079 48.9577 77.7696 48.9577 77.6255V76.7763H42.0416V77.6255ZM37.451 65.6848C37.0787 65.6848 36.7758 65.9873 36.7758 66.3597V71.4057C36.7758 73.7549 38.6858 75.6658 41.0347 75.6658H49.9652C52.314 75.6658 54.2241 73.7549 54.2241 71.4057V66.3597C54.2241 65.9878 53.9212 65.6848 53.5489 65.6848H37.451ZM39.812 62.71V64.5748H43.1283V59.2285L41.1617 55.7859C40.4068 55.7646 39.679 55.4992 39.0875 55.0293C38.4961 54.5594 38.0727 53.9105 37.8809 53.1797C35.8838 53.2685 34.1768 51.6435 34.2095 49.5989C34.213 49.2588 34.2648 48.921 34.3632 48.5954C32.5619 47.9128 31.3275 46.1401 31.3519 44.1583C31.3614 43.4665 31.5244 42.7855 31.8291 42.1645C32.1338 41.5435 32.5726 40.998 33.1139 40.5675C32.2063 37.5594 34.7881 34.8222 37.7084 35.3117C37.7406 34.405 38.1238 33.5464 38.7771 32.9172C39.4304 32.2879 40.3026 31.9374 41.2094 31.9395H41.2555C43.1894 31.9712 44.7321 33.5623 44.7005 35.4882C44.6905 36.2502 44.7072 39.6917 44.7238 43.3346C44.7421 47.3395 44.761 51.4803 44.7477 52.3366C44.738 53.0657 44.5012 53.7736 44.0702 54.3616C43.6392 54.9495 43.0355 55.3883 42.3434 55.6166L44.1646 58.8056C44.2123 58.8889 44.2379 58.9843 44.2379 59.0809V64.5748H46.762V59.0809C46.7619 58.9843 46.7872 58.8894 46.8352 58.8056L48.6565 55.6166C47.9647 55.3885 47.3612 54.9501 46.9302 54.3625C46.4992 53.775 46.2622 53.0676 46.2522 52.3389C46.2383 51.4842 46.2577 47.3694 46.276 43.3896C46.2927 39.72 46.3082 36.2546 46.2982 35.4904C46.2677 33.564 47.8133 31.9717 49.7466 31.9401C51.5451 31.8879 53.2216 33.3359 53.2915 35.3117C55.7302 34.9037 58.0319 36.7719 58.0713 39.2926C58.0747 39.7246 58.012 40.1545 57.8855 40.5675C58.4268 40.9979 58.8656 41.5434 59.1703 42.1645C59.4749 42.7855 59.6377 43.4665 59.6468 44.1583C59.6723 46.1396 58.4386 47.9133 56.6367 48.5954C56.9995 49.7909 56.7332 51.1462 55.7918 52.1124C55.0651 52.8583 54.0637 53.2257 53.1179 53.1797C52.9263 53.9105 52.5031 54.5596 51.9117 55.0295C51.3203 55.4994 50.5925 55.7648 49.8376 55.7859L47.8715 59.2285V64.5748H51.1945V62.7089C51.1955 62.2077 51.34 61.7173 51.611 61.2957C51.882 60.8741 52.268 60.5391 52.7234 60.3302C58.9001 57.507 62.8905 51.296 62.8905 44.5073C62.8905 39.6567 60.9433 35.1535 57.4067 31.8285C53.874 28.5063 49.2518 26.843 44.3921 27.1444C35.7506 27.6794 28.6103 34.8766 28.136 43.5278C27.741 50.7477 31.7242 57.3438 38.2848 60.333C38.74 60.5416 39.1259 60.8764 39.3966 61.2979C39.6673 61.7193 39.8115 62.2096 39.812 62.7106V62.71ZM36.2682 44.1344C36.925 44.1488 37.4371 43.6127 37.446 42.9889C37.446 42.9839 37.4487 42.98 37.4487 42.9756C37.4232 42.7713 37.4066 42.5649 37.4099 42.3562C37.4138 42.0498 37.6496 41.7912 37.9719 41.809C38.0447 41.81 38.1167 41.8253 38.1836 41.8542C38.2505 41.883 38.3111 41.9247 38.3619 41.977C38.4127 42.0293 38.4527 42.091 38.4796 42.1587C38.5066 42.2265 38.5199 42.2989 38.5189 42.3717C38.4822 45.0113 41.387 46.643 43.6226 45.1939L43.6143 43.3402C43.6071 41.774 43.5999 40.2478 43.5949 38.9519C42.2674 39.1794 41.2427 40.3233 41.2228 41.7185C41.2207 41.8644 41.1614 42.0035 41.0575 42.1059C40.9537 42.2083 40.8138 42.2657 40.668 42.2657H40.6608C40.5879 42.2648 40.5159 42.2495 40.4489 42.2207C40.3819 42.1919 40.3213 42.1502 40.2704 42.0979C40.2196 42.0456 40.1795 41.9838 40.1525 41.9161C40.1256 41.8483 40.1122 41.7759 40.1132 41.703C40.1177 41.4743 40.1422 41.2464 40.1865 41.022C39.4226 41.1058 38.7829 40.835 38.328 40.3654C38.2322 40.2588 38.1813 40.1191 38.1861 39.9757C38.1909 39.8323 38.2511 39.6964 38.3539 39.5964C38.4567 39.4964 38.5942 39.4402 38.7376 39.4394C38.881 39.4386 39.0191 39.4934 39.123 39.5923C39.5346 40.0152 40.2514 40.0818 40.7318 39.6145C40.744 39.6023 40.7595 39.5979 40.7728 39.5879C41.0901 39.1109 41.5057 38.7073 41.9918 38.4043C42.4779 38.1013 43.0232 37.906 43.591 37.8313C43.5877 36.6692 43.5866 35.8123 43.591 35.4726C43.6126 34.1445 42.5458 33.0712 41.2388 33.0501H41.2078C40.5821 33.0481 39.9807 33.2923 39.5334 33.7301C39.0862 34.1679 38.829 34.7641 38.8173 35.3899C38.8173 35.3944 38.8201 35.3977 38.8195 35.4021C38.8114 35.8957 38.9572 36.3795 39.2367 36.7863C39.2802 36.8462 39.3113 36.9143 39.328 36.9865C39.3448 37.0586 39.347 37.1334 39.3344 37.2065C39.3218 37.2795 39.2948 37.3492 39.2548 37.4116C39.2149 37.474 39.1629 37.5278 39.1018 37.5697C39.0408 37.6116 38.9719 37.6409 38.8994 37.6559C38.8269 37.6708 38.7521 37.671 38.6794 37.6566C38.6068 37.6421 38.5378 37.6132 38.4765 37.5717C38.4152 37.5301 38.3628 37.4767 38.3225 37.4145C38.1289 37.1332 37.9841 36.8274 37.8814 36.5077C35.8666 35.8289 33.6248 37.6643 34.1052 39.9647C34.7325 39.6787 35.4153 39.5352 36.1046 39.5446C36.2517 39.5456 36.3924 39.6051 36.4957 39.7099C36.599 39.8147 36.6565 39.9563 36.6554 40.1035C36.6544 40.2507 36.595 40.3914 36.4902 40.4948C36.3854 40.5981 36.2439 40.6556 36.0968 40.6546H36.0896C34.1069 40.6313 32.4864 42.2308 32.4615 44.1727C32.4539 44.9234 32.6831 45.6573 33.1166 46.2701C33.55 46.8829 34.1656 47.3433 34.8758 47.5859C35.2049 47.1229 35.6406 46.7459 36.1462 46.487C36.2773 46.4215 36.429 46.4105 36.5682 46.4565C36.7074 46.5025 36.8227 46.6018 36.889 46.7326C36.9552 46.8634 36.967 47.0152 36.9218 47.1547C36.8766 47.2942 36.778 47.4101 36.6477 47.4771C35.825 47.8934 35.3318 48.6792 35.319 49.615C35.3138 49.939 35.3737 50.2608 35.4953 50.5612C35.6169 50.8616 35.7976 51.1345 36.0267 51.3636C36.2558 51.5927 36.5287 51.7734 36.829 51.8949C37.1293 52.0164 37.451 52.0762 37.7749 52.0708C37.8105 51.5006 37.9855 50.9479 38.2848 50.4613C37.8916 50.2303 37.5771 49.8861 37.3822 49.4738C37.1872 49.0614 37.1209 48.5998 37.1919 48.1492C37.2028 48.0769 37.228 48.0075 37.266 47.9451C37.304 47.8827 37.354 47.8284 37.4132 47.7856C37.4724 47.7427 37.5395 47.712 37.6107 47.6954C37.6818 47.6787 37.7556 47.6764 37.8276 47.6886C37.9729 47.7118 38.1031 47.7917 38.1894 47.9109C38.2758 48.0301 38.3113 48.1787 38.2881 48.324C38.246 48.5891 38.2968 48.8606 38.4318 49.0925C38.5669 49.3245 38.778 49.5026 39.0292 49.5966C39.6652 49.0583 40.4764 48.7718 41.3093 48.7913C41.6161 48.7952 41.8613 49.0472 41.8568 49.3541C41.8524 49.661 41.6216 49.8919 41.2943 49.9013C39.9196 49.878 38.6736 51.0968 38.9122 52.6535C39.0941 53.8035 40.0616 54.6665 41.2316 54.6815C42.5253 54.7053 43.6221 53.6398 43.6382 52.3205C43.6482 51.6962 43.6404 49.2803 43.6282 46.4509C41.4535 47.4288 39.0181 46.5186 37.9386 44.5168C37.4648 45.0229 36.8845 45.2444 36.2854 45.2444H36.2527C36.1798 45.2434 36.1079 45.228 36.041 45.1992C35.974 45.1703 35.9135 45.1286 35.8627 45.0763C35.8119 45.0241 35.7719 44.9623 35.7449 44.8946C35.718 44.8269 35.7047 44.7545 35.7057 44.6816C35.7101 44.3747 35.9387 44.1144 36.2682 44.1344ZM49.69 48.7908C50.5212 48.7795 51.3292 49.0655 51.9684 49.5972C52.2201 49.5035 52.4316 49.3256 52.5671 49.0936C52.7026 48.8617 52.7537 48.59 52.7118 48.3246C52.6998 48.2524 52.7022 48.1786 52.7189 48.1073C52.7356 48.0361 52.7662 47.9688 52.8089 47.9095C52.8517 47.8501 52.9057 47.7998 52.968 47.7614C53.0302 47.723 53.0995 47.6973 53.1717 47.6858C53.2439 47.6742 53.3177 47.6771 53.3888 47.6942C53.4599 47.7113 53.527 47.7423 53.586 47.7855C53.6451 47.8286 53.6951 47.883 53.7331 47.9455C53.7711 48.008 53.7964 48.0774 53.8074 48.1498C53.8784 48.5999 53.8124 49.061 53.618 49.4732C53.4236 49.8853 53.1098 50.2294 52.7173 50.4608C53.0166 50.9474 53.1909 51.5005 53.2249 52.0708C53.5548 52.0761 53.8822 52.0139 54.1872 51.8879C54.4921 51.7619 54.768 51.5748 54.9979 51.3382C56.0925 50.2138 55.8745 48.2486 54.3522 47.4771C54.2872 47.4441 54.2294 47.3987 54.1819 47.3433C54.1345 47.288 54.0985 47.2238 54.0758 47.1545C54.0532 47.0853 54.0444 47.0122 54.05 46.9395C54.0556 46.8668 54.0754 46.7959 54.1084 46.7309C54.1414 46.6659 54.1868 46.608 54.2421 46.5606C54.2974 46.5132 54.3616 46.4771 54.4308 46.4544C54.5001 46.4318 54.5731 46.423 54.6458 46.4286C54.7184 46.4342 54.7893 46.454 54.8543 46.487C55.3597 46.7462 55.7952 47.1233 56.1241 47.5865C56.8342 47.3439 57.4497 46.8834 57.8829 46.2706C58.3162 45.6578 58.5452 44.9238 58.5373 44.1732C58.5234 43.0516 57.9753 42.0127 57.07 41.3494C56.4439 40.8855 55.6821 40.6416 54.9031 40.6557C54.7559 40.6567 54.6144 40.5992 54.5097 40.4959C54.4049 40.3925 54.3455 40.2518 54.3444 40.1046C54.3434 39.9574 54.4009 39.8158 54.5042 39.711C54.6075 39.6062 54.7482 39.5467 54.8953 39.5457C55.5846 39.535 56.2676 39.6782 56.8947 39.9647C56.9408 39.7492 56.9631 39.5292 56.9612 39.3087C56.9302 37.283 54.902 35.9083 53.1184 36.5082C53.0158 36.8279 52.871 37.1337 52.6774 37.4151C52.5941 37.5365 52.4661 37.6197 52.3214 37.6467C52.1767 37.6736 52.0273 37.6419 51.906 37.5586C51.7847 37.4752 51.7014 37.3471 51.6745 37.2024C51.6476 37.0577 51.6793 36.9082 51.7626 36.7868C52.8521 35.1996 51.6933 33.0146 49.7627 33.0506C48.4429 33.0717 47.3872 34.1584 47.4083 35.4748C47.4127 35.8134 47.4116 36.6675 47.4083 37.8269C47.9804 37.8982 48.5302 38.0935 49.0192 38.399C49.5082 38.7046 49.9247 39.1131 50.2398 39.5962C50.2487 39.604 50.2598 39.6068 50.2681 39.6145C50.7174 40.0519 51.4386 40.0424 51.8769 39.5923C51.9275 39.5392 51.9881 39.4966 52.0553 39.467C52.1224 39.4375 52.1948 39.4216 52.2681 39.4202C52.3415 39.4188 52.4144 39.4319 52.4826 39.4589C52.5508 39.4859 52.613 39.5262 52.6656 39.5774C52.7182 39.6286 52.7601 39.6897 52.7889 39.7572C52.8177 39.8247 52.8328 39.8973 52.8334 39.9707C52.8339 40.0441 52.82 40.1168 52.7922 40.1848C52.7645 40.2527 52.7236 40.3145 52.6718 40.3665C52.4626 40.582 52.2122 40.7531 51.9356 40.8698C51.6589 40.9865 51.3616 41.0464 51.0614 41.0459C50.9782 41.0459 50.8966 41.032 50.814 41.0225C50.8576 41.247 50.8817 41.4749 50.8861 41.7035C50.8871 41.7764 50.8738 41.8488 50.8468 41.9165C50.8199 41.9842 50.7799 42.046 50.7291 42.0983C50.6783 42.1505 50.6177 42.1923 50.5508 42.2211C50.4839 42.2499 50.4119 42.2653 50.3391 42.2663H50.3313C50.1855 42.2663 50.0456 42.2089 49.9418 42.1065C49.838 42.0041 49.7786 41.8649 49.7766 41.7191C49.7571 40.3238 48.7325 39.18 47.4044 38.9524C47.3965 41.0337 47.3875 43.1149 47.3772 45.1961C47.9264 45.553 48.56 45.7489 49.2102 45.7361C49.6458 45.7305 50.076 45.6391 50.4762 45.4669C50.8764 45.2948 51.2388 45.0454 51.5426 44.733C51.8463 44.4206 52.0855 44.0514 52.2465 43.6464C52.4074 43.2414 52.4869 42.8086 52.4805 42.3728C52.4794 42.2999 52.4927 42.2274 52.5196 42.1596C52.5465 42.0917 52.5866 42.0299 52.6374 41.9776C52.6883 41.9252 52.749 41.8835 52.816 41.8546C52.883 41.8258 52.9551 41.8105 53.028 41.8095H53.0352C53.181 41.8095 53.3209 41.8669 53.4248 41.9693C53.5286 42.0717 53.5879 42.2109 53.59 42.3568C53.5933 42.566 53.5767 42.7719 53.5511 42.9761C53.5511 42.9806 53.5539 42.9844 53.5539 42.9894C53.5583 43.2947 53.6825 43.5859 53.8998 43.8003C54.117 44.0146 54.4099 44.1348 54.715 44.1349H54.7394C54.8866 44.134 55.028 44.1915 55.1328 44.295C55.2375 44.3984 55.2968 44.5391 55.2978 44.6863C55.2987 44.8335 55.2412 44.9751 55.1379 45.0798C55.0345 45.1846 54.8938 45.244 54.7466 45.2449H54.7145C54.122 45.2449 53.5378 45.0274 53.0613 44.5173C52.6838 45.223 52.1214 45.8126 51.4345 46.223C50.7475 46.6333 49.962 46.8489 49.1619 46.8466C48.5438 46.8434 47.9336 46.7085 47.3717 46.4509C47.3595 49.2781 47.3517 51.6973 47.3617 52.3228C47.3783 53.6303 48.4413 54.682 49.7377 54.682H49.7682C51.8564 54.6554 52.9387 52.0702 51.4042 50.5773C50.9471 50.1328 50.3563 49.8808 49.705 49.9019C49.3855 49.8897 49.1475 49.6605 49.143 49.3547C49.142 49.2818 49.1553 49.2094 49.1823 49.1417C49.2092 49.0739 49.2492 49.0122 49.3 48.9599C49.3508 48.9077 49.4114 48.8659 49.4783 48.8371C49.5452 48.8083 49.6172 48.7929 49.69 48.7919V48.7908Z" fill="white"></path><path d="M45.2921 67.4396H48.4189C48.56 67.4396 48.6953 67.4786 48.7951 67.548C48.8948 67.6174 48.9509 67.7115 48.9509 67.8096C48.9509 67.9077 48.8948 68.0018 48.7951 68.0712C48.6953 68.1406 48.56 68.1796 48.4189 68.1796H45.2921C45.151 68.1796 45.0157 68.1406 44.916 68.0712C44.8162 68.0018 44.7602 67.9077 44.7602 67.8096C44.7602 67.7115 44.8162 67.6174 44.916 67.548C45.0157 67.4786 45.151 67.4396 45.2921 67.4396ZM50.3313 67.4396H50.8882C51.0293 67.4396 51.1646 67.4786 51.2644 67.548C51.3641 67.6174 51.4202 67.7115 51.4202 67.8096C51.4202 67.9077 51.3641 68.0018 51.2644 68.0712C51.1646 68.1406 51.0293 68.1796 50.8882 68.1796H50.3313C50.1902 68.1796 50.0549 68.1406 49.9551 68.0712C49.8554 68.0018 49.7993 67.9077 49.7993 67.8096C49.7993 67.7115 49.8554 67.6174 49.9551 67.548C50.0549 67.4786 50.1902 67.4396 50.3313 67.4396Z" fill="white"></path></svg> 