<?xml version="1.0" encoding="UTF-8"?> <svg xmlns="http://www.w3.org/2000/svg" width="550" height="650" viewBox="0 0 550 650" fill="none"><path fill-rule="evenodd" clip-rule="evenodd" d="M441.667 0C381.837 0 333.333 48.5023 333.333 108.333C333.333 114.864 333.91 121.259 335.02 127.471L177.33 237.853C176.529 238.413 175.771 239.013 175.056 239.646C156.664 225.249 133.501 216.667 108.333 216.667C48.5023 216.667 0 265.17 0 325C0 384.83 48.5023 433.333 108.333 433.333C133.501 433.333 156.664 424.75 175.056 410.353C175.771 410.987 176.529 411.587 177.33 412.147L335.02 522.53C333.91 528.74 333.333 535.137 333.333 541.667C333.333 601.497 381.837 650 441.667 650C501.497 650 550 601.497 550 541.667C550 481.837 501.497 433.333 441.667 433.333C406.573 433.333 375.377 450.02 355.58 475.89L206.269 371.37C212.936 357.313 216.667 341.593 216.667 325C216.667 308.407 212.936 292.687 206.269 278.63L355.58 174.11C375.377 199.981 406.573 216.667 441.667 216.667C501.497 216.667 550 168.164 550 108.333C550 48.5023 501.497 0 441.667 0ZM383.333 108.333C383.333 76.1167 409.45 50 441.667 50C473.883 50 500 76.1167 500 108.333C500 140.55 473.883 166.667 441.667 166.667C409.45 166.667 383.333 140.55 383.333 108.333ZM108.333 266.667C76.1167 266.667 50 292.783 50 325C50 357.217 76.1167 383.333 108.333 383.333C140.55 383.333 166.667 357.217 166.667 325C166.667 292.783 140.55 266.667 108.333 266.667ZM441.667 483.333C409.45 483.333 383.333 509.45 383.333 541.667C383.333 573.883 409.45 600 441.667 600C473.883 600 500 573.883 500 541.667C500 509.45 473.883 483.333 441.667 483.333Z" fill="#905A2B"></path></svg> 