<?xml version="1.0" encoding="UTF-8"?> <svg xmlns="http://www.w3.org/2000/svg" width="15" height="15" viewBox="0 0 15 15" fill="none"><path opacity="0.8" d="M14.4315 13.5808L10.3978 9.36275C12.239 7.09688 12.0657 3.7622 9.96452 1.68871C8.85976 0.598532 7.40841 0 5.84874 0C4.28908 0 2.81606 0.598532 1.7113 1.68871C0.606536 2.7789 0 4.2111 0 5.77156C0 7.33202 0.606536 8.76422 1.7113 9.8544C2.81606 10.9232 4.26742 11.5431 5.84874 11.5431C7.17012 11.5431 8.46985 11.0942 9.48796 10.2819L13.5 14.5C13.63 14.6283 13.7816 14.6924 13.9549 14.6924C14.1282 14.6924 14.3015 14.6283 14.4098 14.5C14.6697 14.2435 14.6697 13.8373 14.4315 13.5808ZM10.3978 5.77156C10.3978 6.96862 9.9212 8.10156 9.05472 8.93523C8.18824 9.7689 7.06181 10.2605 5.84874 10.2605C4.63567 10.2605 3.48758 9.79027 2.64277 8.93523C1.79795 8.08018 1.29972 6.96862 1.29972 5.77156C1.29972 4.57449 1.77628 3.44156 2.64277 2.60789C3.50925 1.77422 4.61401 1.28257 5.84874 1.28257C7.06181 1.28257 8.2099 1.75284 9.05472 2.60789C9.89954 3.46293 10.3978 4.55312 10.3978 5.77156Z" fill="#1C4F4A"></path></svg> 