<?xml version="1.0" encoding="UTF-8"?> <svg xmlns="http://www.w3.org/2000/svg" width="84" height="83" viewBox="0 0 84 83" fill="none"> <path d="M83.9473 34.4724C83.8092 33.834 83.4548 33.2616 82.9428 32.8502C82.4309 32.4388 81.7922 32.2132 81.1329 32.2107C80.9295 32.2119 80.7267 32.2337 80.5278 32.2757L60.1472 36.5622L56.9294 37.2356C55.4774 37.5415 53.9748 37.5222 52.5312 37.1792C51.0877 36.8362 49.7399 36.1782 48.5862 35.2532C47.4326 34.3282 46.5023 33.1596 45.8634 31.8329C45.2244 30.5062 44.893 29.0549 44.8934 27.5851V2.97128C44.9091 2.58683 44.8461 2.2032 44.7083 1.84344C44.5705 1.48367 44.3607 1.15517 44.0915 0.877672C43.8223 0.600171 43.4993 0.379384 43.1418 0.228564C42.7842 0.0777434 42.3996 0 42.011 0C41.6224 0 41.2378 0.0777434 40.8803 0.228564C40.5228 0.379384 40.1997 0.600171 39.9305 0.877672C39.6613 1.15517 39.4515 1.48367 39.3137 1.84344C39.1759 2.2032 39.113 2.58683 39.1287 2.97128V27.5851C39.1303 29.047 38.8036 30.491 38.1721 31.8125C37.5407 33.134 36.6203 34.2999 35.4777 35.2259C34.3351 36.1518 32.9988 36.8146 31.5656 37.1662C30.1324 37.5178 28.6382 37.5494 27.1911 37.2588H27.0738L23.8467 36.5762L3.48017 32.2618C3.10922 32.183 2.72618 32.1778 2.35319 32.2465C1.9802 32.3151 1.62465 32.4563 1.30712 32.6619C0.989583 32.8675 0.716355 33.1333 0.503224 33.4441C0.290094 33.7548 0.141291 34.1043 0.0654213 34.4724C-0.0150181 34.839 -0.0213441 35.2178 0.0468052 35.5868C0.114955 35.9559 0.256232 36.308 0.462489 36.6227C0.668746 36.9375 0.935898 37.2086 1.24854 37.4206C1.56118 37.6327 1.91313 37.7813 2.28407 37.8579L21.9845 42.0005L25.4556 42.7343C26.7335 43.0081 27.9246 43.5869 28.9251 44.4204C29.9256 45.2538 30.7053 46.3167 31.1963 47.5166C31.6873 48.7164 31.8748 50.0169 31.7425 51.3048C31.6102 52.5927 31.162 53.8292 30.437 54.9065L30.3854 54.9948L27.3271 59.3927L14.0575 78.5172C13.622 79.1405 13.4545 79.9094 13.5918 80.655C13.729 81.4005 14.1597 82.0615 14.7892 82.4926C15.4187 82.9237 16.1953 83.0896 16.9483 82.9537C17.7013 82.8178 18.3689 82.3913 18.8043 81.7681L31.8817 62.8898L35.3856 57.8462C36.1122 56.803 37.0801 55.9467 38.2086 55.3486C39.3371 54.7506 40.5936 54.4282 41.8734 54.4082C43.1533 54.3882 44.4194 54.6712 45.5664 55.2337C46.7134 55.7962 47.7081 56.6218 48.4676 57.6419L52.1075 62.8898L65.1849 81.7495C65.6203 82.374 66.2884 82.8017 67.0423 82.9384C67.7962 83.0751 68.574 82.9098 69.2047 82.4787C69.8354 82.0476 70.2674 81.3861 70.4055 80.6397C70.5436 79.8933 70.3766 79.1231 69.9411 78.4987L56.6574 59.3695L53.6132 54.9762C52.8656 53.8979 52.3981 52.6538 52.2519 51.354C52.1058 50.0542 52.2856 48.7388 52.7754 47.5241C53.2651 46.3095 54.0498 45.2332 55.0599 44.3904C56.07 43.5477 57.2744 42.9645 58.5665 42.6925L62 41.968L81.7005 37.8254C82.4442 37.6698 83.0965 37.2312 83.5167 36.604C83.937 35.9769 84.0916 35.2113 83.9473 34.4724ZM42.004 48.8413C40.8961 48.8422 39.8128 48.5178 38.8912 47.909C37.9696 47.3003 37.251 46.4346 36.8264 45.4214C36.4018 44.4083 36.2902 43.2932 36.5058 42.2173C36.7213 41.1413 37.2544 40.1528 38.0374 39.3769C38.8205 38.6009 39.8184 38.0723 40.905 37.858C41.9915 37.6437 43.1178 37.7532 44.1415 38.1728C45.1651 38.5923 46.0401 39.3031 46.6557 40.215C47.2713 41.127 47.5999 42.1993 47.5999 43.2962C47.5999 44.7668 47.0098 46.1773 45.9595 47.2172C44.9092 48.2571 43.4847 48.8413 41.9993 48.8413" fill="#905A2B"></path> </svg> 