<?xml version="1.0" encoding="UTF-8"?> <svg xmlns="http://www.w3.org/2000/svg" width="50" height="56" viewBox="0 0 50 56" fill="none"> <path d="M46.7725 33.734C49.9074 28.5831 50.8113 22.2862 49.2525 16.4592C46.6592 6.76773 37.8425 0 27.8101 0H26.3802C14.3405 0 4.5454 9.79509 4.5454 21.8348V24.7314L0.484374 30.9711C0.010652 31.6996 -0.123036 32.5967 0.116246 33.4318C0.356498 34.2659 0.944533 34.9547 1.73213 35.3199L4.64809 36.6761L5.80285 43.2511C6.38991 46.5933 9.27874 49.0191 12.6723 49.0191H18.0169C18.7173 49.0191 19.3286 49.517 19.471 50.2019L20.3342 54.353C20.4272 54.8025 20.8234 55.1251 21.2826 55.1251H41.8687C42.1603 55.1251 42.4364 54.9934 42.6204 54.7677C42.8045 54.5419 42.8771 54.2445 42.8171 53.9597L41.4996 47.6173C40.9784 45.1092 41.425 42.5226 42.757 40.3332L46.7725 33.734ZM41.1004 39.3286C39.5127 41.9374 38.9808 45.022 39.6018 48.0125L40.6771 53.1895H22.0702L21.3679 49.8105C21.0404 48.2305 19.6309 47.0845 18.0169 47.0845H12.6723C10.2223 47.0845 8.13561 45.332 7.71129 42.9188L6.46935 35.8459C6.41413 35.534 6.21069 35.2685 5.92394 35.1358L2.54976 33.5655C2.26785 33.4347 2.06538 33.1983 1.97916 32.899C1.89391 32.5996 1.93945 32.2915 2.10995 32.031L6.32791 25.5509C6.42963 25.393 6.48485 25.209 6.48485 25.022V21.8377C6.48485 10.8665 15.411 1.94042 26.3821 1.94042H27.812C36.9687 1.94042 45.0162 8.11818 47.3828 16.9639C48.805 22.2814 47.9805 28.0281 45.1188 32.7304L41.1004 39.3286ZM16.0688 24.4059C16.3972 24.8282 16.3216 25.4366 15.8992 25.765C14.976 26.4839 13.7844 26.8791 12.5435 26.8791C11.3015 26.8791 10.1099 26.4839 9.18671 25.765C8.76433 25.4366 8.68877 24.8273 9.01718 24.4059C9.34656 23.9845 9.95493 23.9079 10.3763 24.2363C11.5456 25.145 13.5393 25.147 14.7086 24.2363C15.131 23.907 15.7394 23.9845 16.0688 24.4059ZM34.974 8.0833C39.3606 12.4698 39.3606 19.6076 34.974 23.9941C34.7851 24.1831 34.5371 24.278 34.2891 24.278C34.0411 24.278 33.7931 24.1831 33.6042 23.9941C33.2254 23.6154 33.2254 23.0031 33.6042 22.6243C37.2351 18.9934 37.2351 13.084 33.6042 9.45312C31.844 7.69289 29.5054 6.72317 27.0196 6.72317C24.5337 6.72317 22.1952 7.69289 20.434 9.45312C19.1591 10.728 18.4567 12.4204 18.4567 14.2213C18.4567 16.0203 19.1591 17.7137 20.434 18.9886C21.7089 20.2635 23.4013 20.9658 25.2012 20.9658C27.0012 20.9658 28.6936 20.2625 29.9685 18.9886C31.595 17.3611 31.595 14.7154 29.9685 13.0879C28.3419 11.4623 25.6953 11.4623 24.0687 13.0879C23.4439 13.7127 23.4439 14.729 24.0687 15.3538C24.6742 15.9593 25.7282 15.9593 26.3337 15.3538C26.7115 14.975 27.3247 14.975 27.7035 15.3538C28.0823 15.7326 28.0823 16.3449 27.7035 16.7236C26.3666 18.0615 24.0358 18.0615 22.6989 16.7236C21.3184 15.3432 21.3184 13.0986 22.6989 11.7181C25.0811 9.3359 28.9561 9.3359 31.3383 11.7181C33.7205 14.1002 33.7205 17.9762 31.3383 20.3584C29.6982 21.9985 27.5185 22.9033 25.2012 22.9033C22.884 22.9033 20.7043 21.9985 19.0641 20.3584C17.4231 18.7183 16.5202 16.5386 16.5202 14.2213C16.5202 11.9031 17.424 9.7234 19.0641 8.0833C21.1906 5.95688 24.0155 4.78565 27.0196 4.78565C30.0227 4.78469 32.8476 5.95591 34.974 8.0833Z" fill="url(#paint0_linear_422_284)"></path> <path d="M46.7725 33.734C49.9074 28.5831 50.8113 22.2862 49.2525 16.4592C46.6592 6.76773 37.8425 0 27.8101 0H26.3802C14.3405 0 4.5454 9.79509 4.5454 21.8348V24.7314L0.484374 30.9711C0.010652 31.6996 -0.123036 32.5967 0.116246 33.4318C0.356498 34.2659 0.944533 34.9547 1.73213 35.3199L4.64809 36.6761L5.80285 43.2511C6.38991 46.5933 9.27874 49.0191 12.6723 49.0191H18.0169C18.7173 49.0191 19.3286 49.517 19.471 50.2019L20.3342 54.353C20.4272 54.8025 20.8234 55.1251 21.2826 55.1251H41.8687C42.1603 55.1251 42.4364 54.9934 42.6204 54.7677C42.8045 54.5419 42.8771 54.2445 42.8171 53.9597L41.4996 47.6173C40.9784 45.1092 41.425 42.5226 42.757 40.3332L46.7725 33.734ZM41.1004 39.3286C39.5127 41.9374 38.9808 45.022 39.6018 48.0125L40.6771 53.1895H22.0702L21.3679 49.8105C21.0404 48.2305 19.6309 47.0845 18.0169 47.0845H12.6723C10.2223 47.0845 8.13561 45.332 7.71129 42.9188L6.46935 35.8459C6.41413 35.534 6.21069 35.2685 5.92394 35.1358L2.54976 33.5655C2.26785 33.4347 2.06538 33.1983 1.97916 32.899C1.89391 32.5996 1.93945 32.2915 2.10995 32.031L6.32791 25.5509C6.42963 25.393 6.48485 25.209 6.48485 25.022V21.8377C6.48485 10.8665 15.411 1.94042 26.3821 1.94042H27.812C36.9687 1.94042 45.0162 8.11818 47.3828 16.9639C48.805 22.2814 47.9805 28.0281 45.1188 32.7304L41.1004 39.3286ZM16.0688 24.4059C16.3972 24.8282 16.3216 25.4366 15.8992 25.765C14.976 26.4839 13.7844 26.8791 12.5435 26.8791C11.3015 26.8791 10.1099 26.4839 9.18671 25.765C8.76433 25.4366 8.68877 24.8273 9.01718 24.4059C9.34656 23.9845 9.95493 23.9079 10.3763 24.2363C11.5456 25.145 13.5393 25.147 14.7086 24.2363C15.131 23.907 15.7394 23.9845 16.0688 24.4059Z" fill="#905A2B"></path> <defs> <linearGradient id="paint0_linear_422_284" x1="25" y1="0" x2="25" y2="55.1251" gradientUnits="userSpaceOnUse"> <stop stop-color="#905A2B"></stop> </linearGradient> </defs> </svg> 