<?xml version="1.0" encoding="UTF-8"?> <svg xmlns="http://www.w3.org/2000/svg" width="58" height="64" viewBox="0 0 58 64" fill="none"> <path d="M46.9493 42.4997C46.7601 42.7772 46.8358 43.1683 47.1259 43.3575C47.189 43.3953 47.2647 43.4332 47.3404 43.4458C47.3782 43.4963 47.4287 43.5341 47.4918 43.5593L53.0171 46.7509C53.7235 47.1546 54.3417 46.0949 53.6352 45.6912L48.3117 42.6132C50.2166 39.1189 51.1627 35.3596 51.2636 31.6256H57.3945C58.2018 31.6256 58.2018 30.3893 57.3945 30.3893H51.251C51.1501 26.5418 50.1409 22.7825 48.3117 19.4017L53.6352 16.3363C54.3417 15.9326 53.7235 14.8604 53.0171 15.2767L47.6936 18.3421C45.7509 15.1505 43.0387 12.3752 39.6453 10.3064L42.7233 4.98289C43.127 4.27646 42.0673 3.65833 41.6511 4.36476L38.573 9.68826C35.0787 7.78341 31.3194 6.83729 27.5854 6.73637V0.605516C27.5854 -0.201839 26.3492 -0.201839 26.3492 0.605516V6.74898C22.5142 6.8499 18.7424 7.8591 15.3616 9.68826L12.2961 4.36476C11.8925 3.65833 10.8202 4.27646 11.2239 4.98289L14.2893 10.3064C11.0977 12.2491 8.32243 14.9613 6.25359 18.3547L0.930084 15.2893C0.223648 14.8856 -0.394483 15.9453 0.311953 16.3489L5.64807 19.4144C3.97028 22.505 2.9737 25.9237 2.74663 29.3928C2.7214 29.7334 2.98632 30.0235 3.32692 30.0487C3.66752 30.074 3.95767 29.8091 3.9829 29.4685C4.09643 27.7402 4.41181 26.012 4.92902 24.3216C7.26278 16.6769 13.3684 10.8236 21.013 8.76737C33.3 5.46226 45.9401 12.7663 49.2326 25.0532C50.759 30.73 50.1157 36.987 46.9493 42.4997ZM40.1373 28.1565C39.885 28.9386 39.065 30.1875 38.018 30.2632C37.2106 30.3263 37.2989 31.5625 38.1063 31.4995C39.3173 31.4112 40.2508 30.5029 40.8437 29.5315C42.4206 32.1302 41.0455 35.6245 38.6235 36.9113C37.753 37.3654 36.7565 37.5168 35.7473 37.2014C35.3562 36.9617 35.0661 36.5959 34.9147 36.1796C34.7633 35.7507 34.7507 35.2713 34.9273 34.8172C35.2174 34.0477 34.0569 33.6188 33.7667 34.3883C33.3 35.6498 33.6784 37.0753 34.675 37.9331C33.855 39.2072 32.2151 40.6705 30.7139 41.4148C30.9536 40.9354 31.1302 40.557 31.2564 40.229C31.496 39.5856 31.5591 39.0936 31.5717 38.4377C31.5717 38.3872 31.5717 38.3241 31.5717 38.2737C31.3068 36.5707 30.285 36.7473 29.1623 37.05C28.3675 37.2645 27.3583 37.5294 26.5258 36.2931C26.3492 36.0156 26.223 35.9273 26.1473 35.4858C26.0716 35.0064 26.1978 34.4261 26.5384 34.0477C26.5762 34.0098 26.6015 33.9594 26.6267 33.9215C27.5728 34.1738 28.5946 34.0729 29.465 33.5935C30.1841 33.2025 29.5912 32.1176 28.8848 32.5087C27.0304 33.5052 24.7975 32.0041 25.0246 29.8974C25.1129 29.09 23.8892 28.9512 23.8009 29.7586C23.6369 31.1967 24.2929 32.5717 25.4787 33.3917C24.8732 34.1612 24.7218 35.2713 25.0498 36.1796C22.0475 36.659 20.2057 35.6245 19.4993 32.5717C19.2722 31.6004 19.5623 30.6416 20.294 29.9983C20.5463 29.7712 20.5715 29.3928 20.3571 29.1279C20.13 28.8756 19.7389 28.8503 19.4866 29.0648C18.6288 29.8217 18.1495 30.9192 18.1873 32.0545C15.1219 31.7644 13.3179 29.6072 13.3684 27.0085C13.381 26.2769 13.5576 25.5452 13.8856 24.864C14.7308 23.1484 16.5852 21.8112 19.474 21.8617C19.6506 21.8995 19.802 22.0004 19.9155 22.1392C20.3571 22.6312 20.4706 23.6025 19.9282 24.1071C18.6288 23.8927 17.3043 24.372 16.4212 25.356C16.1941 25.6083 16.2194 25.9994 16.4717 26.2264C16.724 26.4535 17.115 26.4283 17.3421 26.176C18.7424 24.5991 21.3536 25.2298 21.8709 27.2987C22.0601 28.0934 23.2585 27.7907 23.0693 27.0085C22.8044 25.9489 22.1105 25.0532 21.1644 24.536C21.833 23.4385 21.5429 21.786 20.5084 21.0165C21.7573 19.6162 23.9776 18.935 25.5292 19.982C25.8824 20.2217 26.1725 20.5371 26.3744 20.9029C26.4627 21.458 26.3239 22.013 26.0338 22.4546C25.731 22.9213 25.2517 23.2745 24.684 23.4133C23.8892 23.6025 24.1794 24.8009 24.9741 24.6117C26.6267 24.2207 27.7368 22.6816 27.6359 21.0165C29.4777 19.8307 32.0511 19.5657 33.7037 21.0795C34.183 21.5211 34.5362 22.0761 34.7255 22.7069C33.6154 23.1358 32.7071 23.9179 32.1268 24.9523C30.8527 24.7757 29.5533 25.2425 28.6829 26.2138C28.4558 26.4661 28.4811 26.8572 28.7334 27.0842C28.9857 27.3113 29.3767 27.2861 29.6038 27.0338C31.0041 25.4443 33.6154 26.0877 34.1326 28.1439C34.3344 28.9386 35.5328 28.6359 35.331 27.8537C35.0661 26.7562 34.3344 25.848 33.3378 25.3308C34.2839 23.9179 36.214 23.1736 37.8161 23.8044C38.9388 24.2459 39.8471 25.3055 40.1751 26.4283C40.3391 27.0085 40.3517 27.5888 40.1625 28.0808C40.1625 28.106 40.1499 28.1313 40.1373 28.1565ZM27.1691 19.8307C25.8446 18.0393 23.3342 17.8375 21.3663 18.8215C20.5337 19.2378 19.802 19.8559 19.247 20.6128C15.9545 20.638 13.7847 22.2527 12.7881 24.309C11.9808 25.9615 11.9303 27.9547 12.6746 29.6325C13.545 31.5878 15.4625 33.1268 18.427 33.2908C19.4488 36.8986 22.0979 38.034 25.7436 37.2897C27.0051 38.8918 28.3928 38.526 29.4903 38.2232C29.6921 38.1728 29.8687 38.1223 30.0327 38.0971C30.1841 38.0718 30.2976 38.1223 30.3481 38.3998C30.3355 38.9044 30.285 39.2829 30.1084 39.7749C29.9066 40.3299 29.5407 41.0237 28.8974 42.1717C28.6451 42.6258 29.0235 43.1683 29.5407 43.08C31.8493 42.6889 34.6119 40.3804 35.7977 38.4503C40.7176 39.5604 45.0319 32.6222 41.424 28.1691C42.1557 25.4065 39.3678 21.8238 35.9239 22.341C35.0535 19.3891 31.9249 18.1781 28.9857 19.0107C28.3549 19.2251 27.7368 19.4901 27.1691 19.8307ZM25.4913 51.8852C25.6806 51.6076 25.6049 51.2166 25.3273 51.0274C25.0498 50.8381 24.6588 50.9138 24.4695 51.1914C22.981 53.4242 20.786 54.5595 18.0864 54.5848H15.0336C13.9235 54.5848 12.9773 54.1937 12.1826 53.4116C11.3879 52.6295 10.9716 51.696 10.9463 50.5858C10.9211 49.2487 10.9085 48.4413 10.9085 47.634C10.8959 46.8266 10.8959 46.0192 10.8706 44.7325C10.8833 44.3919 10.631 44.1144 10.303 44.0892L5.88775 43.8621C5.01732 43.8242 4.43703 42.8529 4.89117 42.096C6.34189 39.6992 8.66303 36.2174 9.647 34.1486C9.68484 34.0603 9.71007 33.972 9.71007 33.8711C9.69746 33.5179 9.69746 33.1646 9.69746 32.8366C9.69746 22.8835 14.5668 16.0083 24.9615 16.0083C31.66 16.0083 38.2198 17.7114 41.6511 22.9465C44.7039 27.6015 44.3885 33.7071 42.6098 38.917C41.8403 41.1625 40.8437 42.6132 39.9607 43.8747C38.2703 46.3094 36.9962 48.1385 38.2198 53.2602C39.0776 56.8555 39.3047 58.344 40.112 61.8257H24.4695L23.7253 58.6972C23.372 57.2213 22.4511 56.0103 21.1897 55.2912C22.9684 54.6731 24.3938 53.5125 25.4913 51.8852ZM24.9741 14.7721C13.8856 14.7721 8.47381 22.2023 8.47381 32.824C8.47381 33.1394 8.47381 33.4422 8.48642 33.7449C7.83045 35.0947 6.66988 36.9365 5.50931 38.7657C4.9164 39.6992 4.3235 40.6453 3.84413 41.4526C2.91063 42.9917 4.02074 45.01 5.83729 45.0857L9.647 45.275L9.71007 50.5985C9.76053 53.4873 12.1321 55.8084 15.021 55.8084H18.5657C20.4706 55.8084 22.0853 57.1078 22.5268 58.9495L23.3846 62.5574C23.4477 62.8349 23.7126 63.0242 23.9902 63.0242H40.8942C41.2852 63.0242 41.6132 62.6583 41.4744 62.2042C41.0203 60.2993 40.7428 58.9621 40.4526 57.6124C40.1751 56.2878 39.8976 54.9506 39.4182 52.9448C38.3333 48.3656 39.4687 46.7257 40.9699 44.5433C41.9034 43.2061 42.9504 41.6923 43.783 39.2829C47.025 29.7964 44.9688 19.7297 34.4353 16.1345C31.8366 15.2641 28.6955 14.7721 24.9741 14.7721Z" fill="url(#paint0_linear_422_288)"></path> <path d="M46.9493 42.4997C46.7601 42.7772 46.8358 43.1683 47.1259 43.3575C47.189 43.3953 47.2647 43.4332 47.3404 43.4458C47.3782 43.4963 47.4287 43.5341 47.4918 43.5593L53.0171 46.7509C53.7235 47.1546 54.3417 46.0949 53.6352 45.6912L48.3117 42.6132C50.2166 39.1189 51.1627 35.3596 51.2636 31.6256H57.3945C58.2018 31.6256 58.2018 30.3893 57.3945 30.3893H51.251C51.1501 26.5418 50.1409 22.7825 48.3117 19.4017L53.6352 16.3363C54.3417 15.9326 53.7235 14.8604 53.0171 15.2767L47.6936 18.3421C45.7509 15.1505 43.0387 12.3752 39.6453 10.3064L42.7233 4.98289C43.127 4.27646 42.0673 3.65833 41.6511 4.36476L38.573 9.68826C35.0787 7.78341 31.3194 6.83729 27.5854 6.73637V0.605516C27.5854 -0.201839 26.3492 -0.201839 26.3492 0.605516V6.74898C22.5142 6.8499 18.7424 7.8591 15.3616 9.68826L12.2961 4.36476C11.8925 3.65833 10.8202 4.27646 11.2239 4.98289L14.2893 10.3064C11.0977 12.2491 8.32243 14.9613 6.25359 18.3547L0.930084 15.2893C0.223648 14.8856 -0.394483 15.9453 0.311953 16.3489L5.64807 19.4144C3.97028 22.505 2.9737 25.9237 2.74663 29.3928C2.7214 29.7334 2.98632 30.0235 3.32692 30.0487C3.66752 30.074 3.95767 29.8091 3.9829 29.4685C4.09643 27.7402 4.41181 26.012 4.92902 24.3216C7.26278 16.6769 13.3684 10.8236 21.013 8.76737C33.3 5.46226 45.9401 12.7663 49.2326 25.0532C50.759 30.73 50.1157 36.987 46.9493 42.4997ZM25.4913 51.8852C25.6806 51.6076 25.6049 51.2166 25.3273 51.0274C25.0498 50.8381 24.6588 50.9138 24.4695 51.1914C22.981 53.4242 20.786 54.5595 18.0864 54.5848H15.0336C13.9235 54.5848 12.9773 54.1937 12.1826 53.4116C11.3879 52.6295 10.9716 51.696 10.9463 50.5858C10.9211 49.2487 10.9085 48.4413 10.9085 47.634C10.8959 46.8266 10.8959 46.0192 10.8706 44.7325C10.8833 44.3919 10.631 44.1144 10.303 44.0892L5.88775 43.8621C5.01732 43.8242 4.43703 42.8529 4.89117 42.096C6.34189 39.6992 8.66303 36.2174 9.647 34.1486C9.68484 34.0603 9.71007 33.972 9.71007 33.8711C9.69746 33.5179 9.69746 33.1646 9.69746 32.8366C9.69746 22.8835 14.5668 16.0083 24.9615 16.0083C31.66 16.0083 38.2198 17.7114 41.6511 22.9465C44.7039 27.6015 44.3885 33.7071 42.6098 38.917C41.8403 41.1625 40.8437 42.6132 39.9607 43.8747C38.2703 46.3094 36.9962 48.1385 38.2198 53.2602C39.0776 56.8555 39.3047 58.344 40.112 61.8257H24.4695L23.7253 58.6972C23.372 57.2213 22.4511 56.0103 21.1897 55.2912C22.9684 54.6731 24.3938 53.5125 25.4913 51.8852ZM24.9741 14.7721C13.8856 14.7721 8.47381 22.2023 8.47381 32.824C8.47381 33.1394 8.47381 33.4422 8.48642 33.7449C7.83045 35.0947 6.66988 36.9365 5.50931 38.7657C4.9164 39.6992 4.3235 40.6453 3.84413 41.4526C2.91063 42.9917 4.02074 45.01 5.83729 45.0857L9.647 45.275L9.71007 50.5985C9.76053 53.4873 12.1321 55.8084 15.021 55.8084H18.5657C20.4706 55.8084 22.0853 57.1078 22.5268 58.9495L23.3846 62.5574C23.4477 62.8349 23.7126 63.0242 23.9902 63.0242H40.8942C41.2852 63.0242 41.6132 62.6583 41.4744 62.2042C41.0203 60.2993 40.7428 58.9621 40.4526 57.6124C40.1751 56.2878 39.8976 54.9506 39.4182 52.9448C38.3333 48.3656 39.4687 46.7257 40.9699 44.5433C41.9034 43.2061 42.9504 41.6923 43.783 39.2829C47.025 29.7964 44.9688 19.7297 34.4353 16.1345C31.8366 15.2641 28.6955 14.7721 24.9741 14.7721Z" fill="#905A2B"></path> <defs> <linearGradient id="paint0_linear_422_288" x1="29" y1="0" x2="29" y2="63.0242" gradientUnits="userSpaceOnUse"> <stop offset="0.044007" stop-color="#905A2B"></stop> </linearGradient> </defs> </svg> 