<?xml version="1.0" encoding="UTF-8"?> <svg xmlns="http://www.w3.org/2000/svg" width="83" height="96" viewBox="0 0 83 96" fill="none"> <path d="M0 29.7687C0 26.1986 1.90326 22.8993 4.99375 21.112L36.4938 2.89518C39.5909 1.10404 43.4091 1.10404 46.5063 2.89518L78.0062 21.112C81.0967 22.8993 83 26.1986 83 29.7687V66.2313C83 69.8014 81.0967 73.1007 78.0063 74.888L46.5062 93.1048C43.4091 94.896 39.5909 94.896 36.4937 93.1048L4.99375 74.888C1.90326 73.1007 0 69.8014 0 66.2313V29.7687Z" fill="#1C4F4A"></path> <path d="M60.5257 76.5344H22.4743C20.5586 76.5344 19 74.9758 19 73.0601V25.8317C19 23.916 20.5586 22.3574 22.4743 22.3574H30.3085C30.9912 22.3574 31.0032 22.9109 31.0032 23.5935C31.0032 24.2762 30.9912 23.8408 30.3085 23.8408H22.4743C20.8 23.95 20.35 24.85 20.35 25.75V73C20.35 74.35 21.25 75.25 22.4743 75.25H60.5257C61.75 75.25 62.65 74.35 62.65 73.0601V25.8317C62.65 24.4 61.75 23.8408 60.5257 23.8408H52.6916C52.0089 23.8408 51.9024 24.2762 51.9024 23.5935C51.9024 22.9109 52.0089 22.3574 52.6916 22.3574H60.5257C62.4414 22.3574 64 23.916 64 25.8317V73.0601C64 74.9758 62.4414 76.5344 60.5257 76.5344Z" fill="white"></path> <path d="M58.2874 72.0577H24.7127C24.03 72.0577 23.4766 71.5043 23.4766 70.8216V28.0701C23.4766 27.3874 24.03 26.834 24.7127 26.834H30.3085C30.9912 26.834 31.1453 27.3874 31.1453 28.0701C31.1453 28.7527 30.933 28.4494 30.2503 28.4494H24.8503V70.8216H58.1503V28.4494H52.6915C52.0088 28.4494 51.9813 28.7527 51.9813 28.0701C51.9813 27.3874 52.0088 26.834 52.6915 26.834H58.2872C58.9699 26.834 59.5233 27.3874 59.5233 28.0701V70.8216C59.5234 71.5043 58.97 72.0577 58.2874 72.0577Z" fill="white"></path> <path d="M50.9824 30.7H32.0171C30.7945 30.7 29.7998 29.6181 29.7998 28.2882V23.7039C29.7998 22.374 30.7945 21.292 32.0171 21.292H37.7864C38.5564 19.8921 39.9606 19 41.4998 19C43.0389 19 44.4431 19.8921 45.2131 21.2922H50.9824C52.205 21.2922 53.1998 22.3741 53.1998 23.704V28.2883C53.1998 29.6181 52.205 30.7 50.9824 30.7ZM31.3322 29.138H51.6676V22.6866H45.2131C44.0419 22.6866 43.7826 22.2708 43.6182 21.7649C43.3367 20.8988 42.3449 20.3825 41.4998 20.3825C40.6546 20.3825 39.6632 20.8988 39.3817 21.7649C39.2173 22.2708 38.958 22.6866 37.7864 22.6866H31.3322V29.138Z" fill="white"></path> <path d="M41.8905 42.7641C41.8905 42.9772 41.7177 43.15 41.5046 43.15C41.2915 43.15 41.1187 42.9772 41.1187 42.7641V38.896C41.1187 38.0352 40.7761 37.2334 40.1539 36.6381C39.5323 36.0434 38.7156 35.737 37.8529 35.775C37.0491 35.8106 36.2976 36.1549 35.7366 36.7445C35.1758 37.334 34.8686 38.1023 34.8716 38.9078C34.8722 39.0559 34.8837 39.2042 34.9052 39.3503L35.6175 40.0626C36.1288 40.5739 36.8086 40.8555 37.5316 40.8555H38.2001C38.4132 40.8555 38.586 41.0282 38.586 41.2414C38.586 41.4545 38.4132 41.6272 38.2001 41.6272H37.5316C36.6024 41.6272 35.7288 41.2654 35.0718 40.6084L34.3923 39.9288C33.7705 39.9739 33.1858 40.1997 32.693 40.5878C32.5255 40.7196 32.2829 40.6907 32.1511 40.5233C32.0192 40.3558 32.0481 40.1132 32.2156 39.9814C32.7707 39.5444 33.4188 39.2718 34.1103 39.1815C34.1037 39.0914 34.1002 39.001 34.0999 38.9107C34.0961 37.9052 34.4788 36.947 35.1774 36.2126C35.8766 35.4776 36.8147 35.0484 37.8188 35.004C38.8941 34.9564 39.9123 35.3388 40.6874 36.0804C41.0289 36.4071 41.3027 36.7839 41.5024 37.1947C42.1638 35.8414 43.5862 34.9329 45.1817 35.004C46.1859 35.0484 47.124 35.4776 47.8231 36.2125C48.5217 36.947 48.9044 37.9052 48.9007 38.9106C48.9004 39.001 48.8969 39.0914 48.8902 39.1816C49.7504 39.2944 50.5444 39.6894 51.16 40.318C51.8772 41.0502 52.2722 42.0181 52.2722 43.0432C52.2722 43.615 52.1448 44.1851 51.9028 44.7001C53.1812 45.3669 54.0003 46.7094 54.0003 48.1564C54.0003 49.6093 53.1768 50.954 51.8913 51.6182C52.1409 52.1396 52.2722 52.7181 52.2722 53.2998C52.2722 53.5431 52.2496 53.7867 52.205 54.0239C52.1701 54.2092 52.0081 54.3385 51.8262 54.3385C51.8025 54.3385 51.7785 54.3363 51.7544 54.3318C51.545 54.2923 51.4071 54.0906 51.4465 53.8812C51.4823 53.6909 51.5004 53.4953 51.5004 53.2998C51.5004 52.7909 51.3821 52.3059 51.1486 51.8583C51.0681 51.7039 51.0535 51.5207 51.1088 51.3559C51.1641 51.191 51.2861 51.0537 51.4435 50.979C52.5279 50.4644 53.2286 49.3565 53.2286 48.1565C53.2286 46.9615 52.5318 45.8553 51.4536 45.3383C51.2955 45.2625 51.1776 45.1294 51.1217 44.9636C51.0658 44.7977 51.079 44.6205 51.159 44.4644C51.3856 44.0218 51.5005 43.5437 51.5005 43.0433C51.5005 42.2212 51.1838 41.4452 50.6088 40.858C50.0723 40.3103 49.3671 39.9839 48.6085 39.9286L47.9288 40.6083C47.2718 41.2653 46.3982 41.6272 45.469 41.6272H44.8005C44.5874 41.6272 44.4146 41.4544 44.4146 41.2413C44.4146 41.0282 44.5874 40.8554 44.8005 40.8554H45.469C46.1921 40.8554 46.8718 40.5738 47.3831 40.0626L48.0954 39.3502C48.1169 39.2042 48.1285 39.0559 48.129 38.9078C48.132 38.1022 47.8248 37.334 47.264 36.7444C46.7031 36.1548 45.9515 35.8105 45.1476 35.775C43.4363 35.6989 41.9753 37.0246 41.8863 38.7302L41.8905 42.7641Z" fill="url(#paint0_linear_296_319)"></path> <path d="M51.3281 55.2386C51.1639 55.1027 50.9206 55.1257 50.7848 55.29C50.24 55.9487 49.4537 56.3531 48.608 56.4155L47.9292 55.7367C47.2722 55.0796 46.3986 54.7178 45.4694 54.7178H44.8009C44.5878 54.7178 44.4151 54.8906 44.4151 55.1037C44.4151 55.3168 44.5878 55.4896 44.8009 55.4896H45.4694C46.1924 55.4896 46.8722 55.7712 47.3835 56.2825L48.095 56.994C48.1171 57.1439 48.1287 57.2961 48.1287 57.4482C48.1287 58.2902 47.7987 59.0797 47.1995 59.6713C46.6003 60.2627 45.8075 60.582 44.9638 60.5715C43.3433 60.5506 42.0039 59.2585 41.8902 57.6199V46.7234H42.3814C44.1925 46.7234 45.666 48.1969 45.666 50.008C45.666 50.2211 45.8388 50.3939 46.0519 50.3939C46.265 50.3939 46.4377 50.2211 46.4377 50.008C46.4377 47.7713 44.618 45.9516 42.3814 45.9516H41.8902V44.4464C41.8902 44.2333 41.7174 44.0606 41.5043 44.0606C41.2912 44.0606 41.1184 44.2333 41.1184 44.4464V49.6221H40.6187C38.8075 49.6221 37.3341 48.1486 37.3341 46.3375C37.3341 46.1244 37.1613 45.9516 36.9482 45.9516C36.7351 45.9516 36.5623 46.1244 36.5623 46.3375C36.5623 48.5742 38.382 50.3939 40.6187 50.3939H41.1184V57.3959C41.1184 59.1249 39.7358 60.5495 38.0363 60.5715C37.1926 60.5832 36.3997 60.2627 35.8005 59.6712C35.2013 59.0796 34.8713 58.2902 34.8713 57.4482C34.8713 57.2961 34.8829 57.1439 34.9049 56.994L35.6165 56.2824C36.1278 55.7711 36.8075 55.4896 37.5306 55.4896H38.199C38.4121 55.4896 38.5849 55.3168 38.5849 55.1037C38.5849 54.8906 38.4121 54.7178 38.199 54.7178H37.5306C36.6014 54.7178 35.7278 55.0796 35.0707 55.7367L34.3919 56.4156C33.6333 56.3603 32.9281 56.0338 32.3915 55.4859C31.8165 54.8985 31.4998 54.1224 31.4998 53.3003C31.4998 52.7913 31.6182 52.3064 31.8517 51.8588C31.9322 51.7043 31.9467 51.5212 31.8914 51.3564C31.8362 51.1915 31.7141 51.0541 31.5568 50.9794C30.4724 50.4649 29.7717 49.3569 29.7717 48.1569C29.7717 46.9619 30.4685 45.8557 31.5467 45.3387C31.7048 45.2629 31.8227 45.1298 31.8786 44.964C31.9345 44.7982 31.9213 44.6209 31.8414 44.4649C31.6147 44.0223 31.4998 43.5441 31.4998 43.0437C31.4998 42.6066 31.5883 42.1839 31.7627 41.7875C31.8485 41.5924 31.7599 41.3647 31.5648 41.2789C31.3698 41.193 31.1421 41.2816 31.0562 41.4767C30.8385 41.9717 30.7281 42.4989 30.7281 43.0437C30.7281 43.6155 30.8555 44.1855 31.0975 44.7007C29.8191 45.3675 29 46.71 29 48.157C29 49.6099 29.8235 50.9545 31.109 51.6188C30.8595 52.1401 30.7281 52.7187 30.7281 53.3003C30.7281 54.3255 31.123 55.2934 31.8402 56.0258C32.4559 56.6547 33.2499 57.0498 34.11 57.1625C34.1031 57.2576 34.0995 57.353 34.0995 57.4482C34.0995 58.4982 34.5111 59.4828 35.2583 60.2205C35.9932 60.9459 36.963 61.3435 37.9943 61.3435C38.0115 61.3435 38.029 61.3434 38.0462 61.3432C39.5609 61.3237 40.8731 60.4135 41.4991 59.1115C42.1254 60.419 43.4412 61.3237 44.9538 61.3432C44.9711 61.3434 44.9884 61.3435 45.0057 61.3435C46.037 61.3435 47.0068 60.9459 47.7417 60.2205C48.4889 59.4828 48.9005 58.4982 48.9005 57.4482C48.9005 57.3528 48.897 57.2574 48.89 57.1622C49.8585 57.0339 50.7488 56.5444 51.3795 55.7818C51.5153 55.6176 51.4923 55.3744 51.3281 55.2386Z" fill="url(#paint1_linear_296_319)"></path> <defs> <linearGradient id="paint0_linear_296_319" x1="37.5002" y1="37.5" x2="51.7502" y2="54.5" gradientUnits="userSpaceOnUse"> <stop stop-color="white"></stop> <stop offset="0.505108" stop-color="#FEFCFB"></stop> <stop offset="0.505208" stop-color="white" stop-opacity="0.85"></stop> </linearGradient> <linearGradient id="paint1_linear_296_319" x1="41.25" y1="46.0005" x2="39.5" y2="53.0005" gradientUnits="userSpaceOnUse"> <stop stop-color="white"></stop> <stop offset="1" stop-color="white"></stop> </linearGradient> </defs> </svg> 