<?xml version="1.0" encoding="UTF-8"?> <svg xmlns="http://www.w3.org/2000/svg" width="800" height="800" viewBox="0 0 800 800" fill="none"><path d="M342.567 367.167H342.854L342.999 366.918C348.765 357.007 357.007 348.765 366.918 342.999L367.167 342.854V342.567V233.333C367.167 224.625 370.626 216.274 376.783 210.117C382.941 203.959 391.292 200.5 400 200.5C408.708 200.5 417.059 203.959 423.217 210.117C429.374 216.274 432.833 224.625 432.833 233.333V342.567V342.856L433.084 343C441.858 348.052 449.352 355.056 454.984 363.47C460.617 371.884 464.237 381.481 465.565 391.519C466.892 401.556 465.891 411.765 462.639 421.353C459.388 430.942 453.972 439.653 446.813 446.813C439.653 453.972 430.942 459.388 421.353 462.639C411.765 465.891 401.556 466.892 391.519 465.565C381.481 464.237 371.884 460.617 363.47 454.984C355.056 449.352 348.052 441.858 343 433.084L342.856 432.833H342.567H266.667C257.959 432.833 249.607 429.374 243.45 423.217C237.293 417.059 233.833 408.708 233.833 400C233.833 391.292 237.293 382.941 243.45 376.783C249.607 370.626 257.959 367.167 266.667 367.167H342.567ZM799.5 400C799.5 505.954 757.41 607.568 682.489 682.489C607.568 757.41 505.954 799.5 400 799.5C294.046 799.5 192.432 757.41 117.511 682.489C42.5901 607.568 0.5 505.954 0.5 400C0.5 391.292 3.95922 382.941 10.1167 376.783C16.2741 370.626 24.6254 367.167 33.3333 367.167C42.0413 367.167 50.3926 370.626 56.55 376.783C62.7075 382.941 66.1667 391.292 66.1667 400C66.1667 466.026 85.7457 530.569 122.428 585.468C159.11 640.366 211.247 683.155 272.247 708.422C333.248 733.689 400.37 740.3 465.128 727.419C529.885 714.538 589.368 682.743 636.056 636.056C682.743 589.368 714.538 529.885 727.419 465.128C740.3 400.37 733.689 333.248 708.422 272.247C683.155 211.247 640.366 159.11 585.468 122.428C530.569 85.7457 466.026 66.1667 400 66.1667C391.292 66.1667 382.941 62.7075 376.783 56.55C370.626 50.3926 367.167 42.0413 367.167 33.3333C367.167 24.6254 370.626 16.2741 376.783 10.1167C382.941 3.95922 391.292 0.5 400 0.5C505.919 0.614651 607.466 42.7415 682.362 117.638C757.259 192.534 799.385 294.082 799.5 400ZM79.1412 286.767C73.7418 290.374 67.3938 292.3 60.9 292.3C52.1921 292.3 43.8408 288.841 37.6833 282.683C31.5259 276.526 28.0667 268.175 28.0667 259.467C28.0667 252.973 29.9923 246.625 33.6001 241.225C37.2079 235.826 42.3357 231.618 48.3352 229.133C54.3347 226.648 60.9364 225.997 67.3055 227.264C73.6745 228.531 79.5248 231.658 84.1167 236.25C88.7085 240.842 91.8356 246.692 93.1024 253.061C94.3693 259.43 93.7191 266.032 91.234 272.031C88.749 278.031 84.5406 283.159 79.1412 286.767ZM158.941 167.533C153.542 171.141 147.194 173.067 140.7 173.067C131.992 173.067 123.641 169.607 117.483 163.45C111.326 157.293 107.867 148.941 107.867 140.233C107.867 133.74 109.792 127.392 113.4 121.992C117.008 116.593 122.136 112.384 128.135 109.899C134.135 107.414 140.736 106.764 147.105 108.031C153.475 109.298 159.325 112.425 163.917 117.017C168.508 121.608 171.636 127.459 172.902 133.828C174.169 140.197 173.519 146.799 171.034 152.798C168.549 158.798 164.341 163.925 158.941 167.533ZM277.541 88.6666C272.142 92.2744 265.794 94.2 259.3 94.2C250.592 94.2 242.241 90.7408 236.083 84.5833C229.926 78.4259 226.467 70.0746 226.467 61.3667C226.467 54.8728 228.392 48.5249 232 43.1254C235.608 37.726 240.736 33.5177 246.735 31.0326C252.735 28.5475 259.336 27.8973 265.705 29.1642C272.074 30.4311 277.925 33.5582 282.517 38.15C287.108 42.7418 290.236 48.5922 291.502 54.9612C292.769 61.3302 292.119 67.9319 289.634 73.9314C287.149 79.9309 282.941 85.0588 277.541 88.6666Z" fill="#905A2B" stroke="black"></path></svg> 