<?xml version="1.0" encoding="UTF-8"?> <svg xmlns="http://www.w3.org/2000/svg" width="50" height="53" viewBox="0 0 50 53" fill="none"> <path d="M25.7805 15.5282C25.7805 15.9544 25.435 16.3 25.0087 16.3C24.5825 16.3 24.237 15.9544 24.237 15.5282V7.79204C24.237 6.07049 23.5517 4.46677 22.3074 3.27619C21.0642 2.08685 19.4306 1.47407 17.7054 1.55001C16.0978 1.62112 14.5947 2.30974 13.4727 3.48899C12.3511 4.66804 11.7368 6.20457 11.7427 7.8156C11.7439 8.11186 11.7669 8.40842 11.8099 8.70056L13.2346 10.1252C14.2571 11.1478 15.6167 11.711 17.0628 11.711H18.3998C18.826 11.711 19.1715 12.0565 19.1715 12.4827C19.1715 12.9089 18.826 13.2545 18.3998 13.2545H17.0628C15.2044 13.2545 13.4572 12.5308 12.1431 11.2167L10.7842 9.85769C9.54044 9.94783 8.37116 10.3995 7.38547 11.1756C7.05052 11.4392 6.56524 11.3815 6.3017 11.0466C6.03797 10.7117 6.09569 10.2265 6.43064 9.96286C7.54085 9.08881 8.8372 8.54363 10.2201 8.36304C10.2069 8.18286 10.1999 8.00206 10.1992 7.82147C10.1917 5.81046 10.9572 3.89401 12.3544 2.42519C13.7527 0.95524 15.6288 0.0967301 17.6372 0.00792577C19.7877 -0.0872584 21.824 0.677508 23.3744 2.16084C24.0573 2.81426 24.6049 3.56771 25.0042 4.38949C26.3271 1.68286 29.1719 -0.134182 32.3629 0.00792577C34.3714 0.0967301 36.2475 0.955137 37.6457 2.42509C39.043 3.89391 39.8084 5.81036 39.8009 7.82126C39.8003 8.00196 39.7933 8.18286 39.78 8.36325C41.5003 8.5887 43.0883 9.37879 44.3196 10.6359C45.754 12.1004 46.5439 14.0361 46.5439 16.0864C46.5439 17.23 46.289 18.3701 45.8051 19.4003C48.362 20.7338 50.0001 23.4188 50.0001 26.3128C50.0001 29.2187 48.3531 31.9079 45.7821 33.2365C46.2812 34.2792 46.5439 35.4362 46.5439 36.5995C46.5439 37.0861 46.4987 37.5734 46.4094 38.0478C46.3397 38.4184 46.0157 38.677 45.6519 38.677C45.6045 38.677 45.5566 38.6726 45.5083 38.6635C45.0894 38.5847 44.8137 38.1812 44.8926 37.7624C44.9642 37.3819 45.0004 36.9906 45.0004 36.5996C45.0004 35.5818 44.7636 34.6119 44.2967 33.7166C44.1356 33.4077 44.1065 33.0415 44.2171 32.7119C44.3276 32.3821 44.5717 32.1073 44.8866 31.9579C47.0554 30.9288 48.4567 28.7129 48.4567 26.3129C48.4567 23.923 47.0632 21.7106 44.9067 20.6766C44.5904 20.5249 44.3547 20.2588 44.2428 19.9271C44.1311 19.5955 44.1575 19.241 44.3174 18.9288C44.7706 18.0436 45.0005 17.0874 45.0005 16.0865C45.0005 14.4425 44.3671 12.8904 43.217 11.7161C42.1441 10.6206 40.7337 9.9679 39.2166 9.85717L37.8572 11.2166C36.5431 12.5307 34.7959 13.2544 32.9375 13.2544H31.6005C31.1743 13.2544 30.8288 12.9088 30.8288 12.4826C30.8288 12.0564 31.1743 11.7108 31.6005 11.7108H32.9375C34.3836 11.7108 35.7432 11.1477 36.7657 10.1251L38.1904 8.70046C38.2333 8.40832 38.2564 8.11175 38.2575 7.8156C38.2635 6.20447 37.6491 4.66794 36.5275 3.48889C35.4056 2.30963 33.9024 1.62102 32.2948 1.54991C28.8722 1.39782 25.9502 4.04929 25.7722 7.46049L25.7805 15.5282Z" fill="url(#paint0_linear_296_284)"></path> <path d="M44.6561 40.4762C44.3277 40.2044 43.8412 40.2505 43.5696 40.579C42.4799 41.8964 40.9075 42.7052 39.216 42.83L37.8584 41.4725C36.5444 40.1583 34.7972 39.4347 32.9388 39.4347H31.6019C31.1757 39.4347 30.8301 39.7803 30.8301 40.2065C30.8301 40.6327 31.1757 40.9782 31.6019 40.9782H32.9388C34.3849 40.9782 35.7444 41.5414 36.7669 42.564L38.1901 43.9871C38.2341 44.2868 38.2574 44.5912 38.2574 44.8955C38.2574 46.5795 37.5973 48.1585 36.399 49.3416C35.2007 50.5244 33.6149 51.163 31.9276 51.1421C28.6866 51.1003 26.0077 48.5161 25.7804 45.2388V23.4458H26.7627C30.3851 23.4458 33.332 26.3928 33.332 30.0151C33.332 30.4413 33.6775 30.7868 34.1037 30.7868C34.5299 30.7868 34.8755 30.4413 34.8755 30.0151C34.8755 25.5416 31.2361 21.9023 26.7627 21.9023H25.7804V18.8919C25.7804 18.4657 25.4349 18.1201 25.0086 18.1201C24.5824 18.1201 24.2369 18.4657 24.2369 18.8919V29.2433H23.2374C19.615 29.2433 16.6681 26.2963 16.6681 22.6741C16.6681 22.2478 16.3226 21.9023 15.8964 21.9023C15.4702 21.9023 15.1246 22.2478 15.1246 22.6741C15.1246 27.1475 18.764 30.7868 23.2374 30.7868H24.2369V44.7907C24.2369 48.2489 21.4716 51.098 18.0725 51.142C16.3852 51.1655 14.7993 50.5243 13.6011 49.3415C12.4027 48.1583 11.7425 46.5794 11.7425 44.8954C11.7425 44.5912 11.7658 44.2868 11.8098 43.987L13.233 42.5639C14.2555 41.5413 15.615 40.9781 17.0611 40.9781H18.398C18.8242 40.9781 19.1698 40.6326 19.1698 40.2064C19.1698 39.7801 18.8242 39.4346 18.398 39.4346H17.0611C15.2027 39.4346 13.4555 40.1583 12.1415 41.4724L10.7837 42.8302C9.26662 42.7195 7.85614 42.0666 6.78308 40.9707C5.63295 39.7961 4.99959 38.2437 4.99959 36.5996C4.99959 35.5817 5.23637 34.6118 5.70333 33.7166C5.86438 33.4076 5.8935 33.0414 5.78288 32.7118C5.67236 32.382 5.42828 32.1073 5.1135 31.9579C2.94474 30.9287 1.54342 28.7129 1.54342 26.3128C1.54342 23.9229 2.93692 21.7105 5.09344 20.6764C5.40965 20.5247 5.6454 20.2586 5.75726 19.927C5.86901 19.5953 5.84256 19.2408 5.68275 18.9288C5.22947 18.0436 4.99969 17.0873 4.99969 16.0865C4.99969 15.2121 5.17658 14.3668 5.52531 13.5739C5.69695 13.1838 5.51976 12.7284 5.12966 12.5568C4.73966 12.3851 4.28411 12.5622 4.11247 12.9524C3.67699 13.9423 3.45616 14.9969 3.45616 16.0865C3.45616 17.23 3.71095 18.3701 4.195 19.4003C1.6382 20.7339 0 23.419 0 26.313C0 29.2188 1.64694 31.908 4.21805 33.2366C3.71898 34.2792 3.45616 35.4364 3.45616 36.5997C3.45616 38.65 4.24604 40.5859 5.68039 42.0507C6.91181 43.3083 8.49979 44.0985 10.22 44.3241C10.2061 44.5141 10.199 44.7049 10.199 44.8954C10.199 46.9954 11.0221 48.9646 12.5167 50.44C13.9864 51.8909 15.9259 52.6861 17.9887 52.6861C18.0231 52.6861 18.0579 52.6859 18.0924 52.6855C21.1217 52.6464 23.7462 50.826 24.9983 48.2221C26.2509 50.8371 28.8825 52.6465 31.9077 52.6855C31.9423 52.6859 31.9769 52.6861 32.0114 52.6861C34.074 52.6861 36.0137 51.8908 37.4833 50.44C38.9779 48.9646 39.801 46.9955 39.801 44.8954C39.801 44.7046 39.794 44.5137 39.78 44.3234C41.717 44.0667 43.4976 43.0878 44.759 41.5627C45.0307 41.2343 44.9846 40.7478 44.6561 40.4762Z" fill="url(#paint1_linear_296_284)"></path> <path d="M25.0087 16.3C25.435 16.3 25.7805 15.9544 25.7805 15.5282L25.7722 7.46049C25.9502 4.04929 26 2.84573 26 2.84573L25.5 3.5L25.0042 4.38949C24.6049 3.56771 24.0573 2.81426 23.3744 2.16084C21.824 0.677508 19.7877 -0.0872584 17.6372 0.00792577C15.6288 0.0967301 13.7527 0.95524 12.3544 2.42519C10.9572 3.89401 10.1917 5.81046 10.1992 7.82147C10.1999 8.00206 10.2069 8.18286 10.2201 8.36304C8.8372 8.54363 7.54085 9.08881 6.43064 9.96286C6.09569 10.2265 6.03797 10.7117 6.3017 11.0466C6.56524 11.3815 7.05052 11.4392 7.38547 11.1756C8.37116 10.3995 9.54044 9.94783 10.7842 9.85769L12.1431 11.2167C13.4572 12.5308 15.2044 13.2545 17.0628 13.2545H18.3998C18.826 13.2545 19.1715 12.9089 19.1715 12.4827C19.1715 12.0565 18.826 11.711 18.3998 11.711H17.0628C15.6167 11.711 14.2571 11.1478 13.2346 10.1252L11.8099 8.70056C11.7669 8.40842 11.7439 8.11186 11.7427 7.8156C11.7368 6.20457 12.3511 4.66804 13.4727 3.48899C14.5947 2.30974 16.0978 1.62112 17.7054 1.55001C19.4306 1.47407 21.0642 2.08685 22.3074 3.27619C23.5517 4.46677 24.237 6.07049 24.237 7.79204V15.5282C24.237 15.9544 24.5825 16.3 25.0087 16.3Z" fill="url(#paint2_linear_296_284)"></path> <path d="M44.6561 40.4762C44.3277 40.2044 43.8412 40.2505 43.5696 40.579C42.4799 41.8964 40.9075 42.7052 39.216 42.83L37.8584 41.4725C36.5443 40.1583 34.7972 39.4347 32.9388 39.4347H31.6019C31.1757 39.4347 30.8301 39.7803 30.8301 40.2065C30.8301 40.6327 31.1757 40.9782 31.6019 40.9782H32.9388C34.3849 40.9782 35.7444 41.5414 36.7669 42.564L38.1901 43.9871C38.2341 44.2868 38.2574 44.5912 38.2574 44.8955C38.2574 46.5795 37.5973 48.1585 36.3989 49.3416C35.2007 50.5244 33.6149 51.163 31.9276 51.1421C28.6866 51.1003 26.0077 48.5161 25.7804 45.2388V23.4458L25.7804 23.239C25.7804 23.239 25.7804 19.3778 25.7804 23C25.7804 23.4262 25.7804 22.6741 25.7804 22.6741C25.7804 22.6741 25.7804 22.7474 25.7804 22.3212L25.7804 22.0469L25.7804 21.9023V18.8919C25.7804 18.4657 25.4349 18.1201 25.0086 18.1201C24.5824 18.1201 24.2369 18.4657 24.2369 18.8919V29.2433L24.2369 29.4737V29.6404V30V30.2938V30.5742L24.2369 30.7868V44.7907C24.2369 48.2489 21.4716 51.098 18.0725 51.142C16.3852 51.1655 14.7993 50.5243 13.601 49.3415C12.4027 48.1583 11.7425 46.5794 11.7425 44.8954C11.7425 44.5912 11.7658 44.2868 11.8098 43.987L13.233 42.5639C14.2555 41.5413 15.615 40.9781 17.0611 40.9781H18.398C18.8242 40.9781 19.1698 40.6326 19.1698 40.2064C19.1698 39.7801 18.8242 39.4346 18.398 39.4346H17.0611C15.2027 39.4346 13.4555 40.1583 12.1415 41.4724L10.7837 42.8302C9.26662 42.7195 7.85614 42.0666 6.78308 40.9707C5.63295 39.7961 4.99959 38.2437 4.99959 36.5996C4.99959 35.5817 5.23637 34.6118 5.70333 33.7166C5.86438 33.4076 5.8935 33.0414 5.78288 32.7118C5.67236 32.382 5.42828 32.1073 5.1135 31.9579C2.94474 30.9287 1.54342 28.7129 1.54342 26.3128C1.54342 23.9229 2.93692 21.7105 5.09343 20.6764C5.40965 20.5247 5.6454 20.2586 5.75725 19.927C5.86901 19.5953 5.84256 19.2408 5.68275 18.9288C5.22947 18.0436 4.99969 17.0873 4.99969 16.0865C4.99969 15.2121 5.17658 14.3668 5.52531 13.5739C5.69695 13.1838 5.51976 12.7284 5.12966 12.5568C4.73966 12.3851 4.28411 12.5622 4.11247 12.9524C3.67699 13.9423 3.45616 14.9969 3.45616 16.0865C3.45616 17.23 3.71095 18.3701 4.195 19.4003C1.6382 20.7339 0 23.419 0 26.313C0 29.2188 1.64694 31.908 4.21805 33.2366C3.71898 34.2792 3.45616 35.4364 3.45616 36.5997C3.45616 38.65 4.24604 40.5859 5.68039 42.0507C6.91181 43.3083 8.49979 44.0985 10.22 44.3241C10.2061 44.5141 10.199 44.7049 10.199 44.8954C10.199 46.9954 11.0221 48.9646 12.5167 50.44C13.9864 51.8909 15.9259 52.6861 17.9887 52.6861C18.0231 52.6861 18.0579 52.6859 18.0924 52.6855C21.1217 52.6464 23.7462 50.826 24.9983 48.2221C26.2509 50.8371 28.8825 52.6465 31.9077 52.6855C31.9423 52.6859 31.9768 52.6861 32.0114 52.6861C34.074 52.6861 36.0137 51.8908 37.4833 50.44C38.9779 48.9646 39.801 46.9955 39.801 44.8954C39.801 44.7046 39.794 44.5137 39.78 44.3234C41.717 44.0667 43.4976 43.0878 44.759 41.5627C45.0307 41.2343 44.9846 40.7478 44.6561 40.4762Z" fill="url(#paint3_linear_296_284)"></path> <defs> <linearGradient id="paint0_linear_296_284" x1="28" y1="2" x2="45.5" y2="39" gradientUnits="userSpaceOnUse"> <stop stop-color="#905A2B"></stop> </linearGradient> <linearGradient id="paint1_linear_296_284" x1="24.5" y1="22" x2="21" y2="36" gradientUnits="userSpaceOnUse"> <stop stop-color="#905A2B"></stop> </linearGradient> <linearGradient id="paint2_linear_296_284" x1="16.086" y1="0" x2="16.086" y2="16.3" gradientUnits="userSpaceOnUse"> <stop stop-color="#905A2B"></stop> </linearGradient> <linearGradient id="paint3_linear_296_284" x1="22.468" y1="12.4912" x2="22.468" y2="52.6861" gradientUnits="userSpaceOnUse"> <stop stop-color="#905A2B"></stop> </linearGradient> </defs> </svg> 