<?xml version="1.0" encoding="UTF-8"?> <svg xmlns="http://www.w3.org/2000/svg" width="21" height="39" viewBox="0 0 21 39" fill="none"><path d="M7.87305 28.4297C7.31966 28.7878 6.63607 28.9668 5.82227 28.9668C3.83659 28.9668 2.84375 28.1204 2.84375 26.4277C2.84375 24.084 4.60156 21.4635 8.11719 18.5664L9.21582 17.6875C13.1546 14.4323 15.124 11.5433 15.124 9.02051C15.124 5.94434 13.4639 4.40625 10.1436 4.40625C6.75814 4.40625 3.81217 6.39193 1.30566 10.3633C0.980143 9.77734 0.817383 9.13444 0.817383 8.43457C0.817383 6.67676 2.07064 4.99219 4.57715 3.38086C7.08366 1.76953 9.7041 0.963867 12.4385 0.963867C14.8311 0.963867 16.7028 1.57422 18.0537 2.79492C19.4046 3.99935 20.0801 5.66764 20.0801 7.7998C20.0801 10.8597 17.9398 14.0335 13.6592 17.3213L12.7559 18.0293C9.09375 20.8451 7.2627 23.5957 7.2627 26.2812C7.2627 26.9811 7.46615 27.6973 7.87305 28.4297ZM1.96484 32.1406L3.72266 31.7988C4.91081 31.571 5.77344 31.457 6.31055 31.457C7.71029 31.457 8.41016 32.2057 8.41016 33.7031C8.41016 34.2891 8.32878 34.9889 8.16602 35.8027L7.84863 37.4629L6.72559 37.6582C5.13053 37.9512 4.17839 38.0977 3.86914 38.0977C2.71354 38.0977 2.13574 37.4954 2.13574 36.291C2.13574 35.9655 2.16829 35.6481 2.2334 35.3389L2.35547 34.7041C2.42057 34.4111 2.45312 34.1019 2.45312 33.7764C2.45312 33.1416 2.29036 32.5964 1.96484 32.1406Z" fill="#905A2B" fill-opacity="0.6"></path></svg> 