<?xml version="1.0" encoding="UTF-8"?> <svg xmlns="http://www.w3.org/2000/svg" width="100" height="100" viewBox="0 0 100 100" fill="none"><path d="M8.33301 50C8.33301 34.2865 8.33301 26.4298 13.2145 21.5482C18.0961 16.6667 25.9528 16.6667 41.6663 16.6667H58.333C74.0463 16.6667 81.9034 16.6667 86.7847 21.5482C91.6663 26.4298 91.6663 34.2865 91.6663 50V58.3334C91.6663 74.0467 91.6663 81.9038 86.7847 86.785C81.9034 91.6667 74.0463 91.6667 58.333 91.6667H41.6663C25.9528 91.6667 18.0961 91.6667 13.2145 86.785C8.33301 81.9038 8.33301 74.0467 8.33301 58.3334V50Z" stroke="#905A2B" stroke-width="3"></path><path opacity="0.5" d="M29.167 16.6667V10.4167" stroke="#905A2B" stroke-opacity="0.6" stroke-width="3" stroke-linecap="round"></path><path opacity="0.5" d="M70.833 16.6667V10.4167" stroke="#905A2B" stroke-opacity="0.6" stroke-width="3" stroke-linecap="round"></path><path opacity="0.5" d="M10.417 37.5H89.5837" stroke="#905A2B" stroke-opacity="0.6" stroke-width="3" stroke-linecap="round"></path><path d="M72.917 71.1667C72.917 72.2713 72.0216 73.1667 70.917 73.1667C69.8124 73.1667 68.917 72.2713 68.917 71.1667C68.917 70.0621 69.8124 69.1667 70.917 69.1667C72.0216 69.1667 72.917 70.0621 72.917 71.1667Z" fill="#905A2B"></path><path d="M72.917 54.5C72.917 55.6046 72.0216 56.5 70.917 56.5C69.8124 56.5 68.917 55.6046 68.917 54.5C68.917 53.3954 69.8124 52.5 70.917 52.5C72.0216 52.5 72.917 53.3954 72.917 54.5Z" fill="#905A2B"></path><path d="M52.083 71.1667C52.083 72.2713 51.1876 73.1667 50.083 73.1667C48.9784 73.1667 48.083 72.2713 48.083 71.1667C48.083 70.0621 48.9784 69.1667 50.083 69.1667C51.1876 69.1667 52.083 70.0621 52.083 71.1667Z" fill="#905A2B"></path><path d="M52.083 54.5C52.083 55.6046 51.1876 56.5 50.083 56.5C48.9784 56.5 48.083 55.6046 48.083 54.5C48.083 53.3954 48.9784 52.5 50.083 52.5C51.1876 52.5 52.083 53.3954 52.083 54.5Z" fill="#905A2B"></path><path d="M31.25 71.1667C31.25 72.2713 30.3546 73.1667 29.25 73.1667C28.1454 73.1667 27.25 72.2713 27.25 71.1667C27.25 70.0621 28.1454 69.1667 29.25 69.1667C30.3546 69.1667 31.25 70.0621 31.25 71.1667Z" fill="#905A2B"></path><path d="M31.25 54.5C31.25 55.6046 30.3546 56.5 29.25 56.5C28.1454 56.5 27.25 55.6046 27.25 54.5C27.25 53.3954 28.1454 52.5 29.25 52.5C30.3546 52.5 31.25 53.3954 31.25 54.5Z" fill="#905A2B"></path></svg> 