<?xml version="1.0" encoding="UTF-8"?> <svg xmlns="http://www.w3.org/2000/svg" width="83" height="96" viewBox="0 0 83 96" fill="none"> <path d="M0 29.7687C0 26.1986 1.90326 22.8993 4.99375 21.112L36.4938 2.89518C39.5909 1.10404 43.4091 1.10404 46.5063 2.89518L78.0062 21.112C81.0967 22.8993 83 26.1986 83 29.7687V66.2313C83 69.8014 81.0967 73.1007 78.0063 74.888L46.5062 93.1048C43.4091 94.896 39.5909 94.896 36.4937 93.1048L4.99375 74.888C1.90326 73.1007 0 69.8014 0 66.2313V29.7687Z" fill="#1C4F4A"></path> <path d="M24.9075 54.1032C25.0771 54.352 25.0093 54.7026 24.7492 54.8722C24.6926 54.9062 24.6248 54.9401 24.5569 54.9514C24.523 54.9966 24.4777 55.0306 24.4212 55.0532L19.4674 57.9146C18.8341 58.2765 18.2799 57.3265 18.9132 56.9646L23.686 54.2049C21.9782 51.0721 21.13 47.7017 21.0395 44.354H15.5429C14.819 44.354 14.819 43.2456 15.5429 43.2456H21.0508C21.1413 39.7961 22.0461 36.4257 23.686 33.3947L18.9132 30.6464C18.2799 30.2844 18.8341 29.3231 19.4674 29.6963L24.2402 32.4446C25.9819 29.5832 28.4136 27.095 31.456 25.2402L28.6963 20.4674C28.3344 19.8341 29.2844 19.2799 29.6577 19.9132L32.4173 24.686C35.5501 22.9782 38.9205 22.13 42.2682 22.0395V16.5429C42.2682 15.819 43.3766 15.819 43.3766 16.5429V22.0508C46.8148 22.1413 50.1965 23.0461 53.2276 24.686L55.9759 19.9132C56.3378 19.2799 57.2991 19.8341 56.9372 20.4674L54.1889 25.2402C57.0503 26.9819 59.5385 29.4136 61.3933 32.456L66.1661 29.7076C66.7995 29.3457 67.3537 30.2958 66.7203 30.6577L61.9362 33.406C63.4404 36.1769 64.3339 39.2419 64.5375 42.3521C64.5601 42.6575 64.3226 42.9176 64.0172 42.9403C63.7119 42.9629 63.4517 42.7254 63.4291 42.42C63.3273 40.8705 63.0446 39.3211 62.5809 37.8055C60.4885 30.9517 55.0145 25.7039 48.1607 23.8604C37.1448 20.8972 25.8123 27.4457 22.8604 38.4615C21.4919 43.551 22.0687 49.1607 24.9075 54.1032ZM31.0149 41.2438C31.2411 41.945 31.9762 43.0647 32.9149 43.1325C33.6388 43.1891 33.5596 44.2974 32.8358 44.2409C31.75 44.1617 30.9131 43.3474 30.3815 42.4766C28.9678 44.8064 30.2005 47.9392 32.3721 49.0929C33.1524 49.5 34.0459 49.6357 34.9507 49.353C35.3013 49.1381 35.5615 48.8101 35.6972 48.4369C35.8329 48.0523 35.8442 47.6226 35.6859 47.2154C35.4257 46.5255 36.4663 46.141 36.7264 46.8309C37.1448 47.9619 36.8056 49.2399 35.9121 50.009C36.6472 51.1513 38.1175 52.4632 39.4634 53.1305C39.2485 52.7007 39.0902 52.3614 38.9771 52.0674C38.7622 51.4906 38.7056 51.0495 38.6943 50.4614C38.6943 50.4161 38.6943 50.3596 38.6943 50.3143C38.9318 48.7875 39.8479 48.9458 40.8545 49.2173C41.567 49.4095 42.4718 49.647 43.2183 48.5387C43.3766 48.2899 43.4897 48.2107 43.5576 47.8148C43.6254 47.3851 43.5123 46.8648 43.207 46.5255C43.173 46.4916 43.1504 46.4463 43.1278 46.4124C42.2796 46.6386 41.3635 46.5481 40.5831 46.1183C39.9384 45.7677 40.47 44.7951 41.1033 45.1457C42.7659 46.0392 44.7677 44.6933 44.5642 42.8045C44.485 42.0807 45.5821 41.9563 45.6612 42.6801C45.8083 43.9695 45.2201 45.2022 44.157 45.9374C44.6999 46.6273 44.8356 47.6226 44.5415 48.4369C47.2333 48.8667 48.8846 47.9392 49.5179 45.2022C49.7215 44.3314 49.4614 43.4718 48.8054 42.895C48.5792 42.6914 48.5566 42.3521 48.7488 42.1146C48.9524 41.8884 49.303 41.8658 49.5292 42.0581C50.2983 42.7367 50.7281 43.7206 50.6941 44.7385C53.4425 44.4784 55.0598 42.5444 55.0145 40.2146C55.0032 39.5586 54.8449 38.9026 54.5508 38.2919C53.7931 36.7537 52.1305 35.5549 49.5405 35.6001C49.3822 35.634 49.2465 35.7245 49.1447 35.8489C48.7488 36.29 48.647 37.1609 49.1334 37.6133C50.2983 37.421 51.4858 37.8508 52.2775 38.733C52.4811 38.9592 52.4585 39.3098 52.2323 39.5133C52.0061 39.7169 51.6555 39.6943 51.4519 39.4681C50.1965 38.0544 47.8554 38.6199 47.3916 40.4747C47.222 41.1872 46.1476 40.9158 46.3172 40.2146C46.5547 39.2645 47.1768 38.4615 48.025 37.9978C47.4256 37.0139 47.6857 35.5323 48.6131 34.8423C47.4934 33.5869 45.5029 32.9762 44.1118 33.9149C43.7951 34.1298 43.535 34.4126 43.354 34.7406C43.2748 35.2382 43.3992 35.7358 43.6594 36.1317C43.9308 36.5501 44.3606 36.8668 44.8695 36.9912C45.5821 37.1609 45.3219 38.2353 44.6094 38.0657C43.1278 37.7151 42.1325 36.3353 42.223 34.8423C40.5718 33.7792 38.2645 33.5417 36.7829 34.8989C36.3532 35.2947 36.0365 35.7924 35.8668 36.3579C36.8621 36.7424 37.6764 37.4436 38.1967 38.371C39.339 38.2127 40.5039 38.6312 41.2843 39.502C41.4879 39.7282 41.4652 40.0788 41.239 40.2824C41.0128 40.486 40.6622 40.4634 40.4587 40.2372C39.2033 38.8121 36.8621 39.3889 36.3984 41.2325C36.2174 41.945 35.143 41.6735 35.3239 40.9723C35.5615 39.9884 36.2174 39.1741 37.1109 38.7103C36.2627 37.4436 34.5323 36.7763 33.0959 37.3418C32.0893 37.7377 31.275 38.6877 30.9809 39.6943C30.8339 40.2146 30.8226 40.7348 30.9922 41.1759C30.9922 41.1985 31.0036 41.2211 31.0149 41.2438ZM42.6415 33.7792C43.829 32.1732 46.0797 31.9922 47.844 32.8744C48.5905 33.2476 49.2465 33.8018 49.7441 34.4804C52.696 34.503 54.6413 35.9507 55.5348 37.7942C56.2586 39.2758 56.3039 41.0628 55.6366 42.567C54.8562 44.3201 53.1371 45.6999 50.4793 45.8469C49.5632 49.0816 47.1881 50.0994 43.9195 49.4322C42.7885 50.8685 41.5444 50.5405 40.5604 50.2691C40.3795 50.2239 40.2211 50.1786 40.0741 50.156C39.9384 50.1334 39.8366 50.1786 39.7914 50.4274C39.8027 50.8798 39.8479 51.2191 40.0063 51.6602C40.1872 52.1579 40.5152 52.7799 41.092 53.8091C41.3182 54.2163 40.9789 54.7026 40.5152 54.6234C38.4455 54.2728 35.9686 52.2031 34.9055 50.4727C30.4946 51.4679 26.6266 45.2475 29.8613 41.2551C29.2053 38.7782 31.7048 35.5662 34.7924 36.0299C35.5728 33.3834 38.3776 32.2976 41.0128 33.0441C41.5783 33.2363 42.1325 33.4738 42.6415 33.7792ZM44.1457 62.5177C43.976 62.2689 44.0439 61.9183 44.2927 61.7487C44.5415 61.579 44.8921 61.6469 45.0618 61.8957C46.3964 63.8976 48.3643 64.9155 50.7846 64.9381H53.5216C54.5169 64.9381 55.3651 64.5875 56.0777 63.8863C56.7902 63.185 57.1634 62.3481 57.186 61.3528C57.2087 60.154 57.22 59.4301 57.22 58.7063C57.2313 57.9825 57.2313 57.2586 57.2539 56.105C57.2426 55.7997 57.4688 55.5508 57.7629 55.5282L61.7213 55.3246C62.5017 55.2907 63.022 54.4198 62.6148 53.7412C61.3142 51.5924 59.2331 48.4708 58.351 46.616C58.317 46.5368 58.2944 46.4576 58.2944 46.3672C58.3057 46.0505 58.3057 45.7338 58.3057 45.4398C58.3057 36.5162 53.9401 30.3523 44.6207 30.3523C38.6151 30.3523 32.734 31.8791 29.6577 36.5728C26.9207 40.7461 27.2034 46.2201 28.7981 50.8911C29.488 52.9043 30.3815 54.2049 31.1732 55.3359C32.6887 57.5188 33.831 59.1587 32.734 63.7505C31.9649 66.9739 31.7613 68.3084 31.0375 71.43H45.0618L45.7291 68.6251C46.0458 67.3019 46.8714 66.2161 48.0024 65.5714C46.4077 65.0172 45.1297 63.9767 44.1457 62.5177ZM44.6094 29.2439C54.5508 29.2439 59.4028 35.9055 59.4028 45.4284C59.4028 45.7112 59.4028 45.9826 59.3915 46.2541C59.9796 47.4642 61.0201 49.1155 62.0606 50.7554C62.5922 51.5924 63.1238 52.4406 63.5535 53.1644C64.3905 54.5442 63.3952 56.3538 61.7666 56.4217L58.351 56.5913L58.2944 61.3641C58.2492 63.9541 56.1229 66.0351 53.5329 66.0351H50.3548C48.647 66.0351 47.1994 67.2001 46.8035 68.8513L46.0345 72.086C45.9779 72.3348 45.7404 72.5044 45.4916 72.5044H30.3363C29.9857 72.5044 29.6916 72.1764 29.816 71.7693C30.2232 70.0615 30.472 68.8626 30.7321 67.6525C30.9809 66.4649 31.2298 65.2661 31.6595 63.4678C32.6322 59.3623 31.6143 57.892 30.2684 55.9354C29.4315 54.7365 28.4927 53.3793 27.7463 51.2191C24.8396 42.7141 26.6832 33.6887 36.127 30.4654C38.4568 29.685 41.273 29.2439 44.6094 29.2439Z" fill="url(#paint0_linear_296_292)"></path> <path d="M24.9075 54.1032C25.0771 54.352 25.0093 54.7026 24.7492 54.8722C24.6926 54.9062 24.6248 54.9401 24.5569 54.9514C24.523 54.9966 24.4777 55.0306 24.4212 55.0532L19.4674 57.9146C18.8341 58.2765 18.2799 57.3265 18.9132 56.9646L23.686 54.2049C21.9782 51.0721 21.13 47.7017 21.0395 44.354H15.5429C14.819 44.354 14.819 43.2456 15.5429 43.2456H21.0508C21.1413 39.7961 22.0461 36.4257 23.686 33.3947L18.9132 30.6464C18.2799 30.2844 18.8341 29.3231 19.4674 29.6963L24.2402 32.4446C25.9819 29.5832 28.4136 27.095 31.456 25.2402L28.6963 20.4674C28.3344 19.8341 29.2844 19.2799 29.6577 19.9132L32.4173 24.686C35.5501 22.9782 38.9205 22.13 42.2682 22.0395V16.5429C42.2682 15.819 43.3766 15.819 43.3766 16.5429V22.0508C46.8148 22.1413 50.1965 23.0461 53.2276 24.686L55.9759 19.9132C56.3378 19.2799 57.2991 19.8341 56.9372 20.4674L54.1889 25.2402C57.0503 26.9819 59.5385 29.4136 61.3933 32.456L66.1661 29.7076C66.7995 29.3457 67.3537 30.2958 66.7203 30.6577L61.9362 33.406C63.4404 36.1769 64.3339 39.2419 64.5375 42.3521C64.5601 42.6575 64.3226 42.9176 64.0172 42.9403C63.7119 42.9629 63.4517 42.7254 63.4291 42.42C63.3273 40.8705 63.0446 39.3211 62.5809 37.8055C60.4885 30.9517 55.0145 25.7039 48.1607 23.8604C37.1448 20.8972 25.8123 27.4457 22.8604 38.4615C21.4919 43.551 22.0687 49.1607 24.9075 54.1032ZM44.1457 62.5177C43.976 62.2689 44.0439 61.9183 44.2927 61.7487C44.5415 61.579 44.8921 61.6469 45.0618 61.8957C46.3964 63.8976 48.3643 64.9155 50.7846 64.9381H53.5216C54.5169 64.9381 55.3651 64.5875 56.0777 63.8863C56.7902 63.185 57.1634 62.3481 57.186 61.3528C57.2087 60.154 57.22 59.4301 57.22 58.7063C57.2313 57.9825 57.2313 57.2586 57.2539 56.105C57.2426 55.7997 57.4688 55.5508 57.7629 55.5282L61.7213 55.3246C62.5017 55.2907 63.022 54.4198 62.6148 53.7412C61.3142 51.5924 59.2331 48.4708 58.351 46.616C58.317 46.5368 58.2944 46.4576 58.2944 46.3672C58.3057 46.0505 58.3057 45.7338 58.3057 45.4398C58.3057 36.5162 53.9401 30.3523 44.6207 30.3523C38.6151 30.3523 32.734 31.8791 29.6577 36.5728C26.9207 40.7461 27.2034 46.2201 28.7981 50.8911C29.488 52.9043 30.3815 54.2049 31.1732 55.3359C32.6887 57.5188 33.831 59.1587 32.734 63.7505C31.9649 66.9739 31.7613 68.3084 31.0375 71.43H45.0618L45.7291 68.6251C46.0458 67.3019 46.8714 66.2161 48.0024 65.5714C46.4077 65.0172 45.1297 63.9767 44.1457 62.5177ZM44.6094 29.2439C54.5508 29.2439 59.4028 35.9055 59.4028 45.4284C59.4028 45.7112 59.4028 45.9826 59.3915 46.2541C59.9796 47.4642 61.0201 49.1155 62.0606 50.7554C62.5922 51.5924 63.1238 52.4406 63.5535 53.1644C64.3905 54.5442 63.3952 56.3538 61.7666 56.4217L58.351 56.5913L58.2944 61.3641C58.2492 63.9541 56.1229 66.0351 53.5329 66.0351H50.3548C48.647 66.0351 47.1994 67.2001 46.8035 68.8513L46.0345 72.086C45.9779 72.3348 45.7404 72.5044 45.4916 72.5044H30.3363C29.9857 72.5044 29.6916 72.1764 29.816 71.7693C30.2232 70.0615 30.472 68.8626 30.7321 67.6525C30.9809 66.4649 31.2298 65.2661 31.6595 63.4678C32.6322 59.3623 31.6143 57.892 30.2684 55.9354C29.4315 54.7365 28.4927 53.3793 27.7463 51.2191C24.8396 42.7141 26.6832 33.6887 36.127 30.4654C38.4568 29.685 41.273 29.2439 44.6094 29.2439Z" fill="white"></path> <defs> <linearGradient id="paint0_linear_296_292" x1="41" y1="16" x2="41" y2="72.5044" gradientUnits="userSpaceOnUse"> <stop offset="0.044007" stop-color="white"></stop> <stop offset="0.679461" stop-color="white"></stop> </linearGradient> </defs> </svg> 