<?xml version="1.0" encoding="UTF-8"?> <svg xmlns="http://www.w3.org/2000/svg" width="11" height="38" viewBox="0 0 11 38" fill="none"><path d="M6.84668 27.1611C6.60254 27.21 6.17122 27.2995 5.55273 27.4297C5.30859 27.4785 5.04004 27.5029 4.74707 27.5029C3.36361 27.5029 2.67188 26.86 2.67188 25.5742C2.67188 24.8418 2.81836 23.7676 3.11133 22.3516L3.59961 19.8857C4.78776 13.9613 5.38184 8.48438 5.38184 3.45508C5.38184 2.95052 5.31673 2.38086 5.18652 1.74609C6.63509 1.16016 7.59538 0.867188 8.06738 0.867188C9.67871 0.867188 10.4844 1.72982 10.4844 3.45508C10.4844 4.98503 9.84147 8.44368 8.55566 13.8311C7.96973 16.2887 7.52214 18.307 7.21289 19.8857L6.87109 21.5703C6.62695 22.791 6.50488 23.9548 6.50488 25.0615C6.50488 25.7777 6.61882 26.4775 6.84668 27.1611ZM0.303711 31.1406L2.06152 30.7988C3.2334 30.571 4.08789 30.457 4.625 30.457C6.04102 30.457 6.74902 31.1976 6.74902 32.6787C6.74902 33.2646 6.66764 33.9727 6.50488 34.8027L6.1875 36.4629L5.06445 36.6582C3.4694 36.9512 2.51725 37.0977 2.20801 37.0977C1.05241 37.0977 0.474609 36.4954 0.474609 35.291C0.474609 34.9655 0.507161 34.6481 0.572266 34.3389L0.694336 33.7041C0.75944 33.4274 0.791992 33.1344 0.791992 32.8252C0.791992 32.1579 0.629232 31.5964 0.303711 31.1406Z" fill="#905A2B" fill-opacity="0.6"></path></svg> 