<?xml version="1.0" encoding="UTF-8"?> <svg xmlns="http://www.w3.org/2000/svg" width="640" height="597" viewBox="0 0 640 597" fill="none"><path d="M453.333 10L620 143.333L453.333 276.667V210C453.333 210 286.667 210 220 310C220 310 253.333 110 453.333 76.6667V10Z" fill="#905A2B" fill-opacity="0.6"></path><path d="M460.833 25.6047L607.994 143.333L460.833 261.062V210V202.5H453.333V210C453.333 202.5 453.33 202.5 453.327 202.5L453.317 202.5L453.285 202.5L453.177 202.5C453.128 202.501 453.068 202.501 452.997 202.502C452.934 202.502 452.862 202.503 452.781 202.503C452.439 202.507 451.942 202.513 451.297 202.526C450.009 202.551 448.131 202.602 445.729 202.702C440.928 202.902 434.027 203.301 425.55 204.095C408.611 205.683 385.305 208.86 359.848 215.224C318.761 225.496 271.112 244.312 235.964 279.024C242.128 260.336 252.204 235.52 268.054 209.764C300.563 156.936 357.23 100.287 454.566 84.0646L460.833 83.0201V76.6667V25.6047Z" stroke="#905A2B" stroke-opacity="0.6" stroke-width="15"></path><path d="M453.333 10L620 143.333L453.333 276.667V210C453.333 210 286.667 210 220 310C220 310 253.333 110 453.333 76.6667V10Z" stroke="#905A2B" stroke-width="20" stroke-linecap="round" stroke-linejoin="round"></path><path d="M620 343.333V543.333C620 552.174 616.488 560.652 610.237 566.904C603.986 573.155 595.507 576.667 586.667 576.667H53.3333C44.4928 576.667 36.0143 573.155 29.7631 566.904C23.5119 560.652 20 552.174 20 543.333V110C20 101.16 23.5119 92.6811 29.7631 86.4299C36.0143 80.1786 44.4928 76.6667 53.3333 76.6667H186.667" stroke="#905A2B" stroke-width="40" stroke-linecap="round" stroke-linejoin="round"></path></svg> 