<?xml version="1.0" encoding="UTF-8"?> <svg xmlns="http://www.w3.org/2000/svg" width="9" height="16" viewBox="0 0 9 16" fill="none"><path d="M1.29629 7C0.744004 7 0.296292 7.44772 0.296296 8.00001C0.296301 8.55229 0.74402 9 1.2963 9L1.29629 7ZM0.292878 7.29292C-0.0976381 7.68346 -0.0976241 8.31662 0.292909 8.70714L6.65701 15.071C7.04754 15.4615 7.68071 15.4615 8.07122 15.0709C8.46174 14.6804 8.46173 14.0472 8.07119 13.6567L2.41421 7.99998L8.07094 2.343C8.46146 1.95247 8.46144 1.31931 8.07091 0.928791C7.68038 0.538275 7.04721 0.538289 6.6567 0.928822L0.292878 7.29292ZM1.2963 9C1.37038 9 1.4213 9 1.4537 9C1.4699 9 1.48147 9 1.48898 9C1.49274 9 1.49547 9 1.49726 9C1.49816 9 1.49879 9 1.49919 9C1.49929 9 1.49937 9 1.49942 9C1.49946 9 1.49947 9 1.49949 9C1.49951 9 1.49951 9 1.49952 9C1.49952 9 1.49949 9 1.49948 9C1.49945 9 1.49936 9 1.4993 9C1.49921 9 1.49888 9 1.49866 9C1.49799 9 0.791947 8.70616 0.5 8C0.791937 7.29385 1.49796 7 1.49863 7C1.49884 7 1.49917 7 1.49927 7C1.49932 7 1.49942 7 1.49944 7C1.49945 7 1.49949 7 1.49948 7C1.49948 7 1.49948 7 1.49946 7C1.49944 7 1.49942 7 1.49939 7C1.49934 7 1.49926 7 1.49917 7C1.49879 7 1.49819 7 1.49737 7C1.49572 7 1.49328 7 1.4901 7C1.48375 7 1.4745 7 1.46292 7C1.43978 7 1.40738 7 1.37034 7.00001C1.29627 7.00001 1.20368 7.00001 1.12961 7.00001C1.09257 7.00001 1.06016 7.00001 1.03701 7.00001C1.02544 7.00001 1.01618 7.00001 1.00982 7.00001C1.00663 7.00001 1.00417 7.00001 1.00251 7.00001C1.00168 7.00001 1.00104 7.00001 1.00062 7.00001C1.00041 7.00001 1.00025 7.00001 1.00014 7.00001C1.00009 7.00001 1.00005 7.00001 1.00002 7.00001C1 7.00001 0.999995 7.00001 0.999988 7.00001C0.999981 7.00001 0.999978 7.00001 1 8.00001C1.00002 9.00001 1.00003 9.00001 1.00003 9.00001C1.00004 9.00001 1.00005 9.00001 1.00006 9.00001C1.00009 9.00001 1.00013 9.00001 1.00018 9.00001C1.00029 9.00001 1.00045 9.00001 1.00066 9.00001C1.00109 9.00001 1.00172 9.00001 1.00255 9.00001C1.00422 9.00001 1.00668 9.00001 1.00986 9.00001C1.01623 9.00001 1.02549 9.00001 1.03706 9.00001C1.06021 9.00001 1.09262 9.00001 1.12965 9.00001C1.20373 9.00001 1.29632 9.00001 1.3704 9.00001C1.40744 9 1.43985 9 1.463 9C1.47458 9 1.48385 9 1.49022 9C1.49341 9 1.49589 9 1.49757 9C1.49841 9 1.49908 9 1.49954 9C1.49977 9 1.5 9 1.50019 9C1.50027 9 1.50045 9 1.50065 9C1.50078 9 1.50112 9 1.50135 9C1.50203 9 2.20806 8.70615 2.5 8C2.20805 7.29384 1.502 7 1.50132 7C1.50109 7 1.50074 7 1.50061 7C1.50041 7 1.50023 7 1.50015 7C1.49996 7 1.49972 7 1.49949 7C1.499 7 1.4983 7 1.49739 7C1.49556 7 1.49279 7 1.48903 7C1.48149 7 1.46991 7 1.45371 7C1.42129 7 1.37036 7 1.29629 7L1.2963 9Z" fill="#905A2B"></path></svg> 