<?xml version="1.0" encoding="UTF-8"?> <svg xmlns="http://www.w3.org/2000/svg" width="83" height="96" viewBox="0 0 83 96" fill="none"> <path d="M0 29.7687C0 26.1986 1.90326 22.8993 4.99375 21.112L36.4938 2.89518C39.5909 1.10404 43.4091 1.10404 46.5063 2.89518L78.0062 21.112C81.0967 22.8993 83 26.1986 83 29.7687V66.2313C83 69.8014 81.0967 73.1007 78.0063 74.888L46.5062 93.1048C43.4091 94.896 39.5909 94.896 36.4937 93.1048L4.99375 74.888C1.90326 73.1007 0 69.8014 0 66.2313V29.7687Z" fill="#1C4F4A"></path> <path d="M59.0953 52.3606C61.9167 47.7248 62.7301 42.0576 61.3273 36.8132C58.9932 28.091 51.0583 22 42.0291 22H40.7422C29.9064 22 21.0909 30.8156 21.0909 41.6513V44.2582L17.4359 49.874C17.0096 50.5297 16.8893 51.337 17.1046 52.0886C17.3208 52.8393 17.8501 53.4592 18.5589 53.7879L21.1833 55.0085L22.2226 60.926C22.7509 63.934 25.3509 66.1172 28.4051 66.1172H33.2152C33.8456 66.1172 34.3958 66.5653 34.5239 67.1817L35.3008 70.9177C35.3845 71.3223 35.7411 71.6126 36.1543 71.6126H54.6818C54.9442 71.6126 55.1927 71.494 55.3584 71.2909C55.524 71.0877 55.5894 70.8201 55.5354 70.5637L54.3496 64.8555C53.8805 62.5982 54.2825 60.2703 55.4813 58.2999L59.0953 52.3606ZM53.9904 57.3957C52.5614 59.7437 52.0827 62.5198 52.6416 65.2113L53.6094 69.8706H36.8632L36.2311 66.8295C35.9364 65.4074 34.6678 64.376 33.2152 64.376H28.4051C26.2001 64.376 24.322 62.7988 23.9402 60.6269L22.8224 54.2613C22.7727 53.9806 22.5896 53.7417 22.3315 53.6222L19.2948 52.2089C19.0411 52.0912 18.8588 51.8785 18.7812 51.6091C18.7045 51.3397 18.7455 51.0624 18.899 50.8279L22.6951 44.9958C22.7867 44.8537 22.8364 44.6881 22.8364 44.5198V41.6539C22.8364 31.7799 30.8699 23.7464 40.7439 23.7464H42.0308C50.2718 23.7464 57.5145 29.3064 59.6445 37.2675C60.9245 42.0533 60.1825 47.2252 57.607 51.4574L53.9904 57.3957ZM31.4619 43.9653C31.7574 44.3454 31.6894 44.893 31.3093 45.1885C30.4784 45.8355 29.406 46.1912 28.2891 46.1912C27.1714 46.1912 26.0989 45.8355 25.268 45.1885C24.8879 44.893 24.8199 44.3446 25.1155 43.9653C25.4119 43.586 25.9594 43.5171 26.3387 43.8127C27.3911 44.6305 29.1854 44.6323 30.2378 43.8127C30.6179 43.5163 31.1654 43.586 31.4619 43.9653ZM48.4766 29.275C52.4245 33.2228 52.4245 39.6469 48.4766 43.5947C48.3066 43.7648 48.0834 43.8502 47.8602 43.8502C47.637 43.8502 47.4138 43.7648 47.2438 43.5947C46.9029 43.2538 46.9029 42.7028 47.2438 42.3619C50.5116 39.0941 50.5116 33.7756 47.2438 30.5078C45.6596 28.9236 43.5549 28.0509 41.3176 28.0509C39.0804 28.0509 36.9757 28.9236 35.3906 30.5078C34.2432 31.6552 33.6111 33.1784 33.6111 34.7992C33.6111 36.4183 34.2432 37.9423 35.3906 39.0897C36.538 40.2371 38.0611 40.8692 39.6811 40.8692C41.301 40.8692 42.8242 40.2363 43.9716 39.0897C45.4355 37.625 45.4355 35.2439 43.9716 33.7791C42.5077 32.3161 40.1258 32.3161 38.6619 33.7791C38.0995 34.3415 38.0995 35.2561 38.6619 35.8184C39.2068 36.3634 40.1554 36.3634 40.7003 35.8184C41.0404 35.4775 41.5923 35.4775 41.9332 35.8184C42.2741 36.1593 42.2741 36.7104 41.9332 37.0513C40.73 38.2553 38.6322 38.2553 37.429 37.0513C36.1866 35.8088 36.1866 33.7887 37.429 32.5463C39.573 30.4023 43.0605 30.4023 45.2045 32.5463C47.3484 34.6902 47.3484 38.1786 45.2045 40.3226C43.7284 41.7987 41.7666 42.613 39.6811 42.613C37.5956 42.613 35.6338 41.7987 34.1577 40.3226C32.6808 38.8465 31.8682 36.8847 31.8682 34.7992C31.8682 32.7128 32.6816 30.7511 34.1577 29.275C36.0715 27.3612 38.6139 26.3071 41.3176 26.3071C44.0204 26.3062 46.5628 27.3603 48.4766 29.275Z" fill="url(#paint0_linear_296_278)"></path> <path d="M59.0953 52.3606C61.9167 47.7248 62.7301 42.0576 61.3273 36.8132C58.9932 28.091 51.0583 22 42.0291 22H40.7422C29.9064 22 21.0909 30.8156 21.0909 41.6513V44.2582L17.4359 49.874C17.0096 50.5297 16.8893 51.337 17.1046 52.0886C17.3208 52.8393 17.8501 53.4592 18.5589 53.7879L21.1833 55.0085L22.2226 60.926C22.7509 63.934 25.3509 66.1172 28.4051 66.1172H33.2152C33.8456 66.1172 34.3958 66.5653 34.5239 67.1817L35.3008 70.9177C35.3845 71.3223 35.7411 71.6126 36.1543 71.6126H54.6818C54.9442 71.6126 55.1927 71.494 55.3584 71.2909C55.524 71.0877 55.5894 70.8201 55.5354 70.5637L54.3496 64.8555C53.8805 62.5982 54.2825 60.2703 55.4813 58.2999L59.0953 52.3606ZM53.9904 57.3957C52.5614 59.7437 52.0827 62.5198 52.6416 65.2113L53.6094 69.8706H36.8632L36.2311 66.8295C35.9364 65.4074 34.6678 64.376 33.2152 64.376H28.4051C26.2001 64.376 24.322 62.7988 23.9402 60.6269L22.8224 54.2613C22.7727 53.9806 22.5896 53.7417 22.3315 53.6222L19.2948 52.2089C19.0411 52.0912 18.8588 51.8785 18.7812 51.6091C18.7045 51.3397 18.7455 51.0624 18.899 50.8279L22.6951 44.9958C22.7867 44.8537 22.8364 44.6881 22.8364 44.5198V41.6539C22.8364 31.7799 30.8699 23.7464 40.7439 23.7464H42.0308C50.2718 23.7464 57.5145 29.3064 59.6445 37.2675C60.9245 42.0533 60.1825 47.2252 57.607 51.4574L53.9904 57.3957ZM31.4619 43.9653C31.7574 44.3454 31.6894 44.893 31.3093 45.1885C30.4784 45.8355 29.406 46.1912 28.2891 46.1912C27.1714 46.1912 26.0989 45.8355 25.268 45.1885C24.8879 44.893 24.8199 44.3446 25.1155 43.9653C25.4119 43.586 25.9594 43.5171 26.3387 43.8127C27.3911 44.6305 29.1854 44.6323 30.2378 43.8127C30.6179 43.5163 31.1654 43.586 31.4619 43.9653Z" fill="white"></path> <defs> <linearGradient id="paint0_linear_296_278" x1="39.5" y1="22" x2="39.5" y2="71.6126" gradientUnits="userSpaceOnUse"> <stop stop-color="white"></stop> <stop offset="0.460698" stop-color="white" stop-opacity="0.83"></stop> </linearGradient> </defs> </svg> 