<?xml version="1.0" encoding="UTF-8"?> <svg xmlns="http://www.w3.org/2000/svg" width="62" height="38" viewBox="0 0 62 38" fill="none"> <path d="M39.056 33.7468H22.6512V4.26465H39.056V33.7468Z" fill="#FF5F00"></path> <path d="M23.7022 19.0029C23.7022 13.0223 26.5024 7.695 30.8629 4.26185C27.6742 1.75136 23.6497 0.252932 19.2761 0.252932C8.92177 0.252932 0.528442 8.64746 0.528442 19.0029C0.528442 29.3584 8.92177 37.7529 19.2761 37.7529C23.6497 37.7529 27.6742 36.2545 30.8629 33.744C26.5024 30.3109 23.7022 24.9835 23.7022 19.0029Z" fill="#EB001B"></path> <path d="M61.1808 19.0029C61.1808 29.3584 52.7874 37.7529 42.4332 37.7529C38.0595 37.7529 34.0351 36.2545 30.8451 33.744C35.2069 30.3109 38.007 24.9835 38.007 19.0029C38.007 13.0223 35.2069 7.695 30.8451 4.26185C34.0351 1.75136 38.0595 0.252932 42.4332 0.252932C52.7874 0.252932 61.1808 8.64746 61.1808 19.0029Z" fill="#F79E1B"></path> <path d="M14.6359 19.1214C14.6359 18.3024 15.1726 17.6296 16.0497 17.6296C16.8876 17.6296 17.4533 18.2734 17.4533 19.1214C17.4533 19.9694 16.8876 20.6132 16.0497 20.6132C15.1726 20.6132 14.6359 19.9404 14.6359 19.1214ZM18.4084 19.1214V16.7916H17.3953V17.3573C17.074 16.9378 16.5864 16.6745 15.9236 16.6745C14.617 16.6745 13.5927 17.6988 13.5927 19.1214C13.5927 20.5452 14.617 21.5684 15.9236 21.5684C16.5864 21.5684 17.074 21.305 17.3953 20.8855V21.4512H18.4084V19.1214ZM52.6456 19.1214C52.6456 18.3024 53.1823 17.6296 54.0593 17.6296C54.8983 17.6296 55.4629 18.2734 55.4629 19.1214C55.4629 19.9694 54.8983 20.6132 54.0593 20.6132C53.1823 20.6132 52.6456 19.9404 52.6456 19.1214ZM56.4192 19.1214V14.9204H55.4049V17.3573C55.0836 16.9378 54.596 16.6745 53.9332 16.6745C52.6266 16.6745 51.6023 17.6988 51.6023 19.1214C51.6023 20.5452 52.6266 21.5684 53.9332 21.5684C54.596 21.5684 55.0836 21.305 55.4049 20.8855V21.4512H56.4192V19.1214ZM30.9846 17.5816C31.6373 17.5816 32.0569 17.9911 32.164 18.7119H29.7461C29.8543 18.0391 30.2627 17.5816 30.9846 17.5816ZM31.0047 16.6745C29.6389 16.6745 28.6838 17.6686 28.6838 19.1214C28.6838 20.6032 29.678 21.5684 31.0727 21.5684C31.7746 21.5684 32.4173 21.3932 32.983 20.9156L32.4865 20.1647C32.0959 20.476 31.5983 20.6523 31.1308 20.6523C30.478 20.6523 29.8833 20.3499 29.7371 19.5108H33.1972C33.2073 19.3847 33.2173 19.2575 33.2173 19.1214C33.2073 17.6686 32.3102 16.6745 31.0047 16.6745ZM43.2383 19.1214C43.2383 18.3024 43.775 17.6296 44.652 17.6296C45.49 17.6296 46.0557 18.2734 46.0557 19.1214C46.0557 19.9694 45.49 20.6132 44.652 20.6132C43.775 20.6132 43.2383 19.9404 43.2383 19.1214ZM47.0108 19.1214V16.7916H45.9976V17.3573C45.6752 16.9378 45.1887 16.6745 44.5259 16.6745C43.2193 16.6745 42.195 17.6988 42.195 19.1214C42.195 20.5452 43.2193 21.5684 44.5259 21.5684C45.1887 21.5684 45.6752 21.305 45.9976 20.8855V21.4512H47.0108V19.1214ZM37.5165 19.1214C37.5165 20.5351 38.5006 21.5684 40.0025 21.5684C40.7043 21.5684 41.1718 21.4121 41.6784 21.0127L41.1919 20.1937C40.8114 20.4671 40.412 20.6132 39.9723 20.6132C39.1634 20.6032 38.5687 20.0185 38.5687 19.1214C38.5687 18.2243 39.1634 17.6396 39.9723 17.6296C40.412 17.6296 40.8114 17.7758 41.1919 18.0491L41.6784 17.2301C41.1718 16.8307 40.7043 16.6745 40.0025 16.6745C38.5006 16.6745 37.5165 17.7077 37.5165 19.1214ZM50.5791 16.6745C49.9944 16.6745 49.6139 16.9478 49.3506 17.3573V16.7916H48.3464V21.4512H49.3606V18.8391C49.3606 18.0681 49.692 17.6396 50.3548 17.6396C50.5601 17.6396 50.7744 17.6686 50.9886 17.7568L51.301 16.8017C51.0767 16.7135 50.7844 16.6745 50.5791 16.6745ZM23.4195 17.1621C22.9319 16.8407 22.2602 16.6745 21.5193 16.6745C20.3388 16.6745 19.5789 17.2402 19.5789 18.1663C19.5789 18.9262 20.1446 19.3948 21.1868 19.541L21.6655 19.609C22.2211 19.6871 22.4833 19.8333 22.4833 20.0966C22.4833 20.457 22.1129 20.6623 21.4211 20.6623C20.7193 20.6623 20.2127 20.4381 19.8713 20.1747L19.3937 20.9636C19.9494 21.3731 20.6512 21.5684 21.4111 21.5684C22.7567 21.5684 23.5366 20.9346 23.5366 20.0475C23.5366 19.2285 22.923 18.8001 21.9087 18.6539L21.4311 18.5847C20.9926 18.5267 20.6412 18.4397 20.6412 18.1272C20.6412 17.7858 20.9725 17.5816 21.5282 17.5816C22.1229 17.5816 22.6987 17.8059 22.981 17.9811L23.4195 17.1621ZM36.4922 16.6745C35.9075 16.6745 35.527 16.9478 35.2648 17.3573V16.7916H34.2606V21.4512H35.2737V18.8391C35.2737 18.0681 35.6051 17.6396 36.2679 17.6396C36.4732 17.6396 36.6874 17.6686 36.9017 17.7568L37.2141 16.8017C36.9898 16.7135 36.6975 16.6745 36.4922 16.6745ZM27.8459 16.7916H26.1889V15.3779H25.1646V16.7916H24.2195V17.7177H25.1646V19.8433C25.1646 20.9245 25.5841 21.5684 26.7825 21.5684C27.2221 21.5684 27.7287 21.4322 28.05 21.208L27.7577 20.3399C27.4553 20.515 27.1239 20.6032 26.8606 20.6032C26.354 20.6032 26.1889 20.2908 26.1889 19.8233V17.7177H27.8459V16.7916ZM12.6967 21.4512V18.5267C12.6967 17.4254 11.9948 16.6845 10.8634 16.6745C10.2687 16.6644 9.65502 16.8497 9.22544 17.5035C8.90409 16.9869 8.39752 16.6745 7.68564 16.6745C7.188 16.6745 6.70151 16.8206 6.32102 17.3663V16.7916H5.30676V21.4512H6.32995V18.8681C6.32995 18.0592 6.7785 17.6296 7.47141 17.6296C8.14423 17.6296 8.48455 18.0681 8.48455 18.8581V21.4512H9.50885V18.8681C9.50885 18.0592 9.97637 17.6296 10.6492 17.6296C11.341 17.6296 11.6724 18.0681 11.6724 18.8581V21.4512H12.6967Z" fill="white"></path> </svg> 