<?xml version="1.0" encoding="UTF-8"?> <svg xmlns="http://www.w3.org/2000/svg" width="37" height="54" viewBox="0 0 37 54" fill="none"><path d="M10.8249 35.3436C3.846 32.1635 -0.392345 25.1473 0.0287165 17.4678C0.532991 8.26383 8.12929 0.606591 17.3233 0.0366126C22.4881 -0.282508 27.4077 1.48625 31.1667 5.02045C34.8742 8.50581 37 13.4225 37 18.5079C37 25.73 32.755 32.3372 26.1844 35.3408C25.9222 35.4609 25.6999 35.6536 25.5438 35.8962C25.3876 36.1387 25.3043 36.421 25.3035 36.7095V38.5753H26.5495C27.0226 38.5758 27.4762 38.764 27.8107 39.0986C28.1453 39.4332 28.3335 39.8869 28.3341 40.3602V41.3181H29.4104C29.5575 41.3181 29.6986 41.3766 29.8026 41.4807C29.9067 41.5848 29.9651 41.7259 29.9651 41.8731C29.9651 42.0203 29.9067 42.1615 29.8026 42.2655C29.6986 42.3696 29.5575 42.4281 29.4104 42.4281H28.3341V44.1231H29.4104C29.5575 44.1231 29.6986 44.1815 29.8026 44.2856C29.9067 44.3897 29.9651 44.5309 29.9651 44.678C29.9651 44.8252 29.9067 44.9664 29.8026 45.0705C29.6986 45.1746 29.5575 45.233 29.4104 45.233H28.3341V45.4062C28.3341 48.3332 25.9808 50.7164 23.0678 50.7713V51.626C23.0675 52.0645 22.8933 52.4849 22.5835 52.795C22.2736 53.105 21.8535 53.2794 21.4152 53.2799H15.5858C15.1475 53.2794 14.7272 53.1051 14.4173 52.795C14.1074 52.4849 13.9331 52.0645 13.9326 51.626V50.7713C11.0201 50.7158 8.66685 48.3327 8.66685 45.4062V45.233H7.59062C7.44349 45.233 7.30238 45.1746 7.19835 45.0705C7.09431 44.9664 7.03586 44.8252 7.03586 44.678C7.03586 44.5309 7.09431 44.3897 7.19835 44.2856C7.30238 44.1815 7.44349 44.1231 7.59062 44.1231H8.66685V42.4281H7.59062C7.44349 42.4281 7.30238 42.3696 7.19835 42.2655C7.09431 42.1615 7.03586 42.0203 7.03586 41.8731C7.03586 41.7259 7.09431 41.5848 7.19835 41.4807C7.30238 41.3766 7.44349 41.3181 7.59062 41.3181H8.66685V40.3602C8.66744 39.8869 8.85567 39.4332 9.19025 39.0986C9.52482 38.764 9.97842 38.5758 10.4515 38.5753H11.7036V36.7106C11.7036 36.1234 11.358 35.5861 10.8249 35.3436ZM15.0416 51.6254C15.0416 51.6969 15.0556 51.7676 15.083 51.8336C15.1103 51.8996 15.1503 51.9595 15.2008 52.01C15.2513 52.0605 15.3112 52.1006 15.3772 52.1279C15.4431 52.1553 15.5138 52.1693 15.5852 52.1693H21.4146C21.5587 52.1692 21.6969 52.1118 21.7987 52.0098C21.9005 51.9079 21.9577 51.7696 21.9577 51.6254V50.7763H15.0416V51.6254ZM10.451 39.6848C10.0787 39.6848 9.77581 39.9872 9.77581 40.3596V45.4056C9.77581 47.7549 11.6858 49.6658 14.0347 49.6658H22.9652C25.314 49.6658 27.2241 47.7549 27.2241 45.4056V40.3596C27.2241 39.9878 26.9212 39.6848 26.5489 39.6848H10.451ZM12.812 36.71V38.5748H16.1283V33.2285L14.1617 29.7859C13.4068 29.7646 12.679 29.4992 12.0875 29.0293C11.4961 28.5594 11.0727 27.9105 10.8809 27.1797C8.88376 27.2685 7.17677 25.6434 7.2095 23.5988C7.21303 23.2588 7.26477 22.9209 7.36317 22.5954C5.56187 21.9128 4.32754 20.1401 4.35194 18.1583C4.36139 17.4665 4.52435 16.7855 4.82907 16.1645C5.13378 15.5435 5.57261 14.998 6.11385 14.5674C5.20627 11.5594 7.78811 8.82215 10.7084 9.31166C10.7406 8.405 11.1238 7.54637 11.7771 6.91715C12.4304 6.28792 13.3026 5.93736 14.2094 5.93952H14.2555C16.1894 5.97115 17.7321 7.56232 17.7005 9.48815C17.6905 10.2502 17.7072 13.6917 17.7238 17.3346C17.7421 21.3395 17.761 25.4803 17.7477 26.3366C17.738 27.0657 17.5012 27.7736 17.0702 28.3616C16.6392 28.9495 16.0355 29.3883 15.3434 29.6166L17.1646 32.8056C17.2123 32.8889 17.2379 32.9843 17.2379 33.0809V38.5748H19.762V33.0809C19.7619 32.9843 19.7872 32.8894 19.8352 32.8056L21.6565 29.6166C20.9647 29.3885 20.3612 28.9501 19.9302 28.3625C19.4992 27.775 19.2622 27.0676 19.2522 26.3389C19.2383 25.4842 19.2577 21.3694 19.276 17.3896C19.2927 13.72 19.3082 10.2546 19.2982 9.49037C19.2677 7.56399 20.8133 5.97171 22.7466 5.94008C24.5451 5.88791 26.2216 7.33588 26.2915 9.31166C28.7302 8.90374 31.0319 10.7718 31.0713 13.2926C31.0747 13.7246 31.012 14.1545 30.8855 14.5674C31.4268 14.9979 31.8656 15.5434 32.1703 16.1644C32.4749 16.7855 32.6377 17.4665 32.6468 18.1583C32.6723 20.1396 31.4386 21.9133 29.6367 22.5954C29.9995 23.7909 29.7332 25.1462 28.7918 26.1124C28.0651 26.8583 27.0637 27.2257 26.1179 27.1797C25.9263 27.9105 25.5031 28.5596 24.9117 29.0295C24.3203 29.4993 23.5925 29.7648 22.8376 29.7859L20.8715 33.2285V38.5748H24.1945V36.7089C24.1955 36.2077 24.34 35.7173 24.611 35.2957C24.882 34.8741 25.268 34.5391 25.7234 34.3302C31.9001 31.5069 35.8905 25.296 35.8905 18.5073C35.8905 13.6567 33.9433 9.15349 30.4067 5.82852C26.874 2.50633 22.2518 0.843018 17.3921 1.14438C8.75062 1.67939 1.61033 8.87654 1.13601 17.5278C0.741023 24.7477 4.72419 31.3438 11.2848 34.333C11.74 34.5416 12.1259 34.8764 12.3966 35.2979C12.6673 35.7193 12.8115 36.2096 12.812 36.7106V36.71ZM9.26821 18.1344C9.92504 18.1488 10.4371 17.6127 10.446 16.9889C10.446 16.9839 10.4487 16.98 10.4487 16.9756C10.4232 16.7713 10.4066 16.5649 10.4099 16.3562C10.4138 16.0498 10.6496 15.7912 10.9719 15.809C11.0447 15.81 11.1167 15.8253 11.1836 15.8542C11.2505 15.883 11.3111 15.9247 11.3619 15.977C11.4127 16.0293 11.4527 16.091 11.4796 16.1587C11.5066 16.2265 11.5199 16.2988 11.5189 16.3717C11.4822 19.0113 14.387 20.643 16.6226 19.1939L16.6143 17.3402C16.6071 15.774 16.5999 14.2478 16.5949 12.9519C15.2674 13.1794 14.2427 14.3232 14.2228 15.7185C14.2207 15.8643 14.1614 16.0035 14.0575 16.1059C13.9537 16.2083 13.8138 16.2657 13.668 16.2657H13.6608C13.5879 16.2648 13.5159 16.2495 13.4489 16.2207C13.3819 16.1919 13.3213 16.1502 13.2704 16.0979C13.2196 16.0456 13.1795 15.9838 13.1525 15.9161C13.1256 15.8483 13.1122 15.7759 13.1132 15.703C13.1177 15.4743 13.1422 15.2464 13.1865 15.022C12.4226 15.1058 11.7829 14.835 11.328 14.3654C11.2322 14.2588 11.1813 14.1191 11.1861 13.9757C11.1909 13.8323 11.2511 13.6964 11.3539 13.5964C11.4567 13.4964 11.5942 13.4401 11.7376 13.4394C11.881 13.4386 12.0191 13.4934 12.123 13.5923C12.5346 14.0152 13.2514 14.0818 13.7318 13.6145C13.744 13.6023 13.7595 13.5979 13.7728 13.5879C14.0901 13.1108 14.5057 12.7073 14.9918 12.4043C15.4779 12.1013 16.0232 11.906 16.591 11.8313C16.5877 10.6692 16.5866 9.81226 16.591 9.47261C16.6126 8.14451 15.5458 7.07115 14.2388 7.05006H14.2078C13.5821 7.04806 12.9807 7.29231 12.5334 7.73009C12.0862 8.16787 11.829 8.76405 11.8173 9.38991C11.8173 9.39435 11.8201 9.39768 11.8195 9.40212C11.8114 9.89567 11.9572 10.3795 12.2367 10.7863C12.2802 10.8462 12.3113 10.9143 12.328 10.9865C12.3448 11.0586 12.347 11.1334 12.3344 11.2064C12.3218 11.2795 12.2948 11.3492 12.2548 11.4116C12.2149 11.474 12.1629 11.5277 12.1018 11.5697C12.0408 11.6116 11.9719 11.6409 11.8994 11.6559C11.8269 11.6708 11.7521 11.671 11.6794 11.6565C11.6068 11.6421 11.5378 11.6132 11.4765 11.5717C11.4152 11.5301 11.3628 11.4767 11.3225 11.4145C11.1289 11.1331 10.9841 10.8273 10.8814 10.5077C8.86656 9.82891 6.62479 11.6643 7.10521 13.9647C7.73248 13.6787 8.41527 13.5352 9.10456 13.5446C9.25169 13.5456 9.39238 13.6051 9.49569 13.7099C9.599 13.8147 9.65646 13.9563 9.65543 14.1035C9.6544 14.2507 9.59496 14.3914 9.4902 14.4948C9.38543 14.5981 9.24392 14.6556 9.09679 14.6546H9.08958C7.10687 14.6313 5.48642 16.2308 5.46146 18.1727C5.45388 18.9233 5.68313 19.6573 6.11659 20.2701C6.55004 20.8829 7.16563 21.3433 7.87577 21.5859C8.20488 21.1228 8.64063 20.7459 9.14616 20.487C9.27729 20.4215 9.42902 20.4105 9.56821 20.4565C9.70739 20.5025 9.8227 20.6018 9.88896 20.7326C9.95522 20.8634 9.96703 21.0152 9.92182 21.1547C9.87661 21.2942 9.77804 21.4101 9.64766 21.4771C8.82496 21.8934 8.33178 22.6792 8.31902 23.6149C8.31377 23.939 8.37371 24.2608 8.49528 24.5612C8.61686 24.8616 8.79759 25.1345 9.02671 25.3636C9.25583 25.5927 9.52867 25.7734 9.829 25.8949C10.1293 26.0164 10.451 26.0762 10.7749 26.0708C10.8105 25.5006 10.9855 24.9479 11.2848 24.4613C10.8916 24.2303 10.5771 23.8861 10.3822 23.4737C10.1872 23.0614 10.1209 22.5998 10.1919 22.1492C10.2028 22.0769 10.228 22.0075 10.266 21.9451C10.304 21.8827 10.354 21.8284 10.4132 21.7855C10.4724 21.7427 10.5395 21.712 10.6107 21.6954C10.6818 21.6787 10.7556 21.6764 10.8276 21.6886C10.9729 21.7117 11.1031 21.7917 11.1894 21.9109C11.2758 22.0301 11.3113 22.1787 11.2881 22.324C11.246 22.5891 11.2968 22.8606 11.4318 23.0925C11.5669 23.3245 11.778 23.5025 12.0292 23.5966C12.6652 23.0583 13.4764 22.7718 14.3093 22.7913C14.6161 22.7952 14.8613 23.0472 14.8568 23.3541C14.8524 23.661 14.6216 23.8919 14.2943 23.9013C12.9196 23.878 11.6736 25.0968 11.9122 26.6535C12.0941 27.8035 13.0616 28.6665 14.2316 28.6815C15.5253 28.7053 16.6221 27.6398 16.6382 26.3205C16.6482 25.6962 16.6404 23.2803 16.6282 20.4509C14.4535 21.4288 12.0181 20.5186 10.9386 18.5168C10.4648 19.0229 9.88454 19.2444 9.28541 19.2444H9.25268C9.17982 19.2434 9.10788 19.228 9.04096 19.1992C8.97404 19.1703 8.91346 19.1286 8.86266 19.0763C8.81187 19.0241 8.77186 18.9623 8.74492 18.8946C8.71799 18.8269 8.70466 18.7545 8.70568 18.6816C8.71012 18.3747 8.93868 18.1144 9.26821 18.1344ZM22.69 22.7908C23.5212 22.7795 24.3292 23.0655 24.9684 23.5972C25.2201 23.5035 25.4316 23.3256 25.5671 23.0936C25.7026 22.8617 25.7537 22.5899 25.7118 22.3246C25.6998 22.2524 25.7022 22.1786 25.7189 22.1073C25.7356 22.0361 25.7662 21.9688 25.8089 21.9095C25.8517 21.8501 25.9057 21.7998 25.968 21.7614C26.0302 21.723 26.0995 21.6973 26.1717 21.6858C26.2439 21.6742 26.3177 21.6771 26.3888 21.6942C26.4599 21.7113 26.527 21.7423 26.586 21.7855C26.6451 21.8286 26.6951 21.883 26.7331 21.9455C26.7711 22.008 26.7964 22.0774 26.8074 22.1498C26.8784 22.5999 26.8124 23.061 26.618 23.4731C26.4236 23.8853 26.1098 24.2294 25.7173 24.4608C26.0166 24.9474 26.1909 25.5005 26.2249 26.0708C26.5548 26.0761 26.8822 26.0139 27.1872 25.8879C27.4921 25.7619 27.768 25.5748 27.9979 25.3382C29.0925 24.2138 28.8745 22.2486 27.3522 21.4771C27.2872 21.4441 27.2294 21.3987 27.1819 21.3433C27.1345 21.288 27.0985 21.2238 27.0758 21.1545C27.0532 21.0852 27.0444 21.0122 27.05 20.9395C27.0556 20.8668 27.0754 20.7959 27.1084 20.7309C27.1414 20.6659 27.1868 20.608 27.2421 20.5606C27.2974 20.5131 27.3616 20.4771 27.4308 20.4544C27.5001 20.4318 27.5731 20.423 27.6458 20.4286C27.7184 20.4342 27.7893 20.454 27.8543 20.487C28.3597 20.7462 28.7952 21.1233 29.1241 21.5864C29.8342 21.3439 30.4497 20.8834 30.8829 20.2706C31.3162 19.6578 31.5452 18.9238 31.5373 18.1732C31.5234 17.0516 30.9753 16.0126 30.07 15.3494C29.4439 14.8855 28.6821 14.6416 27.9031 14.6557C27.7559 14.6567 27.6144 14.5992 27.5097 14.4959C27.4049 14.3925 27.3455 14.2518 27.3444 14.1046C27.3434 13.9574 27.4009 13.8158 27.5042 13.711C27.6075 13.6062 27.7482 13.5467 27.8953 13.5457C28.5846 13.535 29.2676 13.6781 29.8947 13.9647C29.9408 13.7492 29.9631 13.5292 29.9612 13.3087C29.9302 11.283 27.902 9.90828 26.1184 10.5082C26.0158 10.8279 25.871 11.1337 25.6774 11.4151C25.5941 11.5364 25.4661 11.6197 25.3214 11.6466C25.1767 11.6735 25.0273 11.6419 24.906 11.5585C24.7847 11.4752 24.7014 11.3471 24.6745 11.2024C24.6476 11.0577 24.6793 10.9082 24.7626 10.7868C25.8521 9.19955 24.6933 7.01454 22.7627 7.05062C21.4429 7.07171 20.3872 8.15838 20.4083 9.47483C20.4127 9.81337 20.4116 10.6675 20.4083 11.8269C20.9804 11.8982 21.5302 12.0935 22.0192 12.399C22.5082 12.7046 22.9247 13.1131 23.2398 13.5962C23.2487 13.604 23.2598 13.6068 23.2681 13.6145C23.7174 14.0519 24.4386 14.0424 24.8769 13.5923C24.9275 13.5392 24.9881 13.4966 25.0553 13.467C25.1224 13.4375 25.1948 13.4215 25.2681 13.4202C25.3415 13.4188 25.4144 13.4319 25.4826 13.4589C25.5508 13.4859 25.613 13.5262 25.6656 13.5774C25.7182 13.6286 25.7601 13.6897 25.7889 13.7572C25.8177 13.8247 25.8328 13.8973 25.8334 13.9706C25.8339 14.044 25.82 14.1168 25.7922 14.1848C25.7645 14.2527 25.7236 14.3145 25.6718 14.3665C25.4626 14.582 25.2122 14.7531 24.9356 14.8698C24.6589 14.9865 24.3616 15.0464 24.0614 15.0458C23.9782 15.0458 23.8966 15.032 23.814 15.0225C23.8576 15.247 23.8817 15.4749 23.8861 15.7035C23.8871 15.7764 23.8738 15.8488 23.8468 15.9165C23.8199 15.9842 23.7799 16.046 23.7291 16.0982C23.6783 16.1505 23.6177 16.1922 23.5508 16.2211C23.4839 16.2499 23.4119 16.2653 23.3391 16.2663H23.3313C23.1855 16.2663 23.0456 16.2089 22.9418 16.1065C22.838 16.0041 22.7786 15.8649 22.7766 15.7191C22.7571 14.3238 21.7325 13.18 20.4044 12.9524C20.3965 15.0336 20.3875 17.1149 20.3772 19.1961C20.9264 19.5529 21.56 19.7489 22.2102 19.7361C22.6458 19.7305 23.076 19.6391 23.4762 19.4669C23.8764 19.2948 24.2388 19.0454 24.5426 18.733C24.8463 18.4206 25.0855 18.0514 25.2465 17.6464C25.4074 17.2414 25.4869 16.8086 25.4805 16.3728C25.4794 16.2999 25.4927 16.2274 25.5196 16.1596C25.5465 16.0917 25.5866 16.0299 25.6374 15.9776C25.6883 15.9252 25.749 15.8835 25.816 15.8546C25.883 15.8258 25.9551 15.8105 26.028 15.8095H26.0352C26.181 15.8095 26.3209 15.8669 26.4248 15.9693C26.5286 16.0717 26.5879 16.2109 26.59 16.3567C26.5933 16.566 26.5767 16.7719 26.5511 16.9761C26.5511 16.9806 26.5539 16.9844 26.5539 16.9894C26.5583 17.2947 26.6825 17.5859 26.8998 17.8003C27.117 18.0146 27.4099 18.1348 27.715 18.1349H27.7394C27.8866 18.134 28.028 18.1915 28.1328 18.2949C28.2375 18.3983 28.2968 18.5391 28.2978 18.6863C28.2987 18.8335 28.2412 18.9751 28.1379 19.0798C28.0345 19.1846 27.8938 19.244 27.7466 19.2449H27.7145C27.122 19.2449 26.5378 19.0274 26.0613 18.5173C25.6838 19.223 25.1214 19.8126 24.4345 20.223C23.7475 20.6333 22.962 20.8489 22.1619 20.8466C21.5438 20.8434 20.9336 20.7085 20.3717 20.4509C20.3595 23.2781 20.3517 25.6973 20.3617 26.3228C20.3783 27.6303 21.4413 28.682 22.7377 28.682H22.7682C24.8564 28.6554 25.9387 26.0702 24.4042 24.5773C23.9471 24.1328 23.3563 23.8808 22.705 23.9019C22.3855 23.8897 22.1475 23.6605 22.143 23.3547C22.142 23.2818 22.1553 23.2094 22.1823 23.1417C22.2092 23.0739 22.2492 23.0122 22.3 22.9599C22.3508 22.9077 22.4114 22.8659 22.4783 22.8371C22.5452 22.8083 22.6172 22.7929 22.69 22.7919V22.7908Z" fill="#905A2B"></path><path d="M18.2921 41.4396H21.4189C21.56 41.4396 21.6953 41.4786 21.7951 41.548C21.8948 41.6174 21.9509 41.7115 21.9509 41.8096C21.9509 41.9077 21.8948 42.0018 21.7951 42.0712C21.6953 42.1406 21.56 42.1796 21.4189 42.1796H18.2921C18.151 42.1796 18.0157 42.1406 17.916 42.0712C17.8162 42.0018 17.7602 41.9077 17.7602 41.8096C17.7602 41.7115 17.8162 41.6174 17.916 41.548C18.0157 41.4786 18.151 41.4396 18.2921 41.4396ZM23.3313 41.4396H23.8882C24.0293 41.4396 24.1646 41.4786 24.2644 41.548C24.3641 41.6174 24.4202 41.7115 24.4202 41.8096C24.4202 41.9077 24.3641 42.0018 24.2644 42.0712C24.1646 42.1406 24.0293 42.1796 23.8882 42.1796H23.3313C23.1902 42.1796 23.0549 42.1406 22.9551 42.0712C22.8554 42.0018 22.7993 41.9077 22.7993 41.8096C22.7993 41.7115 22.8554 41.6174 22.9551 41.548C23.0549 41.4786 23.1902 41.4396 23.3313 41.4396Z" fill="#905A2B"></path></svg> 