<?xml version="1.0" encoding="UTF-8"?> <svg xmlns="http://www.w3.org/2000/svg" width="95" height="60" viewBox="0 0 95 60" fill="none"> <g clip-path="url(#clip0_17_2)"> <path fill-rule="evenodd" clip-rule="evenodd" d="M75.8062 20H61.951C62.6959 24.4286 67.1653 28.5714 72.0817 28.5714H83.1062C83.2551 28.1429 83.2551 27.5714 83.2551 27.1429C83.2551 23.1429 79.9776 20 75.8062 20Z" fill="url(#paint0_linear_17_2)"></path> <path fill-rule="evenodd" clip-rule="evenodd" d="M63.1429 29.2861V40.0004H69.847V34.2861H75.8061C79.0837 34.2861 81.9143 32.1433 82.8082 29.2861H63.1429Z" fill="#4DB45F"></path> <path fill-rule="evenodd" clip-rule="evenodd" d="M39.3062 20V40H45.2653C45.2653 40 46.7551 40 47.5 38.5714C51.5225 30.8571 52.7143 28.5714 52.7143 28.5714H53.4592V40H60.1633V20H54.2041C54.2041 20 52.7143 20.1429 51.9694 21.4286C48.5429 28 46.7551 31.4286 46.7551 31.4286H46.0102V20H39.3062Z" fill="#4DB45F"></path> <path fill-rule="evenodd" clip-rule="evenodd" d="M11 40V20H17.7041C17.7041 20 19.6408 20 20.6837 22.8571C23.3653 30.4286 23.6633 31.4286 23.6633 31.4286C23.6633 31.4286 24.2592 29.5714 26.6429 22.8571C27.6857 20 29.6224 20 29.6224 20H36.3265V40H29.6224V29.2857H28.8776L25.1531 40H22.1735L18.449 29.2857H17.7041V40H11Z" fill="#4DB45F"></path> </g> <defs> <linearGradient id="paint0_linear_17_2" x1="61.9126" y1="24.2857" x2="83.2551" y2="24.2857" gradientUnits="userSpaceOnUse"> <stop stop-color="#00B4E6"></stop> <stop offset="1" stop-color="#088CCB"></stop> </linearGradient> <clipPath id="clip0_17_2"> <rect width="73" height="20" fill="white" transform="translate(11 20)"></rect> </clipPath> </defs> </svg> 