<?xml version="1.0" encoding="UTF-8"?> <svg xmlns="http://www.w3.org/2000/svg" width="95" height="76" viewBox="0 0 95 76" fill="none"> <path d="M5.70011 65.3913L7.56877 69.7493H3.83422L5.70011 65.3913ZM4.9831 62.5186L0 73.9844H2.02923L3.1172 71.4467H8.30516L9.41251 73.9844H11.475L6.49187 62.5186H4.9831Z" fill="#24211E"></path> <path d="M22.8695 71.9878C21.9448 73.3139 20.2063 74.1151 18.2574 74.1151C16.469 74.1151 15.0571 73.5763 13.9996 72.5098C12.9421 71.4434 12.4078 70.0363 12.4078 68.2524C12.3877 67.4817 12.5195 66.7148 12.7956 65.9959C13.0717 65.2771 13.4866 64.6206 14.0162 64.0647C15.0903 62.948 16.4856 62.3896 18.2241 62.3896C20.2229 62.3896 21.895 63.1937 22.6923 64.3718L21.3912 65.6169C21.0064 65.1834 20.5322 64.84 20.0018 64.6109C19.4714 64.3818 18.8977 64.2726 18.321 64.2908C17.1528 64.2908 16.2088 64.651 15.5111 65.3713C15.1537 65.7569 14.8762 66.2106 14.6951 66.7058C14.5139 67.2011 14.4328 67.7278 14.4564 68.2552C14.4317 68.7838 14.5171 69.3118 14.707 69.8051C14.8969 70.2985 15.1871 70.7463 15.5589 71.1197C15.9308 71.4931 16.3761 71.7839 16.8661 71.9733C17.3561 72.1627 17.88 72.2466 18.4041 72.2195C19.0355 72.2432 19.6639 72.1194 20.2401 71.8579C20.8164 71.5964 21.3249 71.2042 21.7261 70.7119L22.8695 71.9878Z" fill="#24211E"></path> <path d="M23.9412 64.3863V62.5186H33.5392V64.3863H29.7243V73.9844H27.7588V64.3863H23.9412Z" fill="#24211E"></path> <path d="M37.4702 73.9844H35.5046V62.5186H40.1002C41.9356 62.5186 43.2534 62.9624 43.9178 63.7302C44.5345 64.4338 44.8605 65.3489 44.8286 66.2875C44.8286 68.1524 43.6271 70.0536 40.0863 70.0536H37.4702V73.9844ZM37.4702 64.3695V68.2026H40.0531C41.8719 68.2026 42.7827 67.5633 42.7827 66.2707C42.7827 64.9781 41.9051 64.3695 40.1666 64.3695H37.4702Z" fill="#24211E"></path> <path d="M48.206 64.0734C48.7435 63.5247 49.3868 63.093 50.0963 62.8049C50.8058 62.5168 51.5663 62.3784 52.3309 62.3984C53.0994 62.3795 53.8638 62.5183 54.5776 62.8062C55.2914 63.0942 55.9398 63.5253 56.4834 64.0734C57.3053 64.8968 57.8653 65.9484 58.092 67.094C58.3186 68.2397 58.2018 69.4275 57.7562 70.5059C57.3106 71.5842 56.5566 72.5043 55.5903 73.1487C54.624 73.7931 53.4893 74.1326 52.3309 74.1238C51.5668 74.1399 50.8074 73.9997 50.0985 73.7118C49.3896 73.4239 48.7458 72.9943 48.206 72.4488C47.1224 71.3287 46.5159 69.8259 46.5159 68.2611C46.5159 66.6963 47.1224 65.1935 48.206 64.0734V64.0734ZM49.6677 71.1031C50.3802 71.8164 51.3435 72.2167 52.3475 72.2167C53.3515 72.2167 54.3148 71.8164 55.0273 71.1031C55.3866 70.7249 55.6668 70.2776 55.8514 69.7879C56.0359 69.2983 56.1209 68.7762 56.1014 68.2527C56.1193 67.7266 56.0303 67.2023 55.8398 66.7121C55.6494 66.2219 55.3616 65.7762 54.9941 65.4023C54.6466 65.0454 54.2316 64.7627 53.7736 64.5708C53.3156 64.379 52.824 64.282 52.3281 64.2856C51.8335 64.2758 51.3421 64.3681 50.8841 64.5567C50.4261 64.7454 50.0112 65.0265 49.6649 65.3828C48.9542 66.1623 48.5598 67.1826 48.5598 68.2416C48.5598 69.3005 48.9542 70.3208 49.6649 71.1003" fill="#24211E"></path> <path d="M60.6304 73.9844V62.5186H62.5959V72.1195H68.1189V62.5186H70.0844V72.1195H71.4658V76H69.5639V73.9844H60.6304Z" fill="#24211E"></path> <path d="M75.2171 73.9844H73.5754V62.5186H75.541V70.464L81.7782 62.5186H83.4337V73.9844H81.4709V66.0418L75.2171 73.9844Z" fill="#24211E"></path> <path d="M85.3992 64.3863V62.5186H94.9999V64.3863H91.1823V73.9844H89.2168V64.3863H85.3992Z" fill="#24211E"></path> <path d="M72.255 20.7228C72.1735 20.3391 71.9643 19.995 71.6622 19.7477C71.36 19.5004 70.9831 19.3647 70.594 19.3632C70.4739 19.3639 70.3543 19.377 70.2369 19.4023L58.2082 21.9791L56.3091 22.3839C55.4521 22.5678 54.5652 22.5562 53.7133 22.35C52.8613 22.1438 52.0658 21.7482 51.3849 21.1922C50.7041 20.6361 50.155 19.9336 49.7779 19.1361C49.4008 18.3386 49.2052 17.4661 49.2054 16.5826V1.78616C49.2147 1.55505 49.1775 1.32444 49.0962 1.10817C49.0149 0.891895 48.891 0.694424 48.7322 0.527606C48.5733 0.360788 48.3826 0.228064 48.1716 0.137399C47.9606 0.0467348 47.7336 0 47.5042 0C47.2749 0 47.0479 0.0467348 46.8369 0.137399C46.6259 0.228064 46.4352 0.360788 46.2763 0.527606C46.1175 0.694424 45.9936 0.891895 45.9123 1.10817C45.831 1.32444 45.7938 1.55505 45.8031 1.78616V16.5826C45.804 17.4614 45.6112 18.3294 45.2385 19.1238C44.8659 19.9182 44.3227 20.6191 43.6483 21.1757C42.9739 21.7324 42.1852 22.1308 41.3394 22.3422C40.4935 22.5535 39.6116 22.5725 38.7575 22.3979H38.6883L36.7837 21.9875L24.7633 19.3939C24.5444 19.3465 24.3183 19.3434 24.0982 19.3847C23.8781 19.426 23.6682 19.5109 23.4808 19.6345C23.2934 19.758 23.1321 19.9178 23.0063 20.1046C22.8806 20.2915 22.7927 20.5015 22.748 20.7228C22.6559 21.1676 22.7418 21.6311 22.9871 22.0123C23.2324 22.3935 23.6171 22.6615 24.0574 22.758L35.6846 25.2483L37.7332 25.6894C38.4875 25.854 39.1904 26.2019 39.7809 26.703C40.3714 27.204 40.8316 27.8429 41.1214 28.5642C41.4112 29.2855 41.5219 30.0672 41.4438 30.8415C41.3657 31.6157 41.1011 32.359 40.6733 33.0066L40.6428 33.0597L38.8378 35.7035L31.006 47.2C30.7515 47.5752 30.6548 48.0369 30.7373 48.4839C30.8199 48.9308 31.0748 49.3265 31.4462 49.5842C31.729 49.7793 32.0642 49.8826 32.4069 49.8801C32.6825 49.8813 32.9544 49.8148 33.1989 49.6864C33.4434 49.558 33.6533 49.3715 33.8104 49.1431L41.5259 37.8057L43.5939 34.7738C44.0228 34.1467 44.594 33.6319 45.2601 33.2724C45.9261 32.9129 46.6677 32.7191 47.423 32.7071C48.1784 32.6951 48.9257 32.8652 49.6026 33.2033C50.2796 33.5414 50.8667 34.0378 51.3149 34.651L53.4632 37.8057L61.1815 49.1431C61.4384 49.5181 61.8326 49.7748 62.2773 49.8568C62.722 49.9387 63.1807 49.8392 63.5526 49.58C63.9245 49.3209 64.179 48.9233 64.2603 48.4749C64.3415 48.0265 64.2428 47.5639 63.9858 47.1889L56.1458 35.6895L54.3491 33.0485C53.9079 32.4003 53.6319 31.6524 53.5457 30.8711C53.4594 30.0897 53.5655 29.2989 53.8546 28.5688C54.1437 27.8386 54.6068 27.1916 55.2029 26.685C55.7991 26.1783 56.5099 25.8278 57.2725 25.6642L59.299 25.2287L70.9262 22.7385C71.366 22.6462 71.7521 22.3829 72.0008 22.0057C72.2496 21.6284 72.3409 21.1675 72.255 20.7228V20.7228ZM47.5001 29.3606C46.8462 29.3611 46.2069 29.1661 45.6629 28.8001C45.119 28.4342 44.6949 27.9138 44.4443 27.3047C44.1937 26.6957 44.1278 26.0254 44.255 25.3786C44.3823 24.7318 44.6969 24.1376 45.159 23.6711C45.6212 23.2046 46.2102 22.8869 46.8514 22.758C47.4927 22.6292 48.1575 22.695 48.7616 22.9473C49.3658 23.1995 49.8822 23.6267 50.2455 24.175C50.6088 24.7232 50.8028 25.3678 50.8028 26.0272C50.8028 26.9112 50.4545 27.7591 49.8346 28.3842C49.2147 29.0094 48.374 29.3606 47.4973 29.3606" fill="#905A2B"></path> </svg> 