<?xml version="1.0" encoding="UTF-8"?> <svg xmlns="http://www.w3.org/2000/svg" width="61" height="55" viewBox="0 0 61 55" fill="none"> <path d="M59.2782 25.8307H54.1224C53.8818 25.8307 53.6511 25.7352 53.481 25.5651C53.3109 25.395 53.2153 25.1642 53.2153 24.9237C53.2153 24.6831 53.3109 24.4524 53.481 24.2823C53.6511 24.1122 53.8818 24.0166 54.1224 24.0166H59.2782C59.5188 24.0166 59.7495 24.1122 59.9196 24.2823C60.0897 24.4524 60.1853 24.6831 60.1853 24.9237C60.1853 25.1642 60.0897 25.395 59.9196 25.5651C59.7495 25.7352 59.5188 25.8307 59.2782 25.8307Z" fill="url(#paint0_linear_422_310)"></path> <path d="M54.1238 21.0253C53.9163 21.025 53.7151 20.9536 53.5537 20.823C53.3924 20.6924 53.2808 20.5105 53.2374 20.3075C53.1939 20.1045 53.2214 19.8928 53.3152 19.7076C53.409 19.5225 53.5634 19.375 53.7527 19.2899L58.4591 17.1834C58.568 17.1348 58.6854 17.1081 58.8047 17.1048C58.9239 17.1016 59.0426 17.1218 59.154 17.1645C59.2654 17.2071 59.3673 17.2712 59.4539 17.3532C59.5405 17.4352 59.6101 17.5335 59.6588 17.6424C59.7074 17.7513 59.7341 17.8687 59.7374 17.988C59.7406 18.1072 59.7204 18.2259 59.6777 18.3373C59.6351 18.4487 59.571 18.5506 59.489 18.6372C59.407 18.7238 59.3087 18.7934 59.1998 18.8421L54.4939 20.9486C54.3773 21 54.2512 21.0261 54.1238 21.0253Z" fill="url(#paint1_linear_422_310)"></path> <path d="M58.8279 32.7472C58.7005 32.7471 58.5745 32.7201 58.4583 32.6679L53.7519 30.5614C53.5323 30.4631 53.3607 30.2816 53.275 30.0568C53.1892 29.832 53.1962 29.5824 53.2945 29.3627C53.3928 29.1431 53.5743 28.9716 53.7991 28.8858C54.0239 28.8 54.2735 28.807 54.4931 28.9053L59.199 31.0118C59.3888 31.0965 59.5438 31.2439 59.6379 31.4292C59.7321 31.6145 59.7597 31.8265 59.7163 32.0298C59.6728 32.2331 59.5608 32.4152 59.3991 32.5458C59.2374 32.6764 59.0358 32.7475 58.8279 32.7472Z" fill="url(#paint2_linear_422_310)"></path> <path d="M6.06288 25.8347H0.907073C0.666502 25.8347 0.435785 25.7391 0.265676 25.569C0.0955664 25.3989 0 25.1682 0 24.9276C0 24.687 0.0955664 24.4563 0.265676 24.2862C0.435785 24.1161 0.666502 24.0205 0.907073 24.0205H6.06288C6.30345 24.0205 6.53417 24.1161 6.70428 24.2862C6.87438 24.4563 6.96995 24.687 6.96995 24.9276C6.96995 25.1682 6.87438 25.3989 6.70428 25.569C6.53417 25.7391 6.30345 25.8347 6.06288 25.8347Z" fill="url(#paint3_linear_422_310)"></path> <path d="M1.35668 32.7472C1.14882 32.7475 0.947164 32.6764 0.785447 32.5458C0.623731 32.4152 0.51177 32.2331 0.468301 32.0298C0.424831 31.8265 0.45249 31.6145 0.54665 31.4292C0.640809 31.2439 0.795755 31.0965 0.98556 31.0118L5.69146 28.9053C5.91106 28.807 6.16072 28.8 6.38551 28.8858C6.61029 28.9716 6.7918 29.1431 6.89009 29.3627C6.98838 29.5824 6.99541 29.832 6.90962 30.0568C6.82384 30.2816 6.65227 30.4631 6.43266 30.5614L1.72625 32.6679C1.61004 32.7201 1.48409 32.7471 1.35668 32.7472Z" fill="url(#paint4_linear_422_310)"></path> <path d="M6.06171 21.0247C5.93413 21.0247 5.80799 20.9977 5.69162 20.9454L0.985723 18.8389C0.778608 18.7331 0.620032 18.5519 0.542754 18.3325C0.465475 18.1132 0.475399 17.8725 0.570475 17.6603C0.66555 17.448 0.838514 17.2804 1.05364 17.1921C1.26876 17.1037 1.5096 17.1013 1.72641 17.1855L6.43283 19.2919C6.62213 19.3771 6.77655 19.5245 6.87032 19.7097C6.9641 19.8948 6.99158 20.1065 6.94817 20.3095C6.90476 20.5125 6.79309 20.6944 6.63178 20.8251C6.47047 20.9557 6.26927 21.0271 6.06171 21.0273V21.0247Z" fill="url(#paint5_linear_422_310)"></path> <path d="M38.1181 15.2958H22.0676C21.263 15.295 20.4917 14.9752 19.9226 14.4065C19.3535 13.8378 19.0331 13.0666 19.0317 12.2621V3.03584C19.0326 2.23094 19.3527 1.45924 19.9218 0.890088C20.491 0.320935 21.2627 0.000823291 22.0676 0H38.1181C38.923 0.000823291 39.6947 0.320935 40.2639 0.890088C40.833 1.45924 41.1531 2.23094 41.154 3.03584V12.2621C41.1526 13.0666 40.8322 13.8378 40.2631 14.4065C39.694 14.9752 38.9227 15.295 38.1181 15.2958ZM22.0676 1.81467C21.7437 1.81494 21.4332 1.94367 21.2042 2.17261C20.9752 2.40155 20.8463 2.712 20.8459 3.03584V12.2621C20.8462 12.586 20.975 12.8966 21.204 13.1256C21.4331 13.3547 21.7437 13.4835 22.0676 13.4838H38.1181C38.442 13.4835 38.7526 13.3547 38.9817 13.1256C39.2107 12.8966 39.3395 12.586 39.3398 12.2621V3.03584C39.3395 2.71191 39.2107 2.40133 38.9817 2.17228C38.7526 1.94322 38.442 1.81442 38.1181 1.81415L22.0676 1.81467Z" fill="#905A2B"></path> <path d="M33.6173 20.451H26.5681C25.9086 20.4498 25.2765 20.1872 24.8101 19.7209C24.3438 19.2546 24.0813 18.6225 24.0801 17.963V14.3866C24.0801 14.146 24.1756 13.9153 24.3458 13.7452C24.5159 13.5751 24.7466 13.4795 24.9872 13.4795H35.1982C35.4388 13.4795 35.6695 13.5751 35.8396 13.7452C36.0097 13.9153 36.1053 14.146 36.1053 14.3866V17.9584C36.1053 18.6186 35.8433 19.2519 35.3769 19.7193C34.9104 20.1866 34.2776 20.4498 33.6173 20.451ZM25.8942 15.2952V17.9599C25.8942 18.1386 25.9652 18.31 26.0916 18.4364C26.218 18.5627 26.3893 18.6337 26.5681 18.6337H33.6173C33.796 18.6337 33.9674 18.5627 34.0938 18.4364C34.2201 18.31 34.2911 18.1386 34.2911 17.9599V15.2952H25.8942Z" fill="#905A2B"></path> <path d="M38.1113 32.5678H21.4938C20.8412 32.567 20.2156 32.3074 19.7541 31.8459C19.2927 31.3845 19.033 30.7588 19.0322 30.1063V19.7397C19.0322 19.0863 19.2914 18.4596 19.7528 17.9971C20.2143 17.5346 20.8404 17.274 21.4938 17.2725H24.9868C25.2273 17.2725 25.4581 17.368 25.6282 17.5381C25.7983 17.7082 25.8938 17.939 25.8938 18.1795C25.8938 18.4201 25.7983 18.6508 25.6282 18.8209C25.4581 18.991 25.2273 19.0866 24.9868 19.0866H21.4938C21.3214 19.0876 21.1564 19.1569 21.035 19.2793C20.9137 19.4017 20.8458 19.5673 20.8464 19.7397V30.1063C20.8466 30.2779 20.9149 30.4424 21.0363 30.5637C21.1576 30.6851 21.3221 30.7534 21.4938 30.7536H38.1113C38.4373 30.7532 38.7498 30.6236 38.9803 30.3931C39.2107 30.1626 39.3404 29.8501 39.3408 29.5242V20.3182C39.3405 19.9921 39.2109 19.6795 38.9804 19.4489C38.7499 19.2183 38.4374 19.0886 38.1113 19.0882H35.2004C34.9598 19.0882 34.7291 18.9926 34.559 18.8225C34.3889 18.6524 34.2933 18.4217 34.2933 18.1811C34.2933 17.9405 34.3889 17.7098 34.559 17.5397C34.7291 17.3696 34.9598 17.274 35.2004 17.274H38.1113C38.9184 17.275 39.692 17.596 40.2626 18.1667C40.8332 18.7374 41.1541 19.5111 41.155 20.3182V29.5242C41.1541 30.3311 40.8332 31.1048 40.2626 31.6754C39.692 32.246 38.9183 32.567 38.1113 32.5678Z" fill="#905A2B"></path> <path d="M33.6173 37.7272H26.5681C25.9085 37.7261 25.2763 37.4636 24.81 36.9973C24.3437 36.5309 24.0812 35.8987 24.0801 35.2392V31.6659C24.0801 31.4253 24.1756 31.1946 24.3458 31.0245C24.5159 30.8544 24.7466 30.7588 24.9872 30.7588H35.1982C35.4388 30.7588 35.6695 30.8544 35.8396 31.0245C36.0097 31.1946 36.1053 31.4253 36.1053 31.6659V35.2377C36.1046 35.8974 35.8423 36.53 35.3759 36.9967C34.9095 37.4634 34.2771 37.7261 33.6173 37.7272ZM25.8942 32.5729V35.2377C25.8942 35.4164 25.9652 35.5878 26.0916 35.7141C26.218 35.8405 26.3893 35.9115 26.5681 35.9115H33.6173C33.796 35.9115 33.9674 35.8405 34.0938 35.7141C34.2201 35.5878 34.2911 35.4164 34.2911 35.2377V32.5729H25.8942Z" fill="#905A2B"></path> <path d="M38.1113 49.8446H21.4938C20.8412 49.8437 20.2156 49.5841 19.7541 49.1227C19.2927 48.6612 19.033 48.0356 19.0322 47.383V37.0165C19.0326 36.3634 19.292 35.7371 19.7534 35.2749C20.2148 34.8127 20.8407 34.5523 21.4938 34.5508H24.9868C25.2273 34.5508 25.4581 34.6463 25.6282 34.8165C25.7983 34.9866 25.8938 35.2173 25.8938 35.4579C25.8938 35.6984 25.7983 35.9291 25.6282 36.0993C25.4581 36.2694 25.2273 36.3649 24.9868 36.3649H21.4938C21.3215 36.3659 21.1566 36.4351 21.0352 36.5574C20.9139 36.6798 20.846 36.8452 20.8464 37.0175V47.3841C20.8466 47.5557 20.9149 47.7202 21.0363 47.8415C21.1576 47.9629 21.3221 48.0312 21.4938 48.0314H38.1113C38.4373 48.031 38.7498 47.9014 38.9803 47.6709C39.2107 47.4404 39.3404 47.1279 39.3408 46.802V37.5949C39.3405 37.2689 39.2109 36.9563 38.9804 36.7257C38.7499 36.4951 38.4374 36.3653 38.1113 36.3649H35.2004C34.9598 36.3649 34.7291 36.2694 34.559 36.0993C34.3889 35.9291 34.2933 35.6984 34.2933 35.4579C34.2933 35.2173 34.3889 34.9866 34.559 34.8165C34.7291 34.6463 34.9598 34.5508 35.2004 34.5508H38.1113C38.9183 34.5516 39.692 34.8725 40.2626 35.4431C40.8332 36.0138 41.1541 36.7874 41.155 37.5944V46.8004C41.1543 47.6075 40.8334 48.3813 40.2628 48.952C39.6922 49.5227 38.9184 49.8437 38.1113 49.8446Z" fill="#905A2B"></path> <path d="M33.6173 55H26.5681C25.9086 54.9988 25.2765 54.7363 24.8101 54.27C24.3438 53.8037 24.0813 53.1715 24.0801 52.5121V48.9403C24.0802 48.6997 24.1758 48.4691 24.3459 48.299C24.516 48.129 24.7466 48.0333 24.9872 48.0332H35.1982C35.4387 48.0333 35.6694 48.129 35.8395 48.299C36.0095 48.4691 36.1051 48.6997 36.1053 48.9403V52.5121C36.104 53.1715 35.8415 53.8037 35.3752 54.27C34.9089 54.7363 34.2768 54.9988 33.6173 55ZM25.8942 49.8453V52.51C25.8942 52.6887 25.9652 52.8601 26.0916 52.9865C26.218 53.1128 26.3893 53.1838 26.5681 53.1838H33.6173C33.796 53.1838 33.9674 53.1128 34.0938 52.9865C34.2201 52.8601 34.2911 52.6887 34.2911 52.51V49.8453H25.8942Z" fill="#905A2B"></path> <defs> <linearGradient id="paint0_linear_422_310" x1="56.7003" y1="24.0166" x2="56.7003" y2="25.8307" gradientUnits="userSpaceOnUse"> <stop stop-color="#905A2B"></stop> </linearGradient> <linearGradient id="paint1_linear_422_310" x1="56.4775" y1="17.1045" x2="56.4775" y2="21.0253" gradientUnits="userSpaceOnUse"> <stop stop-color="#905A2B"></stop> </linearGradient> <linearGradient id="paint2_linear_422_310" x1="56.4758" y1="28.8262" x2="56.4758" y2="32.7472" gradientUnits="userSpaceOnUse"> <stop stop-color="#905A2B"></stop> </linearGradient> <linearGradient id="paint3_linear_422_310" x1="3.48498" y1="24.0205" x2="3.48498" y2="25.8347" gradientUnits="userSpaceOnUse"> <stop stop-color="#905A2B"></stop> </linearGradient> <linearGradient id="paint4_linear_422_310" x1="3.70874" y1="28.8262" x2="3.70874" y2="32.7472" gradientUnits="userSpaceOnUse"> <stop stop-color="#905A2B"></stop> </linearGradient> <linearGradient id="paint5_linear_422_310" x1="3.72972" y1="17.124" x2="3.72972" y2="21.0273" gradientUnits="userSpaceOnUse"> <stop stop-color="#905A2B"></stop> </linearGradient> </defs> </svg> 