<?xml version="1.0" encoding="UTF-8"?> <svg xmlns="http://www.w3.org/2000/svg" width="44" height="55" viewBox="0 0 44 55" fill="none"> <path d="M39.6975 54.9998H3.32136C1.48998 54.9998 0 53.5098 0 51.6785V6.52936C0 4.69799 1.48998 3.20801 3.32136 3.20801H10.8107C11.4633 3.20801 11.4748 3.73707 11.4748 4.38968C11.4748 5.04228 11.4633 4.62608 10.8107 4.62608H3.32136C1.72075 4.73047 1.29057 5.59085 1.29057 6.45123V51.621C1.29057 52.9116 2.15094 53.772 3.32136 53.772H39.6975C40.8679 53.772 41.7283 52.9116 41.7283 51.6785V6.52936C41.7283 5.16066 40.8679 4.62608 39.6975 4.62608H32.2083C31.5557 4.62608 31.4538 5.04228 31.4538 4.38968C31.4538 3.73707 31.5557 3.20801 32.2083 3.20801H39.6975C41.5289 3.20801 43.0189 4.69799 43.0189 6.52936V51.6785C43.0189 53.5098 41.5289 54.9998 39.6975 54.9998Z" fill="#905A2B"></path> <path d="M37.558 50.721H5.46146C4.80885 50.721 4.27979 50.192 4.27979 49.5394V8.66995C4.27979 8.01735 4.80885 7.48828 5.46146 7.48828H10.811C11.4636 7.48828 11.6109 8.01735 11.6109 8.66995C11.6109 9.32256 11.4079 9.03259 10.7553 9.03259H5.59304V49.5394H37.427V9.03259H32.2085C31.5559 9.03259 31.5296 9.32256 31.5296 8.66995C31.5296 8.01735 31.5559 7.48828 32.2085 7.48828H37.5579C38.2105 7.48828 38.7396 8.01735 38.7396 8.66995V49.5394C38.7397 50.192 38.2106 50.721 37.558 50.721Z" fill="#905A2B"></path> <path d="M30.5742 11.1849H12.4439C11.2751 11.1849 10.3242 10.1506 10.3242 8.87926V4.49678C10.3242 3.22542 11.2751 2.19113 12.4439 2.19113H17.9592C18.6953 0.852778 20.0377 0 21.5091 0C22.9805 0 24.3229 0.852778 25.0589 2.19124H30.5742C31.7431 2.19124 32.694 3.22553 32.694 4.49689V8.87937C32.694 10.1506 31.7431 11.1849 30.5742 11.1849ZM11.7892 9.6917H31.2293V3.52425H25.0589C23.9393 3.52425 23.6914 3.12678 23.5343 2.64319C23.2651 1.81516 22.317 1.3216 21.5091 1.3216C20.7011 1.3216 19.7534 1.81516 19.4842 2.64319C19.3271 3.12678 19.0792 3.52425 17.9592 3.52425H11.7892V9.6917Z" fill="#905A2B"></path> <path d="M21.8839 22.7172C21.8839 22.9209 21.7187 23.0861 21.515 23.0861C21.3112 23.0861 21.1461 22.9209 21.1461 22.7172V19.0194C21.1461 18.1965 20.8185 17.43 20.2237 16.8609C19.6295 16.2924 18.8487 15.9995 18.0241 16.0358C17.2556 16.0698 16.5372 16.3989 16.0009 16.9626C15.4648 17.5262 15.1711 18.2606 15.174 19.0307C15.1745 19.1723 15.1855 19.314 15.2061 19.4537L15.8871 20.1347C16.3758 20.6234 17.0257 20.8926 17.7169 20.8926H18.356C18.5597 20.8926 18.7249 21.0578 18.7249 21.2615C18.7249 21.4652 18.5597 21.6304 18.356 21.6304H17.7169C16.8286 21.6304 15.9935 21.2845 15.3654 20.6564L14.7158 20.0068C14.1213 20.0499 13.5624 20.2657 13.0913 20.6367C12.9312 20.7627 12.6992 20.7351 12.5732 20.5751C12.4472 20.415 12.4748 20.1831 12.6349 20.057C13.1655 19.6393 13.7852 19.3787 14.4462 19.2923C14.4399 19.2062 14.4365 19.1198 14.4362 19.0335C14.4326 18.0722 14.7985 17.1562 15.4663 16.4541C16.1347 15.7515 17.0315 15.3412 17.9914 15.2987C19.0194 15.2532 19.9927 15.6188 20.7337 16.3278C21.0602 16.6401 21.3219 17.0002 21.5128 17.393C22.1451 16.0993 23.5049 15.2308 25.0302 15.2987C25.9902 15.3412 26.8869 15.7515 27.5553 16.4541C28.2232 17.1562 28.589 18.0722 28.5854 19.0334C28.5851 19.1198 28.5818 19.2062 28.5754 19.2924C29.3977 19.4002 30.1568 19.7779 30.7453 20.3788C31.4309 21.0788 31.8085 22.004 31.8085 22.984C31.8085 23.5306 31.6867 24.0756 31.4554 24.568C32.6775 25.2054 33.4605 26.4888 33.4605 27.8721C33.4605 29.2611 32.6732 30.5465 31.4443 31.1815C31.6829 31.6799 31.8085 32.233 31.8085 32.789C31.8085 33.0216 31.7869 33.2545 31.7442 33.4813C31.7109 33.6584 31.556 33.782 31.3821 33.782C31.3595 33.782 31.3366 33.7799 31.3135 33.7756C31.1133 33.7379 30.9815 33.5451 31.0192 33.3449C31.0534 33.163 31.0707 32.976 31.0707 32.7891C31.0707 32.3026 30.9575 31.839 30.7343 31.411C30.6574 31.2634 30.6434 31.0883 30.6963 30.9308C30.7491 30.7731 30.8658 30.6418 31.0163 30.5704C32.053 30.0785 32.7228 29.0193 32.7228 27.8722C32.7228 26.7298 32.0567 25.6723 31.0259 25.1781C30.8748 25.1056 30.7621 24.9784 30.7086 24.8198C30.6552 24.6613 30.6678 24.4919 30.7443 24.3426C30.9609 23.9196 31.0708 23.4625 31.0708 22.9841C31.0708 22.1982 30.768 21.4564 30.2183 20.8951C29.7054 20.3714 29.0313 20.0595 28.3061 20.0065L27.6563 20.6563C27.0282 21.2844 26.1931 21.6303 25.3048 21.6303H24.6658C24.462 21.6303 24.2969 21.4652 24.2969 21.2615C24.2969 21.0577 24.462 20.8926 24.6658 20.8926H25.3048C25.996 20.8926 26.6459 20.6234 27.1346 20.1346L27.8156 19.4536C27.8361 19.314 27.8472 19.1722 27.8477 19.0307C27.8506 18.2606 27.5569 17.5261 27.0208 16.9626C26.4845 16.3989 25.766 16.0697 24.9976 16.0358C23.3616 15.9631 21.965 17.2304 21.8799 18.8609L21.8839 22.7172Z" fill="url(#paint0_linear_422_295)"></path> <path d="M30.9056 34.6421C30.7486 34.5122 30.5161 34.5342 30.3862 34.6912C29.8654 35.3209 29.1138 35.7075 28.3053 35.7672L27.6564 35.1183C27.0283 34.4902 26.1932 34.1443 25.3049 34.1443H24.6658C24.4621 34.1443 24.297 34.3094 24.297 34.5132C24.297 34.7169 24.4621 34.8821 24.6658 34.8821H25.3049C25.9961 34.8821 26.6459 35.1513 27.1347 35.64L27.8149 36.3203C27.836 36.4635 27.8471 36.609 27.8471 36.7545C27.8471 37.5594 27.5316 38.3141 26.9588 38.8796C26.386 39.445 25.6281 39.7503 24.8215 39.7402C23.2724 39.7203 21.9919 38.4851 21.8833 36.9186V26.5018H22.3528C24.0842 26.5018 25.4928 27.9104 25.4928 29.6418C25.4928 29.8455 25.658 30.0107 25.8617 30.0107C26.0654 30.0107 26.2306 29.8455 26.2306 29.6418C26.2306 27.5036 24.491 25.764 22.3528 25.764H21.8833V24.3251C21.8833 24.1213 21.7181 23.9562 21.5144 23.9562C21.3106 23.9562 21.1455 24.1213 21.1455 24.3251V29.2729H20.6677C18.9363 29.2729 17.5277 27.8643 17.5277 26.1329C17.5277 25.9292 17.3625 25.764 17.1588 25.764C16.9551 25.764 16.7899 25.9292 16.7899 26.1329C16.7899 28.2712 18.5295 30.0107 20.6677 30.0107H21.1455V36.7044C21.1455 38.3573 19.8237 39.7192 18.199 39.7402C17.3924 39.7515 16.6344 39.445 16.0617 38.8796C15.4889 38.314 15.1733 37.5593 15.1733 36.7544C15.1733 36.609 15.1844 36.4635 15.2055 36.3202L15.8857 35.64C16.3745 35.1512 17.0243 34.882 17.7155 34.882H18.3546C18.5583 34.882 18.7235 34.7168 18.7235 34.5131C18.7235 34.3094 18.5583 34.1442 18.3546 34.1442H17.7155C16.8273 34.1442 15.9921 34.4902 15.364 35.1183L14.715 35.7673C13.9899 35.7144 13.3157 35.4023 12.8028 34.8785C12.253 34.317 11.9503 33.575 11.9503 32.7891C11.9503 32.3026 12.0635 31.839 12.2867 31.4111C12.3636 31.2634 12.3776 31.0884 12.3247 30.9308C12.2719 30.7732 12.1552 30.6419 12.0047 30.5704C10.9681 30.0785 10.2983 29.0194 10.2983 27.8722C10.2983 26.7298 10.9644 25.6723 11.9951 25.1781C12.1463 25.1056 12.259 24.9784 12.3124 24.8198C12.3659 24.6613 12.3532 24.4919 12.2768 24.3427C12.0602 23.9196 11.9503 23.4625 11.9503 22.9841C11.9503 22.5662 12.0349 22.1621 12.2016 21.7832C12.2836 21.5967 12.1989 21.379 12.0125 21.297C11.826 21.2149 11.6083 21.2996 11.5263 21.4861C11.3181 21.9592 11.2125 22.4633 11.2125 22.9841C11.2125 23.5307 11.3343 24.0757 11.5657 24.5681C10.3436 25.2055 9.56055 26.489 9.56055 27.8723C9.56055 29.2612 10.3478 30.5466 11.5767 31.1817C11.3382 31.68 11.2125 32.2331 11.2125 32.7892C11.2125 33.7692 11.5901 34.6945 12.2757 35.3947C12.8643 35.9958 13.6233 36.3735 14.4456 36.4813C14.4389 36.5722 14.4355 36.6634 14.4355 36.7544C14.4355 37.7582 14.829 38.6994 15.5434 39.4046C16.2459 40.0982 17.1729 40.4783 18.1589 40.4783C18.1753 40.4783 18.192 40.4782 18.2085 40.478C19.6565 40.4593 20.911 39.5892 21.5094 38.3445C22.1081 39.5945 23.366 40.4593 24.812 40.478C24.8285 40.4782 24.8451 40.4783 24.8616 40.4783C25.8475 40.4783 26.7746 40.0981 27.4771 39.4046C28.1915 38.6994 28.5849 37.7582 28.5849 36.7544C28.5849 36.6632 28.5816 36.572 28.5749 36.481C29.5008 36.3583 30.3519 35.8904 30.9548 35.1614C31.0846 35.0044 31.0626 34.7719 30.9056 34.6421Z" fill="url(#paint1_linear_422_295)"></path> <defs> <linearGradient id="paint0_linear_422_295" x1="17.6869" y1="17.6849" x2="32.5321" y2="34.9129" gradientUnits="userSpaceOnUse"> <stop stop-color="#905A2B"></stop> <stop offset="1" stop-color="#905A2B"></stop> </linearGradient> <linearGradient id="paint1_linear_422_295" x1="21.2712" y1="25.8107" x2="32.5321" y2="35.706" gradientUnits="userSpaceOnUse"> <stop stop-color="#905A2B"></stop> <stop offset="1" stop-color="#905A2B"></stop> </linearGradient> </defs> </svg> 