<?xml version="1.0" encoding="UTF-8"?> <svg xmlns="http://www.w3.org/2000/svg" width="308" height="444" viewBox="0 0 308 444" fill="none"> <path d="M499.682 184.192C498.86 180.781 496.751 177.723 493.703 175.525C490.656 173.327 486.854 172.121 482.93 172.107C481.719 172.114 480.512 172.23 479.328 172.455L358.009 195.358L338.855 198.957C330.212 200.591 321.267 200.488 312.674 198.655C304.081 196.822 296.058 193.306 289.191 188.364C282.323 183.422 276.786 177.178 272.982 170.089C269.179 163 267.207 155.246 267.209 147.392V15.8761C267.302 13.8219 266.927 11.7721 266.107 9.84981C265.287 7.9275 264.038 6.1723 262.435 4.68956C260.833 3.20682 258.91 2.02711 256.782 1.22126C254.654 0.415397 252.364 0 250.051 0C247.738 0 245.448 0.415397 243.32 1.22126C241.192 2.02711 239.269 3.20682 237.666 4.68956C236.064 6.1723 234.815 7.9275 233.995 9.84981C233.175 11.7721 232.8 13.8219 232.893 15.8761V147.392C232.903 155.204 230.958 162.919 227.199 169.98C223.441 177.041 217.962 183.271 211.16 188.218C204.359 193.165 196.404 196.707 187.873 198.585C179.342 200.464 170.447 200.633 161.833 199.081H161.135L141.925 195.433L20.6903 172.38C18.4822 171.959 16.202 171.932 13.9818 172.299C11.7615 172.666 9.64505 173.42 7.75487 174.518C5.86469 175.617 4.23826 177.037 2.96957 178.698C1.70088 180.358 0.815107 182.226 0.363483 184.192C-0.565076 188.146 0.301914 192.265 2.77559 195.654C5.24927 199.042 9.12923 201.424 13.5703 202.282L130.84 224.416L151.502 228.337C159.109 229.8 166.199 232.893 172.155 237.346C178.111 241.799 182.752 247.479 185.675 253.889C188.597 260.3 189.714 267.249 188.926 274.131C188.138 281.012 185.47 287.619 181.155 293.375L180.848 293.847L162.643 317.346L83.6531 419.532C81.0854 422.866 80.1107 426.97 80.943 430.943C81.7752 434.916 84.3464 438.433 88.0926 440.723C90.9449 442.457 94.3255 443.375 97.7813 443.353C100.562 443.363 103.303 442.772 105.77 441.631C108.236 440.49 110.353 438.833 111.938 436.802L189.755 336.031L210.612 309.083C214.937 303.508 220.699 298.933 227.416 295.738C234.134 292.542 241.614 290.82 249.232 290.713C256.85 290.606 264.387 292.118 271.215 295.124C278.042 298.129 283.963 302.541 288.485 307.991L310.152 336.031L387.997 436.802C390.589 440.136 394.564 442.418 399.049 443.146C403.534 443.874 408.161 442.989 411.911 440.686C415.662 438.382 418.23 434.849 419.049 430.863C419.869 426.878 418.873 422.766 416.281 419.432L337.208 317.222L319.087 293.747C314.637 287.986 311.853 281.339 310.983 274.394C310.114 267.449 311.184 260.42 314.099 253.93C317.015 247.44 321.686 241.689 327.698 237.186C333.711 232.683 340.881 229.567 348.572 228.113L369.01 224.242L486.28 202.108C490.716 201.288 494.61 198.948 497.119 195.595C499.627 192.241 500.548 188.145 499.682 184.192ZM250.009 260.968C243.414 260.973 236.966 259.239 231.48 255.986C225.994 252.734 221.716 248.108 219.189 242.695C216.661 237.281 215.997 231.323 217.28 225.574C218.563 219.825 221.736 214.544 226.398 210.398C231.059 206.252 236.999 203.427 243.467 202.282C249.935 201.137 256.639 201.722 262.733 203.964C268.826 206.206 274.034 210.003 277.699 214.876C281.363 219.749 283.319 225.478 283.319 231.339C283.319 239.197 279.807 246.733 273.555 252.29C267.303 257.846 258.823 260.968 249.981 260.968" fill="#905A2B" fill-opacity="0.6"></path> </svg> 