<?xml version="1.0" encoding="UTF-8"?> <svg xmlns="http://www.w3.org/2000/svg" width="55" height="55" viewBox="0 0 55 55" fill="none"> <path d="M45.0965 35.3698C40.7336 35.3698 36.9128 38.3046 35.7412 42.4437H33.6013C32.626 42.4437 31.8328 43.2369 31.8328 44.2122H19.4534V38.9067C20.4287 38.9067 21.2219 38.1136 21.2219 37.1383V36.254C29.998 36.254 37.1383 29.1137 37.1383 20.3376C37.1383 19.3623 36.3451 18.5691 35.3698 18.5691V7.9582C35.3698 6.49566 34.1796 5.30547 32.717 5.30547H31.3703C31.0396 4.31423 30.5409 3.37958 29.8821 2.55723C28.5823 0.931993 26.6432 0 24.5617 0C22.741 0 21.03 0.709164 19.7443 1.99574L18.5691 3.1709L17.394 1.99574C16.1074 0.709164 14.3964 0 12.5766 0C10.4951 0 8.55595 0.931993 7.25611 2.55723C6.59823 3.3787 6.09952 4.31158 5.76969 5.30547H4.42122C2.95868 5.30547 1.76849 6.49566 1.76849 7.9582V18.5691C0.793167 18.5691 0 19.3623 0 20.3376C0 29.1137 7.14027 36.254 15.9164 36.254V37.1383C15.9164 38.1136 16.7096 38.9067 17.6849 38.9067V44.2122H14.1479C11.2219 44.2122 8.84244 46.5917 8.84244 49.5177C8.84244 52.4436 11.2219 54.8231 14.1479 54.8231C17.0739 54.8231 19.4534 52.4436 19.4534 49.5177V45.9807H31.8328C31.8328 46.956 32.626 47.7492 33.6013 47.7492H35.7412C36.9128 51.8883 40.7336 54.8231 45.0965 54.8231C50.4594 54.8231 54.8231 50.4594 54.8231 45.0965C54.8231 39.7335 50.4594 35.3698 45.0965 35.3698ZM32.717 7.07395C33.2043 7.07395 33.6013 7.4701 33.6013 7.9582V10.6109H31.4826C31.7099 9.81246 31.8328 8.97685 31.8328 8.11825C31.8328 7.76809 31.8045 7.41969 31.7629 7.07395H32.717ZM8.6373 3.66254C9.59936 2.4582 11.0354 1.76849 12.5766 1.76849C13.9242 1.76849 15.1913 2.29373 16.1436 3.24606L18.5691 5.67154L20.9946 3.24606C21.9469 2.29373 23.2141 1.76849 24.5617 1.76849C26.1029 1.76849 27.5389 2.4582 28.501 3.66254C29.509 4.9217 30.0643 6.50362 30.0643 8.14389C30.0643 8.99984 29.9078 9.83014 29.624 10.6109H21.5596L19.617 14.4963L16.8758 6.27283L14.4335 12.3794H8.45868C7.56383 11.1547 7.07395 9.68336 7.07395 8.11825C7.07395 6.50362 7.62926 4.9217 8.6373 3.66254ZM28.6796 12.3794C28.4594 12.6801 28.2224 12.971 27.9536 13.2398L18.5691 22.6243L10.0928 14.1479H15.6308L16.7246 11.4121L19.2889 19.105L22.6526 12.3794H28.6796ZM4.42122 7.07395H5.37709C5.33465 7.42765 5.30547 7.784 5.30547 8.14389C5.30547 8.991 5.42749 9.81776 5.65297 10.6109H3.53698V7.9582C3.53698 7.4701 3.934 7.07395 4.42122 7.07395ZM3.53698 12.3794H6.36391C6.77596 13.1461 7.30209 13.857 7.93432 14.4901L18.5691 25.1249L29.2039 14.4901C29.8362 13.8579 30.3623 13.1469 30.7735 12.3794H33.6013V18.5691C32.626 18.5691 31.8328 19.3623 31.8328 20.3376C31.8328 26.1887 27.0729 30.9485 21.2219 30.9485H15.9164C10.0654 30.9485 5.30547 26.1887 5.30547 20.3376C5.30547 19.3623 4.5123 18.5691 3.53698 18.5691V12.3794ZM15.9164 34.4855C8.11559 34.4855 1.76849 28.1384 1.76849 20.3376H3.53698C3.53698 27.164 9.09003 32.717 15.9164 32.717H21.2219C28.0482 32.717 33.6013 27.164 33.6013 20.3376H35.3698C35.3698 28.1384 29.0227 34.4855 21.2219 34.4855H19.4534V37.1383H17.6849V34.4855H15.9164ZM17.6849 49.5177C17.6849 51.4683 16.0986 53.0547 14.1479 53.0547C12.1973 53.0547 10.6109 51.4683 10.6109 49.5177C10.6109 47.567 12.1973 45.9807 14.1479 45.9807H17.6849V49.5177ZM33.6013 44.2122H44.2122L44.2131 45.9807H33.6013V44.2122ZM44.2122 42.4437H41.5612C42.3818 41.3526 43.6826 40.6752 45.0965 40.6752C47.5343 40.6752 49.5177 42.6586 49.5177 45.0965C49.5177 47.5343 47.5343 49.5177 45.0965 49.5177C43.6826 49.5177 42.3827 48.8403 41.5612 47.7492H44.2122C45.1875 47.7492 45.9807 46.956 45.9807 45.9807V44.2122C45.9807 43.2369 45.1875 42.4437 44.2122 42.4437ZM45.0965 53.0547C41.6992 53.0547 38.7069 50.8776 37.599 47.7492H39.5213C40.5382 49.8838 42.6957 51.2862 45.0965 51.2862C48.5096 51.2862 51.2862 48.5088 51.2862 45.0965C51.2862 41.6842 48.5096 38.9067 45.0965 38.9067C42.6948 38.9067 40.5382 40.3092 39.5213 42.4437H37.599C38.7069 39.3153 41.6992 37.1383 45.0965 37.1383C49.4841 37.1383 53.0547 40.708 53.0547 45.0965C53.0547 49.485 49.4841 53.0547 45.0965 53.0547Z" fill="url(#paint0_linear_422_307)"></path> <path d="M45.0965 35.5428C40.7336 35.5428 36.9128 38.4776 35.7411 42.6168H33.6013C32.626 42.6168 31.8328 43.4099 31.8328 44.3853H19.4534V39.0798C20.4287 39.0798 21.2219 38.2866 21.2219 37.3113V36.4271C29.998 36.4271 37.1383 29.2868 37.1383 20.5107C37.1383 19.5353 36.3451 18.7422 35.3698 18.7422V8.13125C35.3698 6.66871 34.1796 5.47852 32.717 5.47852H31.3703L31.7629 7.25825L31.8309 8.13125L31.6881 9.89973H20.3376H5.44779L5.33306 9.01463L5.31006 8.0648L5.76969 5.47852H4.42122C2.95868 5.47852 1.76849 6.66871 1.76849 8.13125V18.7422C0.793167 18.7422 0 19.5353 0 20.5107C0 29.2868 7.14027 36.4271 15.9164 36.4271V37.3113C15.9164 38.2866 16.7096 39.0798 17.6849 39.0798V44.3853H14.1479C11.2219 44.3853 8.84244 46.7648 8.84244 49.6907C8.84244 52.6167 11.2219 54.9962 14.1479 54.9962C17.0739 54.9962 19.4534 52.6167 19.4534 49.6907V46.1538H31.8328C31.8328 47.1291 32.626 47.9222 33.6013 47.9222H35.7411C36.9128 52.0614 40.7336 54.9962 45.0965 54.9962C50.4594 54.9962 54.8231 50.6325 54.8231 45.2695C54.8231 39.9066 50.4594 35.5428 45.0965 35.5428ZM32.717 7.247C33.2043 7.247 33.6013 7.64314 33.6013 8.13125V10.784H31.4826C31.7099 9.98551 31.8328 9.14989 31.8328 8.29129C31.8328 7.94113 31.8045 7.59274 31.7629 7.247H32.717ZM4.42122 7.247H5.37709C5.33465 7.6007 5.30547 7.95705 5.30547 8.31694C5.30547 9.16404 5.42749 9.99081 5.65297 10.784H3.53698V8.13125C3.53698 7.64314 3.934 7.247 4.42122 7.247ZM3.53698 12.5525H6.36391L5.44779 9.89973H31.6881L30.7735 12.5525H33.6013V18.7422C32.626 18.7422 31.8328 19.5353 31.8328 20.5107C31.8328 26.3617 27.0729 31.1216 21.2219 31.1216H15.9164C10.0654 31.1216 5.30547 26.3617 5.30547 20.5107C5.30547 19.5353 4.5123 18.7422 3.53698 18.7422V12.5525ZM15.9164 34.6586C8.11559 34.6586 1.76849 28.3115 1.76849 20.5107H3.53698C3.53698 27.337 9.09003 32.8901 15.9164 32.8901H21.2219C28.0482 32.8901 33.6013 27.337 33.6013 20.5107H35.3698C35.3698 28.3115 29.0227 34.6586 21.2219 34.6586H19.4534V37.3113H17.6849V34.6586H15.9164ZM17.6849 49.6907C17.6849 51.6414 16.0986 53.2277 14.1479 53.2277C12.1973 53.2277 10.6109 51.6414 10.6109 49.6907C10.6109 47.7401 12.1973 46.1538 14.1479 46.1538H17.6849V49.6907ZM33.6013 44.3853H44.2122L44.2131 46.1538H33.6013V44.3853ZM44.2122 42.6168H41.5612C42.3818 41.5256 43.6825 40.8483 45.0965 40.8483C47.5343 40.8483 49.5177 42.8317 49.5177 45.2695C49.5177 47.7074 47.5343 49.6907 45.0965 49.6907C43.6825 49.6907 42.3827 49.0134 41.5612 47.9222H44.2122C45.1875 47.9222 45.9807 47.1291 45.9807 46.1538V44.3853C45.9807 43.4099 45.1875 42.6168 44.2122 42.6168ZM45.0965 53.2277C41.6992 53.2277 38.7069 51.0507 37.599 47.9222H39.5213C40.5382 50.0568 42.6957 51.4592 45.0965 51.4592C48.5096 51.4592 51.2862 48.6818 51.2862 45.2695C51.2862 41.8572 48.5096 39.0798 45.0965 39.0798C42.6948 39.0798 40.5382 40.4822 39.5213 42.6168H37.599C38.7069 39.4883 41.6992 37.3113 45.0965 37.3113C49.4841 37.3113 53.0547 40.881 53.0547 45.2695C53.0547 49.658 49.4841 53.2277 45.0965 53.2277Z" fill="#905A2B"></path> <defs> <linearGradient id="paint0_linear_422_307" x1="27.4116" y1="0" x2="27.4116" y2="54.8231" gradientUnits="userSpaceOnUse"> <stop stop-color="#905A2B"></stop> </linearGradient> </defs> </svg> 