<?xml version="1.0" encoding="UTF-8"?> <svg xmlns="http://www.w3.org/2000/svg" width="46" height="55" viewBox="0 0 46 55" fill="none"> <path fill-rule="evenodd" clip-rule="evenodd" d="M34.511 31.7075C33.6958 31.7075 33.0152 31.3542 32.5955 30.7124C27.8496 23.4684 21.3635 19.7232 12.7679 19.2641C10.4098 19.1381 9.93105 15.778 11.0494 13.8399C13.9416 8.82644 18.7736 5.75781 24.6162 5.75781C27.7423 5.75781 30.1381 6.58695 32.786 8.1153C40.0945 12.3338 42.6183 21.7518 38.3978 29.0593C37.5316 30.5593 36.2051 31.7072 34.5114 31.7072L34.511 31.7075ZM24.6166 7.04664C19.2304 7.04664 14.8272 9.87188 12.1657 14.4843C11.4823 15.6684 11.6415 17.9137 12.8369 17.9775C21.7459 18.4533 28.7564 22.5007 33.6738 30.0064C34.3357 31.017 36.3643 30.0058 37.0358 28.843C39.0584 25.342 39.7379 21.755 38.6686 17.7635C37.5719 13.6687 35.1616 10.9741 31.5968 8.91671C29.4769 7.69299 27.0637 7.04632 24.6166 7.04632V7.04664Z" fill="url(#paint0_linear_422_291)"></path> <path fill-rule="evenodd" clip-rule="evenodd" d="M31.6552 21.0424C28.4786 21.0424 28.4776 21.2761 28.4776 18.4522C25.654 18.4522 25.888 18.4505 25.888 15.2755C25.888 13.8813 27.4996 14.1324 28.4776 14.1321C28.4776 11.3075 28.4789 11.5419 31.6552 11.5419C33.0498 11.5419 32.7983 13.1543 32.7983 14.1321C35.6226 14.1318 35.3886 14.134 35.3886 17.3087C35.3886 18.703 33.7767 18.4518 32.7983 18.4522C32.7983 19.4299 33.0498 21.0424 31.6552 21.0424ZM29.7665 19.7542H31.5092C31.5092 16.7942 31.1394 17.164 34.0994 17.164V15.4212C31.1394 15.4216 31.5092 15.7913 31.5092 12.831H29.7665C29.7665 15.7907 30.1362 15.4212 27.1769 15.4212V17.1643C30.1365 17.164 29.7665 16.7945 29.7665 19.7542Z" fill="url(#paint1_linear_422_291)"></path> <path fill-rule="evenodd" clip-rule="evenodd" d="M16.6609 54.9997C16.3053 54.9997 16.0165 54.7108 16.0165 54.3556V48.2686H9.50175C5.67201 48.3141 6.21617 44.4975 6.21617 42.3628L3.9857 40.5305C3.1369 39.8345 4.64881 39.0144 5.42668 38.4041C3.43767 37.4496 3.79389 38.0466 3.79389 35.0309L2.09436 34.252C0.927705 33.8868 0.240092 33.2994 0.0505386 32.5061C-0.227343 31.3443 0.720421 30.2953 0.95704 30.0545L4.80064 24.9346C4.47763 23.4691 4.31387 21.9685 4.31387 20.4688C4.31387 -6.82326 45.7557 -6.82262 45.7557 20.4688C45.7557 25.2334 41.4537 35.7672 37.994 39.5705V54.2147C37.994 55.0629 36.7055 55.0625 36.7055 54.2147V39.3158C36.7055 39.1494 36.7703 38.9895 36.8854 38.8693C40.1448 35.4799 44.4668 24.9897 44.4668 20.4685C44.4668 -5.06377 5.60334 -5.13082 5.60334 20.4685C5.60334 21.9698 5.77839 23.472 6.12365 24.9346C6.16749 25.1209 6.12687 25.3166 6.01178 25.4694L1.89191 30.9448C0.965422 31.842 1.0602 32.5863 2.51408 33.0344L4.70748 34.0335C4.93668 34.1382 5.08336 34.3668 5.08336 34.6192V36.8113C6.02661 37.2639 7.21809 37.6256 7.2816 38.2039C7.34478 38.7819 6.24905 39.3999 5.42443 40.0463C7.97791 42.1436 7.50564 41.1962 7.50564 44.5253C7.50564 45.5394 7.55916 47.0046 9.48563 46.9808L16.6622 46.9801C17.0178 46.9801 17.3063 47.269 17.3063 47.6242V54.3559C17.305 54.7115 17.0165 55 16.6606 55L16.6609 54.9997Z" fill="#905A2B"></path> <defs> <linearGradient id="paint0_linear_422_291" x1="24.7683" y1="6.60275" x2="36.3266" y2="32.1961" gradientUnits="userSpaceOnUse"> <stop stop-color="#905A2B"></stop> <stop offset="1" stop-color="#905A2B"></stop> </linearGradient> <linearGradient id="paint1_linear_422_291" x1="27.8484" y1="9.94891" x2="31.3698" y2="22.2924" gradientUnits="userSpaceOnUse"> <stop stop-color="#905A2B"></stop> <stop offset="1" stop-color="#905A2B"></stop> </linearGradient> </defs> </svg> 