<?xml version="1.0" encoding="UTF-8"?> <svg xmlns="http://www.w3.org/2000/svg" width="9" height="16" viewBox="0 0 9 16" fill="none"><path d="M7 7.00001C6.44772 7.00001 6 7.44773 6 8.00001C6 8.5523 6.44771 9.00001 7 9.00001L7 7.00001ZM8.20711 8.70712C8.59763 8.3166 8.59763 7.68343 8.20711 7.29291L1.84316 0.928937C1.45263 0.538412 0.819469 0.538411 0.428944 0.928935C0.0384187 1.31946 0.0384177 1.95262 0.428941 2.34315L6.08579 8.00001L0.428923 13.6569C0.0383981 14.0474 0.0383971 14.6805 0.428921 15.0711C0.819444 15.4616 1.45261 15.4616 1.84313 15.0711L8.20711 8.70712ZM7 9.00001L7.5 9.00001L7.5 7.00001L7 7.00001L7 9.00001Z" fill="#905A2B"></path></svg> 