<?xml version="1.0" encoding="UTF-8"?> <svg xmlns="http://www.w3.org/2000/svg" width="534" height="479" viewBox="0 0 534 479" fill="none"><path d="M33.3333 176.667C33.3333 148.389 33.3463 128.183 34.6403 112.344C35.9187 96.6997 38.363 86.7887 42.416 78.834L12.716 63.701C5.86968 77.1377 2.86434 91.9237 1.41767 109.63C-0.0129939 127.141 4.13976e-06 148.939 4.13976e-06 176.667H33.3333ZM33.3333 216.667V176.667H4.13976e-06V216.667H33.3333ZM4.13976e-06 216.667V383.333H33.3333V216.667H4.13976e-06ZM4.13976e-06 383.333V447.12H33.3333V383.333H4.13976e-06ZM4.13976e-06 447.12C4.13976e-06 475.333 34.1097 489.46 54.0583 469.513L30.4883 445.94C30.5847 445.843 30.9373 445.6 31.441 445.513C31.8533 445.44 32.1403 445.513 32.3043 445.58C32.4687 445.65 32.7213 445.8 32.9627 446.143C33.257 446.56 33.3333 446.983 33.3333 447.12H4.13976e-06ZM54.0583 469.513L118.689 404.88L95.1183 381.31L30.4883 445.94L54.0583 469.513ZM356.667 366.667H130.474V400H356.667V366.667ZM454.5 357.583C446.543 361.637 436.633 364.08 420.99 365.36C405.15 366.653 384.943 366.667 356.667 366.667V400C384.393 400 406.193 400.013 423.703 398.583C441.41 397.137 456.197 394.13 469.633 387.283L454.5 357.583ZM490.917 321.167C482.927 336.847 470.18 349.593 454.5 357.583L469.633 387.283C491.583 376.1 509.433 358.25 520.617 336.3L490.917 321.167ZM500 223.333C500 251.61 499.987 271.817 498.693 287.657C497.413 303.3 494.97 313.21 490.917 321.167L520.617 336.3C527.463 322.863 530.47 308.077 531.917 290.37C533.347 272.86 533.333 251.06 533.333 223.333H500ZM500 176.667V223.333H533.333V176.667H500ZM490.917 78.834C494.97 86.7887 497.413 96.6997 498.693 112.344C499.987 128.183 500 148.389 500 176.667H533.333C533.333 148.939 533.347 127.141 531.917 109.63C530.47 91.9237 527.463 77.1377 520.617 63.701L490.917 78.834ZM454.5 42.416C470.18 50.4057 482.927 63.154 490.917 78.834L520.617 63.701C509.433 41.749 491.583 23.901 469.633 12.716L454.5 42.416ZM356.667 33.3333C384.943 33.3333 405.15 33.3463 420.99 34.6403C436.633 35.9187 446.543 38.363 454.5 42.416L469.633 12.716C456.197 5.86968 441.41 2.86434 423.703 1.41767C406.193 -0.0129939 384.393 4.13976e-06 356.667 4.13976e-06V33.3333ZM176.667 33.3333H356.667V4.13976e-06H176.667V33.3333ZM78.834 42.416C86.7887 38.363 96.6997 35.9187 112.344 34.6403C128.183 33.3463 148.389 33.3333 176.667 33.3333V4.13976e-06C148.939 4.13976e-06 127.141 -0.0129939 109.63 1.41767C91.9237 2.86434 77.1377 5.86968 63.701 12.716L78.834 42.416ZM42.416 78.834C50.4057 63.154 63.154 50.4057 78.834 42.416L63.701 12.716C41.749 23.901 23.901 41.749 12.716 63.701L42.416 78.834ZM118.689 404.88C121.814 401.757 126.054 400 130.474 400V366.667C117.213 366.667 104.495 371.933 95.1183 381.31L118.689 404.88Z" fill="#905A2B"></path><path d="M150 150H383.333" stroke="#905A2B" stroke-opacity="0.8" stroke-width="33.3333" stroke-linecap="round" stroke-linejoin="round"></path><path d="M150 250H316.667" stroke="#905A2B" stroke-opacity="0.6" stroke-width="33.3333" stroke-linecap="round" stroke-linejoin="round"></path></svg> 