<?xml version="1.0" encoding="UTF-8"?> <svg xmlns="http://www.w3.org/2000/svg" width="139" height="20" viewBox="0 0 139 20" fill="none"><path d="M8.91504 16H2.13281V15.1016H3.47559C3.9541 15.1016 4.19336 14.7939 4.19336 14.1787V3.04102C4.19336 2.42578 3.9541 2.11816 3.47559 2.11816H2.13281V1.21973H8.91504C10.0283 1.21973 11.0309 1.39062 11.9229 1.73242C12.818 2.07422 13.57 2.5625 14.1787 3.19727C14.7907 3.83203 15.2562 4.59212 15.5752 5.47754C15.8942 6.36296 16.0537 7.35091 16.0537 8.44141C16.0537 9.34961 15.9756 10.1732 15.8193 10.9121C15.6631 11.651 15.4206 12.3151 15.0918 12.9043C14.763 13.4935 14.3447 14.0127 13.8369 14.4619C13.4007 14.8428 12.9352 15.1471 12.4404 15.375C11.9489 15.5996 11.4134 15.7607 10.834 15.8584C10.2578 15.9528 9.61816 16 8.91504 16ZM7.15723 15.1016H8.59766C9.76953 15.1016 10.7119 14.9014 11.4248 14.501C12.1377 14.0973 12.6634 13.4251 13.002 12.4844C13.3438 11.5436 13.5146 10.2627 13.5146 8.6416C13.5146 7.18001 13.3405 5.96745 12.9922 5.00391C12.6439 4.03711 12.1051 3.31445 11.376 2.83594C10.6501 2.35742 9.72396 2.11816 8.59766 2.11816H7.39648C7.03841 2.11816 6.77799 2.18327 6.61523 2.31348C6.45573 2.44043 6.37598 2.68294 6.37598 3.04102V14.1982C6.37598 14.8005 6.63639 15.1016 7.15723 15.1016ZM22.6846 5.03809C23.5928 5.03809 24.418 5.2627 25.1602 5.71191C25.9056 6.15788 26.4915 6.80566 26.918 7.65527C27.3477 8.50163 27.5625 9.48958 27.5625 10.6191C27.5625 11.7487 27.346 12.7367 26.9131 13.583C26.4801 14.4294 25.8926 15.0739 25.1504 15.5166C24.4082 15.9593 23.5863 16.1807 22.6846 16.1807C22.0173 16.1807 21.3857 16.0553 20.79 15.8047C20.1943 15.554 19.6702 15.1846 19.2178 14.6963C18.7653 14.208 18.4137 13.6204 18.1631 12.9336C17.9124 12.2467 17.7871 11.4753 17.7871 10.6191C17.7871 9.47656 18.0052 8.4821 18.4414 7.63574C18.8776 6.78939 19.4684 6.14486 20.2139 5.70215C20.9593 5.25944 21.7829 5.03809 22.6846 5.03809ZM22.6846 5.96094C20.8193 5.96094 19.8867 7.55436 19.8867 10.7412C19.8867 12.2191 20.1292 13.3421 20.6143 14.1104C21.0993 14.8753 21.7894 15.2578 22.6846 15.2578C24.5368 15.2578 25.4629 13.6725 25.4629 10.502C25.4629 9.50586 25.3555 8.6709 25.1406 7.99707C24.9258 7.31999 24.61 6.81217 24.1934 6.47363C23.7799 6.13184 23.277 5.96094 22.6846 5.96094ZM37.0547 12.8408H38.0752C37.2646 15.0804 35.8047 16.2002 33.6953 16.2002C32.7936 16.2002 31.9928 15.9772 31.293 15.5312C30.5931 15.082 30.0511 14.4456 29.667 13.6221C29.2861 12.7952 29.0957 11.848 29.0957 10.7803C29.0957 9.57585 29.3187 8.54232 29.7646 7.67969C30.2106 6.8138 30.8177 6.16113 31.5859 5.72168C32.3542 5.27897 33.2103 5.05762 34.1543 5.05762C34.8314 5.05762 35.4466 5.1862 36 5.44336C36.5566 5.69727 36.9912 6.03418 37.3037 6.4541C37.6195 6.87077 37.7773 7.31348 37.7773 7.78223C37.7773 8.19238 37.6634 8.52116 37.4355 8.76855C37.2077 9.01595 36.9212 9.13965 36.5762 9.13965C36.2409 9.13965 35.9561 9.03711 35.7217 8.83203C35.4906 8.6237 35.375 8.37305 35.375 8.08008C35.375 7.96289 35.4076 7.80827 35.4727 7.61621C35.541 7.4209 35.5752 7.26139 35.5752 7.1377C35.5752 6.80892 35.4434 6.53385 35.1797 6.3125C34.9193 6.09115 34.5514 5.98047 34.0762 5.98047C33.4772 5.98047 32.9613 6.15788 32.5283 6.5127C32.0954 6.86751 31.765 7.38997 31.5371 8.08008C31.3092 8.76693 31.1953 9.60026 31.1953 10.5801C31.1953 12.0677 31.4329 13.1973 31.9082 13.9688C32.3835 14.737 33.0785 15.1211 33.9932 15.1211C34.5986 15.1211 35.1667 14.9258 35.6973 14.5352C36.2311 14.1413 36.6836 13.5765 37.0547 12.8408ZM53.3096 2.11816L48.2119 16H47.5479L42.1523 2.11816V12.8213C42.1523 13.6058 42.3135 14.182 42.6357 14.5498C42.958 14.9176 43.5358 15.1016 44.3691 15.1016V16H39.0078V15.1016C39.5482 15.0983 39.9714 15.0055 40.2773 14.8232C40.5833 14.6377 40.7949 14.3805 40.9121 14.0518C41.0293 13.7197 41.0879 13.3096 41.0879 12.8213V3.04102C41.0879 2.42578 40.8421 2.11816 40.3506 2.11816H39.0078V1.21973H43.9688L48.4121 12.6211L52.5918 1.21973H57.5479V2.11816H56.21C55.7314 2.11816 55.4922 2.42578 55.4922 3.04102V14.1787C55.4922 14.7939 55.7314 15.1016 56.21 15.1016H57.5479V16H51.249V15.1016H52.5918C53.0703 15.1016 53.3096 14.7939 53.3096 14.1787V2.11816ZM60.8193 10.8193V11C60.8193 12.3411 61.0618 13.36 61.5469 14.0566C62.0352 14.7533 62.7188 15.1016 63.5977 15.1016C64.8184 15.1016 65.873 14.4473 66.7617 13.1387H67.8408C67.3363 14.1543 66.7048 14.916 65.9463 15.4238C65.1911 15.9284 64.3285 16.1807 63.3584 16.1807C62.4925 16.1807 61.7031 15.9593 60.9902 15.5166C60.2806 15.0739 59.724 14.4342 59.3203 13.5977C58.9199 12.7611 58.7197 11.7878 58.7197 10.6777C58.7197 9.51562 58.9183 8.50814 59.3154 7.65527C59.7158 6.80241 60.2773 6.15299 61 5.70703C61.7259 5.26107 62.5592 5.03809 63.5 5.03809C64.3822 5.03809 65.152 5.27572 65.8096 5.75098C66.4704 6.22298 66.9766 6.86589 67.3281 7.67969C67.6829 8.49023 67.8604 9.38379 67.8604 10.3604C67.8604 10.3896 67.8571 10.4645 67.8506 10.585C67.8441 10.7054 67.8408 10.7835 67.8408 10.8193H60.8193ZM60.7998 9.9209H65.7021C65.7412 9.55957 65.7607 9.33333 65.7607 9.24219C65.7607 8.22982 65.5443 7.43066 65.1113 6.84473C64.6784 6.25553 64.1006 5.96094 63.3779 5.96094C62.8831 5.96094 62.4502 6.10742 62.0791 6.40039C61.7113 6.6901 61.4183 7.13118 61.2002 7.72363C60.9821 8.31608 60.8486 9.0485 60.7998 9.9209ZM79.5107 15.1016H80.0674V16L76.9277 16.1807C76.6478 15.7087 76.5078 15.1423 76.5078 14.4814V14.3008C75.9284 14.9225 75.3831 15.388 74.8721 15.6973C74.3643 16.0065 73.7962 16.1611 73.168 16.1611C72.6406 16.1611 72.141 16.0423 71.6689 15.8047C71.1969 15.5638 70.7819 15.2139 70.4238 14.7549C70.0658 14.2926 69.7842 13.723 69.5791 13.0459C69.374 12.3656 69.2715 11.6038 69.2715 10.7607C69.2715 9.16243 69.571 7.89616 70.1699 6.96191C70.5671 6.34993 71.0391 5.8763 71.5859 5.54102C72.1328 5.20573 72.7139 5.03809 73.3291 5.03809C73.9183 5.03809 74.444 5.17806 74.9062 5.45801C75.3717 5.73796 75.8665 6.15137 76.3906 6.69824V3.26074C76.3906 2.78223 76.3092 2.43229 76.1465 2.21094C75.9837 1.98958 75.6908 1.87891 75.2676 1.87891H74.291V0.980469L77.8115 0.72168H78.3096V13.7002C78.3096 14.2503 78.3926 14.6214 78.5586 14.8135C78.7246 15.0055 79.042 15.1016 79.5107 15.1016ZM76.3906 13.1387V7.98242C75.8991 7.33789 75.4368 6.85286 75.0039 6.52734C74.571 6.20182 74.1266 6.03906 73.6709 6.03906C73.1891 6.03906 72.7757 6.21322 72.4307 6.56152C72.0856 6.90983 71.8219 7.43392 71.6396 8.13379C71.4606 8.8304 71.3711 9.69954 71.3711 10.7412C71.3711 12.1833 71.568 13.2803 71.9619 14.0322C72.359 14.7842 72.9076 15.1602 73.6074 15.1602C74.4896 15.1602 75.4173 14.4863 76.3906 13.1387Z" fill="#905A2B"></path><path d="M95.145 6.28271V5.65381H103.263L103.447 9.18115H102.829C102.724 8.65479 102.611 8.21842 102.49 7.87207C102.369 7.52572 102.207 7.23519 102.001 7.00049C101.796 6.76351 101.522 6.58464 101.178 6.46387C100.834 6.3431 100.39 6.28271 99.8481 6.28271H98.7544C98.4901 6.28271 98.3169 6.34652 98.2349 6.47412C98.1528 6.60173 98.1118 6.80908 98.1118 7.09619V10.3296H99.4995C100.459 10.3296 101.278 10.4515 101.957 10.6953C102.638 10.9391 103.152 11.2832 103.499 11.7275C103.847 12.1696 104.021 12.6834 104.021 13.269C104.021 13.6496 103.945 14.005 103.792 14.3354C103.64 14.6636 103.407 14.953 103.095 15.2036C102.785 15.4543 102.4 15.6502 101.94 15.7915C101.48 15.9305 100.954 16 100.364 16H95.145V15.3711H96.0815C96.4188 15.3711 96.5874 15.1375 96.5874 14.6704V7.09619C96.5874 6.78174 96.5396 6.56755 96.4438 6.45361C96.3504 6.33968 96.1453 6.28271 95.8286 6.28271H95.145ZM99.8208 10.9585H98.1118V14.7832C98.1118 15.1751 98.3169 15.3711 98.7271 15.3711H100.115C101.532 15.3711 102.241 14.6659 102.241 13.2554C102.241 12.7563 102.146 12.3348 101.957 11.9907C101.77 11.6466 101.497 11.3892 101.137 11.2183C100.777 11.0451 100.338 10.9585 99.8208 10.9585ZM112.283 14.4893V6.28271H110.293C109.904 6.28271 109.616 6.33285 109.429 6.43311C109.244 6.53337 109.112 6.7111 109.032 6.96631C108.955 7.22152 108.893 7.618 108.848 8.15576C108.802 8.69124 108.747 9.37826 108.684 10.2168C108.597 11.2536 108.482 12.1525 108.338 12.9136C108.195 13.6724 108.014 14.3013 107.795 14.8003C107.576 15.297 107.311 15.6685 106.999 15.9146C106.686 16.1584 106.315 16.2803 105.884 16.2803C105.499 16.2803 105.186 16.1698 104.944 15.9487C104.703 15.7277 104.582 15.4269 104.582 15.0464C104.582 14.7228 104.67 14.4676 104.845 14.2808C105.023 14.0916 105.258 13.9971 105.549 13.9971C105.991 13.9971 106.271 14.193 106.387 14.585C106.446 14.7399 106.49 14.8424 106.52 14.8926C106.55 14.9404 106.609 14.9644 106.698 14.9644C106.903 14.9644 107.1 14.6818 107.289 14.1167C107.478 13.5516 107.632 12.7666 107.75 11.7617C107.869 10.7546 107.928 9.64714 107.928 8.43945C107.928 7.85384 107.902 7.41178 107.85 7.11328C107.797 6.8125 107.696 6.59945 107.545 6.47412C107.395 6.34652 107.168 6.28271 106.865 6.28271H106.417V5.65381H115.236V6.28271H114.706C114.398 6.28271 114.172 6.32373 114.026 6.40576C113.88 6.48551 113.807 6.66439 113.807 6.94238V14.5439C113.807 14.8721 113.868 15.092 113.988 15.2036C114.109 15.3153 114.333 15.3711 114.662 15.3711H115.181V16H110.926V15.3711H111.442C111.784 15.3711 112.009 15.3198 112.119 15.2173C112.228 15.1147 112.283 14.8721 112.283 14.4893ZM120.951 5.40088C121.696 5.40088 122.375 5.53646 122.988 5.80762C123.601 6.07878 124.12 6.46045 124.546 6.95264C124.972 7.44255 125.298 8.02018 125.524 8.68555C125.75 9.35091 125.862 10.0721 125.862 10.8491C125.862 12.0021 125.607 13.0207 125.097 13.9048C124.589 14.7866 123.902 15.4338 123.036 15.8462C122.708 16.0034 122.386 16.1105 122.072 16.1675C121.757 16.2244 121.406 16.2529 121.019 16.2529C120.604 16.2529 120.225 16.2199 119.881 16.1538C119.539 16.09 119.21 15.9818 118.893 15.8291C118.579 15.6764 118.274 15.4725 117.98 15.2173C117.591 14.8823 117.257 14.4881 116.979 14.0347C116.703 13.5812 116.494 13.0799 116.35 12.5308C116.207 11.9793 116.135 11.404 116.135 10.8047C116.135 10.0299 116.248 9.31104 116.473 8.64795C116.699 7.98486 117.022 7.41178 117.444 6.92871C117.868 6.44336 118.377 6.06738 118.972 5.80078C119.569 5.53418 120.228 5.40088 120.951 5.40088ZM120.934 6.10156C120.284 6.10156 119.734 6.2793 119.283 6.63477C118.832 6.98796 118.49 7.52002 118.257 8.23096C118.027 8.93962 117.912 9.81234 117.912 10.8491C117.912 11.8745 118.031 12.7393 118.268 13.4434C118.507 14.1475 118.857 14.675 119.317 15.0259C119.779 15.3768 120.342 15.5522 121.005 15.5522C121.668 15.5522 122.229 15.3745 122.687 15.019C123.147 14.6636 123.495 14.1258 123.729 13.4058C123.966 12.6857 124.085 11.7959 124.085 10.7363C124.085 9.20736 123.819 8.05322 123.289 7.27393C122.76 6.49235 121.975 6.10156 120.934 6.10156ZM126.741 6.28271V5.65381H134.817L135.043 9.30762H134.342C134.263 8.56706 134.126 7.97575 133.932 7.53369C133.741 7.09163 133.473 6.77262 133.129 6.57666C132.787 6.3807 132.346 6.28271 131.806 6.28271H130.309C130.038 6.28271 129.867 6.35221 129.796 6.49121C129.728 6.63021 129.694 6.82731 129.694 7.08252V14.5303C129.694 14.7878 129.723 14.9928 129.783 15.1455C129.842 15.2959 129.962 15.3711 130.142 15.3711H131.092V16H126.741V15.3711H127.578C127.97 15.3711 128.166 15.109 128.166 14.585V7.27734C128.166 6.9834 128.146 6.76693 128.104 6.62793C128.066 6.48665 127.995 6.39437 127.893 6.35107C127.792 6.3055 127.636 6.28271 127.424 6.28271H126.741Z" fill="#414141"></path><line x1="79" y1="15.55" x2="97" y2="15.55" stroke="url(#paint0_linear_968_1092)" stroke-width="0.9"></line><defs><linearGradient id="paint0_linear_968_1092" x1="79" y1="16.5" x2="97" y2="16.5" gradientUnits="userSpaceOnUse"><stop stop-color="#905A2B"></stop><stop offset="1" stop-color="#414141"></stop></linearGradient></defs></svg> 