<?xml version="1.0" encoding="UTF-8"?> <svg xmlns="http://www.w3.org/2000/svg" width="330" height="45" viewBox="0 0 330 45" fill="none"><path d="M30 0.25H325C327.623 0.25 329.75 2.37665 329.75 5V40C329.75 42.6234 327.623 44.75 325 44.75H5C2.37664 44.75 0.25 42.6234 0.25 40V30C0.25 13.5695 13.5695 0.25 30 0.25Z" fill="white" stroke="#905A2B" stroke-width="0.5"></path><g opacity="0.2"><path d="M44.9557 20.5221C44.7409 24.28 43.0231 29.9705 36.0441 35.4462C35.722 35.661 35.2926 35.8757 34.9705 35.8757C34.4336 35.8757 33.8968 35.661 33.5747 35.1241C32.9305 34.2652 33.1452 33.1915 33.8968 32.5473C39.5873 28.0378 41.0904 23.6357 41.4125 20.6294C40.661 21.0589 39.6946 21.381 38.7283 21.381C35.722 21.381 33.2526 18.8042 33.2526 15.6905C33.2526 12.5768 35.722 10 38.7283 10C39.3725 10 40.0167 10.2147 40.661 10.4295C40.661 10.4295 40.8757 10.5368 41.3052 10.7516C41.3052 10.7516 41.3052 10.7516 41.4125 10.7516C41.6273 10.8589 41.9494 11.0737 42.2715 11.3958C42.3788 11.5032 42.4862 11.6105 42.7009 11.8253C43.7746 13.221 45.2778 15.6905 44.9557 20.5221ZM20.4758 21.4884C17.4695 21.4884 15 18.9115 15 15.7979C15 12.6842 17.4695 10.1074 20.4758 10.1074C21.12 10.1074 21.7642 10.3221 22.4084 10.5368C22.4084 10.5368 22.6231 10.6442 23.0526 10.8589C23.0526 10.8589 23.0526 10.8589 23.16 10.8589C23.3747 10.9663 23.6968 11.181 24.0189 11.5032C24.1263 11.6105 24.2336 11.7179 24.4484 11.9326C25.8442 13.221 27.3473 15.7979 26.9179 20.6294C26.7031 24.3873 24.9852 30.0778 18.0063 35.5536C17.6842 35.7683 17.2547 35.9831 16.9326 35.9831C16.3958 35.9831 15.8589 35.7683 15.5368 35.2315C14.8926 34.3725 15.1074 33.2989 15.8589 32.6547C21.5494 28.1452 23.0526 23.7431 23.3747 20.7368C22.301 21.1663 21.4421 21.4884 20.4758 21.4884Z" fill="#231F20"></path></g><path d="M44.9557 18.5221C44.7409 22.28 43.0231 27.9705 36.0441 33.4462C35.722 33.661 35.2926 33.8757 34.9705 33.8757C34.4336 33.8757 33.8968 33.661 33.5747 33.1241C32.9305 32.2652 33.1452 31.1915 33.8968 30.5473C39.5873 26.0378 41.0904 21.6357 41.4125 18.6294C40.661 19.0589 39.6946 19.381 38.7283 19.381C35.722 19.381 33.2526 16.8042 33.2526 13.6905C33.2526 10.5768 35.722 8 38.7283 8C39.3725 8 40.0167 8.21474 40.661 8.42947C40.661 8.42947 40.8757 8.53684 41.3052 8.75158C41.3052 8.75158 41.3052 8.75158 41.4125 8.75158C41.6273 8.85895 41.9494 9.07368 42.2715 9.39579C42.3788 9.50315 42.4862 9.61052 42.7009 9.82526C43.7746 11.221 45.2778 13.6905 44.9557 18.5221ZM20.4758 19.4884C17.4695 19.4884 15 16.9115 15 13.7979C15 10.6842 17.4695 8.10737 20.4758 8.10737C21.12 8.10737 21.7642 8.3221 22.4084 8.53684C22.4084 8.53684 22.6231 8.64421 23.0526 8.85895C23.0526 8.85895 23.0526 8.85895 23.16 8.85895C23.3747 8.96631 23.6968 9.18105 24.0189 9.50315C24.1263 9.61052 24.2336 9.71789 24.4484 9.93263C25.8442 11.221 27.3473 13.7979 26.9179 18.6294C26.7031 22.3873 24.9852 28.0778 18.0063 33.5536C17.6842 33.7683 17.2547 33.9831 16.9326 33.9831C16.3958 33.9831 15.8589 33.7683 15.5368 33.2315C14.8926 32.3725 15.1074 31.2989 15.8589 30.6547C21.5494 26.1452 23.0526 21.7431 23.3747 18.7368C22.301 19.1663 21.4421 19.4884 20.4758 19.4884Z" fill="#905A2B"></path></svg> 