<?xml version="1.0" encoding="UTF-8"?> <svg xmlns="http://www.w3.org/2000/svg" width="30" height="30" viewBox="0 0 30 30" fill="none"> <path d="M29.9812 12.4599C29.9318 12.2292 29.8053 12.0223 29.6224 11.8736C29.4396 11.7249 29.2115 11.6433 28.976 11.6424C28.9034 11.6428 28.831 11.6507 28.7599 11.6659L21.4811 13.2153L20.3319 13.4587C19.8134 13.5692 19.2767 13.5622 18.7612 13.4383C18.2456 13.3143 17.7642 13.0764 17.3522 12.7421C16.9402 12.4078 16.608 11.9854 16.3798 11.5059C16.1516 11.0263 16.0332 10.5018 16.0334 9.97053V1.07396C16.0389 0.934998 16.0165 0.796339 15.9673 0.666302C15.918 0.536265 15.8431 0.417533 15.747 0.317231C15.6508 0.216929 15.5355 0.137127 15.4078 0.0826133C15.2801 0.0281 15.1427 0 15.0039 0C14.8651 0 14.7278 0.0281 14.6001 0.0826133C14.4724 0.137127 14.357 0.216929 14.2609 0.317231C14.1648 0.417533 14.0898 0.536265 14.0406 0.666302C13.9914 0.796339 13.9689 0.934998 13.9745 1.07396V9.97053C13.9751 10.4989 13.8584 11.0209 13.6329 11.4985C13.4074 11.9761 13.0787 12.3976 12.6706 12.7322C12.2625 13.0669 11.7853 13.3065 11.2734 13.4336C10.7616 13.5606 10.2279 13.5721 9.71111 13.4671H9.66923L8.51668 13.2203L1.24292 11.6609C1.11044 11.6324 0.973636 11.6305 0.840425 11.6553C0.707214 11.6802 0.580234 11.7312 0.466828 11.8055C0.353422 11.8798 0.255841 11.9759 0.179723 12.0882C0.103605 12.2005 0.050461 12.3269 0.0233647 12.4599C-0.00536362 12.5924 -0.00762289 12.7293 0.0167162 12.8627C0.0410552 12.9961 0.0915115 13.1234 0.165175 13.2371C0.238838 13.3509 0.334249 13.4489 0.445907 13.5255C0.557565 13.6022 0.68326 13.6559 0.81574 13.6836L7.85162 15.1809L9.09128 15.4461C9.5477 15.5451 9.97307 15.7543 10.3304 16.0556C10.6877 16.3568 10.9662 16.741 11.1415 17.1747C11.3169 17.6083 11.3839 18.0784 11.3366 18.5439C11.2893 19.0094 11.1293 19.4563 10.8704 19.8457L10.8519 19.8776L9.75969 21.4673L5.02052 28.3797C4.86502 28.605 4.80519 28.8829 4.8542 29.1524C4.90321 29.4219 5.05704 29.6608 5.28185 29.8166C5.50666 29.9724 5.78404 30.0324 6.05297 29.9833C6.32189 29.9342 6.56033 29.78 6.71583 29.5547L11.3863 22.7312L12.6377 20.9083C12.8972 20.5312 13.2429 20.2217 13.6459 20.0055C14.049 19.7894 14.4977 19.6728 14.9548 19.6656C15.4119 19.6584 15.8641 19.7607 16.2737 19.964C16.6834 20.1673 17.0386 20.4657 17.3099 20.8344L18.6098 22.7312L23.2803 29.548C23.4358 29.7737 23.6744 29.9283 23.9437 29.9777C24.2129 30.0272 24.4907 29.9674 24.716 29.8116C24.9412 29.6557 25.0955 29.4166 25.1448 29.1469C25.1941 28.8771 25.1345 28.5987 24.979 28.373L20.2348 21.4589L19.1476 19.8709C18.8806 19.4812 18.7136 19.0315 18.6614 18.5617C18.6092 18.0919 18.6734 17.6164 18.8483 17.1774C19.0233 16.7384 19.3035 16.3493 19.6643 16.0447C20.025 15.7401 20.4551 15.5293 20.9166 15.431L22.1429 15.1692L29.1787 13.6718C29.4444 13.6156 29.6773 13.4571 29.8274 13.2304C29.9775 13.0037 30.0327 12.727 29.9812 12.4599ZM15.0014 17.6535C14.6058 17.6538 14.2189 17.5365 13.8897 17.3165C13.5606 17.0965 13.3039 16.7836 13.1523 16.4174C13.0006 16.0512 12.9608 15.6481 13.0378 15.2593C13.1148 14.8704 13.3051 14.5131 13.5848 14.2326C13.8645 13.9521 14.2209 13.7611 14.6089 13.6836C14.997 13.6061 15.3992 13.6457 15.7648 13.7974C16.1304 13.949 16.4429 14.2059 16.6627 14.5356C16.8826 14.8652 17 15.2528 17 15.6492C17 16.1808 16.7892 16.6906 16.4141 17.0664C16.039 17.4423 15.5302 17.6535 14.9998 17.6535" fill="#24211E"></path> </svg> 