<?xml version="1.0" encoding="UTF-8"?> <svg xmlns="http://www.w3.org/2000/svg" width="74" height="40" viewBox="0 0 74 40" fill="none"> <g clip-path="url(#clip0_16_21)"> <path d="M65.1923 11.4303V21.0569H61.9871V14.3041H58.9008V21.0569H55.6956V11.4297H65.1923V11.4303Z" fill="black"></path> <path fill-rule="evenodd" clip-rule="evenodd" d="M49.1128 21.4011C51.9821 21.4011 54.1128 19.5144 54.1128 16.6542C54.1128 13.8858 52.5408 12.0883 49.9135 12.0883C48.701 12.0883 47.7005 12.546 46.9469 13.3358C47.1268 11.7034 48.414 10.5117 49.8312 10.5117C50.1583 10.5117 52.6207 10.5061 52.6207 10.5061L54.0131 7.64844C54.0131 7.64844 50.9216 7.72391 49.4845 7.72391C46.201 7.78527 43.983 10.9861 43.983 14.8738C43.983 19.4029 46.1462 21.4011 49.1128 21.4011ZM49.1302 14.6195C50.1956 14.6195 50.9342 15.3702 50.9342 16.6538C50.9342 17.8092 50.2779 18.761 49.1302 18.7637C48.0324 18.7637 47.2939 17.8817 47.2939 16.6735C47.2939 15.3896 48.0324 14.6195 49.1302 14.6195Z" fill="black"></path> <path d="M41.3742 17.8337C41.3742 17.8337 40.6172 18.3016 39.4867 18.3902C38.187 18.4315 37.0289 17.5512 37.0289 15.987C37.0289 14.4612 38.0508 13.5868 39.454 13.5868C40.3143 13.5868 41.4525 14.2263 41.4525 14.2263C41.4525 14.2263 42.2853 12.5873 42.7167 11.7677C41.9267 11.1255 40.8745 10.7734 39.6507 10.7734C36.562 10.7734 34.1697 12.9332 34.1697 15.9677C34.1697 19.0409 36.4182 21.1504 39.6507 21.0867C40.5542 21.0506 41.8007 20.7104 42.5604 20.187L41.3742 17.8337Z" fill="black"></path> <path d="M0.5 8.94531L4.94624 17.4684V22.6672L0.505201 31.1735L0.5 8.94531Z" fill="#5B57A2"></path> <path d="M17.5718 14.3672L21.7381 11.6286L30.2646 11.6201L17.5718 19.9591V14.3672Z" fill="#D90751"></path> <path d="M17.5482 8.89542L17.5718 20.1796L13.1151 17.2429V0.375L17.5482 8.89542Z" fill="#FAB718"></path> <path d="M30.2646 11.6202L21.7377 11.6287L17.5482 8.89542L13.1151 0.375L30.2646 11.6202Z" fill="#ED6F26"></path> <path d="M17.5718 31.2209V25.7462L13.1151 22.8652L13.1176 39.7499L17.5718 31.2209Z" fill="#63B22F"></path> <path d="M21.7277 28.5071L4.94594 17.4684L0.5 8.94531L30.2466 28.496L21.7277 28.5071Z" fill="#1487C9"></path> <path d="M13.1179 39.7508L17.5715 31.2218L21.7274 28.5082L30.2463 28.4971L13.1179 39.7508Z" fill="#017F36"></path> <path d="M0.505493 31.1741L13.1518 22.866L8.90018 20.0684L4.94654 22.6678L0.505493 31.1741Z" fill="#984995"></path> <path d="M37.0298 27.5356C36.9319 27.6695 36.8031 27.7706 36.6486 27.8388C36.49 27.908 36.3204 27.9432 36.1492 27.9425C35.979 27.945 35.8098 27.9145 35.6496 27.8526C35.5058 27.7966 35.3743 27.7092 35.2635 27.596C35.1541 27.4826 35.0682 27.3458 35.0114 27.1944C34.9499 27.0285 34.9192 26.8514 34.9211 26.673C34.9211 26.4958 34.9496 26.3317 35.0086 26.1762C35.0652 26.0203 35.1475 25.8868 35.2506 25.7746C35.3537 25.6601 35.4773 25.5728 35.6162 25.5045C35.7579 25.4389 35.9124 25.4035 36.0822 25.4035C36.2652 25.4035 36.435 25.4281 36.5895 25.477C36.744 25.5262 36.8753 25.6082 36.9833 25.7231L36.7954 26.0643C36.7046 25.976 36.5976 25.909 36.4812 25.8674C36.3706 25.8292 36.255 25.8099 36.1388 25.8103C36.036 25.8103 35.9381 25.832 35.843 25.873C35.7492 25.9135 35.6635 25.9729 35.5905 26.0479C35.516 26.1251 35.4572 26.218 35.418 26.3209C35.3742 26.4272 35.3537 26.5447 35.3537 26.6756C35.3537 26.8095 35.3767 26.9296 35.4204 27.0333C35.4645 27.1399 35.5235 27.2301 35.5982 27.3063C35.6729 27.383 35.7604 27.4401 35.8607 27.4785C35.9614 27.5195 36.0669 27.5386 36.1801 27.5386C36.319 27.5386 36.4454 27.5084 36.5534 27.451C36.6604 27.3955 36.7566 27.3187 36.8367 27.2246L37.0298 27.5356ZM37.56 27.8851V25.4553H37.967V27.2656L39.2902 25.4553H39.6972V27.8854H39.2902V26.0751L37.967 27.8854H37.56V27.8851ZM42.3927 27.5356C42.2926 27.6706 42.1613 27.7752 42.0118 27.8388C41.8531 27.908 41.6834 27.9432 41.5121 27.9425C41.342 27.9449 41.1729 27.9145 41.0128 27.8526C40.8689 27.7966 40.7373 27.7092 40.6264 27.596C40.517 27.4826 40.4311 27.3458 40.3743 27.1944C40.3128 27.0285 40.2821 26.8514 40.284 26.673C40.284 26.4958 40.3125 26.3317 40.3715 26.1762C40.4284 26.0203 40.5107 25.8868 40.6135 25.7746C40.7166 25.6601 40.8402 25.5728 40.9792 25.5045C41.1259 25.4352 41.2848 25.4008 41.4451 25.4035C41.6281 25.4035 41.7979 25.4281 41.9524 25.477C42.1069 25.5262 42.2382 25.6082 42.3465 25.7231L42.1583 26.0643C42.0676 25.9759 41.9607 25.9089 41.8444 25.8674C41.7338 25.8292 41.6183 25.81 41.502 25.8103C41.2975 25.811 41.1011 25.8961 40.9535 26.0479C40.8795 26.1256 40.8209 26.2185 40.7809 26.3209C40.7371 26.4272 40.7166 26.5447 40.7166 26.6756C40.7166 26.8095 40.7399 26.9296 40.7836 27.0333C40.8274 27.1399 40.8865 27.2301 40.9611 27.3063C41.0358 27.383 41.1236 27.4401 41.2239 27.4785C41.3243 27.5166 41.4298 27.5386 41.543 27.5386C41.6823 27.5386 41.8059 27.5084 41.9163 27.451C42.0233 27.3955 42.1195 27.3187 42.1996 27.2246L42.3927 27.5356ZM42.6014 25.4553H44.6893V25.8868H43.85V27.8851H43.4431V25.8868H42.6038V25.4553H42.6014Z" fill="black"></path> <path fill-rule="evenodd" clip-rule="evenodd" d="M46.5896 27.8604C46.7441 27.8085 46.8754 27.7291 46.9886 27.6202L46.865 27.2815C46.7903 27.3528 46.69 27.4128 46.5691 27.462C46.448 27.5112 46.3115 27.5355 46.1622 27.5355C45.9382 27.5355 45.7528 27.4728 45.6059 27.3445C45.4594 27.2159 45.3795 27.0361 45.3615 26.8064H47.1226C47.1407 26.7218 47.1483 26.6263 47.1483 26.5144C47.1483 26.3477 47.1198 26.1978 47.0632 26.0613C47.0106 25.9287 46.9336 25.8089 46.8368 25.7088C46.7388 25.6098 46.6232 25.5328 46.4969 25.4824C46.3647 25.4274 46.2241 25.3996 46.0823 25.4004C45.8917 25.4004 45.7244 25.4358 45.5778 25.5015C45.4392 25.564 45.3139 25.656 45.2094 25.7718C45.108 25.8871 45.03 26.0238 44.9806 26.1731C44.9262 26.3322 44.8991 26.5005 44.9007 26.6699C44.9007 26.8612 44.9316 27.0358 44.9882 27.1916C45.0433 27.3426 45.1275 27.4794 45.2354 27.5929C45.341 27.7045 45.4695 27.7895 45.6215 27.8495C45.7844 27.9114 45.9561 27.9419 46.1288 27.9394C46.2853 27.9384 46.4406 27.9115 46.5896 27.8604ZM45.5597 25.99C45.6858 25.8673 45.8532 25.8073 46.0643 25.8073C46.2625 25.8073 46.4223 25.8647 46.5382 25.9795C46.6542 26.0941 46.7157 26.2525 46.7261 26.4543H45.3358C45.3555 26.2757 45.4351 26.1104 45.5597 25.99Z" fill="black"></path> <path d="M47.7017 25.4561H48.0725L48.953 26.6603L49.7871 25.4561H50.1475V27.8862H49.7409V26.1143L48.9478 27.2417H48.9322L48.1086 26.1139V27.8858H47.7017V25.4561Z" fill="black"></path> <path fill-rule="evenodd" clip-rule="evenodd" d="M51.2545 25.463C51.131 25.4976 51.013 25.5518 50.9045 25.6238L51.0125 25.9684C51.1052 25.9191 51.1979 25.8781 51.2906 25.8427C51.3833 25.8069 51.5017 25.7905 51.6434 25.7905C51.7566 25.7905 51.8469 25.8099 51.9163 25.8479C51.9858 25.8834 52.0372 25.9382 52.0733 26.0038C52.1094 26.0694 52.1326 26.1511 52.1455 26.2466C52.1583 26.3421 52.1635 26.4458 52.1635 26.558C52.0803 26.4958 51.9854 26.4538 51.8854 26.435C51.7888 26.4143 51.6905 26.4034 51.592 26.4021C51.4708 26.4021 51.3576 26.4215 51.2493 26.454C51.1413 26.4868 51.0486 26.536 50.974 26.6016C50.8977 26.6672 50.8362 26.7501 50.7937 26.8445C50.7484 26.9477 50.7255 27.0607 50.7267 27.1749C50.7267 27.4124 50.7913 27.5982 50.9198 27.7294C51.0486 27.8603 51.2184 27.9256 51.4295 27.9256C51.6201 27.9256 51.7722 27.8902 51.8879 27.8193C52.0038 27.7481 52.0965 27.6664 52.1635 27.5735V27.8876H52.5445V26.3969C52.5445 26.0799 52.4802 25.8345 52.3489 25.6622C52.2201 25.4903 51.991 25.403 51.6666 25.403C51.5222 25.403 51.3858 25.4247 51.2545 25.463ZM51.9347 27.4318C51.842 27.5027 51.7208 27.5352 51.5715 27.5352C51.4402 27.5352 51.3371 27.4997 51.2652 27.4315C51.193 27.3606 51.1569 27.2677 51.1569 27.1529C51.1569 27.085 51.1698 27.0275 51.1982 26.9757C51.2267 26.9239 51.2652 26.8828 51.309 26.85C51.3568 26.8157 51.41 26.7907 51.4659 26.7762C51.5253 26.7598 51.5843 26.7516 51.6461 26.7516C51.8472 26.7516 52.0194 26.8034 52.1611 26.9127V27.2211C52.0943 27.3014 52.0182 27.3724 51.9347 27.4318ZM56.1365 24.6001C56.2188 24.5594 56.2959 24.4911 56.3681 24.3901L56.1465 24.0488C56.0899 24.1309 56.0257 24.188 55.9535 24.2181C55.877 24.2502 55.7976 24.274 55.7167 24.289L55.6396 24.3038C55.5726 24.3163 55.5007 24.33 55.4233 24.3438C55.2991 24.3684 55.1781 24.4087 55.0628 24.4639C54.8799 24.5486 54.7333 24.6631 54.6226 24.8078C54.5118 24.9525 54.4243 25.1162 54.3649 25.2967C54.3048 25.4795 54.2643 25.6691 54.2441 25.8617C54.2233 26.0586 54.2132 26.2466 54.2132 26.4268C54.2132 26.6591 54.2413 26.8691 54.2979 27.0574C54.3548 27.2461 54.4344 27.4042 54.5399 27.5325C54.6455 27.6638 54.7719 27.7622 54.9212 27.8331C55.0705 27.904 55.2378 27.9394 55.4257 27.9394C55.5983 27.9394 55.758 27.904 55.9021 27.8383C56.041 27.7753 56.167 27.6835 56.2729 27.5683C56.3757 27.4561 56.4583 27.3222 56.5149 27.1722C56.574 27.022 56.6024 26.8609 56.6024 26.6915C56.6024 26.5088 56.5767 26.3424 56.5278 26.1948C56.4827 26.054 56.4108 25.9248 56.3167 25.8155C56.2223 25.7079 56.1071 25.6239 55.9792 25.5694C55.8383 25.5098 55.6879 25.4802 55.5365 25.4821C55.4386 25.4821 55.3434 25.4959 55.2507 25.5231C55.1605 25.5504 55.0739 25.5898 54.9931 25.6406C54.9146 25.6888 54.8427 25.7484 54.7795 25.8177C54.7177 25.8863 54.6663 25.9628 54.6302 26.0501H54.6198C54.6278 25.9382 54.6406 25.8237 54.6635 25.7062C54.6868 25.5887 54.7202 25.4765 54.7642 25.3702C54.808 25.2639 54.8646 25.1681 54.934 25.0808C55.0085 24.9927 55.0998 24.9228 55.2017 24.876C55.3138 24.8188 55.4324 24.7775 55.5545 24.7533L55.6353 24.7376C55.7158 24.7218 55.7926 24.7067 55.866 24.6903C55.9639 24.6687 56.0538 24.6408 56.1365 24.6001ZM54.7049 26.9347C54.665 26.7968 54.6459 26.6531 54.6483 26.5088C54.6655 26.426 54.6969 26.3473 54.741 26.2768C54.7847 26.203 54.8413 26.1377 54.9083 26.0799C55.0595 25.9529 55.2465 25.8846 55.4386 25.8863C55.6781 25.8863 55.8583 25.9654 55.9844 26.1213C56.1107 26.2794 56.1726 26.476 56.1726 26.7135C56.1726 26.831 56.1518 26.9376 56.116 27.0357C56.0812 27.1325 56.0286 27.2208 55.9614 27.2954C55.8941 27.37 55.8136 27.4293 55.7246 27.4699C55.6319 27.5135 55.5313 27.5355 55.4181 27.5355C55.3048 27.5355 55.2017 27.5109 55.1066 27.4617C55.012 27.4134 54.9285 27.3435 54.8618 27.2569C54.792 27.1604 54.7389 27.0513 54.7049 26.9347ZM59.7229 25.4548H59.316V27.8849H59.7229V25.4548ZM57.1893 25.4548H57.5962V26.1839H57.9722C58.1497 26.1839 58.2938 26.2085 58.4098 26.2548C58.5257 26.3014 58.6184 26.3641 58.6879 26.4405C58.7573 26.517 58.8063 26.6072 58.8347 26.708C58.8629 26.809 58.8785 26.9127 58.8785 27.022C58.8785 27.1312 58.8629 27.2353 58.8295 27.3389C58.7986 27.4426 58.7445 27.5325 58.6723 27.6146C58.6004 27.6966 58.5025 27.7622 58.3788 27.8114C58.2552 27.8603 58.1059 27.8876 57.9257 27.8876H57.1868V25.4548H57.1893ZM57.5962 26.5905V27.4807H57.8924C58.0958 27.4807 58.2399 27.4426 58.3222 27.3658C58.4049 27.2894 58.4459 27.1805 58.4459 27.0357C58.4459 26.8881 58.4021 26.7765 58.3198 26.6997C58.2347 26.6233 58.0931 26.5849 57.8976 26.5849H57.5962V26.5905Z" fill="black"></path> <path d="M62.4136 27.5356C62.3157 27.6695 62.1869 27.7706 62.0323 27.8388C61.8738 27.908 61.7042 27.9432 61.533 27.9425C61.3628 27.945 61.1935 27.9145 61.0334 27.8526C60.8895 27.7967 60.758 27.7093 60.6473 27.596C60.5378 27.4825 60.4519 27.3457 60.3948 27.1944C60.3336 27.0285 60.3031 26.8514 60.3049 26.673C60.3049 26.4958 60.333 26.3317 60.3924 26.1762C60.449 26.0203 60.5313 25.8868 60.6344 25.7746C60.7375 25.6601 60.8608 25.5728 61 25.5045C61.1468 25.4352 61.3057 25.4007 61.466 25.4035C61.6487 25.4035 61.8188 25.4281 61.9733 25.477C62.1278 25.5262 62.2591 25.6082 62.3671 25.7231L62.1792 26.0643C62.0884 25.976 61.9813 25.909 61.865 25.8674C61.7544 25.8292 61.6388 25.81 61.5226 25.8103C61.4198 25.8103 61.3219 25.832 61.2264 25.873C61.1328 25.9135 61.0472 25.9729 60.9743 26.0479C60.9003 26.1256 60.8416 26.2184 60.8018 26.3209C60.758 26.4272 60.7375 26.5447 60.7375 26.6756C60.7375 26.8095 60.7605 26.9296 60.8042 27.0333C60.848 27.1399 60.9073 27.2301 60.982 27.3063C61.0566 27.383 61.1441 27.4401 61.2445 27.4785C61.3452 27.5166 61.4507 27.5386 61.5639 27.5386C61.7028 27.5386 61.8264 27.5084 61.9372 27.451C62.0442 27.3955 62.1404 27.3187 62.2205 27.2246L62.4136 27.5356ZM62.6219 25.4553H64.7101V25.8868H63.8706V27.8851H63.4639V25.8868H62.6247V25.4553H62.6219Z" fill="black"></path> <path fill-rule="evenodd" clip-rule="evenodd" d="M65.5599 25.4554H65.153V28.9663H65.5599V27.7732C65.6422 27.8307 65.7401 27.8717 65.8533 27.8989C65.9665 27.9261 66.0849 27.9396 66.2061 27.9396C66.3863 27.9396 66.5484 27.9042 66.6953 27.8389C66.8362 27.7742 66.9638 27.6806 67.071 27.5632C67.1766 27.4454 67.2564 27.3089 67.313 27.1478C67.3697 26.9871 67.3981 26.8148 67.3981 26.632C67.3981 26.4516 67.3724 26.2852 67.3235 26.1349C67.2774 25.9922 67.2056 25.8605 67.1123 25.7474C67.0208 25.637 66.9072 25.5502 66.7801 25.4934C66.6411 25.4294 66.491 25.3977 66.3398 25.4006C66.1804 25.4006 66.0311 25.4334 65.8894 25.499C65.7477 25.5646 65.637 25.6434 65.5599 25.7418V25.4554ZM65.8432 25.9059C65.9592 25.8403 66.0852 25.8074 66.2217 25.8074C66.3401 25.8074 66.4456 25.8265 66.5411 25.8675C66.6338 25.9085 66.7109 25.9659 66.7755 26.0424C66.8397 26.1188 66.8887 26.2064 66.9196 26.3098C66.9529 26.4135 66.9685 26.5257 66.9685 26.6484C66.9685 26.7797 66.9477 26.8968 66.9119 27.0061C66.8782 27.1097 66.8246 27.2046 66.7547 27.2847C66.6844 27.3638 66.5993 27.4261 66.505 27.4674C66.3999 27.5147 66.2867 27.5379 66.1727 27.5357C66.0623 27.5357 65.9592 27.5222 65.8613 27.495C65.7541 27.4637 65.6524 27.4138 65.5602 27.3473V26.1431C65.6321 26.0506 65.7276 25.9715 65.8432 25.9059ZM70.5186 25.455H70.1117V27.8851H70.5186V25.455ZM67.9825 25.455H68.3894V26.1841H68.7651C68.9429 26.1841 69.087 26.2087 69.203 26.255C69.3189 26.3016 69.4116 26.3643 69.4811 26.4407C69.5505 26.5172 69.5995 26.6074 69.6277 26.7081C69.6561 26.8092 69.6714 26.9129 69.6714 27.0222C69.6714 27.1314 69.6561 27.2354 69.6228 27.3391C69.5919 27.4428 69.5377 27.5327 69.4655 27.6148C69.3936 27.6968 69.2957 27.7624 69.1721 27.8116C69.0485 27.8605 68.8992 27.8878 68.7189 27.8878H67.98V25.455H67.9825ZM68.3922 26.5907V27.4809H68.6884C68.8915 27.4809 69.0359 27.4428 69.1182 27.366C69.2005 27.2896 69.2418 27.1806 69.2418 27.0359C69.2418 26.8883 69.1981 26.7767 69.1158 26.6999C69.0307 26.6235 68.8891 26.5851 68.6936 26.5851H68.3922V26.5907Z" fill="black"></path> <path d="M72.4703 26.6275L73.3404 27.8861H72.8411L72.1689 26.9031L71.4866 27.8861H71.013L71.8779 26.6491L71.0644 25.4561H71.564L72.1845 26.3735L72.8151 25.4561H73.289L72.4703 26.6275ZM36.7287 30.8895H35.4801V32.9153H35.0731V30.4856H37.1353V32.9153H36.7287V30.8895ZM39.4447 30.9167H38.6416L38.6156 31.3262C38.5874 31.673 38.5489 31.9516 38.4947 32.1642C38.4405 32.3775 38.3735 32.5413 38.2964 32.6558C38.2193 32.7706 38.1291 32.8497 38.026 32.8881C37.9196 32.9294 37.8071 32.9498 37.694 32.9481L37.6631 32.5275C37.7068 32.5301 37.7582 32.5193 37.8148 32.492C37.8718 32.4648 37.9284 32.4048 37.9822 32.3149C38.0364 32.2217 38.0853 32.0907 38.1291 31.9214C38.1728 31.7495 38.2013 31.5257 38.2166 31.2442L38.2579 30.4879H39.8516V32.9179H39.4447V30.9164V30.9167Z" fill="black"></path> <path fill-rule="evenodd" clip-rule="evenodd" d="M40.9485 30.4907C40.8169 30.5288 40.6985 30.5832 40.5982 30.6515L40.7065 30.9957C40.7992 30.9465 40.8919 30.9055 40.9843 30.87C41.077 30.8346 41.1957 30.8182 41.3371 30.8182C41.4506 30.8182 41.5405 30.8372 41.61 30.8753C41.6797 30.911 41.7311 30.9655 41.7673 31.0311C41.803 31.0968 41.8263 31.1788 41.8392 31.2739C41.852 31.3698 41.8572 31.4734 41.8572 31.5853C41.7739 31.5232 41.679 31.4813 41.5791 31.4626C41.4824 31.442 41.3842 31.431 41.2857 31.4298C41.1648 31.4298 41.0513 31.4488 40.9433 31.4816C40.835 31.5145 40.7423 31.5637 40.6676 31.6293C40.5914 31.6948 40.5298 31.7778 40.4874 31.8721C40.4422 31.9754 40.4194 32.0884 40.4207 32.2025C40.4207 32.4398 40.485 32.6258 40.6138 32.7567C40.7423 32.8877 40.9124 32.9533 41.1235 32.9533C41.3141 32.9533 41.4659 32.9179 41.5818 32.8466C41.6975 32.7758 41.7902 32.6937 41.8572 32.6009V32.9149H42.2384V31.4242C42.2384 31.1076 42.1739 30.8618 42.0426 30.6899C41.9138 30.5176 41.6846 30.4307 41.3603 30.4307C41.2212 30.4308 41.0827 30.4512 40.9485 30.4907ZM41.6308 32.4588C41.5384 32.53 41.4172 32.5628 41.2679 32.5628C41.1339 32.5628 41.0336 32.5274 40.9617 32.4588C40.8894 32.3879 40.8533 32.2951 40.8533 32.1806C40.8533 32.1123 40.8662 32.0549 40.8946 32.003C40.9228 31.9512 40.9617 31.9102 41.0054 31.8774C41.0492 31.8446 41.103 31.8199 41.1624 31.8035C41.2212 31.7872 41.2818 31.7791 41.3426 31.7793C41.5433 31.7793 41.7158 31.8311 41.8575 31.94V32.2485C41.7906 32.3287 41.7145 32.3994 41.6308 32.4588Z" fill="black"></path> <path d="M42.6371 30.4854H44.7253V30.9165H43.8857V32.9151H43.4791V30.9168H42.6398V30.4854H42.6371Z" fill="black"></path> <path fill-rule="evenodd" clip-rule="evenodd" d="M46.6257 32.8896C46.7802 32.8378 46.9114 32.7584 47.0246 32.6494L46.901 32.3108C46.8264 32.382 46.726 32.4421 46.6049 32.4913C46.484 32.5405 46.3476 32.5648 46.1982 32.5648C45.9743 32.5648 45.7889 32.5021 45.642 32.3738C45.4951 32.2455 45.4156 32.0654 45.3975 31.8357H47.1587C47.1764 31.7514 47.1844 31.6555 47.1844 31.5437C47.1844 31.3773 47.1559 31.227 47.0993 31.0905C47.0466 30.958 46.9695 30.8382 46.8726 30.7384C46.7747 30.6392 46.6592 30.5621 46.533 30.5117C46.4008 30.4567 46.2602 30.4289 46.1184 30.4297C45.9278 30.4297 45.7604 30.4651 45.6139 30.5307C45.4752 30.5931 45.3499 30.6851 45.2455 30.8011C45.144 30.9164 45.066 31.0531 45.0163 31.2024C44.9621 31.3615 44.935 31.5298 44.9365 31.6992C44.9365 31.8905 44.9674 32.065 45.024 32.2209C45.0809 32.3764 45.1656 32.5103 45.2712 32.6222C45.3767 32.7341 45.5055 32.8188 45.6576 32.8788C45.8203 32.9408 45.9919 32.9714 46.1646 32.969C46.3167 32.969 46.4712 32.9415 46.6257 32.8896ZM45.5934 31.0167C45.7194 30.894 45.8868 30.8339 46.0979 30.8339C46.2989 30.8339 46.4559 30.894 46.5718 31.0059C46.6875 31.1207 46.7493 31.2789 46.7597 31.481H45.3694C45.389 31.3022 45.4686 31.1372 45.5934 31.0167ZM47.3826 30.4845H47.8976L48.6827 31.6559L47.8434 32.9142H47.3441L48.2243 31.6555L47.3826 30.4845ZM48.783 30.4845H49.1899V32.9142H48.783V30.4845ZM50.6445 32.9142L49.7486 31.6555L50.5854 30.4841H50.0806L49.2903 31.6555L50.14 32.9142H50.6445ZM52.5035 32.8896C52.658 32.8378 52.7893 32.7584 52.9025 32.6494L52.7789 32.3108C52.7042 32.382 52.6039 32.4421 52.483 32.4913C52.3619 32.5405 52.2254 32.5648 52.0761 32.5648C51.8521 32.5648 51.6667 32.5021 51.5198 32.3738C51.3733 32.2455 51.2934 32.0654 51.2754 31.8357H53.0365C53.0546 31.7514 53.0622 31.6555 53.0622 31.5437C53.0622 31.3773 53.0341 31.227 52.9771 31.0905C52.9244 30.9581 52.8474 30.8383 52.7507 30.7384C52.6528 30.6392 52.5372 30.5621 52.4108 30.5117C52.2786 30.4567 52.138 30.4289 51.9962 30.4297C51.8059 30.4297 51.6386 30.4651 51.4917 30.5307C51.3532 30.5932 51.228 30.6852 51.1236 30.8011C51.022 30.9163 50.9439 31.053 50.8945 31.2024C50.8401 31.3615 50.813 31.5298 50.8146 31.6992C50.8146 31.8905 50.8455 32.065 50.9021 32.2209C50.9587 32.3764 51.0438 32.5103 51.1493 32.6222C51.2549 32.7341 51.3834 32.8188 51.5354 32.8788C51.6982 32.9408 51.87 32.9714 52.0427 32.969C52.1992 32.9678 52.3546 32.941 52.5035 32.8896ZM51.4712 31.0167C51.5976 30.894 51.7649 30.8339 51.976 30.8339C52.1743 30.8339 52.3337 30.894 52.4497 31.0059C52.5656 31.1207 52.6274 31.2789 52.6375 31.481H51.2472C51.2669 31.3022 51.3465 31.1372 51.4712 31.0167ZM54.7129 29.6681C54.4733 29.6681 54.342 29.526 54.3215 29.2422H53.9379C53.9379 29.3511 53.9559 29.4496 53.9893 29.5424C54.0229 29.6353 54.0719 29.7144 54.1361 29.78C54.2004 29.8456 54.283 29.8975 54.3781 29.9381C54.4733 29.9792 54.5841 29.9982 54.7101 29.9982C54.8261 29.9982 54.9292 29.9792 55.0219 29.9381C55.1146 29.9001 55.1917 29.8456 55.2587 29.78C55.323 29.7144 55.3747 29.6353 55.4105 29.5424C55.4466 29.4496 55.4646 29.3511 55.4646 29.2422H55.0837C55.0656 29.526 54.9393 29.6681 54.7129 29.6681ZM53.6132 30.4841V32.9142H54.0202L55.3435 31.104V32.9142H55.7504V30.4841H55.3435L54.0202 32.2944V30.4841H53.6132Z" fill="black"></path> </g> <defs> <clipPath id="clip0_16_21"> <rect width="73.125" height="39.375" fill="white" transform="translate(0.5 0.375)"></rect> </clipPath> </defs> </svg> 