<?xml version="1.0" encoding="UTF-8"?> <svg xmlns="http://www.w3.org/2000/svg" width="98" height="98" viewBox="0 0 98 98" fill="none"> <path d="M81.3956 50.8835L91.3822 52.8676L91.1419 54.0769L86.6948 53.1934L85.6369 58.5183L90.084 59.4018L89.8438 60.6111L79.8572 58.6271L80.0974 57.4178L84.5641 58.3052L85.622 52.9803L81.1553 52.0929L81.3956 50.8835Z" fill="#905A2B"></path> <path d="M76.2183 65.6767C76.5862 65.0937 77.0478 64.6698 77.603 64.4049C78.1564 64.1427 78.7605 64.0458 79.415 64.114C80.0678 64.185 80.7278 64.4311 81.3949 64.8521C82.0676 65.2766 82.5778 65.7691 82.9256 66.3296C83.2717 66.8929 83.4454 67.4808 83.447 68.0931C83.4467 68.7083 83.2626 69.3074 82.8947 69.8904C82.5268 70.4734 82.0661 70.8959 81.5126 71.1581C80.9574 71.423 80.352 71.519 79.6964 71.4462C79.039 71.3763 78.374 71.129 77.7013 70.7044C77.0342 70.2834 76.5291 69.7922 76.1858 69.2306C75.8408 68.6719 75.6684 68.085 75.6687 67.4698C75.6671 66.8574 75.8503 66.2597 76.2183 65.6767ZM77.1096 66.2393C76.8301 66.6821 76.7137 67.1181 76.7603 67.5473C76.8068 67.9765 76.9718 68.3765 77.2551 68.7473C77.5384 69.1182 77.8959 69.4398 78.3275 69.7122C78.7591 69.9846 79.2047 70.1698 79.6642 70.2678C80.1236 70.3657 80.5585 70.3442 80.9687 70.2034C81.379 70.0626 81.7239 69.7707 82.0034 69.3279C82.2829 68.885 82.3979 68.4481 82.3485 68.0172C82.2991 67.5862 82.1314 67.1844 81.8453 66.8118C81.5592 66.4392 81.2003 66.1167 80.7687 65.8443C80.337 65.5719 79.8929 65.3876 79.4362 65.2914C78.9796 65.1953 78.5475 65.2185 78.14 65.3611C77.7326 65.5037 77.3891 65.7964 77.1096 66.2393Z" fill="#905A2B"></path> <path d="M71.8466 71.6735L76.7765 77.5053L74.3922 79.5209C73.7645 80.0516 73.146 80.3314 72.5368 80.3603C71.9276 80.3892 71.4262 80.1708 71.0324 79.705C70.7329 79.3507 70.6058 78.9872 70.6511 78.6147C70.6986 78.2448 70.8579 77.8865 71.1292 77.54C70.8884 77.6915 70.6154 77.7921 70.3102 77.8418C70.0024 77.8936 69.6916 77.8699 69.3777 77.7707C69.066 77.674 68.7807 77.4726 68.5218 77.1663C68.2693 76.8676 68.1195 76.5364 68.0723 76.1726C68.0252 75.8088 68.0856 75.4388 68.2536 75.0624C68.4215 74.6861 68.7029 74.331 69.0978 73.9972L71.8466 71.6735ZM71.6894 73.2125L69.791 74.8173C69.4822 75.0784 69.3026 75.3561 69.252 75.6506C69.2015 75.945 69.2832 76.2188 69.4972 76.4719C69.7518 76.7731 70.0392 76.936 70.3593 76.9605C70.6816 76.9875 70.9972 76.8704 71.306 76.6094L73.2043 75.0046L71.6894 73.2125ZM73.8591 75.7791L72.3252 77.0758C72.0848 77.2791 71.9063 77.4864 71.7898 77.6977C71.6754 77.9115 71.6251 78.119 71.6389 78.32C71.6522 78.5258 71.7316 78.7147 71.8771 78.8868C72.0847 79.1323 72.3498 79.238 72.6725 79.2039C72.9974 79.1724 73.3395 79.0047 73.6989 78.7008L75.2328 77.4041L73.8591 75.7791Z" fill="#905A2B"></path> <path d="M61.2845 78.4882C61.9214 78.2244 62.543 78.1445 63.1493 78.2485C63.7526 78.3538 64.3018 78.6232 64.797 79.0566C65.2892 79.4913 65.6862 80.0731 65.988 80.8019C66.2924 81.5368 66.4249 82.2335 66.3856 82.8919C66.3431 83.5517 66.1458 84.132 65.7937 84.633C65.4385 85.1353 64.9424 85.5184 64.3055 85.7822C63.6686 86.046 63.0485 86.1252 62.4452 86.0199C61.8389 85.9159 61.2891 85.645 60.7956 85.2072C60.2991 84.7707 59.8987 84.185 59.5943 83.4501C59.2925 82.7213 59.1634 82.0285 59.2071 81.3719C59.2478 80.7165 59.4457 80.1376 59.8009 79.6354C60.153 79.1344 60.6475 78.752 61.2845 78.4882ZM61.6878 79.4619C61.204 79.6623 60.8572 79.9512 60.6476 80.3286C60.438 80.706 60.3419 81.1279 60.3593 81.5942C60.3766 82.0606 60.483 82.5295 60.6783 83.0011C60.8736 83.4727 61.1306 83.881 61.4494 84.2261C61.7681 84.5712 62.1356 84.8047 62.552 84.9264C62.9683 85.0481 63.4184 85.0088 63.9022 84.8084C64.386 84.608 64.7321 84.3176 64.9404 83.9371C65.1488 83.5567 65.2436 83.1317 65.225 82.6623C65.2063 82.1929 65.0994 81.7224 64.9041 81.2509C64.7087 80.7793 64.4523 80.3725 64.1349 80.0304C63.8174 79.6884 63.4512 79.458 63.0361 79.3393C62.621 79.2207 62.1716 79.2615 61.6878 79.4619Z" fill="#905A2B"></path> <path d="M50.3787 88.862L50.2693 87.7737L53.7913 87.4195L53.1365 80.9097L54.3039 80.7923L55.0681 88.3903L50.3787 88.862Z" fill="#905A2B"></path> <path d="M42.7136 80.4813C43.3903 80.613 43.9527 80.8897 44.4008 81.3112C44.8456 81.7321 45.1547 82.2599 45.3283 82.8948C45.4986 83.529 45.5083 84.2332 45.3576 85.0075C45.2056 85.7883 44.9313 86.4423 44.5349 86.9695C44.1353 87.4961 43.6503 87.8711 43.0801 88.0943C42.5066 88.3169 41.8815 88.3624 41.2048 88.2306C40.5281 88.0989 39.9674 87.8226 39.5226 87.4017C39.0745 86.9801 38.7657 86.4507 38.596 85.8132C38.4231 85.1751 38.4127 84.4657 38.5647 83.6849C38.7154 82.9106 38.9903 82.2618 39.3894 81.7384C39.7852 81.2145 40.2698 80.8412 40.8433 80.6185C41.4135 80.3953 42.037 80.3495 42.7136 80.4813ZM42.5122 81.5158C41.9982 81.4157 41.5496 81.4651 41.1665 81.6641C40.7833 81.863 40.4702 82.1616 40.2272 82.56C39.9842 82.9584 39.8139 83.4081 39.7164 83.9091C39.6188 84.4101 39.6076 84.8925 39.6828 85.3562C39.758 85.82 39.9355 86.2175 40.2154 86.5489C40.4953 86.8803 40.8922 87.096 41.4063 87.1961C41.9203 87.2962 42.3692 87.2451 42.753 87.043C43.1367 86.8408 43.4505 86.5389 43.6941 86.1372C43.9378 85.7356 44.1084 85.2843 44.2059 84.7832C44.3035 84.2822 44.3143 83.8015 44.2385 83.341C44.1627 82.8806 43.9846 82.4863 43.704 82.1581C43.4235 81.83 43.0262 81.6159 42.5122 81.5158Z" fill="#905A2B"></path> <path d="M37.2133 77.0665L35.5757 79.9099L35.0243 79.5923C34.8082 79.6553 34.6042 79.7405 34.4123 79.848C34.2204 79.9555 34.024 80.1006 33.8232 80.2832C33.6178 80.4671 33.3958 80.7064 33.1572 81.0012C32.9169 81.2989 32.6435 81.6673 32.337 82.1066L30.6044 84.5969L26.3996 82.1752L29.6649 76.5057L28.6482 75.9201L30.2858 73.0767L31.3025 73.6623L30.2108 75.5579L35.1049 78.3766L36.1966 76.481L37.2133 77.0665ZM33.8697 78.9274L30.6817 77.0913L27.9622 81.813L30.2025 83.1032L31.3375 81.5309C31.808 80.8801 32.2452 80.3268 32.6492 79.871C33.0532 79.4152 33.4601 79.1007 33.8697 78.9274Z" fill="#905A2B"></path> <path d="M19.9064 71.7761L20.7261 71.052L23.5174 74.2114L22.6978 74.9356L19.9064 71.7761ZM20.0544 76.8995L25.7772 71.8435L26.5541 72.7227L20.8313 77.7788L20.0544 76.8995ZM16.8549 73.278L22.5777 68.222L23.3546 69.1013L17.6317 74.1573L16.8549 73.278Z" fill="#905A2B"></path> <path d="M17.9597 63.9447L11.091 62.8315L10.5689 61.5841L17.6131 58.6356L18.0661 59.7179L12.6178 61.9984L19.4789 63.0933L20.0087 64.359L12.9645 67.3075L12.5115 66.2252L17.9597 63.9447Z" fill="#905A2B"></path> <path d="M14.6818 53.2082L8.5471 49.9242L8.45848 48.5748L16.0784 48.0744L16.1553 49.2451L10.2618 49.6322L16.3951 52.8963L16.4851 54.2656L8.86512 54.766L8.78822 53.5953L14.6818 53.2082ZM6.05795 50.8649L5.98627 49.7735C6.52205 49.7383 6.97242 49.8948 7.3374 50.2428C7.70238 50.5908 7.90572 51.0824 7.94743 51.7174C7.98848 52.3424 7.85085 52.8514 7.53453 53.2442C7.21799 53.6336 6.79184 53.846 6.25606 53.8812L6.18438 52.7898C6.44234 52.7728 6.66422 52.6868 6.85001 52.5318C7.03558 52.3735 7.11696 52.1207 7.09415 51.7734C7.07134 51.4261 6.95749 51.1845 6.75258 51.0485C6.54746 50.9092 6.31592 50.848 6.05795 50.8649Z" fill="#905A2B"></path> <path d="M15.3339 40.3798C15.2364 40.7688 15.0525 41.1003 14.7822 41.3742C14.5087 41.6474 14.1871 41.8401 13.8172 41.9524C13.4482 42.0614 13.0691 42.0672 12.6801 41.9697C12.2879 41.8713 11.9565 41.6874 11.6857 41.418C11.4126 41.1445 11.2215 40.8232 11.1124 40.4542C11.0001 40.0843 10.9928 39.7049 11.0903 39.3159C11.1886 38.9237 11.3741 38.5926 11.6468 38.3227C11.9171 38.0487 12.2368 37.8572 12.6058 37.7482C12.9724 37.6351 13.3519 37.6277 13.7441 37.726C14.1331 37.8236 14.4642 38.0091 14.7373 38.2826C15.0112 38.5528 15.2043 38.8729 15.3166 39.2428C15.4265 39.6086 15.4323 39.9876 15.3339 40.3798Z" fill="#905A2B"></path> <path d="M19.5488 33.8985L18.847 34.984L12.327 26.3159L13.018 25.2471L23.5981 27.6363L22.8963 28.7218L14.0467 26.6227L14.0036 26.6895L19.5488 33.8985ZM16.4681 31.3381L19.2972 26.9629L20.2157 27.5568L17.3866 31.932L16.4681 31.3381Z" fill="#905A2B"></path> <path d="M28.6345 23.3183C28.0745 23.7643 27.487 24.0162 26.872 24.074C26.2569 24.1317 25.6557 24.0153 25.0683 23.7247C24.4809 23.4341 23.9497 22.9907 23.4747 22.3945C22.9915 21.7879 22.6765 21.1637 22.5298 20.5221C22.3836 19.8758 22.4071 19.2617 22.6004 18.6798C22.7942 18.0932 23.1606 17.5851 23.6999 17.1556C24.1198 16.821 24.5603 16.5973 25.0212 16.4844C25.4821 16.3715 25.9317 16.3693 26.3699 16.4779C26.8081 16.5864 27.2018 16.8067 27.551 17.1387L26.6333 17.8698C26.3465 17.6533 25.9989 17.5361 25.5905 17.5182C25.1827 17.4956 24.7765 17.6454 24.3721 17.9676C24.0144 18.2526 23.775 18.5958 23.6541 18.9972C23.5337 19.3939 23.5326 19.8207 23.6507 20.2775C23.7693 20.7296 24.0083 21.1812 24.3676 21.6323C24.7352 22.0938 25.1279 22.4378 25.5457 22.6643C25.966 22.8888 26.3851 22.9893 26.8029 22.9659C27.2232 22.9403 27.6149 22.783 27.9778 22.4939C28.2163 22.3039 28.3997 22.09 28.5281 21.8522C28.6564 21.6143 28.726 21.3639 28.7369 21.101C28.7478 20.8381 28.6951 20.575 28.5786 20.3118L29.4963 19.5808C29.7254 19.9746 29.85 20.3944 29.8703 20.8401C29.8911 21.2812 29.8004 21.7179 29.5982 22.1502C29.3964 22.5779 29.0752 22.9672 28.6345 23.3183Z" fill="#905A2B"></path> <path d="M30.9609 13.7282L30.5538 12.7131L36.3123 10.4033L36.7195 11.4185L34.3939 12.3513L36.8295 18.4236L35.7406 18.8604L33.305 12.788L30.9609 13.7282Z" fill="#905A2B"></path> <path d="M43.1428 19.3677L42.4143 8.89299L43.5451 8.81434L43.6292 10.0245L43.7681 10.0148C43.8449 9.8766 43.9522 9.69969 44.09 9.48411C44.2309 9.265 44.4396 9.06444 44.716 8.88241C44.9954 8.69686 45.3831 8.58683 45.8791 8.55234C46.5205 8.50772 47.0971 8.62876 47.6088 8.91544C48.1204 9.20213 48.5339 9.6302 48.8493 10.1997C49.1646 10.7691 49.3502 11.4539 49.4058 12.2541C49.4619 13.0608 49.3733 13.7697 49.1401 14.3806C48.9066 14.9882 48.5581 15.471 48.0946 15.8288C47.6308 16.1833 47.0816 16.3827 46.4467 16.4268C45.9574 16.4609 45.5599 16.4071 45.2544 16.2655C44.9486 16.1207 44.7091 15.9496 44.536 15.7524C44.3625 15.5518 44.228 15.3851 44.1324 15.2522L44.0332 15.2591L44.3133 19.2863L43.1428 19.3677ZM43.8298 12.6219C43.8698 13.1973 43.9895 13.6989 44.1887 14.127C44.3877 14.5517 44.6578 14.8768 44.9991 15.1022C45.3401 15.3243 45.7454 15.4191 46.2149 15.3864C46.7042 15.3524 47.1036 15.195 47.413 14.9144C47.7255 14.6302 47.9491 14.2624 48.0838 13.8112C48.2216 13.3564 48.2717 12.8579 48.234 12.3156C48.1967 11.78 48.0805 11.303 47.8853 10.8847C47.6931 10.4628 47.423 10.1377 47.0749 9.90943C46.7298 9.6776 46.3093 9.57894 45.8134 9.61343C45.3372 9.64655 44.9456 9.79506 44.6383 10.059C44.3309 10.3196 44.1094 10.6705 43.974 11.1119C43.8383 11.5499 43.7903 12.0532 43.8298 12.6219Z" fill="#905A2B"></path> <path d="M56.7132 17.3526C56.0471 17.1748 55.505 16.8603 55.0869 16.409C54.672 15.9587 54.3997 15.4109 54.27 14.7657C54.1436 14.1213 54.1821 13.418 54.3855 12.6559C54.5906 11.8873 54.909 11.2536 55.3406 10.7548C55.7754 10.2568 56.2849 9.91598 56.8691 9.7323C57.4565 9.54947 58.0832 9.54695 58.7493 9.72474C59.4153 9.90254 59.9558 10.2166 60.3708 10.667C60.7889 11.1182 61.0608 11.6676 61.1864 12.3152C61.3152 12.9636 61.277 13.6721 61.0719 14.4406C60.8684 15.2028 60.5497 15.8312 60.1158 16.326C59.685 16.8217 59.176 17.1609 58.5886 17.3437C58.0044 17.5274 57.3793 17.5304 56.7132 17.3526ZM56.985 16.3342C57.491 16.4693 57.9419 16.4507 58.3378 16.2785C58.7336 16.1063 59.0664 15.8298 59.3362 15.449C59.6059 15.0682 59.8066 14.6312 59.9382 14.1381C60.0699 13.6449 60.1141 13.1644 60.0709 12.6966C60.0276 12.2289 59.8777 11.8201 59.6212 11.4703C59.3647 11.1205 58.9834 10.8781 58.4775 10.7431C57.9715 10.608 57.5202 10.6282 57.1234 10.8036C56.7267 10.979 56.393 11.2587 56.1224 11.6427C55.8519 12.0267 55.6507 12.4653 55.5191 12.9585C55.3875 13.4516 55.3437 13.9305 55.3878 14.3951C55.4319 14.8597 55.5826 15.2652 55.84 15.6118C56.0974 15.9584 56.4791 16.1992 56.985 16.3342Z" fill="#905A2B"></path> <path d="M73.0673 16.7032L69.4346 22.1446L70.3277 22.7409L68.3512 25.7014L67.3754 25.0499L68.7446 22.9991L63.8324 19.7196L68.0725 13.3686L69.0483 14.0201L65.4155 19.4615L68.4587 21.4931L72.0915 16.0517L73.0673 16.7032Z" fill="#905A2B"></path> <path d="M74.3716 25.9429L81.2945 25.2413L82.1216 26.3111L76.08 30.9816L75.3624 30.0533L80.0352 26.441L73.1245 27.1584L72.2853 26.0728L78.3269 21.4023L79.0445 22.3306L74.3716 25.9429Z" fill="#905A2B"></path> <path d="M84.2492 32.2007L85.2775 31.828L87.3916 37.6612L86.3633 38.0339L85.5096 35.6782L79.3585 37.9075L78.9587 36.8044L85.1098 34.5751L84.2492 32.2007Z" fill="#905A2B"></path> <path d="M83.0059 46.7484C82.9842 46.348 83.0621 45.977 83.2394 45.6355C83.4201 45.2938 83.6706 45.0147 83.9908 44.7982C84.3112 44.5851 84.6716 44.4677 85.0721 44.446C85.4758 44.4242 85.8468 44.502 86.185 44.6796C86.5267 44.8603 86.8041 45.1108 87.0173 45.4312C87.2338 45.7514 87.3528 46.1118 87.3745 46.5122C87.3963 46.916 87.3168 47.2871 87.1359 47.6254C86.9586 47.967 86.7097 48.2443 86.3893 48.4575C86.0724 48.6737 85.712 48.7928 85.3083 48.8146C84.9078 48.8363 84.5367 48.7568 84.1951 48.5761C83.8535 48.3987 83.5745 48.1499 83.3581 47.8297C83.1451 47.5126 83.0277 47.1522 83.0059 46.7484Z" fill="#905A2B"></path> </svg> 