<?xml version="1.0" encoding="UTF-8"?> <svg xmlns="http://www.w3.org/2000/svg" width="1013" height="370" viewBox="0 0 1013 370" fill="none"><rect width="1013" height="370" fill="white"></rect><path d="M323.382 157.517C322.868 155.119 321.549 152.969 319.644 151.423C317.739 149.877 315.363 149.029 312.909 149.02C312.152 149.024 311.398 149.106 310.657 149.264L234.814 165.369L222.839 167.899C217.436 169.049 211.844 168.976 206.472 167.687C201.1 166.399 196.084 163.926 191.791 160.451C187.498 156.976 184.036 152.585 181.658 147.601C179.28 142.616 178.047 137.163 178.049 131.641V39.1635C178.107 37.7191 177.873 36.2777 177.36 34.926C176.847 33.5743 176.066 32.3401 175.065 31.2975C174.063 30.2549 172.861 29.4254 171.53 28.8587C170.2 28.2921 168.768 28 167.322 28C165.876 28 164.445 28.2921 163.114 28.8587C161.784 29.4254 160.582 30.2549 159.58 31.2975C158.578 32.3401 157.797 33.5743 157.285 34.926C156.772 36.2777 156.538 37.7191 156.596 39.1635V131.641C156.602 137.134 155.386 142.559 153.036 147.524C150.686 152.489 147.261 156.87 143.009 160.348C138.757 163.827 133.784 166.317 128.451 167.638C123.118 168.96 117.557 169.078 112.172 167.987H111.735L99.7261 165.422L23.9348 149.212C22.5543 148.916 21.1289 148.896 19.7409 149.154C18.3528 149.412 17.0297 149.943 15.848 150.715C14.6664 151.488 13.6496 152.486 12.8565 153.654C12.0633 154.822 11.5096 156.135 11.2272 157.517C10.6467 160.298 11.1887 163.194 12.7352 165.577C14.2816 167.959 16.7072 169.635 19.4836 170.238L92.7963 185.802L105.713 188.559C110.469 189.587 114.901 191.762 118.625 194.894C122.348 198.025 125.249 202.018 127.077 206.526C128.904 211.034 129.602 215.92 129.109 220.759C128.617 225.598 126.949 230.244 124.251 234.291L124.059 234.623L112.678 251.147L63.2967 323C61.6914 325.345 61.0821 328.231 61.6024 331.024C62.1227 333.818 63.7301 336.291 66.0721 337.901C67.8553 339.121 69.9687 339.766 72.1291 339.751C73.8674 339.758 75.5813 339.342 77.123 338.54C78.6648 337.737 79.9882 336.572 80.979 335.144L129.627 264.286L142.666 245.336C145.371 241.417 148.972 238.199 153.172 235.953C157.372 233.706 162.047 232.494 166.81 232.419C171.573 232.344 176.285 233.407 180.553 235.521C184.821 237.634 188.523 240.736 191.35 244.569L204.895 264.286L253.561 335.144C255.181 337.488 257.666 339.093 260.47 339.605C263.274 340.117 266.166 339.495 268.511 337.875C270.856 336.255 272.461 333.771 272.973 330.968C273.486 328.166 272.863 325.274 271.243 322.93L221.809 251.059L210.481 234.553C207.699 230.502 205.959 225.828 205.415 220.944C204.871 216.061 205.54 211.118 207.363 206.555C209.185 201.991 212.105 197.947 215.864 194.781C219.623 191.615 224.105 189.423 228.914 188.402L241.691 185.68L315.004 170.115C317.777 169.539 320.211 167.893 321.78 165.535C323.348 163.177 323.924 160.297 323.382 157.517V157.517ZM167.296 211.503C163.173 211.507 159.142 210.288 155.712 208.001C152.282 205.714 149.608 202.461 148.028 198.655C146.448 194.848 146.033 190.659 146.835 186.616C147.637 182.574 149.621 178.86 152.535 175.944C155.449 173.029 159.163 171.043 163.206 170.238C167.249 169.433 171.441 169.844 175.25 171.42C179.06 172.997 182.316 175.667 184.607 179.093C186.898 182.52 188.12 186.549 188.12 190.67C188.12 196.195 185.924 201.494 182.016 205.401C178.107 209.309 172.806 211.503 167.279 211.503" fill="#905A2B"></path><path d="M421.941 130.757L433.723 157.995H410.176L421.941 130.757ZM417.42 112.803L386 184.464H398.795L405.655 168.603H438.366L445.348 184.464H458.353L426.933 112.803H417.42Z" fill="#24211E"></path><path d="M530.199 171.988C524.369 180.276 513.407 185.284 501.119 185.284C489.842 185.284 480.94 181.917 474.272 175.251C467.604 168.586 464.235 159.792 464.235 148.642C464.109 143.826 464.94 139.032 466.681 134.539C468.422 130.046 471.038 125.944 474.377 122.469C481.15 115.49 489.947 112 500.909 112C513.512 112 524.055 117.025 529.082 124.389L520.878 132.171C518.452 129.461 515.462 127.314 512.118 125.883C508.773 124.451 505.156 123.768 501.52 123.882C494.154 123.882 488.202 126.133 483.803 130.635C481.549 133.045 479.799 135.881 478.657 138.976C477.515 142.072 477.004 145.364 477.152 148.66C476.997 151.963 477.535 155.263 478.732 158.347C479.93 161.43 481.76 164.229 484.104 166.563C486.449 168.897 489.256 170.714 492.346 171.898C495.436 173.082 498.739 173.606 502.044 173.437C506.025 173.584 509.987 172.811 513.62 171.177C517.254 169.542 520.46 167.091 522.99 164.014L530.199 171.988Z" fill="#24211E"></path><path d="M536.955 124.476V112.803H597.472V124.476H573.419V184.464H561.026V124.476H536.955Z" fill="#24211E"></path><path d="M622.259 184.464H609.866V112.803H638.842C650.415 112.803 658.723 115.577 662.913 120.375C666.802 124.773 668.857 130.493 668.656 136.358C668.656 148.014 661.08 159.897 638.754 159.897H622.259V184.464ZM622.259 124.371V148.328H638.545C650.013 148.328 655.756 144.332 655.756 136.254C655.756 128.175 650.223 124.371 639.261 124.371H622.259Z" fill="#24211E"></path><path d="M689.951 122.521C693.341 119.092 697.397 116.394 701.871 114.593C706.344 112.792 711.139 111.928 715.96 112.052C720.806 111.935 725.625 112.802 730.126 114.601C734.627 116.401 738.715 119.095 742.143 122.521C747.325 127.667 750.856 134.24 752.285 141.4C753.715 148.561 752.977 155.984 750.168 162.724C747.359 169.464 742.604 175.214 736.512 179.242C730.419 183.269 723.264 185.391 715.96 185.337C711.142 185.437 706.354 184.561 701.884 182.761C697.415 180.962 693.355 178.277 689.951 174.867C683.119 167.867 679.295 158.474 679.295 148.694C679.295 138.914 683.119 129.522 689.951 122.521V122.521ZM699.168 166.457C703.661 170.915 709.734 173.417 716.065 173.417C722.395 173.417 728.469 170.915 732.962 166.457C735.227 164.093 736.994 161.297 738.158 158.237C739.321 155.177 739.857 151.914 739.734 148.642C739.847 145.354 739.286 142.077 738.085 139.013C736.884 135.95 735.069 133.164 732.752 130.827C730.561 128.597 727.944 126.829 725.057 125.63C722.169 124.431 719.069 123.825 715.943 123.848C712.824 123.786 709.725 124.363 706.838 125.542C703.95 126.721 701.334 128.478 699.15 130.705C694.669 135.577 692.183 141.954 692.183 148.572C692.183 155.191 694.669 161.567 699.15 166.44" fill="#24211E"></path><path d="M768.291 184.464V112.803H780.684V172.808H815.508V112.803H827.901V172.808H836.611V197.062H824.62V184.464H768.291Z" fill="#24211E"></path><path d="M860.264 184.464H849.913V112.803H862.306V162.461L901.633 112.803H912.071V184.464H899.695V134.823L860.264 184.464Z" fill="#24211E"></path><path d="M924.464 124.476V112.803H985V124.476H960.929V184.464H948.535V124.476H924.464Z" fill="#24211E"></path><path d="M400.306 239V228.93H387.056V239H382.816V215.15H387.056V224.955H400.306V215.15H404.546V239H400.306ZM431.029 233.064L432.354 236.403C430.058 238.488 427.072 239.53 423.397 239.53C419.546 239.53 416.454 238.399 414.122 236.138C411.79 233.877 410.624 230.856 410.624 227.075C410.624 223.471 411.72 220.503 413.91 218.171C416.101 215.804 419.104 214.62 422.92 214.62C426.065 214.62 428.697 215.645 430.817 217.694C432.937 219.708 433.997 222.323 433.997 225.538C433.997 226.633 433.909 227.587 433.732 228.4H415.394C415.571 230.626 416.401 232.375 417.885 233.647C419.405 234.919 421.348 235.555 423.715 235.555C426.825 235.555 429.263 234.725 431.029 233.064ZM422.708 218.595C420.588 218.595 418.857 219.196 417.514 220.397C416.172 221.563 415.377 223.082 415.129 224.955H429.598C429.492 222.976 428.821 221.422 427.584 220.291C426.383 219.16 424.758 218.595 422.708 218.595ZM439.75 239V215.15C440.315 215.15 441.569 215.115 443.513 215.044C445.491 214.973 447.117 214.938 448.389 214.938C455.243 214.938 458.671 216.987 458.671 221.086C458.671 222.499 458.229 223.718 457.346 224.743C456.462 225.732 455.314 226.333 453.901 226.545V226.651C457.611 227.322 459.466 229.195 459.466 232.269C459.466 236.898 455.809 239.212 448.495 239.212C447.435 239.212 445.88 239.177 443.831 239.106C441.781 239.035 440.421 239 439.75 239ZM449.078 228.294H443.99V235.608C446.534 235.714 448.159 235.767 448.866 235.767C452.929 235.767 454.961 234.495 454.961 231.951C454.961 229.513 453 228.294 449.078 228.294ZM448.707 218.383C447.682 218.383 446.11 218.436 443.99 218.542V225.644H449.343C450.791 225.644 451.957 225.308 452.841 224.637C453.724 223.966 454.166 223.065 454.166 221.934C454.166 219.567 452.346 218.383 448.707 218.383ZM465.939 249.6V215.15H470.179V217.959C471.027 216.97 472.175 216.175 473.624 215.574C475.108 214.938 476.663 214.62 478.288 214.62C481.645 214.62 484.312 215.751 486.291 218.012C488.305 220.238 489.312 223.135 489.312 226.704C489.312 230.379 488.164 233.435 485.867 235.873C483.57 238.311 480.585 239.53 476.91 239.53C474.083 239.53 471.84 238.982 470.179 237.887V249.6H465.939ZM477.069 218.595C474.242 218.595 471.946 219.69 470.179 221.881V233.7C472.016 234.937 474.136 235.555 476.539 235.555C479.048 235.555 481.044 234.742 482.528 233.117C484.047 231.492 484.807 229.407 484.807 226.863C484.807 224.39 484.118 222.393 482.74 220.874C481.362 219.355 479.472 218.595 477.069 218.595ZM497.297 236.032C494.965 233.665 493.799 230.679 493.799 227.075C493.799 223.471 494.965 220.503 497.297 218.171C499.665 215.804 502.739 214.62 506.519 214.62C510.3 214.62 513.356 215.804 515.688 218.171C518.056 220.503 519.239 223.471 519.239 227.075C519.239 230.679 518.056 233.665 515.688 236.032C513.356 238.364 510.3 239.53 506.519 239.53C502.739 239.53 499.665 238.364 497.297 236.032ZM498.304 227.075C498.304 229.548 499.064 231.58 500.583 233.17C502.138 234.76 504.117 235.555 506.519 235.555C508.922 235.555 510.883 234.778 512.402 233.223C513.957 231.633 514.734 229.584 514.734 227.075C514.734 224.602 513.957 222.57 512.402 220.98C510.883 219.39 508.922 218.595 506.519 218.595C504.152 218.595 502.191 219.39 500.636 220.98C499.082 222.535 498.304 224.566 498.304 227.075ZM540.749 239V219.39H532.375L532.11 223.418C531.898 226.068 531.58 228.365 531.156 230.308C530.732 232.216 530.238 233.753 529.672 234.919C529.142 236.05 528.489 236.951 527.711 237.622C526.934 238.293 526.139 238.753 525.326 239C524.514 239.212 523.577 239.318 522.517 239.318L522.199 235.184C522.623 235.219 523.03 235.166 523.418 235.025C523.842 234.848 524.302 234.495 524.796 233.965C525.326 233.435 525.786 232.728 526.174 231.845C526.598 230.962 526.969 229.725 527.287 228.135C527.641 226.51 527.87 224.655 527.976 222.57L528.4 215.15H544.989V239H540.749ZM554.541 236.032C552.209 233.665 551.043 230.679 551.043 227.075C551.043 223.471 552.209 220.503 554.541 218.171C556.909 215.804 559.983 214.62 563.763 214.62C567.544 214.62 570.6 215.804 572.932 218.171C575.3 220.503 576.483 223.471 576.483 227.075C576.483 230.679 575.3 233.665 572.932 236.032C570.6 238.364 567.544 239.53 563.763 239.53C559.983 239.53 556.909 238.364 554.541 236.032ZM555.548 227.075C555.548 229.548 556.308 231.58 557.827 233.17C559.382 234.76 561.361 235.555 563.763 235.555C566.166 235.555 568.127 234.778 569.646 233.223C571.201 231.633 571.978 229.584 571.978 227.075C571.978 224.602 571.201 222.57 569.646 220.98C568.127 219.39 566.166 218.595 563.763 218.595C561.396 218.595 559.435 219.39 557.88 220.98C556.326 222.535 555.548 224.566 555.548 227.075ZM582.601 239V215.15H597.706V219.125H586.841V239H582.601ZM606.043 239H601.803V215.15H606.043V232.905L619.823 215.15H624.063V239H619.823V221.245L606.043 239ZM649.685 215.15V239H645.445V229.725C643.608 230.891 641.399 231.474 638.82 231.474C633.167 231.474 630.34 228.435 630.34 222.358V215.15H634.845V221.881C634.845 225.626 636.559 227.499 639.986 227.499C642.212 227.499 644.032 227.004 645.445 226.015V215.15H649.685ZM676.154 233.064L677.479 236.403C675.183 238.488 672.197 239.53 668.522 239.53C664.671 239.53 661.579 238.399 659.247 236.138C656.915 233.877 655.749 230.856 655.749 227.075C655.749 223.471 656.845 220.503 659.035 218.171C661.226 215.804 664.229 214.62 668.045 214.62C671.19 214.62 673.822 215.645 675.942 217.694C678.062 219.708 679.122 222.323 679.122 225.538C679.122 226.633 679.034 227.587 678.857 228.4H660.519C660.696 230.626 661.526 232.375 663.01 233.647C664.53 234.919 666.473 235.555 668.84 235.555C671.95 235.555 674.388 234.725 676.154 233.064ZM667.833 218.595C665.713 218.595 663.982 219.196 662.639 220.397C661.297 221.563 660.502 223.082 660.254 224.955H674.723C674.617 222.976 673.946 221.422 672.709 220.291C671.508 219.16 669.883 218.595 667.833 218.595ZM702.902 232.481L704.916 235.555C703.927 236.827 702.619 237.816 700.994 238.523C699.369 239.194 697.62 239.53 695.747 239.53C691.931 239.53 688.839 238.399 686.472 236.138C684.14 233.841 682.974 230.82 682.974 227.075C682.974 223.577 684.122 220.627 686.419 218.224C688.716 215.821 691.595 214.62 695.058 214.62C699.227 214.62 702.354 215.662 704.439 217.747L702.478 221.086C700.676 219.425 698.397 218.595 695.641 218.595C693.415 218.595 691.489 219.408 689.864 221.033C688.274 222.623 687.479 224.637 687.479 227.075C687.479 229.619 688.292 231.668 689.917 233.223C691.578 234.778 693.627 235.555 696.065 235.555C698.821 235.555 701.1 234.53 702.902 232.481ZM731.325 215.15L720.884 226.545L732.332 239H726.449L715.69 226.81L725.76 215.15H731.325ZM710.443 239V215.15H714.683V239H710.443ZM738.111 220.185L736.998 216.793C739.33 215.344 741.98 214.62 744.948 214.62C748.234 214.62 750.584 215.433 751.997 217.058C753.411 218.683 754.117 221.121 754.117 224.372V239H750.089V235.926C748.252 238.223 745.708 239.371 742.457 239.371C740.267 239.371 738.5 238.717 737.157 237.41C735.815 236.067 735.143 234.265 735.143 232.004C735.143 229.637 735.974 227.782 737.634 226.439C739.33 225.096 741.503 224.425 744.153 224.425C746.697 224.425 748.676 224.937 750.089 225.962C750.089 223.418 749.736 221.528 749.029 220.291C748.323 219.054 746.874 218.436 744.683 218.436C742.528 218.436 740.337 219.019 738.111 220.185ZM743.941 235.555C746.309 235.555 748.358 234.53 750.089 232.481V229.46C748.605 228.4 746.821 227.87 744.736 227.87C743.323 227.87 742.122 228.206 741.132 228.877C740.143 229.548 739.648 230.52 739.648 231.792C739.648 232.958 740.019 233.877 740.761 234.548C741.539 235.219 742.599 235.555 743.941 235.555ZM771.658 215.15H779.078V239H774.838V231.05H770.227L764.397 239H759.256L766.146 229.99C764.768 229.672 763.567 228.912 762.542 227.711C761.518 226.474 761.005 224.937 761.005 223.1C761.005 220.803 761.853 218.913 763.549 217.429C765.245 215.91 767.948 215.15 771.658 215.15ZM765.51 223.206C765.51 224.372 765.97 225.308 766.888 226.015C767.807 226.722 768.832 227.075 769.962 227.075H774.838V219.125H770.969C769.097 219.125 767.719 219.514 766.835 220.291C765.952 221.033 765.51 222.005 765.51 223.206ZM819.572 215.15L809.131 226.545L820.579 239H814.696L803.937 226.81L814.007 215.15H819.572ZM798.69 239V215.15H802.93V239H798.69ZM841.255 239V219.39H832.881L832.616 223.418C832.404 226.068 832.086 228.365 831.662 230.308C831.238 232.216 830.744 233.753 830.178 234.919C829.648 236.05 828.995 236.951 828.217 237.622C827.44 238.293 826.645 238.753 825.832 239C825.02 239.212 824.083 239.318 823.023 239.318L822.705 235.184C823.129 235.219 823.536 235.166 823.924 235.025C824.348 234.848 824.808 234.495 825.302 233.965C825.832 233.435 826.292 232.728 826.68 231.845C827.104 230.962 827.475 229.725 827.793 228.135C828.147 226.51 828.376 224.655 828.482 222.57L828.906 215.15H845.495V239H841.255ZM857.379 239H853.139V215.15H857.379V232.905L871.159 215.15H875.399V239H871.159V221.245L857.379 239ZM900.597 239V228.93H887.347V239H883.107V215.15H887.347V224.955H900.597V215.15H904.837V239H900.597ZM916.745 239H912.505V215.15H916.745V232.905L930.525 215.15H934.765V239H930.525V221.245L916.745 239ZM963.355 215.15L952.914 226.545L964.362 239H958.479L947.72 226.81L957.79 215.15H963.355ZM942.473 239V215.15H946.713V239H942.473ZM970.142 220.185L969.029 216.793C971.361 215.344 974.011 214.62 976.979 214.62C980.265 214.62 982.614 215.433 984.028 217.058C985.441 218.683 986.148 221.121 986.148 224.372V239H982.12V235.926C980.282 238.223 977.738 239.371 974.488 239.371C972.297 239.371 970.53 238.717 969.188 237.41C967.845 236.067 967.174 234.265 967.174 232.004C967.174 229.637 968.004 227.782 969.665 226.439C971.361 225.096 973.534 224.425 976.184 224.425C978.728 224.425 980.706 224.937 982.12 225.962C982.12 223.418 981.766 221.528 981.06 220.291C980.353 219.054 978.904 218.436 976.714 218.436C974.558 218.436 972.368 219.019 970.142 220.185ZM975.972 235.555C978.339 235.555 980.388 234.53 982.12 232.481V229.46C980.636 228.4 978.851 227.87 976.767 227.87C975.353 227.87 974.152 228.206 973.163 228.877C972.173 229.548 971.679 230.52 971.679 231.792C971.679 232.958 972.05 233.877 972.792 234.548C973.569 235.219 974.629 235.555 975.972 235.555Z" fill="#24211E"></path></svg> 