<?xml version="1.0" encoding="UTF-8"?> <svg xmlns="http://www.w3.org/2000/svg" width="102" height="42" viewBox="0 0 102 42" fill="none"> <path d="M1 1H101V41H1V1Z" fill="#E7DBD0" fill-opacity="0.4"></path> <g filter="url(#filter0_f_3320_5953)"> <mask id="mask0_3320_5953" style="mask-type:alpha" maskUnits="userSpaceOnUse" x="1" y="1" width="100" height="40"> <mask id="mask1_3320_5953" style="mask-type:alpha" maskUnits="userSpaceOnUse" x="1" y="1" width="100" height="40"> <path d="M101 1H1V41H101V1Z" fill="black"></path> </mask> <g mask="url(#mask1_3320_5953)"> <path d="M77.8267 20.1231C75.9601 23.0435 77.6756 26.6443 81.4979 27.0263C82.1003 27.0683 82.7047 27.0794 83.308 27.0597C83.9513 27.0388 84.4401 26.4954 84.4401 25.8518V25.8518C84.4401 25.1113 83.8014 24.5515 83.0623 24.597C81.9295 24.6668 80.7807 24.5851 80.1956 23.8233C79.1379 22.4427 80.489 20.7716 81.7556 19.9958C82.3053 19.654 82.8898 19.3607 83.5009 19.1197C84.0389 18.9076 84.4223 18.4055 84.4223 17.8272V17.8272C84.4223 16.9894 83.6422 16.3643 82.8467 16.6271C80.7561 17.3177 78.875 18.4339 77.809 20.1032" fill="#E8EDED"></path> <path d="M81.8311 11.1668C82.2312 11.264 82.6357 11.3449 83.0435 11.4093C83.7953 11.5282 84.44 10.9202 84.44 10.159V10.159C84.44 9.4872 83.9326 8.93038 83.2732 8.80124C80.5913 8.27592 77.954 6.90123 78.6134 4.17214C79.1104 2.10251 81.1774 1.03767 83.407 0.438356C84.0044 0.277785 84.44 -0.249825 84.44 -0.868393V-0.868393C84.44 -1.67236 83.7191 -2.28877 82.9397 -2.09146C82.7379 -2.04038 82.5372 -1.98566 82.3378 -1.92733C79.2267 -1.00027 76.1734 1.1244 75.7734 4.20796C75.3289 7.58196 78.44 10.3034 81.8311 11.1549" fill="#E8EDED"></path> <path d="M84.44 48.5908C84.44 48.055 84.1123 47.5772 83.6257 47.353C82.3039 46.744 81.0758 45.9821 79.9734 45.0859C78.64 44.0037 77.2045 42.5912 77.0623 40.9162C76.9334 39.4321 78.08 38.2186 79.44 37.5143C80.5337 36.9763 81.7581 36.7092 82.9891 36.7284C83.7442 36.7403 84.44 36.1794 84.44 35.4242V35.2756C84.44 34.7623 84.0634 34.2974 83.5512 34.2637V34.2637C80.1512 34.013 76.3467 35.4573 74.8445 38.326C73.1467 41.5727 75.4534 44.8233 78.1289 46.9758C79.5147 48.0908 81.0638 49.027 82.731 49.7599C83.5546 50.122 84.44 49.4906 84.44 48.5908V48.5908Z" fill="#E8EDED"></path> <path d="M-29.2444 26.5846C-27.5422 25.8127 -25.6311 25.4864 -23.9111 24.7583C-20.5733 23.3578 -17.6889 20.7079 -13.8267 22.4626C-12.1333 23.2345 -10.6755 24.3525 -9.18221 25.3909C-7.66763 26.4779 -5.99064 27.3699 -4.19999 28.0408C-0.563411 29.3006 3.42762 29.4874 7.19112 28.574C10.7453 27.7127 14.0404 26.1531 16.8365 24.0085C19.6327 21.8638 21.8597 19.1881 23.3556 16.1761C24.1027 14.704 24.6618 13.161 25.0222 11.5766C25.4133 9.79016 25.4667 7.95595 25.9111 6.18539C26.8533 2.64428 30.4222 1.22782 33.1556 -1.08385C35.8667 -3.40358 37.8367 -6.32927 38.8622 -9.55864C39.7911 -12.4711 40.1956 -15.9685 38.5334 -18.7417C36.84 -21.5945 33.0222 -22.1992 30.1911 -20.2775C26.9111 -18.0414 26.7245 -14.5719 25.1333 -11.4804C23.6045 -8.52019 20.0845 -7.38623 17.4178 -5.42072C14.4267 -3.22045 13.6933 -0.14087 13.1422 3.12571C12.8622 4.7769 12.5467 6.45196 11.6711 7.944C10.8406 9.31375 9.72589 10.5291 8.38668 11.5249C5.50223 13.7411 1.38667 15.5912 -2.46666 15.635C-5.86222 15.6748 -9.57778 13.761 -9.28889 10.3591C-9.01333 6.88565 -5.38223 5.98246 -2.15556 5.46522C1.4 4.89625 4.80445 4.12836 6.90667 1.26761C8.78222 -1.28676 8.81335 -4.70055 6.50669 -7.05997C4.28446 -9.3239 0.595562 -10.0003 -2.3111 -8.39286C-3.83999 -7.54538 -4.97777 -6.25228 -6.51999 -5.4247C-7.97333 -4.62894 -9.71555 -4.42204 -11.3556 -4.1475C-14.7556 -3.58649 -17.8933 -2.556 -19.2133 0.555408C-20.4933 3.57928 -19.5155 6.98512 -21.2089 9.91351C-22.9022 12.8419 -25.8889 14.4414 -29.4489 15.0223C-33.1689 15.635 -36.7511 16.0289 -39.2267 18.8936C-41.4133 21.4321 -42.3067 24.6708 -45.4489 26.505C-48.7333 28.4308 -52.3511 28.3591 -55.9378 27.2013C-59.5244 26.0435 -63.0711 24.253 -67.0711 24.4162V24.4162C-67.4727 24.4162 -67.7778 24.7793 -67.7778 25.181V25.6141C-67.7778 26.3521 -67.1413 26.9246 -66.4034 26.9303C-65.9495 26.9339 -65.4957 26.9605 -65.0444 27.0103C-63.1244 27.2689 -61.2978 27.9573 -59.5155 28.6018C-55.92 29.9307 -52.3467 31.0687 -48.4044 30.3087C-46.6485 29.9544 -44.9902 29.2871 -43.5287 28.3464C-42.0671 27.4058 -40.8323 26.2112 -39.8978 24.8339C-38.9556 23.4613 -38.2578 21.9493 -37.2044 20.6363C-36.1446 19.3356 -34.5829 18.4338 -32.8222 18.1058C-29.2667 17.3101 -25.7111 17.2663 -22.64 15.2013C-21.2181 14.2482 -20.0244 13.0492 -19.1296 11.6755C-18.2349 10.3018 -17.6573 8.78122 -17.4311 7.20396C-17.0133 4.32332 -17.64 0.404215 -14.0178 -0.972443C-10.9067 -2.16608 -7.38222 -1.7682 -4.53778 -3.61038C-3.11555 -4.52549 -1.92444 -5.88226 -0.311105 -6.5308C0.382018 -6.78244 1.14006 -6.85506 1.87697 -6.74042C2.61387 -6.62578 3.30013 -6.32847 3.85779 -5.88226C6.58668 -3.89287 5.53333 -0.212496 2.90222 1.42676C-0.0044467 3.23711 -3.99555 2.81934 -7.18221 4.05674C-8.75613 4.64952 -10.0784 5.67548 -10.9573 6.98602C-11.8363 8.29655 -12.2264 9.82357 -12.0711 11.3459C-11.7155 14.5806 -8.96 16.9599 -5.53778 17.7915C-1.56 18.7583 2.62224 17.5368 6.14224 15.8658C9.25335 14.3857 12.1822 12.261 13.9333 9.47584C15.8444 6.44003 15.5911 3.00236 16.7378 -0.228413C17.8844 -3.45918 21.2622 -4.60507 24.0267 -6.49101C25.4282 -7.38818 26.5808 -8.56159 27.3956 -9.92072C28.2845 -11.4844 28.7289 -13.1992 29.36 -14.8464C29.9378 -16.3544 30.9111 -17.9857 32.6133 -18.686C34.1333 -19.3146 35.4845 -18.6144 36.1689 -17.3491C37.6267 -14.6594 36.6534 -10.9831 35.4222 -8.36104C33.8889 -5.10242 31.2889 -2.84246 28.2222 -0.717795C26.7733 0.284858 25.3689 1.35912 24.4089 2.77954C23.3422 4.37106 23 6.17345 22.7467 7.97186C22.3022 11.3021 21.4978 14.3379 19.5467 17.2663C15.7511 22.9162 8.43556 27.1536 0.880003 26.5727C-3.29777 26.2544 -6.31999 24.1615 -9.52888 21.9772C-12.5555 19.9161 -15.9955 18.5156 -19.7511 19.8764C-21.4444 20.4891 -22.9244 21.4361 -24.5244 22.2119C-26.2533 23.0475 -28.1867 23.4056 -29.9867 24.1178C-33.3111 25.4109 -35.3778 28.1482 -35.8267 31.3392C-36.2756 34.5302 -34.8578 37.7053 -32.5022 40.0925C-31.2421 41.3591 -29.7606 42.4341 -28.1156 43.2756C-26.4044 44.1628 -24.44 44.8671 -23.1111 46.2318C-21.9111 47.4652 -21.6667 49.017 -22.8222 50.3538C-24.0311 51.7504 -26.0267 52.1403 -27.9111 51.9931C-31.6133 51.7066 -35.2089 49.566 -37.2978 46.8644C-39.52 44.0156 -41.0089 40.2716 -45.1289 39.2331C-47.0667 38.7477 -48.9733 39.2928 -50.9067 39.4321C-52.84 39.5713 -54.9067 38.891 -56.7289 38.2703C-59.9935 37.1621 -62.9801 35.415 -66.3461 34.6375C-67.0894 34.4658 -67.7644 35.055 -67.7644 35.8179V35.8179C-67.7644 36.432 -67.3195 36.9517 -66.7239 37.1014C-64.8864 37.5631 -63.0913 38.3812 -61.4978 39.0978C-57.9422 40.6894 -53.8667 42.3405 -49.8044 41.8273C-47.9067 41.5886 -46.1289 41.2345 -44.4444 42.2849C-42.76 43.3352 -41.8089 45.0461 -40.8 46.5859C-38.8667 49.5461 -36.2 51.9851 -32.6711 53.3857C-29.1422 54.7862 -24.76 55.2278 -21.64 52.8724C-18.7111 50.6602 -18.5555 47.139 -21 44.5806C-22.2889 43.2238 -24.0889 42.3923 -25.8044 41.5488C-27.5159 40.7575 -29.064 39.7106 -30.3822 38.4533C-32.72 36.1217 -33.8444 32.883 -32.5422 29.8591C-31.9412 28.4356 -30.764 27.2667 -29.2444 26.5846Z" fill="#E8EDED"></path> <path d="M-51.1556 52.3353C-47.9378 53.7477 -45.7333 56.4175 -43.0667 58.4705C-37.4133 62.8472 -28.9467 64.753 -21.7333 62.692C-14.8978 60.7344 -9.56 55.3153 -9.89333 48.6668C-9.98401 45.5576 -11.4178 42.6011 -13.8933 40.4188C-15.3111 39.2252 -17.0044 38.3379 -18.3378 37.0647C-19.3111 36.1376 -20.3244 34.3631 -19.3778 33.1456C-18.4311 31.9281 -16.3644 32.4931 -15.2444 33.1456C-13.5467 34.1164 -12.4044 35.7278 -10.9467 36.9453C-8.36248 39.0556 -5.18771 40.4993 -1.76 41.1231C5.14222 42.4241 12.52 40.9917 18.7245 38.1549C25.0533 35.2583 30.7244 30.5435 33.1067 24.444C34.44 21.078 33.9956 17.6124 34.6445 14.1628C34.9511 12.4353 35.8252 10.8286 37.1556 9.54745C38.4267 8.32199 39.9111 7.29148 41.2711 6.15355C44.141 3.80518 46.123 0.715286 46.9422 -2.6873C47.7644 -6.28809 46.5644 -9.7178 46.5778 -13.3146C46.5862 -15.0941 47.2207 -16.8259 48.3911 -18.2642C49.5422 -19.7881 50.72 -21.2125 51.5022 -22.9353C52.9645 -26.2417 52.9644 -29.9021 52.9822 -33.4035C52.9822 -33.9359 52.9822 -34.48 52.9822 -35.0293C52.9822 -35.8102 52.3492 -36.4433 51.5683 -36.4433V-36.4433C50.8072 -36.4433 50.1825 -35.8408 50.1724 -35.0798C50.1407 -32.6947 50.2082 -30.3053 49.9245 -27.9326C49.7387 -26.152 49.1872 -24.4173 48.2978 -22.8159C47.3556 -21.1767 45.9333 -19.808 44.9778 -18.1767C43.0711 -14.926 43.8667 -11.4128 44.28 -7.95123C44.7245 -4.37032 43.9333 -0.988361 41.6133 1.99572C39.44 4.78087 35.9645 6.4639 33.7822 9.24904C31.3867 12.2968 31.6667 16.0448 31.3422 19.5939C30.7467 26.127 25.7333 31.4228 19.7022 34.761C13.8711 37.9878 6.45777 39.9334 -0.400004 38.8233C-3.85764 38.3359 -7.05867 36.8933 -9.55555 34.6973C-12.0844 32.3896 -14.6 29.4175 -18.6978 30.0461C-22.5422 30.635 -23.2711 34.4228 -21.7689 37.1244C-20.12 40.1124 -16.1511 41.2186 -14.2533 44.0395C-13.4165 45.3468 -12.9012 46.799 -12.7418 48.2989C-12.5824 49.7989 -12.7825 51.312 -13.3289 52.7371C-14.4356 55.7411 -17.1156 58.0607 -20.2178 59.4652C-26.9467 62.505 -35.7956 60.8976 -41.3289 56.517C-43.9378 54.448 -46.1733 51.9254 -49.2756 50.4016C-53.1956 48.4758 -57.3111 49.2597 -61.56 49.0846C-63.0813 49.0124 -64.5816 48.7557 -66.0204 48.3233C-66.8604 48.0709 -67.7556 48.6701 -67.7556 49.5472V49.5472C-67.7556 50.0726 -67.4227 50.5434 -66.919 50.6927C-65.8512 51.0093 -64.7541 51.2422 -63.64 51.3883C-59.56 51.9215 -54.9822 50.6562 -51.1556 52.3353" fill="#E8EDED"></path> <path d="M4.48884 65.3578C8.87551 68.4891 14.1733 68.6363 19.4666 69.4559C24.76 70.2755 29.3288 72.5952 32.2444 76.6535C35.0711 80.5567 36.8488 85.4586 42.1644 87.2212C43.2613 87.5981 44.4463 87.7227 45.611 87.5837C46.7756 87.4447 47.8828 87.0465 48.8311 86.4254C50.6977 85.18 51.8933 83.0912 51.2355 80.9983C50.5777 78.9055 48.4 77.5846 47.1466 75.8259C45.72 73.8365 44.7866 71.6005 43.6311 69.4798C41.4088 65.4135 38.0044 62.2344 33.2711 60.5315C30.9002 59.7009 28.3672 59.3045 25.8222 59.3657C24.5511 59.3657 23.0311 59.5448 21.8889 58.9201C21.0755 58.4745 20.4044 57.5434 21.3511 56.9068C22.0711 56.4174 23.1955 56.3618 24.0622 56.318C25.2755 56.2623 26.4844 56.2543 27.6933 56.1588C30.0343 55.9892 32.3525 55.6242 34.6177 55.0686C39.0622 53.9466 43.2088 51.8856 46 48.5355C48.0044 46.1482 48.7422 43.0408 50.9422 40.7649C51.8844 39.7941 53.0755 39.1257 54.5422 39.5355C57.0533 40.2318 57.6533 42.5952 58.0577 44.6323C58.4755 46.8366 59.5466 48.6787 61.6933 49.9121C62.5985 50.4312 63.6125 50.7794 64.6732 50.9354C65.7339 51.0914 66.8191 51.0519 67.8622 50.8193C69.0444 50.5488 70.0622 49.9559 71.1333 50.7755C72.2044 51.5952 72.44 52.8206 72.5866 53.9586C72.88 56.2424 72.9155 58.3989 74.5822 60.2848C76.0198 61.8417 78.0337 62.885 80.2577 63.2251C81.1923 63.3881 82.1393 63.4751 83.0873 63.5543C83.7969 63.6137 84.4088 63.0525 84.4088 62.3405V62.3405C84.4088 61.6935 83.8995 61.1641 83.2552 61.105C82.1457 61.0032 81.0457 60.8276 79.9644 60.5792C78.916 60.3316 77.9647 59.8287 77.2162 59.1263C76.4678 58.424 75.9514 57.5497 75.7244 56.6005C75.16 54.1416 75.5688 51.623 73.6888 49.5342C72.9942 48.723 72.0164 48.1431 70.9111 47.8869C69.4266 47.5846 68.2444 48.2172 66.8444 48.4559C65.803 48.6051 64.7356 48.4678 63.7833 48.0621C62.831 47.6564 62.0386 47.0015 61.5111 46.184C60.8933 45.1774 60.84 43.9838 60.6 42.8737C60.37 41.7345 59.8781 40.6506 59.1555 39.6906C57.8844 38.0554 55.8711 36.8737 53.5911 36.9055C49.7422 36.9334 47.6133 40.4387 46.1466 43.1363C45.4266 44.4652 44.8133 45.8498 43.8089 47.0474C42.4327 48.6666 40.6796 49.9985 38.6711 50.9506C34.4177 53.0435 29.4755 53.6721 24.6888 53.8034C22.6711 53.8591 20.2444 54.07 18.9111 55.5938C17.2888 57.4241 18.32 59.8551 20.3555 61.0249C22.7777 62.4174 25.8 61.6774 28.4888 61.9877C31.0043 62.2928 33.404 63.1243 35.4933 64.4148C40.0933 67.1999 41.4622 71.8074 43.9955 75.9533C44.5873 76.9375 45.2806 77.8699 46.0666 78.7384C46.8577 79.6018 47.9511 80.3697 48.4533 81.4161C49.4044 83.4055 46.7644 85.188 44.7733 85.1681C42.1066 85.1403 39.9155 83.1986 38.5511 81.3604C36.9644 79.2596 35.8844 76.8843 34.2488 74.8074C31.1963 70.9393 26.6218 68.2485 21.4444 67.2755C16.04 66.245 10.0755 66.5594 5.71551 63.0302C3.95254 61.6159 2.59708 59.8415 1.76439 57.8578C0.99995 55.9838 0.377726 53.4015 1.26217 51.4917C2.1955 49.4625 5.12886 49.6495 7.14219 49.741C9.61359 49.8844 12.0943 49.8324 14.5555 49.5859C24.4328 48.4748 33.479 44.0704 39.8888 37.2517C41.4903 35.3975 42.9457 33.4459 44.2444 31.4108C44.8977 30.4639 45.6533 29.5527 46.8177 29.0832C48.0622 28.5819 49.5111 28.4625 50.8488 28.3312C53.0266 28.1124 55.4844 27.9334 57.5511 28.7291C59.7733 29.5647 60.2711 31.57 61.5777 33.1575C63.0044 34.8922 65.2888 35.6243 67.5733 34.8007C69.9466 33.9493 71.3288 31.9798 71.6044 29.7517C71.9066 27.3286 71.0666 24.814 70.0133 22.5899C69.0262 20.3667 67.4104 18.4115 65.3244 16.9161C63.2731 15.4704 60.7103 14.732 58.1022 14.8352C56.8138 14.9429 55.5564 15.2513 54.3866 15.7464C53.1066 16.2517 51.84 16.9678 50.4489 17.2026C48.3289 17.5607 47.1244 16.1005 47.2177 14.3299C47.3244 12.3405 49.1244 11.0156 51.08 10.3193C54.6 9.05803 62.0222 9.81002 62.0222 4.84053C62.0222 2.58058 59.9822 0.817978 58.2133 -0.546744C57.4002 -1.11345 56.709 -1.80776 56.1733 -2.59581C55.8222 -3.15284 55.2488 -4.22314 55.7866 -4.82393C56.4444 -5.55603 58.0089 -5.03878 58.8622 -4.91942C60.1342 -4.7149 61.4422 -4.7817 62.6799 -5.11439C64.4222 -5.58786 67.2311 -7.39821 69.0266 -6.30802C70.8222 -5.21784 70.1511 -2.51226 69.4044 -1.04011C68.2888 1.1522 66.8133 3.14159 66.5555 5.59649C66.3874 7.57449 66.8671 9.55345 67.9359 11.2911C69.0047 13.0288 70.6163 14.4499 72.5733 15.3803C74.1777 16.1204 75.5999 13.9519 73.9866 13.2119C72.0092 12.2854 70.5139 10.7045 69.8191 8.80573C69.1242 6.90698 69.2848 4.84042 70.2666 3.04609C71.3333 1.00896 72.7511 -0.904839 72.9733 -3.2006C73.1511 -5.08654 72.48 -7.17936 70.6933 -8.33719C68.8 -9.53082 66.5333 -9.16478 64.5155 -8.44064C63.4793 -8.01019 62.4044 -7.65881 61.3022 -7.39025C59.9688 -7.14754 58.72 -7.57327 57.4044 -7.67274C55.1422 -7.83985 53.0133 -6.67406 52.8311 -4.53348C52.6755 -2.68732 53.8711 -0.805365 55.2844 0.459887C56.5111 1.55803 59.7777 3.27686 59.1733 5.1827C58.6533 6.82991 55.5644 6.85777 54.0622 7.05273C49.6177 7.64159 44.5822 9.73442 44.3955 14.318C44.3289 15.9731 45.0133 17.7278 46.4844 18.7782C48.4977 20.2145 51.0266 19.8246 53.2222 18.9732C55.6266 18.0421 57.7244 16.9042 60.4355 17.5169C63 18.0978 65.0089 19.7052 66.3644 21.6946C67.72 23.684 68.8133 26.2862 68.8444 28.6694C68.8711 30.3604 67.7644 32.9108 65.3555 32.6124C64.3466 32.4891 63.7733 31.6416 63.3155 30.9214C62.7905 29.972 62.167 29.0688 61.4533 28.2238C59.9955 26.6801 57.8533 25.9758 55.6755 25.7371C53.3644 25.4864 51.0177 25.7371 48.7289 26.0554C45.9333 26.4334 43.84 27.4599 42.2177 29.5686C40.8844 31.3312 39.8222 33.2251 38.3333 34.9082C36.8163 36.6215 35.1082 38.1919 33.2355 39.5952C29.5699 42.3399 25.3434 44.4209 20.7911 45.7225C16.1777 47.0474 11.6044 47.314 6.79551 47.135C4.57329 47.0474 2.0933 47.1349 0.279966 48.4718C-1.68003 49.9082 -2.04448 52.2994 -1.88448 54.44C-1.71391 56.5528 -1.0597 58.6116 0.0374797 60.4885C1.13466 62.3653 2.65136 64.0201 4.49329 65.3498" fill="#E8EDED"></path> <path d="M122.507 26.5845C124.209 25.8126 126.124 25.4864 127.84 24.7583C131.178 23.3577 134.062 20.7079 137.92 22.4625C139.618 23.2344 141.071 24.3524 142.564 25.3909C144.082 26.4785 145.762 27.3705 147.556 28.0408C151.194 29.3006 155.186 29.4873 158.951 28.5739C162.5 27.7088 165.789 26.1474 168.581 24.003C171.372 21.8586 173.595 19.185 175.089 16.176C175.832 14.703 176.39 13.1603 176.751 11.5766C177.147 9.7901 177.196 7.95589 177.64 6.18533C178.578 2.64422 182.151 1.22776 184.88 -1.08391C187.591 -3.40364 189.561 -6.32933 190.587 -9.55871C191.516 -12.4712 191.92 -15.9685 190.258 -18.7417C188.564 -21.5945 184.747 -22.1993 181.92 -20.2775C178.653 -18.0653 178.458 -14.5879 176.867 -11.4964C175.342 -8.53616 171.818 -7.40221 169.156 -5.4367C166.164 -3.23643 165.427 -0.15685 164.876 3.10973C164.596 4.76092 164.284 6.43598 163.404 7.92803C162.574 9.29672 161.461 10.5119 160.124 11.5089C157.24 13.7251 153.12 15.5752 149.271 15.619C145.871 15.6588 142.16 13.745 142.444 10.3431C142.724 6.86967 146.356 5.96649 149.556 5.44925C153.111 4.88029 156.516 4.11238 158.618 1.25163C160.493 -1.30274 160.524 -4.71653 158.218 -7.07595C155.996 -9.33988 152.307 -10.0163 149.4 -8.40884C147.871 -7.56136 146.733 -6.26825 145.191 -5.44067C143.738 -4.64491 142 -4.43802 140.356 -4.16348C136.96 -3.60247 133.818 -2.57197 132.498 0.53944C131.218 3.56331 132.196 6.96914 130.507 9.89753C128.818 12.8259 125.827 14.4254 122.262 15.0063C118.542 15.619 114.96 16.0129 112.484 18.8776C110.302 21.4161 109.404 24.6548 106.262 26.489C102.978 28.4148 99.36 28.3431 95.7778 27.1853C92.1289 25.9917 88.64 24.237 84.64 24.4002V24.4002C84.2384 24.4002 83.9333 24.7634 83.9333 25.165V25.5982C83.9333 26.3361 84.5698 26.9086 85.3077 26.9143C85.7616 26.9179 86.2154 26.9446 86.6667 26.9943C88.5867 27.253 90.4133 27.9413 92.1956 28.5859C95.7911 29.9148 99.3645 31.0527 103.307 30.2927C105.062 29.9384 106.72 29.271 108.18 28.3303C109.641 27.3897 110.875 26.1951 111.809 24.8179C112.751 23.4453 113.453 21.9333 114.502 20.6203C115.564 19.3194 117.127 18.4176 118.889 18.0898C122.444 17.2941 126 17.2503 129.067 15.1853C130.489 14.2322 131.682 13.0333 132.577 11.6595C133.472 10.2858 134.049 8.76524 134.276 7.18798C134.693 4.30734 134.071 0.388236 137.689 -0.988422C140.8 -2.18206 144.324 -1.78417 147.169 -3.62634C148.591 -4.54146 149.782 -5.89822 151.396 -6.54677C152.089 -6.7984 152.847 -6.87103 153.584 -6.75639C154.321 -6.64175 155.007 -6.34445 155.564 -5.89824C158.293 -3.90885 157.24 -0.228463 154.609 1.41079C151.702 3.22114 147.716 2.80336 144.529 4.04076C142.955 4.63405 141.634 5.66013 140.755 6.97053C139.876 8.28094 139.485 9.8077 139.64 11.3299C139.996 14.5646 142.751 16.9439 146.178 17.7755C150.178 18.7423 154.333 17.5209 157.853 15.8498C160.964 14.3697 163.893 12.245 165.649 9.45986C167.556 6.42405 167.302 2.98639 168.449 -0.24438C169.596 -3.47515 172.973 -4.62105 175.738 -6.50699C177.14 -7.40508 178.293 -8.5782 179.111 -9.93669C180 -11.5004 180.444 -13.2152 181.071 -14.8624C181.649 -16.3704 182.622 -18.0017 184.324 -18.7019C185.849 -19.3306 187.2 -18.6303 187.88 -17.3651C189.342 -14.6754 188.364 -10.999 187.133 -8.37701C185.6 -5.11839 183 -2.85844 179.938 -0.733774C178.489 0.268878 177.08 1.34315 176.12 2.76358C175.053 4.35509 174.711 6.15747 174.458 7.95588C174.013 11.2861 173.209 14.3219 171.258 17.2503C167.462 22.9002 160.147 27.1376 152.591 26.5567C148.413 26.2384 145.391 24.1455 142.178 21.9612C139.156 19.9002 135.716 18.4997 131.956 19.8604C130.258 20.4731 128.778 21.4201 127.178 22.1959C125.449 23.0315 123.516 23.3896 121.716 24.1018C118.391 25.3949 116.324 28.1323 115.876 31.3233C115.427 34.5142 116.844 37.6893 119.2 40.0766C120.461 41.3422 121.942 42.4171 123.587 43.2596C125.298 44.1469 127.267 44.8511 128.591 46.2158C129.791 47.4492 130.04 49.001 128.884 50.3378C127.671 51.7344 125.676 52.1243 123.791 51.9771C120.089 51.6906 116.493 49.5501 114.409 46.8485C112.187 43.9997 110.693 40.2556 106.573 39.2171C104.636 38.7317 102.733 39.2768 100.796 39.4161C98.8578 39.5553 96.7956 38.875 94.9733 38.2543C91.7084 37.146 88.7248 35.3986 85.3561 34.6212C84.6128 34.4497 83.9378 35.0389 83.9378 35.8018V35.8018C83.9378 36.416 84.3828 36.9358 84.9784 37.0854C86.8169 37.5471 88.6146 38.3652 90.2044 39.0819C93.76 40.6734 97.84 42.3246 101.898 41.8113C103.796 41.5726 105.578 41.2185 107.258 42.2689C108.938 43.3193 109.898 45.0302 110.902 46.5699C112.84 49.5262 115.471 51.9691 119.022 53.3657C122.573 54.7622 126.933 55.2079 130.053 52.8524C132.982 50.6402 133.138 47.119 130.698 44.5607C129.404 43.2039 127.587 42.3723 125.889 41.5288C124.177 40.7375 122.629 39.6907 121.311 38.4333C118.978 36.1018 117.849 32.8631 119.151 29.8392C119.752 28.4157 120.929 27.2467 122.449 26.5646" fill="#E8EDED"></path> <path d="M113.48 6.36835C109.973 6.83785 107.844 8.88692 106.142 11.5169C104.636 13.8325 103.24 16.7569 99.8933 17.1588C97.9778 17.3896 96.0178 16.8962 94.1689 16.5063C92.1289 16.0766 90.08 15.6747 87.9733 15.7105C86.9594 15.7345 85.95 15.8341 84.9556 16.0079C84.3917 16.1065 83.9955 16.6066 83.9955 17.1791V17.1791C83.9955 17.9949 84.781 18.5846 85.587 18.4585C88.1507 18.0577 90.8578 18.3747 93.4222 18.9174C97.12 19.7132 101.102 20.3816 104.32 18.0779C106.689 16.379 107.764 13.741 109.413 11.5408C110.249 10.4307 111.298 9.46782 112.76 9.06198C114.578 8.5527 116.56 8.71584 118.431 8.497C121.876 8.09913 124.622 6.24501 125.413 3.1336C125.782 1.75895 125.723 0.320157 125.243 -1.02658C124.762 -2.37332 123.879 -3.57656 122.689 -4.50566C116.76 -9.04545 108.511 -6.34385 104.084 -1.44199C102.818 -0.0374847 101.862 1.54209 100.627 2.97445C99.4718 4.31038 98.0509 5.4435 96.4355 6.31663C93.2273 8.00908 89.5933 8.94798 85.8711 9.04606C85.7106 9.05039 85.55 9.05187 85.3895 9.05049C84.6445 9.0441 83.9955 9.61862 83.9955 10.3636V10.3636C83.9955 11.0296 84.5182 11.5816 85.1841 11.5845C87.7533 11.5958 90.3103 11.2351 92.7556 10.5142C96.28 9.53148 99.6578 7.8405 102.089 5.32193C104.707 2.61238 106.262 -0.69398 109.733 -2.70724C112.6 -4.37037 116.258 -4.97515 119.387 -3.503C122.173 -2.18602 123.618 0.583198 122.422 3.28877C120.96 6.60309 116.676 5.92272 113.476 6.34845" fill="#E8EDED"></path> <path d="M100.6 52.3352C103.8 53.7477 106.022 56.4174 108.689 58.4705C114.347 62.8471 122.813 64.753 130.022 62.6919C136.858 60.7344 142.196 55.3153 141.862 48.6668C141.772 45.5575 140.338 42.6008 137.862 40.4187C136.444 39.2251 134.751 38.3378 133.418 37.0646C132.444 36.1376 131.431 34.3631 132.378 33.1456C133.324 31.928 135.396 32.493 136.516 33.1456C138.209 34.1164 139.351 35.7278 140.809 36.9453C143.393 39.0555 146.568 40.4993 149.996 41.123C156.902 42.4241 164.276 40.9917 170.484 38.1548C176.809 35.2583 182.484 30.5434 184.862 24.444C186.196 21.0779 185.751 17.6124 186.404 14.1628C186.709 12.4347 187.583 10.8274 188.916 9.5474C190.182 8.32193 191.667 7.29143 193.031 6.1535C195.9 3.80413 197.881 0.714659 198.702 -2.68735C199.524 -6.28814 198.32 -9.71785 198.333 -13.3147C198.345 -15.0942 198.981 -16.8255 200.151 -18.2643C201.298 -19.7881 202.476 -21.2125 203.262 -22.9354C204.724 -26.2417 204.729 -29.9022 204.747 -33.4035C204.747 -33.936 204.747 -34.48 204.747 -35.0294C204.747 -35.8103 204.114 -36.4433 203.333 -36.4433V-36.4433C202.572 -36.4433 201.947 -35.8408 201.937 -35.0798C201.905 -32.6948 201.973 -30.3053 201.689 -27.9327C201.498 -26.1519 200.944 -24.4175 200.053 -22.816C199.111 -21.1767 197.684 -19.808 196.729 -18.1767C194.822 -14.9261 195.618 -11.4128 196.031 -7.95128C196.476 -4.37038 195.684 -0.988414 193.364 1.99567C191.187 4.78082 187.716 6.46384 185.529 9.24899C183.133 12.2967 183.413 16.0447 183.093 19.5938C182.498 26.127 177.48 31.4227 171.449 34.7609C165.618 37.9877 158.209 39.9333 151.347 38.8233C147.89 38.3358 144.691 36.8932 142.196 34.6973C139.667 32.3896 137.151 29.4174 133.053 30.0461C129.209 30.6349 128.476 34.4227 129.978 37.1243C131.627 40.1124 135.6 41.2185 137.498 44.0395C138.333 45.3474 138.847 46.7997 139.005 48.2994C139.164 49.7992 138.964 51.312 138.418 52.7371C137.316 55.741 134.631 58.0607 131.529 59.4652C124.804 62.505 115.973 60.8975 110.422 56.5169C107.8 54.4241 105.578 51.9015 102.467 50.3936C98.5422 48.4678 94.4267 49.2516 90.1778 49.0766C88.6604 49.0087 87.1631 48.7574 85.7262 48.3315C84.8848 48.0821 83.9911 48.6828 83.9911 49.5604V49.5604C83.9911 50.0874 84.3249 50.5596 84.8302 50.7093C85.8986 51.0259 86.9964 51.2585 88.1111 51.4042C92.1911 51.9373 96.7644 50.6721 100.596 52.3511" fill="#E8EDED"></path> </g> </mask> <g mask="url(#mask0_3320_5953)"> <g filter="url(#filter1_b_3320_5953)"> <path d="M-38 1H716V318H-38V1Z" fill="#905A2B" fill-opacity="0.05"></path> </g> </g> </g> <defs> <filter id="filter0_f_3320_5953" x="0" y="0" width="102" height="42" filterUnits="userSpaceOnUse" color-interpolation-filters="sRGB"> <feFlood flood-opacity="0" result="BackgroundImageFix"></feFlood> <feBlend mode="normal" in="SourceGraphic" in2="BackgroundImageFix" result="shape"></feBlend> <feGaussianBlur stdDeviation="0.5" result="effect1_foregroundBlur_3320_5953"></feGaussianBlur> </filter> <filter id="filter1_b_3320_5953" x="-40" y="-1" width="758" height="321" filterUnits="userSpaceOnUse" color-interpolation-filters="sRGB"> <feFlood flood-opacity="0" result="BackgroundImageFix"></feFlood> <feGaussianBlur in="BackgroundImageFix" stdDeviation="1"></feGaussianBlur> <feComposite in2="SourceAlpha" operator="in" result="effect1_backgroundBlur_3320_5953"></feComposite> <feBlend mode="normal" in="SourceGraphic" in2="effect1_backgroundBlur_3320_5953" result="shape"></feBlend> </filter> </defs> </svg> 