<?xml version="1.0" encoding="UTF-8"?> <svg xmlns="http://www.w3.org/2000/svg" width="171" height="62" viewBox="0 0 171 62" fill="none"> <g clip-path="url(#clip0_0_605)"> <rect width="171" height="62" rx="3" fill="white"></rect> <path d="M166 0H5C2.23858 0 0 2.23858 0 5V57C0 59.7614 2.23858 62 5 62H166C168.761 62 171 59.7614 171 57V5C171 2.23858 168.761 0 166 0Z" fill="#D9D9D9" fill-opacity="0.05"></path> <path d="M59.4915 31.1991C58.4877 31.1991 57.5928 31.0144 56.8068 30.6451C56.0256 30.2758 55.4053 29.7668 54.946 29.1181C54.4867 28.4694 54.2476 27.7261 54.2287 26.888H57.2116C57.2448 27.4514 57.4815 27.9083 57.9219 28.2587C58.3622 28.6091 58.8854 28.7843 59.4915 28.7843C59.9744 28.7843 60.4006 28.6778 60.7699 28.4647C61.1439 28.2469 61.4351 27.9462 61.6435 27.5627C61.8565 27.1744 61.9631 26.7294 61.9631 26.2275C61.9631 25.7161 61.8542 25.2663 61.6364 24.878C61.4233 24.4898 61.1274 24.1868 60.7486 23.969C60.3698 23.7511 59.9366 23.6399 59.4489 23.6351C59.0227 23.6351 58.6084 23.7227 58.206 23.8979C57.8082 24.0731 57.4981 24.3122 57.2756 24.6153L54.5412 24.1252L55.2301 16.4547H64.1222V18.969H57.7656L57.3892 22.6124H57.4744C57.7301 22.2526 58.116 21.9543 58.6321 21.7175C59.1482 21.4808 59.7259 21.3624 60.3651 21.3624C61.241 21.3624 62.0223 21.5684 62.7088 21.9803C63.3954 22.3922 63.9375 22.9581 64.3352 23.6778C64.733 24.3927 64.9295 25.2166 64.9247 26.1493C64.9295 27.1295 64.7022 28.0007 64.2429 28.763C63.7884 29.5206 63.1515 30.1172 62.3324 30.5528C61.518 30.9836 60.571 31.1991 59.4915 31.1991ZM69.9176 29.0116L69.8395 29.7928C69.7779 30.4178 69.6596 31.0404 69.4844 31.6607C69.3139 32.2857 69.134 32.8515 68.9446 33.3582C68.7599 33.8648 68.6108 34.2625 68.4972 34.5513H66.5369C66.608 34.272 66.705 33.8814 66.8281 33.3795C66.9512 32.8823 67.0672 32.3236 67.1761 31.7033C67.285 31.0831 67.3537 30.451 67.3821 29.807L67.4176 29.0116H69.9176ZM77.7727 31.3198C76.5511 31.3151 75.5 31.0144 74.6193 30.4178C73.7434 29.8212 73.0687 28.9571 72.5952 27.8255C72.1264 26.6939 71.8944 25.3326 71.8991 23.7417C71.8991 22.1555 72.1335 20.8037 72.6023 19.6863C73.0758 18.5689 73.7505 17.7189 74.6264 17.1366C75.5071 16.5494 76.5559 16.2559 77.7727 16.2559C78.9896 16.2559 80.036 16.5494 80.9119 17.1366C81.7926 17.7237 82.4697 18.576 82.9432 19.6934C83.4167 20.8061 83.651 22.1555 83.6463 23.7417C83.6463 25.3373 83.4096 26.701 82.9361 27.8326C82.4673 28.9642 81.795 29.8283 80.919 30.4249C80.0431 31.0215 78.9943 31.3198 77.7727 31.3198ZM77.7727 28.7701C78.6061 28.7701 79.2713 28.3511 79.7685 27.513C80.2656 26.6749 80.5118 25.4178 80.5071 23.7417C80.5071 22.6385 80.3935 21.7199 80.1662 20.986C79.9437 20.2521 79.6264 19.7005 79.2145 19.3312C78.8073 18.9618 78.3267 18.7772 77.7727 18.7772C76.9441 18.7772 76.2813 19.1915 75.7841 20.0201C75.2869 20.8487 75.036 22.0892 75.0312 23.7417C75.0312 24.8591 75.1425 25.7919 75.3651 26.54C75.5923 27.2833 75.9119 27.8421 76.3239 28.2161C76.7358 28.5854 77.2188 28.7701 77.7727 28.7701Z" fill="#393939"></path> <mask id="mask0_0_605" style="mask-type:luminance" maskUnits="userSpaceOnUse" x="92" y="19" width="10" height="10"> <path d="M102 19H92V29H102V19Z" fill="white"></path> </mask> <g mask="url(#mask0_0_605)"> <path d="M94.2573 28.6522C94.0161 28.7759 93.7423 28.5591 93.7911 28.2822L94.3098 25.3259L92.108 23.2284C91.9023 23.0322 92.0092 22.6734 92.2848 22.6347L95.3461 22.1997L96.7111 19.4953C96.8342 19.2516 97.1673 19.2516 97.2905 19.4953L98.6555 22.1997L101.717 22.6347C101.992 22.6734 102.099 23.0322 101.894 23.2284L99.6917 25.3259L100.21 28.2822C100.259 28.5591 99.9855 28.7759 99.7442 28.6522L96.9998 27.2422L94.2573 28.6522Z" fill="#FFCC00"></path> </g> <mask id="mask1_0_605" style="mask-type:luminance" maskUnits="userSpaceOnUse" x="105" y="19" width="10" height="10"> <path d="M115 19H105V29H115V19Z" fill="white"></path> </mask> <g mask="url(#mask1_0_605)"> <path d="M107.257 28.6522C107.016 28.7759 106.742 28.5591 106.791 28.2822L107.31 25.3259L105.108 23.2284C104.902 23.0322 105.009 22.6734 105.285 22.6347L108.346 22.1997L109.711 19.4953C109.834 19.2516 110.167 19.2516 110.29 19.4953L111.655 22.1997L114.717 22.6347C114.992 22.6734 115.099 23.0322 114.894 23.2284L112.692 25.3259L113.21 28.2822C113.259 28.5591 112.985 28.7759 112.744 28.6522L110 27.2422L107.257 28.6522Z" fill="#FFCC00"></path> </g> <mask id="mask2_0_605" style="mask-type:luminance" maskUnits="userSpaceOnUse" x="118" y="19" width="10" height="10"> <path d="M128 19H118V29H128V19Z" fill="white"></path> </mask> <g mask="url(#mask2_0_605)"> <path d="M120.257 28.6522C120.016 28.7759 119.742 28.5591 119.791 28.2822L120.31 25.3259L118.108 23.2284C117.902 23.0322 118.009 22.6734 118.285 22.6347L121.346 22.1997L122.711 19.4953C122.834 19.2516 123.167 19.2516 123.29 19.4953L124.655 22.1997L127.717 22.6347C127.992 22.6734 128.099 23.0322 127.894 23.2284L125.692 25.3259L126.21 28.2822C126.259 28.5591 125.985 28.7759 125.744 28.6522L123 27.2422L120.257 28.6522Z" fill="#FFCC00"></path> </g> <mask id="mask3_0_605" style="mask-type:luminance" maskUnits="userSpaceOnUse" x="131" y="19" width="10" height="10"> <path d="M141 19H131V29H141V19Z" fill="white"></path> </mask> <g mask="url(#mask3_0_605)"> <path d="M133.257 28.6522C133.016 28.7759 132.742 28.5591 132.791 28.2822L133.31 25.3259L131.108 23.2284C130.902 23.0322 131.009 22.6734 131.285 22.6347L134.346 22.1997L135.711 19.4953C135.834 19.2516 136.167 19.2516 136.29 19.4953L137.655 22.1997L140.717 22.6347C140.992 22.6734 141.099 23.0322 140.894 23.2284L138.692 25.3259L139.21 28.2822C139.259 28.5591 138.985 28.7759 138.744 28.6522L136 27.2422L133.257 28.6522Z" fill="#FFCC00"></path> </g> <mask id="mask4_0_605" style="mask-type:luminance" maskUnits="userSpaceOnUse" x="144" y="19" width="10" height="10"> <path d="M154 19H144V29H154V19Z" fill="white"></path> </mask> <g mask="url(#mask4_0_605)"> <path d="M146.257 28.6522C146.016 28.7759 145.742 28.5591 145.791 28.2822L146.31 25.3259L144.108 23.2284C143.902 23.0322 144.009 22.6734 144.285 22.6347L147.346 22.1997L148.711 19.4953C148.834 19.2516 149.167 19.2516 149.29 19.4953L150.655 22.1997L153.717 22.6347C153.992 22.6734 154.099 23.0322 153.894 23.2284L151.692 25.3259L152.21 28.2822C152.259 28.5591 151.985 28.7759 151.744 28.6522L149 27.2422L146.257 28.6522Z" fill="#FFCC00"></path> </g> <path d="M54.233 50.0002V39.8184H57.7926C58.5019 39.8184 59.0869 39.941 59.5476 40.1863C60.0083 40.4282 60.3513 40.7547 60.5767 41.1657C60.8021 41.5734 60.9148 42.0258 60.9148 42.5229C60.9148 42.9604 60.8369 43.3217 60.6811 43.6067C60.5286 43.8918 60.3265 44.1172 60.0746 44.2829C59.826 44.4486 59.5559 44.5712 59.2642 44.6508V44.7502C59.5758 44.7701 59.889 44.8795 60.2038 45.0783C60.5187 45.2772 60.7822 45.5622 60.9943 45.9334C61.2064 46.3047 61.3125 46.7587 61.3125 47.2957C61.3125 47.8061 61.1965 48.2651 60.9645 48.6728C60.7325 49.0805 60.3662 49.4036 59.8658 49.6422C59.3653 49.8809 58.714 50.0002 57.9119 50.0002H54.233ZM55.4659 48.9064H57.9119C58.7173 48.9064 59.2891 48.7507 59.6271 48.4391C59.9685 48.1243 60.1392 47.7431 60.1392 47.2957C60.1392 46.951 60.0514 46.6328 59.8757 46.3411C59.7 46.0461 59.4498 45.8108 59.125 45.6351C58.8002 45.4562 58.4157 45.3667 57.9716 45.3667H55.4659V48.9064ZM55.4659 44.2928H57.7528C58.1241 44.2928 58.4588 44.2199 58.7571 44.0741C59.0587 43.9282 59.2973 43.7227 59.473 43.4576C59.652 43.1924 59.7415 42.8809 59.7415 42.5229C59.7415 42.0755 59.5857 41.696 59.2741 41.3844C58.9626 41.0696 58.4688 40.9121 57.7926 40.9121H55.4659V44.2928ZM65.4265 50.1792C64.9426 50.1792 64.5034 50.088 64.109 49.9057C63.7146 49.7201 63.4014 49.4533 63.1694 49.1053C62.9374 48.754 62.8214 48.3297 62.8214 47.8326C62.8214 47.3951 62.9076 47.0404 63.0799 46.7687C63.2522 46.4936 63.4826 46.2781 63.771 46.1224C64.0593 45.9666 64.3775 45.8506 64.7255 45.7743C65.0768 45.6948 65.4298 45.6318 65.7844 45.5854C66.2485 45.5258 66.6246 45.481 66.913 45.4512C67.2047 45.4181 67.4168 45.3634 67.5494 45.2871C67.6853 45.2109 67.7532 45.0783 67.7532 44.8894V44.8496C67.7532 44.3591 67.619 43.9779 67.3505 43.7062C67.0853 43.4344 66.6826 43.2985 66.1424 43.2985C65.5823 43.2985 65.1431 43.4211 64.8249 43.6664C64.5067 43.9117 64.283 44.1735 64.1538 44.4519L63.0401 44.0542C63.239 43.5902 63.5041 43.2289 63.8356 42.9704C64.1703 42.7085 64.5349 42.5262 64.9293 42.4235C65.3271 42.3174 65.7182 42.2644 66.1026 42.2644C66.3479 42.2644 66.6296 42.2942 66.9478 42.3539C67.2693 42.4102 67.5792 42.5279 67.8775 42.7069C68.1791 42.8859 68.4293 43.156 68.6282 43.5172C68.8271 43.8785 68.9265 44.3624 68.9265 44.969V50.0002H67.7532V48.9661H67.6935C67.614 49.1318 67.4814 49.3091 67.2958 49.4981C67.1102 49.687 66.8633 49.8477 66.555 49.9803C66.2468 50.1129 65.8706 50.1792 65.4265 50.1792ZM65.6055 49.1252C66.0695 49.1252 66.4606 49.0341 66.7788 48.8518C67.1003 48.6695 67.3422 48.4341 67.5046 48.1458C67.6703 47.8574 67.7532 47.5542 67.7532 47.236V46.1621C67.7035 46.2218 67.5941 46.2765 67.4251 46.3262C67.2594 46.3726 67.0671 46.414 66.8484 46.4505C66.6329 46.4836 66.4225 46.5135 66.217 46.54C66.0148 46.5632 65.8507 46.5831 65.7248 46.5996C65.4199 46.6394 65.1348 46.704 64.8697 46.7935C64.6078 46.8797 64.3957 47.0106 64.2333 47.1863C64.0742 47.3586 63.9947 47.5939 63.9947 47.8922C63.9947 48.2999 64.1455 48.6082 64.4471 48.817C64.752 49.0225 65.1381 49.1252 65.6055 49.1252ZM71.068 42.3638H72.2413V48.9064H75.1248V42.3638H76.2981V48.9064H79.1816V42.3638H80.3549V50.0002H71.068V42.3638ZM84.7449 50.1792C84.2609 50.1792 83.8218 50.088 83.4274 49.9057C83.033 49.7201 82.7198 49.4533 82.4877 49.1053C82.2557 48.754 82.1397 48.3297 82.1397 47.8326C82.1397 47.3951 82.2259 47.0404 82.3983 46.7687C82.5706 46.4936 82.801 46.2781 83.0893 46.1224C83.3777 45.9666 83.6958 45.8506 84.0439 45.7743C84.3952 45.6948 84.7482 45.6318 85.1028 45.5854C85.5668 45.5258 85.943 45.481 86.2314 45.4512C86.523 45.4181 86.7351 45.3634 86.8677 45.2871C87.0036 45.2109 87.0716 45.0783 87.0716 44.8894V44.8496C87.0716 44.3591 86.9373 43.9779 86.6689 43.7062C86.4037 43.4344 86.001 43.2985 85.4608 43.2985C84.9006 43.2985 84.4615 43.4211 84.1433 43.6664C83.8251 43.9117 83.6014 44.1735 83.4721 44.4519L82.3585 44.0542C82.5574 43.5902 82.8225 43.2289 83.1539 42.9704C83.4887 42.7085 83.8533 42.5262 84.2477 42.4235C84.6454 42.3174 85.0365 42.2644 85.421 42.2644C85.6663 42.2644 85.948 42.2942 86.2662 42.3539C86.5877 42.4102 86.8975 42.5279 87.1958 42.7069C87.4975 42.8859 87.7477 43.156 87.9466 43.5172C88.1454 43.8785 88.2449 44.3624 88.2449 44.969V50.0002H87.0716V48.9661H87.0119C86.9324 49.1318 86.7998 49.3091 86.6142 49.4981C86.4286 49.687 86.1816 49.8477 85.8734 49.9803C85.5652 50.1129 85.189 50.1792 84.7449 50.1792ZM84.9238 49.1252C85.3878 49.1252 85.7789 49.0341 86.0971 48.8518C86.4186 48.6695 86.6606 48.4341 86.823 48.1458C86.9887 47.8574 87.0716 47.5542 87.0716 47.236V46.1621C87.0218 46.2218 86.9125 46.2765 86.7434 46.3262C86.5777 46.3726 86.3855 46.414 86.1667 46.4505C85.9513 46.4836 85.7408 46.5135 85.5353 46.54C85.3332 46.5632 85.1691 46.5831 85.0431 46.5996C84.7382 46.6394 84.4532 46.704 84.188 46.7935C83.9262 46.8797 83.7141 47.0106 83.5517 47.1863C83.3926 47.3586 83.313 47.5939 83.313 47.8922C83.313 48.2999 83.4638 48.6082 83.7654 48.817C84.0704 49.0225 84.4565 49.1252 84.9238 49.1252ZM97.4261 50.1593C96.7367 50.1593 96.1319 49.9952 95.6115 49.6671C95.0945 49.339 94.6901 48.8799 94.3984 48.29C94.1101 47.7 93.9659 47.0106 93.9659 46.2218C93.9659 45.4263 94.1101 44.732 94.3984 44.1387C94.6901 43.5454 95.0945 43.0847 95.6115 42.7566C96.1319 42.4285 96.7367 42.2644 97.4261 42.2644C98.1155 42.2644 98.7188 42.4285 99.2358 42.7566C99.7562 43.0847 100.161 43.5454 100.449 44.1387C100.741 44.732 100.886 45.4263 100.886 46.2218C100.886 47.0106 100.741 47.7 100.449 48.29C100.161 48.8799 99.7562 49.339 99.2358 49.6671C98.7188 49.9952 98.1155 50.1593 97.4261 50.1593ZM97.4261 49.1053C97.9498 49.1053 98.3807 48.9711 98.7188 48.7026C99.0568 48.4341 99.3071 48.0812 99.4695 47.6437C99.6319 47.2062 99.7131 46.7322 99.7131 46.2218C99.7131 45.7114 99.6319 45.2358 99.4695 44.7949C99.3071 44.3541 99.0568 43.9978 98.7188 43.7261C98.3807 43.4543 97.9498 43.3184 97.4261 43.3184C96.9025 43.3184 96.4716 43.4543 96.1335 43.7261C95.7955 43.9978 95.5452 44.3541 95.3828 44.7949C95.2204 45.2358 95.1392 45.7114 95.1392 46.2218C95.1392 46.7322 95.2204 47.2062 95.3828 47.6437C95.5452 48.0812 95.7955 48.4341 96.1335 48.7026C96.4716 48.9711 96.9025 49.1053 97.4261 49.1053ZM108.683 42.3638V48.9064H109.757V52.4661H108.584V50.0002H102.677V42.3638H103.851V48.9064H107.51V42.3638H108.683ZM114.684 50.1593C113.948 50.1593 113.313 49.9969 112.78 49.6721C112.249 49.344 111.84 48.8866 111.552 48.2999C111.267 47.71 111.124 47.0239 111.124 46.2417C111.124 45.4595 111.267 44.7701 111.552 44.1735C111.84 43.5736 112.241 43.1063 112.755 42.7715C113.272 42.4334 113.875 42.2644 114.564 42.2644C114.962 42.2644 115.355 42.3307 115.743 42.4633C116.131 42.5958 116.483 42.8113 116.802 43.1096C117.12 43.4046 117.373 43.7957 117.562 44.2829C117.751 44.7701 117.846 45.37 117.846 46.0826V46.5797H111.959V45.5655H116.653C116.653 45.1347 116.566 44.7502 116.394 44.4121C116.225 44.0741 115.983 43.8073 115.668 43.6117C115.357 43.4162 114.989 43.3184 114.564 43.3184C114.097 43.3184 113.693 43.4344 113.351 43.6664C113.013 43.8951 112.753 44.1934 112.571 44.5613C112.389 44.9292 112.297 45.3236 112.297 45.7445V46.4207C112.297 46.9974 112.397 47.4862 112.596 47.8873C112.798 48.285 113.078 48.5883 113.436 48.7971C113.794 49.0026 114.21 49.1053 114.684 49.1053C114.992 49.1053 115.27 49.0622 115.519 48.9761C115.771 48.8866 115.988 48.754 116.17 48.5783C116.353 48.3993 116.493 48.1773 116.593 47.9121L117.726 48.2303C117.607 48.6148 117.407 48.9529 117.125 49.2445C116.843 49.5329 116.495 49.7582 116.081 49.9207C115.666 50.0797 115.201 50.1593 114.684 50.1593ZM124.741 45.6451V46.7388H120.525V45.6451H124.741ZM120.804 42.3638V50.0002H119.631V42.3638H120.804ZM125.636 42.3638V50.0002H124.463V42.3638H125.636ZM127.779 50.0002V42.3638H128.952V45.6849H129.728L132.472 42.3638H133.983L130.901 46.0428L134.023 50.0002H132.512L130.006 46.7786H128.952V50.0002H127.779ZM137.546 50.1792C137.062 50.1792 136.623 50.088 136.228 49.9057C135.834 49.7201 135.521 49.4533 135.289 49.1053C135.057 48.754 134.941 48.3297 134.941 47.8326C134.941 47.3951 135.027 47.0404 135.199 46.7687C135.371 46.4936 135.602 46.2781 135.89 46.1224C136.178 45.9666 136.497 45.8506 136.845 45.7743C137.196 45.6948 137.549 45.6318 137.904 45.5854C138.368 45.5258 138.744 45.481 139.032 45.4512C139.324 45.4181 139.536 45.3634 139.669 45.2871C139.804 45.2109 139.872 45.0783 139.872 44.8894V44.8496C139.872 44.3591 139.738 43.9779 139.47 43.7062C139.204 43.4344 138.802 43.2985 138.262 43.2985C137.701 43.2985 137.262 43.4211 136.944 43.6664C136.626 43.9117 136.402 44.1735 136.273 44.4519L135.159 44.0542C135.358 43.5902 135.623 43.2289 135.955 42.9704C136.289 42.7085 136.654 42.5262 137.048 42.4235C137.446 42.3174 137.837 42.2644 138.222 42.2644C138.467 42.2644 138.749 42.2942 139.067 42.3539C139.388 42.4102 139.698 42.5279 139.997 42.7069C140.298 42.8859 140.548 43.156 140.747 43.5172C140.946 43.8785 141.046 44.3624 141.046 44.969V50.0002H139.872V48.9661H139.813C139.733 49.1318 139.601 49.3091 139.415 49.4981C139.229 49.687 138.982 49.8477 138.674 49.9803C138.366 50.1129 137.99 50.1792 137.546 50.1792ZM137.725 49.1252C138.189 49.1252 138.58 49.0341 138.898 48.8518C139.219 48.6695 139.461 48.4341 139.624 48.1458C139.789 47.8574 139.872 47.5542 139.872 47.236V46.1621C139.823 46.2218 139.713 46.2765 139.544 46.3262C139.378 46.3726 139.186 46.414 138.968 46.4505C138.752 46.4836 138.542 46.5135 138.336 46.54C138.134 46.5632 137.97 46.5831 137.844 46.5996C137.539 46.6394 137.254 46.704 136.989 46.7935C136.727 46.8797 136.515 47.0106 136.352 47.1863C136.193 47.3586 136.114 47.5939 136.114 47.8922C136.114 48.2999 136.265 48.6082 136.566 48.817C136.871 49.0225 137.257 49.1252 137.725 49.1252Z" fill="#393939"></path> <g clip-path="url(#clip1_0_605)"> <path d="M38.0906 30.5C38.0921 32.7569 37.2971 34.942 35.8456 36.6702C34.394 38.3985 32.3792 39.559 30.1559 39.9474C27.9326 40.3357 25.6436 39.927 23.6921 38.7932C21.7406 37.6595 20.2519 35.8733 19.4882 33.7496L14.0026 38.138C15.7083 41.3804 18.4512 43.9578 21.7934 45.4587C25.1356 46.9596 28.8843 47.2973 32.441 46.418C35.9976 45.5387 39.1571 43.493 41.4149 40.6077C43.6727 37.7224 44.8986 34.1637 44.8969 30.5" fill="#00AC47"></path> <path d="M38.0906 30.5C38.0894 32.0258 37.7236 33.5293 37.0236 34.8851C36.3237 36.241 35.3099 37.4099 34.0668 38.2946L39.49 42.6332C41.1906 41.1021 42.5506 39.2309 43.482 37.1408C44.4134 35.0507 44.8954 32.7883 44.8969 30.5" fill="#4285F4"></path> <path d="M18.9094 30.5003C18.9117 29.3917 19.1076 28.292 19.4882 27.2507L14.0026 22.8623C12.7553 25.215 12.1031 27.8374 12.1031 30.5003C12.1031 33.1632 12.7553 35.7855 14.0026 38.1383L19.4882 33.7498C19.1076 32.7086 18.9117 31.6089 18.9094 30.5003Z" fill="#FFBA00"></path> <path d="M28.5 20.9098C30.5293 20.9103 32.5055 21.5589 34.1405 22.7608L39.1648 18.0716C37.2997 16.4635 35.0956 15.2974 32.7168 14.6603C30.3381 14.0232 27.8462 13.9315 25.427 14.3921C23.0079 14.8527 20.724 15.8537 18.7458 17.3204C16.7677 18.787 15.1462 20.6815 14.0026 22.8624L19.4882 27.2508C20.1572 25.3963 21.3811 23.7928 22.9935 22.6582C24.6058 21.5237 26.5285 20.9132 28.5 20.9098Z" fill="#EA4435"></path> <path d="M44.8969 29.2629V30.5004L42.1125 34.8316H29.1187V28.0254H43.6594C43.9876 28.0254 44.3023 28.1558 44.5344 28.3878C44.7665 28.6199 44.8969 28.9347 44.8969 29.2629Z" fill="#4285F4"></path> </g> </g> <defs> <clipPath id="clip0_0_605"> <rect width="171" height="62" rx="3" fill="white"></rect> </clipPath> <clipPath id="clip1_0_605"> <rect width="33" height="33" fill="white" transform="translate(12 14)"></rect> </clipPath> </defs> </svg> 