<?xml version="1.0" encoding="UTF-8"?> <svg xmlns="http://www.w3.org/2000/svg" width="55" height="44" viewBox="0 0 55 44" fill="none"> <path d="M3.30006 37.858L4.38192 40.381H2.21981L3.30006 37.858ZM2.88495 36.1948L0 42.8329H1.17482L1.8047 41.3637H4.80825L5.44935 42.8329H6.6434L3.75845 36.1948H2.88495Z" fill="#24211E"></path> <path d="M13.2403 41.6774C12.705 42.4452 11.6985 42.909 10.5701 42.909C9.53476 42.909 8.71736 42.5971 8.10511 41.9797C7.49286 41.3622 7.18353 40.5476 7.18353 39.5148C7.1719 39.0687 7.24822 38.6246 7.40807 38.2084C7.56792 37.7923 7.80811 37.4122 8.11473 37.0904C8.73659 36.4439 9.54438 36.1206 10.5509 36.1206C11.7081 36.1206 12.6762 36.5861 13.1377 37.2682L12.3845 37.989C12.1617 37.738 11.8871 37.5392 11.5801 37.4066C11.273 37.2739 10.9409 37.2107 10.607 37.2213C9.93064 37.2213 9.3841 37.4298 8.98021 37.8468C8.77326 38.07 8.61263 38.3327 8.50776 38.6195C8.4029 38.9062 8.35591 39.2111 8.36956 39.5164C8.35529 39.8225 8.40472 40.1282 8.51466 40.4138C8.6246 40.6994 8.79262 40.9586 9.0079 41.1748C9.22319 41.391 9.48097 41.5594 9.76466 41.669C10.0483 41.7787 10.3517 41.8272 10.6551 41.8116C11.0207 41.8253 11.3844 41.7536 11.7181 41.6022C12.0517 41.4509 12.3461 41.2238 12.5784 40.9388L13.2403 41.6774Z" fill="#24211E"></path> <path d="M13.8606 37.2761V36.1948H19.4173V37.2761H17.2087V42.8329H16.0708V37.2761H13.8606Z" fill="#24211E"></path> <path d="M21.6931 42.8329H20.5552V36.1948H23.2157C24.2784 36.1948 25.0413 36.4518 25.4259 36.8963C25.783 37.3036 25.9717 37.8335 25.9532 38.3768C25.9532 39.4565 25.2576 40.5572 23.2077 40.5572H21.6931V42.8329ZM21.6931 37.2664V39.4856H23.1885C24.2415 39.4856 24.7688 39.1155 24.7688 38.3671C24.7688 37.6188 24.2607 37.2664 23.2542 37.2664H21.6931Z" fill="#24211E"></path> <path d="M27.9087 37.0954C28.2198 36.7777 28.5923 36.5278 29.0031 36.361C29.4138 36.1942 29.8541 36.1141 30.2968 36.1256C30.7417 36.1147 31.1842 36.195 31.5975 36.3617C32.0107 36.5284 32.3861 36.778 32.7009 37.0954C33.1767 37.5721 33.5009 38.1809 33.6321 38.8441C33.7634 39.5074 33.6957 40.1951 33.4377 40.8194C33.1798 41.4437 32.7432 41.9764 32.1838 42.3495C31.6244 42.7226 30.9674 42.9191 30.2968 42.914C29.8544 42.9233 29.4148 42.8422 29.0043 42.6755C28.5939 42.5088 28.2212 42.2601 27.9087 41.9443C27.2813 41.2958 26.9302 40.4258 26.9302 39.5198C26.9302 38.6139 27.2813 37.7438 27.9087 37.0954V37.0954ZM28.7549 41.1652C29.1674 41.5782 29.7251 41.8099 30.3064 41.8099C30.8876 41.8099 31.4453 41.5782 31.8578 41.1652C32.0659 40.9462 32.2281 40.6873 32.3349 40.4038C32.4418 40.1203 32.491 39.818 32.4797 39.515C32.49 39.2104 32.4385 38.9068 32.3283 38.623C32.218 38.3393 32.0514 38.0812 31.8386 37.8647C31.6375 37.6581 31.3972 37.4944 31.132 37.3833C30.8669 37.2723 30.5823 37.2161 30.2952 37.2182C30.0088 37.2125 29.7243 37.2659 29.4592 37.3752C29.194 37.4844 28.9538 37.6472 28.7533 37.8534C28.3419 38.3047 28.1135 38.8954 28.1135 39.5085C28.1135 40.1216 28.3419 40.7123 28.7533 41.1636" fill="#24211E"></path> <path d="M35.1018 42.8329V36.1948H36.2398V41.7533H39.4372V36.1948H40.5752V41.7533H41.375V43.9999H40.2739V42.8329H35.1018Z" fill="#24211E"></path> <path d="M43.5466 42.8329H42.5962V36.1948H43.7341V40.7948L47.3451 36.1948H48.3036V42.8329H47.1672V38.2346L43.5466 42.8329Z" fill="#24211E"></path> <path d="M49.4417 37.2761V36.1948H55V37.2761H52.7898V42.8329H51.6518V37.2761H49.4417Z" fill="#24211E"></path> <path d="M41.8318 11.9974C41.7846 11.7752 41.6635 11.576 41.4886 11.4329C41.3136 11.2897 41.0954 11.2111 40.8701 11.2103C40.8006 11.2107 40.7313 11.2183 40.6634 11.2329L33.6994 12.7247L32.5999 12.9591C32.1038 13.0655 31.5903 13.0588 31.0971 12.9395C30.6038 12.8201 30.1433 12.5911 29.7491 12.2691C29.3549 11.9472 29.037 11.5405 28.8187 11.0788C28.6004 10.6171 28.4872 10.112 28.4873 9.60045V1.03409C28.4926 0.900293 28.4711 0.76678 28.424 0.64157C28.3769 0.51636 28.3053 0.402035 28.2133 0.305456C28.1213 0.208877 28.0109 0.132037 27.8888 0.0795469C27.7666 0.027057 27.6352 0 27.5024 0C27.3696 0 27.2382 0.027057 27.116 0.0795469C26.9939 0.132037 26.8835 0.208877 26.7915 0.305456C26.6995 0.402035 26.6278 0.51636 26.5807 0.64157C26.5337 0.76678 26.5121 0.900293 26.5175 1.03409V9.60045C26.5181 10.1092 26.4064 10.6118 26.1907 11.0717C25.9749 11.5316 25.6604 11.9374 25.27 12.2596C24.8796 12.5819 24.423 12.8126 23.9332 12.9349C23.4435 13.0573 22.933 13.0683 22.4385 12.9672H22.3984L21.2957 12.7296L14.3366 11.2281C14.2098 11.2006 14.079 11.1988 13.9515 11.2227C13.8241 11.2466 13.7026 11.2958 13.5941 11.3673C13.4856 11.4389 13.3922 11.5314 13.3194 11.6395C13.2466 11.7477 13.1957 11.8693 13.1698 11.9974C13.1165 12.2549 13.1663 12.5233 13.3083 12.744C13.4502 12.9647 13.673 13.1198 13.9279 13.1757L20.6594 14.6174L21.8455 14.8728C22.2821 14.9681 22.6891 15.1695 23.031 15.4596C23.3729 15.7497 23.6393 16.1196 23.807 16.5372C23.9748 16.9548 24.0389 17.4073 23.9937 17.8556C23.9485 18.3038 23.7953 18.7341 23.5476 19.1091L23.53 19.1398L22.485 20.6704L17.9508 27.3263C17.8034 27.5435 17.7475 27.8109 17.7952 28.0696C17.843 28.3284 17.9906 28.5575 18.2056 28.7066C18.3694 28.8196 18.5634 28.8794 18.7618 28.878C18.9214 28.8786 19.0788 28.8401 19.2203 28.7658C19.3619 28.6915 19.4834 28.5835 19.5744 28.4513L24.0412 21.8875L25.2385 20.1322C25.4868 19.7691 25.8175 19.4711 26.2031 19.263C26.5887 19.0548 27.0181 18.9426 27.4554 18.9357C27.8927 18.9287 28.3253 19.0272 28.7172 19.223C29.1092 19.4187 29.449 19.7061 29.7086 20.0611L30.9523 21.8875L35.4208 28.4513C35.5695 28.6684 35.7978 28.817 36.0552 28.8644C36.3126 28.9119 36.5782 28.8542 36.7935 28.7042C37.0088 28.5542 37.1562 28.324 37.2032 28.0644C37.2503 27.8048 37.1931 27.537 37.0444 27.3199L32.5054 20.6624L31.4652 19.1333C31.2097 18.7581 31.05 18.3251 31 17.8727C30.9501 17.4203 31.0115 16.9625 31.1789 16.5398C31.3463 16.1171 31.6144 15.7425 31.9595 15.4492C32.3047 15.1559 32.7162 14.9529 33.1577 14.8582L34.3309 14.6061L41.0625 13.1644C41.3171 13.111 41.5406 12.9585 41.6846 12.7401C41.8286 12.5217 41.8815 12.2549 41.8318 11.9974V11.9974ZM27.5 16.9982C27.1214 16.9985 26.7513 16.8856 26.4364 16.6738C26.1214 16.4619 25.8759 16.1606 25.7308 15.808C25.5857 15.4554 25.5476 15.0673 25.6213 14.6929C25.6949 14.3184 25.8771 13.9744 26.1446 13.7043C26.4122 13.4343 26.7532 13.2503 27.1244 13.1757C27.4957 13.1011 27.8806 13.1392 28.2303 13.2853C28.5801 13.4313 28.8791 13.6786 29.0894 13.996C29.2998 14.3134 29.4121 14.6866 29.4121 15.0684C29.4121 15.5802 29.2104 16.0711 28.8516 16.433C28.4927 16.7949 28.0059 16.9982 27.4984 16.9982" fill="#905A2B"></path> </svg> 