<?xml version="1.0" encoding="UTF-8"?> <svg xmlns="http://www.w3.org/2000/svg" width="83" height="96" viewBox="0 0 83 96" fill="none"> <path d="M0 29.7687C0 26.1986 1.90326 22.8993 4.99375 21.112L36.4938 2.89518C39.5909 1.10404 43.4091 1.10404 46.5063 2.89518L78.0062 21.112C81.0967 22.8993 83 26.1986 83 29.7687V66.2313C83 69.8014 81.0967 73.1007 78.0063 74.888L46.5062 93.1048C43.4091 94.896 39.5909 94.896 36.4937 93.1048L4.99375 74.888C1.90326 73.1007 0 69.8014 0 66.2313V29.7687Z" fill="#1C4F4A"></path> <path d="M57.129 54.2581C53.15 54.2581 49.6653 56.9347 48.5968 60.7097H46.6452C45.7556 60.7097 45.0323 61.4331 45.0323 62.3226H33.7419V57.4839C34.6315 57.4839 35.3548 56.7605 35.3548 55.871V55.0645C43.3589 55.0645 49.871 48.5524 49.871 40.5484C49.871 39.6589 49.1476 38.9355 48.2581 38.9355V29.2581C48.2581 27.9242 47.1726 26.8387 45.8387 26.8387H44.6105C44.3089 25.9347 43.854 25.0823 43.2532 24.3323C42.0677 22.85 40.2992 22 38.4008 22C36.7403 22 35.1798 22.6468 34.0073 23.8202L32.9355 24.8919L31.8637 23.8202C30.6903 22.6468 29.1298 22 27.4702 22C25.5718 22 23.8032 22.85 22.6177 24.3323C22.0177 25.0815 21.5629 25.9323 21.2621 26.8387H20.0323C18.6984 26.8387 17.6129 27.9242 17.6129 29.2581V38.9355C16.7234 38.9355 16 39.6589 16 40.5484C16 48.5524 22.5121 55.0645 30.5161 55.0645V55.871C30.5161 56.7605 31.2395 57.4839 32.129 57.4839V62.3226H28.9032C26.2347 62.3226 24.0645 64.4927 24.0645 67.1613C24.0645 69.8298 26.2347 72 28.9032 72C31.5718 72 33.7419 69.8298 33.7419 67.1613V63.9355H45.0323C45.0323 64.825 45.7556 65.5484 46.6452 65.5484H48.5968C49.6653 69.3234 53.15 72 57.129 72C62.0202 72 66 68.0202 66 63.129C66 58.2379 62.0202 54.2581 57.129 54.2581ZM45.8387 28.4516C46.2831 28.4516 46.6452 28.8129 46.6452 29.2581V31.6774H44.7129C44.9202 30.9492 45.0323 30.1871 45.0323 29.404C45.0323 29.0847 45.0065 28.7669 44.9685 28.4516H45.8387ZM23.8774 25.3403C24.7548 24.2419 26.0645 23.6129 27.4702 23.6129C28.6992 23.6129 29.8548 24.0919 30.7234 24.9605L32.9355 27.1726L35.1476 24.9605C36.0161 24.0919 37.1718 23.6129 38.4008 23.6129C39.8065 23.6129 41.1161 24.2419 41.9935 25.3403C42.9129 26.4887 43.4194 27.9315 43.4194 29.4274C43.4194 30.2081 43.2766 30.9653 43.0177 31.6774H35.6629L33.8911 35.221L31.3911 27.721L29.1637 33.2903H23.7145C22.8984 32.1734 22.4516 30.8315 22.4516 29.404C22.4516 27.9315 22.9581 26.4887 23.8774 25.3403ZM42.1565 33.2903C41.9556 33.5645 41.7395 33.8298 41.4944 34.075L32.9355 42.6339L25.2048 34.9032H30.2556L31.2532 32.4081L33.5919 39.4242L36.6597 33.2903H42.1565ZM20.0323 28.4516H20.904C20.8653 28.7742 20.8387 29.0992 20.8387 29.4274C20.8387 30.2 20.95 30.954 21.1556 31.6774H19.2258V29.2581C19.2258 28.8129 19.5879 28.4516 20.0323 28.4516ZM19.2258 33.2903H21.804C22.1798 33.9895 22.6597 34.6379 23.2363 35.2153L32.9355 44.9145L42.6347 35.2153C43.2113 34.6387 43.6911 33.9903 44.0661 33.2903H46.6452V38.9355C45.7556 38.9355 45.0323 39.6589 45.0323 40.5484C45.0323 45.8847 40.6911 50.2258 35.3548 50.2258H30.5161C25.1798 50.2258 20.8387 45.8847 20.8387 40.5484C20.8387 39.6589 20.1153 38.9355 19.2258 38.9355V33.2903ZM30.5161 53.4516C23.4016 53.4516 17.6129 47.6629 17.6129 40.5484H19.2258C19.2258 46.7742 24.2903 51.8387 30.5161 51.8387H35.3548C41.5806 51.8387 46.6452 46.7742 46.6452 40.5484H48.2581C48.2581 47.6629 42.4694 53.4516 35.3548 53.4516H33.7419V55.871H32.129V53.4516H30.5161ZM32.129 67.1613C32.129 68.9403 30.6823 70.3871 28.9032 70.3871C27.1242 70.3871 25.6774 68.9403 25.6774 67.1613C25.6774 65.3823 27.1242 63.9355 28.9032 63.9355H32.129V67.1613ZM46.6452 62.3226H56.3226L56.3234 63.9355H46.6452V62.3226ZM56.3226 60.7097H53.9048C54.6532 59.7145 55.8395 59.0968 57.129 59.0968C59.3524 59.0968 61.1613 60.9056 61.1613 63.129C61.1613 65.3524 59.3524 67.1613 57.129 67.1613C55.8395 67.1613 54.654 66.5435 53.9048 65.5484H56.3226C57.2121 65.5484 57.9355 64.825 57.9355 63.9355V62.3226C57.9355 61.4331 57.2121 60.7097 56.3226 60.7097ZM57.129 70.3871C54.0306 70.3871 51.3016 68.4016 50.2911 65.5484H52.0444C52.9718 67.4952 54.9395 68.7742 57.129 68.7742C60.2419 68.7742 62.7742 66.2411 62.7742 63.129C62.7742 60.0169 60.2419 57.4839 57.129 57.4839C54.9387 57.4839 52.9718 58.7629 52.0444 60.7097H50.2911C51.3016 57.8565 54.0306 55.871 57.129 55.871C61.1306 55.871 64.3871 59.1266 64.3871 63.129C64.3871 67.1315 61.1306 70.3871 57.129 70.3871Z" fill="url(#paint0_linear_296_350)"></path> <path d="M57.129 54.4194C53.15 54.4194 49.6653 57.096 48.5968 60.871H46.6452C45.7556 60.871 45.0323 61.5944 45.0323 62.4839H33.7419V57.6452C34.6315 57.6452 35.3548 56.9218 35.3548 56.0323V55.2258C43.3589 55.2258 49.871 48.7137 49.871 40.7097C49.871 39.8202 49.1476 39.0968 48.2581 39.0968V29.4194C48.2581 28.0855 47.1726 27 45.8387 27H44.6105L44.9685 28.6232L45.0305 29.4194L44.9003 31.0323H34.5484H20.9685L20.8639 30.225L20.8429 29.3587L21.2621 27H20.0323C18.6984 27 17.6129 28.0855 17.6129 29.4194V39.0968C16.7234 39.0968 16 39.8202 16 40.7097C16 48.7137 22.5121 55.2258 30.5161 55.2258V56.0323C30.5161 56.9218 31.2395 57.6452 32.129 57.6452V62.4839H28.9032C26.2347 62.4839 24.0645 64.654 24.0645 67.3226C24.0645 69.9911 26.2347 72.1613 28.9032 72.1613C31.5718 72.1613 33.7419 69.9911 33.7419 67.3226V64.0968H45.0323C45.0323 64.9863 45.7556 65.7097 46.6452 65.7097H48.5968C49.6653 69.4847 53.15 72.1613 57.129 72.1613C62.0202 72.1613 66 68.1815 66 63.2903C66 58.3992 62.0202 54.4194 57.129 54.4194ZM45.8387 28.6129C46.2831 28.6129 46.6452 28.9742 46.6452 29.4194V31.8387H44.7129C44.9202 31.1105 45.0323 30.3484 45.0323 29.5653C45.0323 29.246 45.0065 28.9282 44.9685 28.6129H45.8387ZM20.0323 28.6129H20.904C20.8653 28.9355 20.8387 29.2605 20.8387 29.5887C20.8387 30.3613 20.95 31.1153 21.1556 31.8387H19.2258V29.4194C19.2258 28.9742 19.5879 28.6129 20.0323 28.6129ZM19.2258 33.4516H21.804L20.9685 31.0323H44.9003L44.0661 33.4516H46.6452V39.0968C45.7556 39.0968 45.0323 39.8202 45.0323 40.7097C45.0323 46.046 40.6911 50.3871 35.3548 50.3871H30.5161C25.1798 50.3871 20.8387 46.046 20.8387 40.7097C20.8387 39.8202 20.1153 39.0968 19.2258 39.0968V33.4516ZM30.5161 53.6129C23.4016 53.6129 17.6129 47.8242 17.6129 40.7097H19.2258C19.2258 46.9355 24.2903 52 30.5161 52H35.3548C41.5806 52 46.6452 46.9355 46.6452 40.7097H48.2581C48.2581 47.8242 42.4694 53.6129 35.3548 53.6129H33.7419V56.0323H32.129V53.6129H30.5161ZM32.129 67.3226C32.129 69.1016 30.6823 70.5484 28.9032 70.5484C27.1242 70.5484 25.6774 69.1016 25.6774 67.3226C25.6774 65.5436 27.1242 64.0968 28.9032 64.0968H32.129V67.3226ZM46.6452 62.4839H56.3226L56.3234 64.0968H46.6452V62.4839ZM56.3226 60.871H53.9048C54.6532 59.8758 55.8395 59.2581 57.129 59.2581C59.3524 59.2581 61.1613 61.0669 61.1613 63.2903C61.1613 65.5137 59.3524 67.3226 57.129 67.3226C55.8395 67.3226 54.654 66.7048 53.9048 65.7097H56.3226C57.2121 65.7097 57.9355 64.9863 57.9355 64.0968V62.4839C57.9355 61.5944 57.2121 60.871 56.3226 60.871ZM57.129 70.5484C54.0306 70.5484 51.3016 68.5629 50.2911 65.7097H52.0444C52.9718 67.6565 54.9395 68.9355 57.129 68.9355C60.2419 68.9355 62.7742 66.4024 62.7742 63.2903C62.7742 60.1782 60.2419 57.6452 57.129 57.6452C54.9387 57.6452 52.9718 58.9242 52.0444 60.871H50.2911C51.3016 58.0177 54.0306 56.0323 57.129 56.0323C61.1306 56.0323 64.3871 59.2879 64.3871 63.2903C64.3871 67.2927 61.1306 70.5484 57.129 70.5484Z" fill="white"></path> <defs> <linearGradient id="paint0_linear_296_350" x1="41" y1="22" x2="41" y2="72" gradientUnits="userSpaceOnUse"> <stop stop-color="white"></stop> <stop offset="1" stop-color="white"></stop> </linearGradient> </defs> </svg> 