<?xml version="1.0" encoding="UTF-8"?> <svg xmlns="http://www.w3.org/2000/svg" width="552" height="402" viewBox="0 0 552 402" fill="none"> <path d="M183.187 239.189H156.233V268.926C156.233 272.1 157.137 274.736 158.943 276.836C160.799 278.936 163.094 279.985 165.828 279.985H183.187V295H79.1094V279.985H104.598C107.43 279.985 109.676 278.96 111.336 276.909C113.045 274.81 113.899 272.148 113.899 268.926V239.189H28.4258V216.411L134.334 82.5977H156.233V221.465H183.187V239.189ZM43.0742 221.465H113.899V132.109L43.0742 221.465ZM208.602 191.509C208.602 168.804 211.775 149.224 218.123 132.769C224.52 116.265 233.504 103.789 245.076 95.3418C256.697 86.8457 270.149 82.5977 285.433 82.5977C297.005 82.5977 307.527 85.0146 317 89.8486C326.473 94.6826 334.578 101.714 341.316 110.942C348.055 120.171 353.279 131.597 356.99 145.22C360.701 158.843 362.557 174.272 362.557 191.509C362.557 214.214 359.358 233.77 352.962 250.176C346.565 266.533 337.532 278.96 325.862 287.456C314.192 295.903 300.716 300.127 285.433 300.127C270.149 300.127 256.697 295.903 245.076 287.456C233.504 278.96 224.52 266.509 218.123 250.103C211.775 233.696 208.602 214.165 208.602 191.509ZM256.355 191.509C256.355 214.067 257.234 232.134 258.992 245.708C260.75 259.282 263.729 269.243 267.928 275.591C272.176 281.938 278.011 285.112 285.433 285.112C291.097 285.112 295.784 283.33 299.495 279.766C303.255 276.201 306.258 270.684 308.504 263.213C310.75 255.693 312.361 246.025 313.338 234.209C314.314 222.393 314.803 208.159 314.803 191.509C314.803 174.761 314.314 160.454 313.338 148.589C312.361 136.675 310.75 126.982 308.504 119.512C306.258 112.041 303.255 106.523 299.495 102.959C295.784 99.3945 291.097 97.6123 285.433 97.6123C278.011 97.6123 272.176 100.835 267.928 107.28C263.729 113.677 260.75 123.711 258.992 137.383C257.234 151.006 256.355 169.048 256.355 191.509ZM539.437 239.189H512.483V268.926C512.483 272.1 513.387 274.736 515.193 276.836C517.049 278.936 519.344 279.985 522.078 279.985H539.437V295H435.359V279.985H460.848C463.68 279.985 465.926 278.96 467.586 276.909C469.295 274.81 470.149 272.148 470.149 268.926V239.189H384.676V216.411L490.584 82.5977H512.483V221.465H539.437V239.189ZM399.324 221.465H470.149V132.109L399.324 221.465Z" fill="#905A2B"></path> <mask id="mask0_2046_8888" style="mask-type:alpha" maskUnits="userSpaceOnUse" x="11" y="70" width="512" height="219"> <path d="M166.187 227.189H139.233V256.926C139.233 260.1 140.137 262.736 141.943 264.836C143.799 266.936 146.094 267.985 148.828 267.985H166.187V283H62.1094V267.985H87.5977C90.4297 267.985 92.6758 266.96 94.3359 264.909C96.0449 262.81 96.8994 260.148 96.8994 256.926V227.189H11.4258V204.411L117.334 70.5977H139.233V209.465H166.187V227.189ZM26.0742 209.465H96.8994V120.109L26.0742 209.465ZM191.602 179.509C191.602 156.804 194.775 137.224 201.123 120.769C207.52 104.265 216.504 91.7891 228.076 83.3418C239.697 74.8457 253.149 70.5977 268.433 70.5977C280.005 70.5977 290.527 73.0146 300 77.8486C309.473 82.6826 317.578 89.7139 324.316 98.9424C331.055 108.171 336.279 119.597 339.99 133.22C343.701 146.843 345.557 162.272 345.557 179.509C345.557 202.214 342.358 221.77 335.962 238.176C329.565 254.533 320.532 266.96 308.862 275.456C297.192 283.903 283.716 288.127 268.433 288.127C253.149 288.127 239.697 283.903 228.076 275.456C216.504 266.96 207.52 254.509 201.123 238.103C194.775 221.696 191.602 202.165 191.602 179.509ZM239.355 179.509C239.355 202.067 240.234 220.134 241.992 233.708C243.75 247.282 246.729 257.243 250.928 263.591C255.176 269.938 261.011 273.112 268.433 273.112C274.097 273.112 278.784 271.33 282.495 267.766C286.255 264.201 289.258 258.684 291.504 251.213C293.75 243.693 295.361 234.025 296.338 222.209C297.314 210.393 297.803 196.159 297.803 179.509C297.803 162.761 297.314 148.454 296.338 136.589C295.361 124.675 293.75 114.982 291.504 107.512C289.258 100.041 286.255 94.5234 282.495 90.959C278.784 87.3945 274.097 85.6123 268.433 85.6123C261.011 85.6123 255.176 88.835 250.928 95.2803C246.729 101.677 243.75 111.711 241.992 125.383C240.234 139.006 239.355 157.048 239.355 179.509ZM522.437 227.189H495.483V256.926C495.483 260.1 496.387 262.736 498.193 264.836C500.049 266.936 502.344 267.985 505.078 267.985H522.437V283H418.359V267.985H443.848C446.68 267.985 448.926 266.96 450.586 264.909C452.295 262.81 453.149 260.148 453.149 256.926V227.189H367.676V204.411L473.584 70.5977H495.483V209.465H522.437V227.189ZM382.324 209.465H453.149V120.109L382.324 209.465Z" fill="#905A2B"></path> </mask> <g mask="url(#mask0_2046_8888)"> <path d="M691.616 -5.36682H-157.096V715.693H691.616V-5.36682Z" fill="#1C4F4A"></path> <path d="M75.0501 148.121C71.2048 155.013 74.7388 163.5 82.6125 164.411C84.6313 164.572 86.6603 164.541 88.6734 164.317V158.374C85.6979 158.721 81.642 159.407 79.9299 156.853C77.7509 153.595 80.5342 149.642 83.1435 147.821C84.8363 146.634 86.6862 145.701 88.6368 145.051V138.892C83.0977 140.329 77.7509 143.211 75.0135 148.121" fill="white"></path> <path d="M83.2995 127.015C85.0574 127.505 86.8571 127.819 88.6738 127.954V121.852C82.4755 121.072 75.1145 117.89 76.671 110.51C77.852 104.877 83.3361 102.398 88.6738 101.121V94.9996C87.2068 95.2689 85.7598 95.6422 84.3432 96.1169C77.9344 98.3045 71.6446 103.318 70.8206 110.594C69.9051 118.547 76.3139 124.969 83.2995 126.987" fill="white"></path> <path d="M88.6745 213.205C85.3095 211.655 82.2042 209.57 79.4732 207.027C76.7266 204.473 73.7694 201.14 73.4764 197.188C73.2109 193.686 75.573 190.822 78.3746 189.16C81.5153 187.39 85.1798 186.863 88.6745 187.677V181.762C88.061 181.668 87.4659 181.536 86.8434 181.489C79.8394 180.898 72.0023 184.306 68.9078 191.075C65.4104 198.737 70.1621 206.407 75.6737 211.487C79.4847 214.993 83.8914 217.753 88.6745 219.627V213.205Z" fill="white"></path> <path d="M88.6733 74.3724C86.6814 74.1221 84.773 73.4022 83.0976 72.2693C79.3622 69.631 79.2249 65.1056 80.6623 61.0027C82.3155 56.6893 85.0854 52.9204 88.6733 50.1023V42.873C84.6228 45.4966 81.1165 48.9136 78.3551 52.9284C73.7774 59.7728 71.516 70.0629 78.5382 76.1375C81.4256 78.5528 84.9596 80.0129 88.6733 80.3249V74.3724Z" fill="white"></path> <path d="M-190.65 224.134C-184.022 227.467 -179.481 233.757 -173.987 238.611C-162.342 248.892 -144.901 253.436 -130.041 248.573C-115.96 243.953 -104.964 231.166 -105.651 215.477C-105.838 208.14 -108.792 201.164 -113.891 196.014C-116.812 193.198 -120.3 191.095 -123.046 188.099C-125.051 185.912 -127.139 181.725 -125.189 178.852C-123.239 175.979 -118.981 177.312 -116.674 178.852C-113.177 181.142 -110.824 184.945 -107.821 187.808C-102.5 192.794 -95.9596 196.205 -88.8966 197.676C-74.6781 200.746 -59.48 197.366 -46.699 190.663C-33.6616 183.837 -21.9792 172.711 -17.0719 158.309C-14.3253 150.375 -15.2408 142.198 -13.9041 134.058C-13.2725 129.981 -11.4718 126.19 -8.73128 123.167C-6.11282 120.265 -3.05489 117.843 -0.253311 115.158C5.65851 109.616 9.74153 102.325 11.4291 94.296C13.1228 85.8461 10.6509 77.706 10.6783 69.2185C10.6598 65.0327 11.9249 60.9469 14.2947 57.5388C16.666 53.9429 19.0922 50.5817 20.7036 46.5164C23.7157 38.7143 23.7157 30.0766 23.7524 21.8144C23.7524 19.486 23.7524 17.0637 23.7524 14.6414H18.0302C17.8196 21.3356 18.1492 28.0486 17.4534 34.724C17.1074 38.9251 16.0087 43.0246 14.2123 46.8168C12.2714 50.685 9.34164 53.9147 7.37321 57.7548C3.44551 65.4348 5.08434 73.7157 5.93579 81.8934C6.85135 90.3433 5.22166 98.3238 0.44252 105.365C-4.0345 111.938 -11.1941 115.909 -15.6894 122.472C-20.6242 129.673 -20.0474 138.517 -20.7158 146.883C-21.9426 162.29 -32.27 174.786 -44.6939 182.673C-56.7059 190.287 -71.9773 194.831 -86.1042 192.259C-93.2255 191.104 -99.8184 187.701 -104.964 182.523C-110.174 177.068 -115.356 170.054 -123.797 171.547C-131.717 172.937 -133.218 181.818 -130.124 188.25C-126.727 195.301 -118.551 197.901 -114.642 204.567C-112.918 207.652 -111.856 211.079 -111.528 214.618C-111.2 218.158 -111.612 221.728 -112.737 225.091C-115.017 232.18 -120.538 237.654 -126.928 240.968C-140.79 248.141 -159.018 244.348 -170.417 234.011C-175.791 229.129 -180.396 223.176 -186.787 219.58C-194.862 215.036 -203.34 216.876 -212.093 216.472C-216.508 216.224 -220.836 215.115 -224.846 213.205V219.627C-222.109 220.697 -219.266 221.459 -216.368 221.899C-207.963 223.157 -198.533 220.162 -190.65 224.134Z" fill="white"></path> <path d="M-76.0235 254.862C-66.9871 262.251 -56.0738 262.599 -45.1696 264.533C-34.2654 266.467 -24.8536 271.941 -18.8201 281.433C-12.9972 290.652 -9.33511 302.21 1.61483 306.379C3.87419 307.27 6.31564 307.565 8.71513 307.237C11.1146 306.909 13.3953 305.968 15.348 304.501C19.1933 301.572 21.6562 296.633 20.3012 291.704C18.9462 286.775 14.46 283.648 11.8781 279.499C8.93922 274.804 7.0166 269.528 4.63618 264.476C0.0584488 254.881 -6.95464 247.379 -16.7052 243.37C-21.588 241.406 -26.8067 240.47 -32.0498 240.62C-34.6683 240.62 -37.7995 241.042 -40.1524 239.568C-41.8279 238.507 -43.2103 236.31 -41.2602 234.808C-39.777 233.662 -37.4607 233.531 -35.6754 233.428C-33.1759 233.296 -30.6857 233.277 -28.1954 233.052C-23.3729 232.652 -18.5974 231.791 -13.9311 230.48C-4.77567 227.823 3.76637 222.969 9.51601 215.063C13.6451 209.43 15.1649 202.097 19.6969 196.727C21.6378 194.436 24.0915 192.859 27.1128 193.816C32.2857 195.469 33.5217 201.046 34.3548 205.843C35.2154 211.054 37.4219 215.401 41.844 218.312C43.7086 219.537 45.7975 220.358 47.9826 220.726C50.1677 221.094 52.403 221.001 54.5518 220.452C56.9871 219.805 59.0838 218.415 61.2902 220.349C63.4967 222.283 63.9819 225.175 64.284 227.86C64.8883 233.249 64.9615 238.338 68.3948 242.788C71.3562 246.462 75.5048 248.924 80.0864 249.727C82.9063 250.29 85.7811 250.468 88.6376 250.769V244.91C85.5469 244.75 82.4797 244.272 79.4821 243.483C77.3224 242.899 75.3628 241.712 73.821 240.055C72.2792 238.397 71.2154 236.334 70.7478 234.094C69.5851 228.283 70.4274 222.349 66.5546 217.42C65.1143 215.499 63.0861 214.13 60.7958 213.533C57.7379 212.819 55.3026 214.312 52.4186 214.875C50.2734 215.227 48.0744 214.903 46.1127 213.946C44.1509 212.989 42.5188 211.444 41.432 209.514C40.1594 207.139 40.0495 204.313 39.5551 201.703C39.0813 199.015 38.0681 196.457 36.5796 194.192C33.9611 190.333 29.8137 187.535 25.117 187.62C17.1883 187.685 12.8029 195.957 9.78155 202.323C8.29836 205.458 7.0349 208.726 4.96577 211.552C2.12832 215.37 -1.48248 218.512 -5.61796 220.762C-14.3797 225.701 -24.5606 227.184 -34.4211 227.494C-38.5777 227.625 -43.5765 228.123 -46.3232 231.719C-49.6649 236.038 -47.5409 241.774 -43.3477 244.535C-38.3579 247.821 -32.1322 246.074 -26.5932 246.807C-21.4132 247.527 -16.4707 249.486 -12.1641 252.525C-2.68822 259.097 0.13166 269.978 5.35028 279.752C6.5689 282.06 7.99743 284.245 9.61676 286.277C11.2464 288.324 13.4987 290.136 14.5332 292.605C16.4925 297.3 11.0541 301.506 6.95248 301.459C1.45921 301.393 -3.05444 296.812 -5.86517 292.474C-9.13367 287.507 -11.3584 281.911 -14.7277 277.011C-21.0133 267.88 -30.4377 261.53 -41.1046 259.238C-52.2376 256.806 -64.5243 257.548 -73.5058 249.22C-77.1375 245.882 -79.9297 241.695 -81.645 237.014C-83.2197 232.592 -84.5015 226.499 -82.6795 221.992C-80.7569 217.213 -74.7143 217.655 -70.5669 217.861C-65.4762 218.207 -60.3656 218.088 -55.2955 217.504C-34.9484 214.882 -16.3135 204.489 -3.10937 188.399C0.189636 184.068 3.19072 179.506 5.87215 174.748C7.218 172.523 8.77441 170.373 11.1731 169.255C13.7367 168.072 16.7214 167.8 19.4772 167.481C23.9633 166.964 29.0263 166.542 33.2836 168.42C37.8614 170.391 38.8868 175.123 41.5785 178.869C44.5174 182.963 49.2233 184.69 53.9292 182.747C58.8182 180.738 61.6656 176.09 62.2332 170.833C62.8558 165.115 61.1254 159.181 58.9556 153.933C56.9221 148.687 53.5936 144.073 49.2965 140.544C45.0729 137.129 39.7921 135.386 34.4189 135.634C31.765 135.888 29.1747 136.616 26.7649 137.784C24.1282 138.976 21.5189 140.666 18.6532 141.22C14.286 142.065 11.8049 138.62 11.9972 134.442C12.2169 129.747 15.9249 126.621 19.9533 124.978C27.2319 122.001 42.4757 123.767 42.5581 112.049C42.5581 106.716 38.3558 102.557 34.7119 99.3369C33.039 97.9973 31.6154 96.3593 30.5095 94.5016C29.7862 93.1778 28.6052 90.6616 29.713 89.2439C31.068 87.5164 34.2907 88.7369 36.0486 89.0186C38.6689 89.5012 41.3633 89.3436 43.9131 88.5585C47.5021 87.4412 53.2883 83.1693 56.9872 85.7419C60.686 88.3144 59.3035 94.6988 57.7654 98.1726C55.4673 103.336 52.4277 108.04 51.8967 113.833C51.5434 118.5 52.5243 123.171 54.7195 127.275C56.9147 131.378 60.229 134.737 64.2566 136.939C67.5617 138.676 70.4915 133.559 67.168 131.813C58.5436 127.278 55.4582 116.669 59.5049 107.824C61.7022 103.017 64.6228 98.5013 65.0806 93.0839C65.4468 88.6336 64.0643 83.6951 60.3838 80.963C56.4836 78.1463 51.8143 79.0101 47.6577 80.7189C45.5246 81.7357 43.3099 82.5618 41.0383 83.1881C38.2916 83.7702 35.719 82.7562 33.009 82.5309C28.3488 82.1366 23.9633 84.8875 23.588 89.9387C23.2675 94.2857 25.7304 98.7266 28.6418 101.722C31.1687 104.313 37.898 108.369 36.6528 112.866C35.5816 116.744 29.2186 116.809 26.124 117.279C16.9686 118.668 6.59543 123.607 6.2109 134.423C6.07356 138.329 7.48352 142.469 10.514 144.948C14.6614 148.337 19.8708 147.417 24.3936 145.408C29.3468 143.201 33.6682 140.526 39.253 141.971C44.5357 143.342 48.674 147.135 51.4664 151.83C54.2588 156.524 56.4836 162.692 56.5477 168.326C56.6026 172.316 54.3229 178.334 49.3606 177.63C47.2823 177.339 46.1013 175.339 45.1582 173.64C44.0768 171.399 42.7924 169.268 41.3221 167.274C38.3191 163.622 33.9062 161.97 29.42 161.406C24.6591 160.815 19.8251 161.406 15.11 162.148C9.35125 163.087 5.039 165.472 1.69726 170.448C-1.04939 174.607 -3.23753 179.076 -6.30461 183.047C-9.42966 187.087 -12.9483 190.79 -16.806 194.098C-24.3543 200.581 -33.0614 205.496 -42.4413 208.566C-51.9447 211.693 -61.3656 212.322 -71.2718 211.899C-75.8496 211.693 -80.9583 211.899 -84.6937 215.054C-88.7313 218.443 -89.482 224.076 -89.1524 229.137C-88.8011 234.123 -87.4534 238.981 -85.1932 243.41C-82.9331 247.839 -79.8087 251.743 -76.0144 254.881" fill="white"></path> <path d="M88.6737 296.859V290.38C85.451 291.573 82.4663 293.366 80.5071 296.37C77.3759 301.177 78.1999 306.952 78.676 312.331C78.9506 315.646 78.9323 321.889 75.1145 323.363C70.7656 325.044 69.1726 317.73 69.0261 314.913C68.7423 309.496 69.1176 303.947 65.8308 299.318C63.0842 295.441 58.8544 293.319 54.6245 291.573C50.2208 289.761 45.7987 288.305 41.8069 285.573C37.6932 282.712 34.2529 278.946 31.7359 274.551C28.9892 269.856 27.8723 264.477 25.6933 259.529C24.7263 257.3 23.4563 255.224 21.9212 253.36C20.4197 251.558 18.5062 250.046 17.2245 248.056C14.3954 243.652 19.4034 238.742 23.2396 237.23C25.0448 236.422 27.0744 236.312 28.9526 236.921C31.2873 237.859 32.4775 240.188 33.5853 242.319C38.4194 251.633 46.3297 258.843 56.6296 261.022C61.9306 262.139 67.781 261.256 72.8439 263.397C77.0738 265.181 79.6465 269.443 76.5061 273.584C69.3099 283.113 57.9113 273.696 52.1983 267.603C49.6165 264.843 45.5332 269.04 48.115 271.8C55.1189 279.311 65.5928 287.263 75.9659 281.583C79.976 279.395 83.2903 275.321 83.7206 270.579C84.1784 265.566 81.0839 261.191 76.9456 258.862C71.7178 255.914 65.8034 256.374 60.0812 255.623C56.2536 255.106 52.5744 253.77 49.2815 251.704C45.9886 249.637 43.1552 246.884 40.9646 243.624C39.4448 241.286 38.4285 238.639 36.8538 236.338C35.5905 234.332 33.7956 232.736 31.6794 231.738C29.5633 230.741 27.2136 230.382 24.9059 230.705C15.2652 231.982 6.17381 243.258 13.2144 252.393C14.6976 254.271 16.5561 255.877 18.0393 257.782C19.6875 260.105 20.9583 262.686 21.8022 265.425C23.6333 270.514 25.2355 275.555 28.3026 280.015C31.2331 284.303 34.9264 287.985 39.1884 290.869C43.2901 293.685 47.9044 295.187 52.4364 297.009C56.8218 298.774 61.4179 301.131 62.6447 306.2C63.954 311.627 62.5348 317.223 64.842 322.481C66.6731 326.612 70.3353 329.935 75.0046 329.4C79.6739 328.865 82.4114 324.959 83.7298 320.791C85.3869 315.514 83.8396 310.247 83.9678 304.877C83.9255 303.217 84.348 301.579 85.1853 300.158C86.0226 298.737 87.2396 297.592 88.6921 296.859" fill="white"></path> <path d="M109.017 254.403C105.457 250.649 101.024 247.887 96.1354 246.376C93.3991 245.608 90.5907 245.142 87.7581 244.986V250.845C90.779 251.065 93.7539 251.726 96.5931 252.807C105.154 256.384 111.901 265.266 109.823 275.077C109.422 277.31 108.562 279.431 107.299 281.296C106.036 283.161 104.399 284.728 102.498 285.893C98.8362 287.996 94.3775 288.428 90.3491 289.526C89.4793 289.771 88.6095 290.052 87.7581 290.362V296.859C88.8762 296.245 90.0587 295.763 91.2829 295.423C95.6318 294.155 100.145 293.545 104.284 291.601C108.421 289.534 111.736 286.065 113.668 281.781C115.71 277.276 116.36 272.238 115.528 267.344C114.697 262.45 112.425 257.934 109.017 254.403Z" fill="white"></path> <path d="M387.655 148.122C383.81 155.013 387.344 163.5 395.218 164.411C397.236 164.572 399.265 164.541 401.278 164.317V158.374C398.312 158.721 394.256 159.407 392.544 156.853C390.356 153.595 393.148 149.643 395.758 147.821C397.45 146.633 399.3 145.7 401.251 145.051V138.892C395.712 140.329 390.374 143.211 387.628 148.122" fill="white"></path> <path d="M395.895 127.016C397.649 127.505 399.446 127.82 401.26 127.955V121.852C395.071 121.073 387.701 117.89 389.257 110.51C390.438 104.877 395.931 102.398 401.26 101.121V94.9998C399.793 95.2691 398.346 95.6424 396.929 96.1171C390.52 98.3047 384.231 103.318 383.416 110.595C382.5 118.547 388.909 124.969 395.895 126.987" fill="white"></path> <path d="M401.278 213.205C397.914 211.653 394.809 209.568 392.077 207.027C389.33 204.473 386.373 201.14 386.08 197.188C385.814 193.686 388.176 190.822 390.978 189.16C394.119 187.39 397.783 186.863 401.278 187.677V181.762C400.674 181.668 400.069 181.536 399.447 181.49C392.443 180.898 384.615 184.306 381.521 191.076C378.023 198.737 382.766 206.407 388.277 211.487C392.088 214.994 396.495 217.753 401.278 219.627V213.205Z" fill="white"></path> <path d="M244.747 299.826C247.741 302.436 251.531 303.581 255.12 305.074C258.573 306.51 261.693 308.676 264.276 311.43C270.794 318.378 273.431 327.072 273.788 336.113H279.675C279.588 333.821 279.349 331.538 278.961 329.278C277.682 321.617 274.415 314.45 269.504 308.529C267.05 305.609 264.111 303.159 260.824 301.29C257.519 299.413 253.802 298.568 250.524 296.709C247.247 294.85 245.416 291.592 246.514 287.639C247.613 283.686 251.248 281.292 255.111 280.672C263.479 279.339 271.307 285.752 276.553 291.704C282.037 298.029 285.823 305.706 287.54 313.984C289.115 321.429 288.272 328.724 287.54 336.113H293.354C293.354 335.775 293.436 335.437 293.473 335.109C294.182 330.137 294.431 325.107 294.214 320.087C293.592 311.523 291.017 303.229 286.697 295.873C282.358 288.531 276.15 281.696 268.661 277.696C261.172 273.697 251.623 273.058 245.022 279.161C239.245 284.494 238.613 294.493 244.729 299.816" fill="white"></path> <path d="M187.37 336.114C187.37 331.955 187.278 327.777 187.525 323.777C187.852 318.47 188.463 313.185 189.356 307.947C189.8 304.481 190.881 301.133 192.543 298.08C194.374 295.103 197.34 293.31 200.783 294.446C204.747 295.77 207.082 299.601 208.107 303.525C209.288 307.91 209.279 312.585 209.37 317.101C209.531 322.115 209.363 327.133 208.867 332.124C208.72 333.447 208.51 334.771 208.281 336.086H214.113C214.497 333.72 214.763 331.335 214.937 328.95C215.253 323.78 215.289 318.596 215.047 313.421C214.882 308.914 214.616 304.229 213.069 299.967C210.368 292.54 202.696 285.724 194.539 288.869C187.626 291.526 184.953 299.507 183.781 306.342C182.231 316.176 181.459 326.123 181.474 336.086L187.37 336.114Z" fill="white"></path> <path d="M401.278 74.3728C399.286 74.1225 397.377 73.4027 395.702 72.2697C391.967 69.6315 391.829 65.1061 393.276 61.0032C394.926 56.6904 397.692 52.9214 401.278 50.1028V42.8734C397.227 45.497 393.721 48.914 390.959 52.9288C386.382 59.7732 384.12 70.0633 391.152 76.1379C394.033 78.5572 397.566 80.0179 401.278 80.3253V74.3728Z" fill="white"></path> <path d="M188.166 49.5019C196.217 46.6595 203.057 41.0419 207.521 33.6067C210.895 27.7718 213.122 21.3161 214.076 14.6038H208.208C206.917 21.9552 204.252 29.1846 199.492 34.8742C196.892 38.051 193.653 40.6133 189.997 42.3852C185.85 44.3663 181.364 45.4647 177.445 48.0185C170.689 52.328 165.598 60.2239 167.85 68.6739C170.038 76.8421 178.553 80.0249 186.097 79.7902C194.162 79.4112 201.928 76.5483 208.382 71.575C222.838 60.6934 229.641 43.1739 232.534 25.5699C233.12 22.0303 233.403 18.3311 233.898 14.6883H228.13C227.214 20.913 226.583 27.1566 225.054 33.3062C222.811 42.3664 219.267 51.3797 213.408 58.656C208.317 64.9747 201.616 70.1948 193.888 72.5514C187.644 74.4292 175.706 75.6028 173.426 67.1247C170.872 57.5857 181.153 52.2435 188.13 49.5958" fill="white"></path> <path d="M87.7575 50.1402C90.3456 48.0055 93.2271 46.2749 96.3087 45.0045C103.093 42.1878 111.644 41.0142 118.401 44.582C126.229 48.7318 126.577 58.177 130.449 65.3312C134.112 72.0442 142.04 77.8559 149.429 73.2366C157.449 68.223 157.083 57.6981 154.199 49.7646C150.967 40.8077 145.391 32.9399 142.37 23.8985C141.341 20.8985 140.698 17.7739 140.456 14.6035H134.661C135.082 23.0535 138.845 31.0527 142.645 38.4793C145.001 42.7429 147.066 47.1695 148.825 51.7269C150.317 55.9894 151.571 61.1814 149.117 65.3406C147.158 68.7112 143.624 69.9411 140.246 67.8287C136.703 65.5941 134.89 61.51 133.526 57.6606C132.043 53.4356 130.779 49.0417 128.106 45.3894C125.809 42.2644 122.708 39.8583 119.152 38.4417C109.081 34.2919 97.0869 36.7423 87.8033 42.8732L87.7575 50.1402Z" fill="white"></path> <path d="M99.2582 78.551C105.905 75.7343 111.563 69.9602 112.607 62.4398C112.783 61.6814 112.672 60.8828 112.297 60.205C111.921 59.5272 111.309 59.0206 110.584 58.7875C109.229 58.3932 107.242 59.2757 107.031 60.8625C105.987 68.3735 99.4047 73.4716 92.3184 74.4011C90.7988 74.6029 89.2602 74.6029 87.7406 74.4011V80.3536C91.6654 80.7153 95.6173 80.0968 99.2582 78.551Z" fill="white"></path> <path d="M269.696 40.3193C268.176 45.0137 266.464 49.5955 264.514 54.0833C262.939 57.7168 261.007 61.707 257.647 63.9416C255.267 65.5189 251.522 66.0165 249.124 64.1763C245.846 61.6789 247.714 55.7264 248.529 52.3839C250.827 42.9951 255.194 34.3293 258.243 25.1564C259.443 21.7147 260.344 18.1707 260.934 14.5659H255.093C254.507 17.6297 253.693 20.643 252.658 23.5791C249.71 32.4421 245.498 40.8545 243.163 49.9335C241.195 57.5572 239.932 67.7722 249.124 70.6452C256.649 73.0299 263.415 68.1008 267.169 61.7446C269.271 57.8713 271.051 53.8229 272.488 49.6424C274.271 45.0845 275.799 40.4264 277.066 35.6907C278.965 28.8239 279.833 21.7006 279.639 14.5659H273.752C274.081 23.2317 272.287 32.2168 269.669 40.2818" fill="white"></path> <path d="M167.09 163.369C170.597 161.547 174.543 160.778 178.077 159.059C184.953 155.755 190.895 149.502 198.842 153.642C202.339 155.454 205.333 158.102 208.409 160.552C211.537 163.115 214.997 165.22 218.691 166.805C226.186 169.775 234.41 170.212 242.165 168.054C249.473 166.02 256.247 162.344 261.997 157.292C267.747 152.24 272.329 145.939 275.409 138.845C276.942 135.357 278.091 131.704 278.833 127.954C279.648 123.748 279.748 119.42 280.664 115.242C282.596 106.886 289.957 103.543 295.578 98.0886C301.165 92.6126 305.224 85.7052 307.334 78.081C309.247 71.2084 310.081 62.9557 306.656 56.4211C303.168 49.6893 295.304 48.2622 289.481 52.7876C282.751 58.0172 282.349 66.2136 279.071 73.5181C275.931 80.5033 268.67 83.1792 263.186 87.8078C257.025 92.9998 255.505 100.276 254.369 107.984C253.793 111.881 253.152 115.833 251.339 119.354C249.628 122.584 247.336 125.451 244.582 127.804C238.64 133.034 230.153 137.399 222.225 137.503C215.221 137.597 207.576 133.081 208.162 125.053C208.739 116.857 216.219 114.726 222.811 113.505C230.135 112.162 237.148 110.35 241.479 103.6C245.342 97.5722 245.406 89.5166 240.655 83.949C236.077 78.6068 228.478 77.0107 222.49 80.8038C219.341 82.8036 216.997 85.855 213.82 87.8078C210.826 89.6856 207.246 90.1738 203.859 90.8216C196.864 92.1455 190.391 94.5772 187.672 101.919C185.035 109.055 187.049 117.082 183.57 124.002C180.091 130.921 173.929 134.677 166.587 136.057C158.924 137.493 151.544 138.432 146.445 145.192C141.949 151.182 140.1 158.825 133.627 163.153C126.861 167.697 119.409 167.519 112.029 164.796C104.513 161.979 97.3257 157.83 89.0858 158.224C88.6463 158.224 88.1702 158.299 87.63 158.355V164.298C89.501 164.083 91.3897 164.083 93.2607 164.298C97.2158 164.918 100.979 166.542 104.65 168.054C112.057 171.19 119.418 173.875 127.539 172.082C131.156 171.249 134.572 169.676 137.582 167.456C140.592 165.236 143.133 162.415 145.053 159.163C146.994 155.933 148.441 152.365 150.601 149.267C152.788 146.195 156.008 144.064 159.638 143.286C166.962 141.409 174.287 141.315 180.604 136.442C183.547 134.21 186.023 131.394 187.885 128.162C189.747 124.93 190.957 121.347 191.444 117.627C192.305 110.829 191.023 101.572 198.475 98.3327C204.884 95.516 212.144 96.4549 218.004 92.1079C220.934 89.9485 223.387 86.7469 226.711 85.2165C228.139 84.6227 229.7 84.4514 231.218 84.7219C232.736 84.9924 234.15 85.694 235.299 86.7469C240.92 91.4413 238.75 100.126 233.33 103.994C227.342 108.266 219.13 107.271 212.566 110.191C209.324 111.594 206.602 114.017 204.792 117.11C202.981 120.204 202.177 123.807 202.495 127.4C203.227 135.034 208.903 140.648 215.962 142.61C224.202 144.882 232.763 142.009 240.014 138.066C246.422 134.564 252.456 129.56 256.072 122.978C260 115.824 259.478 107.712 261.84 100.088C264.202 92.4647 271.161 89.7607 276.855 85.3104C279.724 83.1966 282.088 80.4421 283.768 77.2548C285.599 73.5744 286.514 69.5278 287.805 65.6409C288.995 62.0825 291 58.2331 294.507 56.5807C297.647 55.0973 300.431 56.7497 301.831 59.7259C304.844 66.0821 302.829 74.748 300.293 80.9352C297.135 88.634 291.779 93.9669 285.471 98.9805C282.486 101.346 279.584 103.881 277.606 107.233C275.409 110.989 274.704 115.242 274.182 119.439C273.266 127.288 271.609 134.508 267.59 141.371C259.771 154.694 244.701 164.702 229.137 163.331C220.531 162.58 214.305 157.642 207.686 152.478C201.46 147.624 194.374 144.319 186.628 147.53C183.131 148.966 180.082 151.21 176.786 153.041C173.225 155.013 169.242 155.858 165.534 157.538C158.686 160.59 154.428 167.049 153.504 174.579C152.579 182.109 155.5 189.601 160.352 195.235C162.947 198.224 165.999 200.761 169.388 202.746C172.913 204.849 176.969 206.501 179.697 209.731C182.169 212.641 182.682 216.303 180.302 219.458C177.802 222.753 173.691 223.673 169.81 223.326C162.183 222.65 154.776 217.589 150.482 211.224C145.905 204.501 142.828 195.657 134.341 193.216C130.349 192.07 126.431 193.357 122.439 193.685C118.447 194.014 114.199 192.408 110.445 190.944C102.791 187.968 95.8883 183.038 87.7125 181.752V187.667C92.2353 188.54 96.7306 190.887 100.622 192.897C107.946 196.652 116.351 200.539 124.71 199.337C128.619 198.774 132.29 197.938 135.751 200.417C139.212 202.896 141.19 206.933 143.259 210.557C147.25 217.542 152.671 223.307 159.986 226.602C167.301 229.898 176.282 230.95 182.71 225.391C188.743 220.171 189.063 211.853 184.037 205.825C181.373 202.623 177.628 200.652 174.131 198.661C170.601 196.801 167.411 194.33 164.701 191.357C159.894 185.864 157.569 178.213 160.251 171.087C161.487 167.726 163.913 164.967 167.045 163.36" fill="white"></path> <path d="M148.495 115.664C141.272 116.772 136.886 121.608 133.38 127.814C130.276 133.278 127.401 140.179 120.507 141.127C116.561 141.671 112.524 140.507 108.715 139.587C104.557 138.402 100.267 137.771 95.9522 137.709C93.1878 137.784 90.4398 138.172 87.7581 138.864V145.033C93.9655 142.967 100.786 143.737 107.177 145.286C114.794 147.164 122.997 148.741 129.626 143.305C134.506 139.296 136.722 133.071 140.118 127.879C141.839 125.26 144 122.988 147.012 122.021C150.757 120.819 154.84 121.204 158.695 120.697C165.79 119.758 171.448 115.383 173.078 108.041C173.837 104.797 173.716 101.402 172.726 98.2239C171.737 95.0459 169.917 92.2067 167.466 90.0142C155.252 79.3016 138.26 85.6766 129.141 97.2436C126.532 100.548 124.563 104.285 122.018 107.656C119.642 110.811 116.714 113.485 113.384 115.542C106.777 119.54 99.29 121.756 91.6217 121.983C90.3312 122.026 89.0395 121.967 87.7581 121.805V127.954C93.8696 128.298 99.99 127.467 105.804 125.504C113.064 123.185 120.022 119.195 125.03 113.252C130.423 106.858 133.627 99.0557 140.777 94.3049C146.683 90.3804 154.218 88.9533 160.663 92.4272C166.404 95.5349 169.379 102.069 166.916 108.454C163.904 116.275 155.078 114.66 148.486 115.674" fill="white"></path> <path d="M87.7581 101.121C89.6985 100.677 91.6605 100.339 93.6359 100.107C101.464 99.1686 108.724 97.8354 114.968 92.5964C120.358 88.0209 123.962 81.6088 125.122 74.5324C125.708 70.7769 120.141 69.1902 119.546 72.9551C119.007 76.5443 117.698 79.9663 115.715 82.9746C113.731 85.9829 111.122 88.5027 108.074 90.3525C101.876 94.108 94.6155 93.7137 87.7581 95.0469V101.121Z" fill="white"></path> <path d="M121.962 224.133C128.554 227.476 133.132 233.757 138.625 238.611C150.28 248.892 167.721 253.436 182.571 248.572C196.653 243.953 207.648 231.166 206.962 215.477C206.776 208.14 203.822 201.163 198.722 196.014C195.801 193.197 192.313 191.094 189.566 188.099C187.561 185.912 185.474 181.724 187.424 178.851C189.374 175.978 193.64 177.311 195.948 178.851C199.436 181.142 201.789 184.945 204.792 187.808C210.112 192.794 216.653 196.204 223.716 197.676C237.944 200.746 253.133 197.366 265.923 190.662C278.951 183.837 290.643 172.711 295.541 158.308C298.287 150.375 297.372 142.197 298.718 134.057C299.345 129.979 301.146 126.187 303.891 123.166C306.5 120.265 309.558 117.843 312.369 115.158C318.277 109.614 322.36 102.323 324.051 94.2956C325.745 85.8457 323.264 77.7056 323.291 69.2182C323.277 65.0332 324.542 60.9488 326.907 57.5385C329.27 53.9426 331.696 50.5814 333.316 46.516C336.328 38.7139 336.338 30.0762 336.374 21.8141C336.374 19.4857 336.374 17.0634 336.374 14.6411H330.652C330.441 21.3353 330.771 28.0483 330.075 34.7237C329.728 38.9234 328.633 43.0221 326.843 46.8165C324.902 50.6847 321.963 53.9144 319.995 57.7544C316.067 65.4345 317.706 73.7154 318.558 81.893C319.473 90.343 317.843 98.3234 313.064 105.365C308.578 111.937 301.428 115.909 296.923 122.471C291.988 129.673 292.565 138.517 291.906 146.882C290.679 162.289 280.343 174.786 267.919 182.672C255.907 190.287 240.645 194.831 226.508 192.258C219.39 191.104 212.8 187.7 207.657 182.522C202.448 177.067 197.266 170.054 188.825 171.547C180.905 172.936 179.394 181.818 182.489 188.249C185.886 195.3 194.071 197.901 197.98 204.567C199.7 207.654 200.759 211.08 201.086 214.62C201.412 218.159 201 221.728 199.875 225.091C197.605 232.18 192.075 237.653 185.684 240.967C171.832 248.141 153.64 244.347 142.205 234.01C136.794 229.062 132.216 223.11 125.807 219.514C117.723 214.97 109.245 216.81 100.493 216.406C96.0852 216.176 91.7605 215.09 87.7482 213.205V219.627C90.4883 220.698 93.3342 221.46 96.2353 221.899C104.64 223.157 114.061 220.162 121.953 224.133" fill="white"></path> <path d="M236.59 254.863C245.626 262.252 256.539 262.599 267.453 264.534C278.22 266.411 287.76 271.941 293.793 281.433C299.625 290.653 303.278 302.211 314.228 306.379C316.487 307.271 318.929 307.566 321.328 307.238C323.728 306.909 326.008 305.969 327.961 304.502C331.816 301.572 334.269 296.634 332.914 291.705C331.559 286.776 327.082 283.649 324.5 279.499C321.562 274.805 319.63 269.528 317.249 264.477C312.672 254.882 305.668 247.38 295.917 243.371C291.031 241.407 285.809 240.471 280.563 240.62C277.945 240.62 274.814 241.043 272.47 239.569C270.785 238.508 269.403 236.311 271.353 234.809C272.845 233.663 275.152 233.532 276.938 233.428C279.437 233.297 281.927 233.278 284.418 233.053C289.24 232.653 294.016 231.792 298.682 230.48C307.792 227.823 316.389 222.969 322.138 215.064C326.258 209.431 327.787 202.098 332.319 196.728C334.251 194.437 336.705 192.859 339.726 193.817C344.908 195.469 346.135 201.046 346.968 205.844C347.829 211.055 350.035 215.402 354.457 218.312C356.322 219.537 358.411 220.359 360.596 220.727C362.781 221.095 365.016 221.002 367.165 220.453C369.6 219.805 371.743 218.416 373.912 220.35C376.082 222.284 376.595 225.176 376.897 227.861C377.501 233.25 377.584 238.339 381.008 242.789C383.969 246.463 388.118 248.925 392.7 249.727C395.519 250.291 398.403 250.469 401.251 250.77V244.911C398.16 244.75 395.093 244.272 392.095 243.484C389.936 242.9 387.978 241.713 386.437 240.056C384.897 238.398 383.835 236.335 383.37 234.095C382.207 228.283 383.05 222.35 379.177 217.421C377.731 215.501 375.701 214.133 373.409 213.534C370.351 212.82 367.916 214.313 365.032 214.876C362.886 215.231 360.686 214.908 358.724 213.95C356.762 212.993 355.13 211.446 354.045 209.515C352.763 207.14 352.653 204.314 352.159 201.704C351.685 199.016 350.672 196.458 349.184 194.193C346.565 190.334 342.418 187.536 337.721 187.62C329.792 187.686 325.407 195.958 322.395 202.323C320.911 205.459 319.593 208.726 317.579 211.553C314.738 215.371 311.124 218.513 306.986 220.763C298.224 225.701 288.052 227.185 278.183 227.495C274.026 227.626 269.073 228.124 266.281 231.72C262.948 236.039 265.063 241.775 269.256 244.535C274.255 247.821 280.472 246.075 286.011 246.807C291.191 247.526 296.134 249.485 300.44 252.525C309.916 259.097 312.736 269.979 317.954 279.753C319.173 282.061 320.601 284.246 322.221 286.278C323.85 288.325 326.103 290.137 327.137 292.606C329.096 297.3 323.658 301.507 319.556 301.46C314.063 301.394 309.559 296.812 306.739 292.475C303.47 287.508 301.246 281.912 297.876 277.011C291.593 267.883 282.172 261.533 271.509 259.238C260.376 256.807 248.089 257.548 239.107 249.22C235.47 245.888 232.677 241.7 230.968 237.015C229.393 232.593 228.102 226.499 229.924 221.993C231.847 217.214 237.89 217.655 242.037 217.862C247.128 218.208 252.238 218.089 257.308 217.505C277.654 214.878 296.287 204.486 309.495 188.4C312.79 184.072 315.791 179.517 318.476 174.767C319.822 172.542 321.378 170.392 323.777 169.275C326.341 168.092 329.325 167.819 332.09 167.5C336.567 166.984 341.63 166.561 345.897 168.439C350.429 170.411 351.491 175.143 354.137 178.889C357.076 182.982 361.791 184.71 366.487 182.766C371.376 180.757 374.224 176.11 374.791 170.852C375.414 165.134 373.684 159.201 371.523 153.952C369.486 148.706 366.155 144.092 361.855 140.564C357.634 137.15 352.356 135.407 346.986 135.653C344.332 135.904 341.741 136.632 339.332 137.803C336.695 138.996 334.077 140.686 331.211 141.24C326.853 142.085 324.372 138.639 324.565 134.461C324.775 129.767 328.492 126.64 332.511 124.997C339.836 122.021 355.034 123.786 355.116 112.069C355.116 106.736 350.914 102.577 347.27 99.3563C345.597 98.0168 344.174 96.3788 343.068 94.5211C342.354 93.1973 341.163 90.6811 342.271 89.2634C343.626 87.5358 346.849 88.7564 348.607 89.038C351.23 89.5207 353.928 89.3631 356.48 88.578C360.06 87.4607 365.846 83.1888 369.545 85.7613C373.244 88.3339 371.871 94.7183 370.324 98.1921C368.026 103.356 364.986 108.06 364.455 113.853C364.102 118.519 365.083 123.19 367.278 127.294C369.473 131.398 372.787 134.756 376.815 136.958C380.12 138.695 383.05 133.579 379.735 131.832C371.102 127.297 368.016 116.688 372.063 107.844C374.26 103.037 377.19 98.5207 377.639 93.1034C378.014 88.6531 376.623 83.7146 372.951 80.9824C369.042 78.1658 364.373 79.0296 360.216 80.7383C358.083 81.7566 355.869 82.5828 353.596 83.2076C350.85 83.7897 348.277 82.7757 345.567 82.5504C340.907 82.156 336.522 84.907 336.146 89.9581C335.826 94.3052 338.289 98.7461 341.2 101.741C343.727 104.332 350.456 108.388 349.211 112.886C348.14 116.763 341.777 116.829 338.691 117.298C329.536 118.688 319.154 123.626 318.778 134.442C318.641 138.348 320.042 142.488 323.081 144.967C327.22 148.356 332.438 147.436 336.952 145.427C341.905 143.221 346.226 140.545 351.811 141.991C357.094 143.362 361.232 147.155 364.025 151.849C366.817 156.544 369.069 162.684 369.143 168.308C369.188 172.298 366.909 178.316 361.946 177.612C359.868 177.321 358.696 175.321 357.744 173.622C356.666 171.382 355.384 169.25 353.917 167.256C350.905 163.604 346.492 161.951 342.015 161.388C337.245 160.797 332.411 161.388 327.696 162.13C321.937 163.069 317.625 165.453 314.292 170.43C311.545 174.589 309.348 179.058 306.281 183.029C303.156 187.069 299.637 190.772 295.78 194.08C288.231 200.562 279.524 205.476 270.144 208.548C260.632 211.675 251.22 212.304 241.314 211.881C236.736 211.675 231.618 211.881 227.883 215.036C223.854 218.425 223.094 224.058 223.424 229.119C223.779 234.107 225.131 238.966 227.396 243.395C229.661 247.824 232.79 251.728 236.59 254.863Z" fill="white"></path> <path d="M401.278 296.859V290.381C398.055 291.573 395.07 293.366 393.111 296.371C389.98 301.178 390.813 306.952 391.28 312.332C391.545 315.646 391.536 321.89 387.709 323.364C383.361 325.044 381.777 317.73 381.621 314.914C381.346 309.496 381.722 303.948 378.426 299.319C375.679 295.441 371.458 293.319 367.219 291.573C362.816 289.761 358.394 288.306 354.402 285.574C350.292 282.707 346.853 278.943 344.331 274.551C341.584 269.857 340.476 264.477 338.297 259.529C337.327 257.3 336.054 255.224 334.516 253.361C333.015 251.558 331.101 250.046 329.819 248.056C326.99 243.653 331.998 238.742 335.834 237.231C337.64 236.423 339.669 236.313 341.547 236.921C343.882 237.86 345.072 240.188 346.18 242.319C351.023 251.633 358.925 258.844 369.234 261.022C374.525 262.139 380.376 261.257 385.439 263.397C389.669 265.181 392.241 269.444 389.101 273.584C381.896 283.114 370.497 273.697 364.793 267.604C362.202 264.843 358.119 269.04 360.701 271.8C367.714 279.311 378.178 287.264 388.561 281.583C392.562 279.396 395.885 275.321 396.306 270.58C396.764 265.566 393.679 261.191 389.531 258.863C384.304 255.914 378.389 256.375 372.667 255.623C367.41 254.929 362.463 252.681 358.43 249.155C356.571 247.545 354.932 245.685 353.559 243.625C352.03 241.287 351.014 238.639 349.449 236.339C348.183 234.332 346.386 232.737 344.269 231.739C342.151 230.742 339.801 230.383 337.492 230.706C327.86 231.982 318.76 243.258 325.8 252.394C327.283 254.271 329.142 255.877 330.625 257.783C332.28 260.101 333.551 262.683 334.388 265.425C336.173 270.514 337.83 275.556 340.888 280.016C343.819 284.303 347.512 287.986 351.774 290.869C355.876 293.686 360.499 295.188 365.031 297.009C369.408 298.774 374.004 301.131 375.23 306.201C376.54 311.628 375.121 317.223 377.428 322.481C379.259 326.612 382.921 329.936 387.599 329.401C392.113 328.894 395.006 324.96 396.315 320.791C397.973 315.515 396.425 310.247 396.563 304.877C396.518 303.218 396.939 301.581 397.775 300.16C398.611 298.739 399.826 297.593 401.278 296.859Z" fill="white"></path> <path d="M99.578 237.531C104.947 237.788 110.155 239.496 114.673 242.482C119.191 245.468 122.859 249.626 125.305 254.534C130.377 264.862 128.967 276.814 123.025 286.4C119.998 291.1 116.336 295.336 112.148 298.981C108.267 302.483 103.396 305.487 100.951 310.342C99.7742 312.69 99.3317 315.354 99.6839 317.97C100.036 320.585 101.166 323.026 102.92 324.96C106.582 329.072 112.661 330.18 117.633 328.293C127.813 324.434 128.5 312.088 136.035 305.553C141.931 300.455 150.684 301.525 157.853 300.859C162.723 300.399 167.493 299.319 170.551 295C173.481 290.85 172.501 285.799 168.894 282.494C166.221 280.044 160.599 277.612 163.492 273.152C167.017 267.735 174.168 269.913 179.148 271.397C185.172 273.19 191.883 274.918 197.761 271.66C200.066 270.199 202.1 268.329 203.767 266.139C205.379 264.261 207.164 261.952 209.709 261.51C215.404 260.525 219.002 268.129 219.844 272.711C221.108 279.612 220.622 286.475 223.342 293.066C223.964 294.55 226.088 294.85 227.306 294.127C228.798 293.254 228.945 291.536 228.341 290.071C225.951 284.288 226.509 277.65 225.493 271.556C224.668 266.106 221.792 261.205 217.482 257.905C215.494 256.399 213.087 255.586 210.616 255.586C208.144 255.586 205.737 256.399 203.749 257.905C199.803 260.872 197.45 266.486 192.268 267.416C186.289 268.486 180.366 265.116 174.625 264.149C169.132 263.21 163.538 263.989 159.729 268.467C156.406 272.383 155.82 277.809 159.18 281.893C161.084 284.212 167.96 287.104 166.257 290.897C164.243 295.376 157.532 295 153.568 295.226C149.475 295.298 145.396 295.722 141.373 296.493C137.6 297.35 134.122 299.23 131.302 301.939C127.64 305.441 125.699 310.041 123.318 314.426C120.938 318.81 117.358 323.861 111.691 323.223C105.868 322.575 103.634 316.059 107.049 311.515C110.354 307.131 115.463 304.107 119.326 300.249C123.366 296.292 126.809 291.742 129.544 286.747C132.566 281.143 134.151 274.843 134.151 268.439C134.151 262.035 132.566 255.736 129.544 250.131C123.483 239.043 111.819 232.152 99.5414 231.569C95.8151 231.4 95.8243 237.334 99.5414 237.503" fill="white"></path> <path d="M421.622 254.403C418.062 250.649 413.629 247.887 408.74 246.376C406.004 245.608 403.195 245.142 400.363 244.986V250.845C403.384 251.065 406.359 251.726 409.198 252.807C417.767 256.384 424.506 265.266 422.437 275.077C422.036 277.31 421.176 279.431 419.913 281.296C418.65 283.161 417.013 284.728 415.112 285.893C411.45 287.996 406.991 288.428 402.972 289.526C402.057 289.771 401.233 290.052 400.372 290.362V296.859C401.49 296.245 402.673 295.763 403.897 295.423C408.246 294.155 412.768 293.545 416.898 291.601C421.039 289.539 424.355 286.069 426.282 281.781C428.327 277.277 428.977 272.238 428.146 267.343C427.314 262.449 425.041 257.933 421.631 254.403" fill="white"></path> <path d="M499.975 336.114C499.975 331.955 499.883 327.777 500.131 323.777C500.457 318.47 501.069 313.185 501.962 307.947C502.405 304.481 503.487 301.133 505.148 298.08C506.979 295.103 509.945 293.31 513.388 294.446C517.352 295.77 519.687 299.601 520.712 303.525C521.893 307.91 521.884 312.585 521.985 317.101C522.138 322.115 521.967 327.133 521.472 332.124C521.326 333.447 521.124 334.771 520.886 336.086H526.727C527.103 333.72 527.368 331.335 527.542 328.95C527.867 323.78 527.904 318.595 527.652 313.421C527.487 308.914 527.231 304.229 525.674 299.967C522.928 292.54 515.31 285.724 507.153 288.869C500.231 291.526 497.558 299.507 496.386 306.342C494.841 316.177 494.069 326.124 494.079 336.086L499.975 336.114Z" fill="white"></path> <path d="M500.78 49.5019C508.828 46.6589 515.665 41.0412 520.126 33.6067C523.502 27.7723 525.732 21.3166 526.69 14.6037H520.849C519.558 21.9552 516.894 29.1845 512.133 34.8742C509.535 38.0486 506.3 40.6106 502.648 42.3852C498.491 44.3662 494.014 45.4647 490.087 48.0185C483.339 52.3279 478.239 60.2239 480.492 68.6738C482.68 76.8421 491.204 80.0249 498.738 79.7902C506.803 79.4112 514.569 76.5482 521.023 71.575C535.479 60.6933 542.282 43.1739 545.175 25.5698C545.761 22.0303 546.091 18.3311 546.539 14.6882H540.771C539.856 20.913 539.233 27.1566 537.704 33.3062C535.452 42.3664 531.909 51.3797 526.058 58.656C520.959 64.9746 514.257 70.1948 506.53 72.5514C500.286 74.4292 488.347 75.6028 486.077 67.1247C483.513 57.5857 493.795 52.2434 500.78 49.5958" fill="white"></path> <path d="M400.363 50.1403C402.952 48.0078 405.834 46.2774 408.914 45.0046C415.707 42.188 424.259 41.0144 431.006 44.5821C438.843 48.732 439.182 58.1771 443.055 65.3314C446.717 72.0444 454.646 77.856 462.034 73.2368C470.063 68.2231 469.688 57.6983 466.813 49.7648C463.581 40.8078 457.997 32.94 454.975 23.8986C453.933 20.9169 453.277 17.8076 453.025 14.6506H447.221C447.642 23.1006 451.405 31.0998 455.204 38.5264C457.561 42.79 459.626 47.2166 461.384 51.774C462.876 56.0365 464.131 61.2285 461.677 65.3877C459.727 68.7583 456.184 69.9882 452.805 67.8757C449.262 65.6412 447.449 61.5571 446.094 57.7077C444.602 53.4827 443.348 49.0888 440.665 45.4365C438.369 42.3115 435.268 39.9054 431.711 38.4888C421.64 34.3389 409.656 36.7894 400.363 42.9203V50.1403Z" fill="white"></path> <path d="M411.88 78.551C418.527 75.7343 424.185 69.9602 425.229 62.4398C425.405 61.6814 425.294 60.8828 424.919 60.205C424.543 59.5272 423.931 59.0206 423.206 58.7875C421.86 58.3932 419.873 59.2757 419.653 60.8625C418.61 68.3735 412.036 73.4716 404.941 74.4011C403.421 74.6028 401.882 74.6028 400.363 74.4011V80.3536C404.285 80.7242 408.237 80.1154 411.88 78.5791" fill="white"></path> <path d="M479.704 163.369C483.202 161.548 487.148 160.778 490.691 159.06C497.566 155.755 503.508 149.502 511.455 153.642C514.953 155.454 517.947 158.102 521.023 160.553C524.151 163.116 527.611 165.22 531.304 166.806C538.8 169.775 547.024 170.213 554.779 168.054C562.082 166.018 568.852 162.341 574.597 157.289C580.342 152.237 584.919 145.937 587.995 138.846C589.527 135.367 590.675 131.723 591.419 127.983C592.234 123.777 592.335 119.448 593.25 115.27C595.191 106.914 602.543 103.572 608.165 98.1171C613.751 92.6391 617.812 85.7327 619.929 78.1095C621.834 71.2369 622.676 62.9842 619.252 56.4496C615.754 49.7178 607.89 48.2907 602.067 52.8161C595.338 58.0457 594.944 66.2421 591.657 73.5466C588.517 80.5319 581.266 83.2077 575.772 87.8363C569.611 93.0283 568.1 100.305 566.956 108.013C566.379 111.909 565.738 115.862 563.934 119.383C562.218 122.611 559.922 125.478 557.169 127.833C551.227 133.062 542.74 137.428 534.811 137.531C527.807 137.625 520.162 133.109 520.748 125.082C521.325 116.885 528.805 114.754 535.452 113.533C542.776 112.191 549.78 110.379 554.111 103.628C557.974 97.6007 558.038 89.5451 553.296 83.9775C548.718 78.6353 541.11 77.0392 535.122 80.8323C531.973 82.8321 529.629 85.8835 526.452 87.8363C523.458 89.7141 519.878 90.2023 516.491 90.8501C509.496 92.174 503.032 94.6057 500.304 101.948C497.667 109.083 499.681 117.111 496.202 124.03C492.723 130.95 486.562 134.705 479.219 136.085C471.565 137.522 464.186 138.461 459.077 145.221C454.582 151.211 452.741 158.853 446.259 163.181C439.502 167.726 432.041 167.547 424.661 164.825C417.145 162.008 409.958 157.858 401.718 158.252C401.288 158.252 400.802 158.327 400.262 158.384V164.327C402.136 164.111 404.028 164.111 405.902 164.327C409.848 164.947 413.611 166.571 417.282 168.082C424.689 171.218 432.05 173.903 440.171 172.11C443.788 171.278 447.204 169.704 450.214 167.484C453.224 165.264 455.765 162.443 457.685 159.191C459.626 155.961 461.073 152.394 463.233 149.295C465.42 146.223 468.64 144.092 472.27 143.315C479.594 141.437 486.919 141.343 493.236 136.47C496.165 134.221 498.624 131.392 500.467 128.15C502.31 124.909 503.5 121.321 503.966 117.599C504.836 110.801 503.545 101.544 511.007 98.3048C517.415 95.4882 524.676 96.4271 530.526 92.0801C533.456 89.9207 535.91 86.7191 539.242 85.1887C540.67 84.5949 542.232 84.4235 543.75 84.694C545.268 84.9646 546.681 85.6661 547.83 86.7191C553.442 91.4135 551.272 100.098 545.852 103.966C539.865 108.238 531.652 107.243 525.088 110.163C521.848 111.568 519.128 113.992 517.318 117.085C515.508 120.178 514.702 123.78 515.017 127.373C515.749 135.006 521.426 140.62 528.484 142.582C536.724 144.855 545.294 141.982 552.536 138.038C558.945 134.536 564.978 129.532 568.595 122.95C572.522 115.796 572 107.684 574.372 100.061C576.743 92.4368 583.683 89.7329 589.377 85.2826C592.286 83.1925 594.688 80.4463 596.4 77.2552C598.231 73.5747 599.146 69.5282 600.437 65.6412C601.637 62.0829 603.642 58.2334 607.139 56.581C610.279 55.0976 613.063 56.75 614.463 59.7263C617.476 66.0825 615.461 74.7483 612.935 80.9356C609.767 88.6344 604.42 93.9672 598.103 98.9808C595.118 101.347 592.216 103.882 590.238 107.234C588.041 110.989 587.336 115.242 586.823 119.439C585.908 127.288 584.241 134.508 580.222 141.371C572.412 154.694 557.333 164.702 541.769 163.332C533.163 162.581 526.937 157.642 520.318 152.478C514.092 147.624 507.006 144.319 499.26 147.53C495.772 148.967 492.714 151.211 489.427 153.042C485.857 155.013 481.874 155.858 478.175 157.539C471.327 160.59 467.06 167.05 466.136 174.579C465.211 182.109 468.132 189.602 472.993 195.235C475.586 198.227 478.638 200.764 482.03 202.746C485.554 204.849 489.601 206.501 492.329 209.731C494.801 212.642 495.314 216.303 492.934 219.458C490.443 222.753 486.324 223.674 482.451 223.326C474.815 222.65 467.408 217.59 463.114 211.224C458.537 204.502 455.46 195.657 446.973 193.216C442.982 192.071 439.063 193.357 435.071 193.686C431.079 194.014 426.831 192.409 423.068 190.944C415.414 187.968 408.511 183.039 400.335 181.753V187.667C404.867 188.541 409.353 190.888 413.254 192.897C420.578 196.653 428.974 200.54 437.333 199.338C441.251 198.774 444.913 197.939 448.383 200.417C451.853 202.896 453.812 206.933 455.891 210.557C459.883 217.543 465.293 223.307 472.618 226.603C479.796 229.833 488.915 230.95 495.333 225.392C501.375 220.171 501.686 211.853 496.66 205.825C493.996 202.624 490.251 200.652 486.754 198.662C483.226 196.799 480.036 194.328 477.324 191.357C472.517 185.865 470.201 178.213 472.874 171.087C474.116 167.727 476.544 164.969 479.677 163.36" fill="white"></path> <path d="M461.1 115.664C453.877 116.772 449.5 121.608 445.985 127.814C442.89 133.278 440.006 140.179 433.167 141.127C429.221 141.671 425.174 140.507 421.366 139.587C417.208 138.401 412.918 137.77 408.603 137.709C405.838 137.785 403.091 138.172 400.409 138.864V145.033C406.616 142.967 413.437 143.737 419.828 145.286C427.445 147.164 435.648 148.741 442.277 143.305C447.157 139.296 449.372 133.071 452.769 127.879C454.49 125.26 456.651 122.988 459.663 122.021C463.417 120.819 467.491 121.204 471.355 120.697C478.441 119.758 484.099 115.383 485.729 108.041C486.488 104.797 486.366 101.402 485.377 98.2239C484.388 95.0459 482.568 92.2067 480.116 90.0142C467.903 79.3016 450.91 85.6766 441.791 97.2436C439.182 100.548 437.214 104.285 434.669 107.656C432.292 110.811 429.365 113.485 426.035 115.542C419.428 119.54 411.941 121.756 404.272 121.983C402.982 122.026 401.69 121.967 400.409 121.805V127.954C406.523 128.298 412.646 127.466 418.463 125.504C425.715 123.185 432.673 119.195 437.69 113.252C443.082 106.858 446.287 99.0557 453.437 94.3049C459.343 90.3804 466.877 88.9533 473.323 92.4272C479.073 95.5349 482.039 102.069 479.585 108.454C476.573 116.275 467.738 114.66 461.146 115.674" fill="white"></path> <path d="M400.363 101.121C402.306 100.676 404.271 100.338 406.25 100.107C414.069 99.1686 421.329 97.8354 427.573 92.5964C432.963 88.0191 436.569 81.6083 437.735 74.5324C438.321 70.7768 432.746 69.1901 432.151 72.955C431.612 76.5443 430.303 79.9663 428.319 82.9746C426.336 85.9829 423.726 88.5027 420.679 90.3525C414.481 94.108 407.229 93.7137 400.363 95.0469V101.121Z" fill="white"></path> <path d="M434.568 224.134C441.196 227.467 445.737 233.757 451.231 238.611C462.876 248.892 480.318 253.436 495.177 248.573C509.258 243.954 520.254 231.166 519.567 215.477C519.381 208.14 516.427 201.163 511.327 196.014C508.407 193.198 504.918 191.095 502.172 188.1C500.167 185.912 498.079 181.725 500.039 178.852C501.998 175.979 506.246 177.312 508.553 178.852C512.051 181.142 514.403 184.945 517.397 187.808C522.719 192.793 529.259 196.203 536.322 197.676C550.549 200.746 565.747 197.366 578.528 190.663C591.557 183.837 603.248 172.711 608.146 158.309C610.893 150.375 609.978 142.198 611.323 134.058C611.951 129.98 613.752 126.187 616.496 123.167C619.105 120.265 622.163 117.843 624.974 115.158C630.883 109.614 634.965 102.324 636.656 94.296C638.35 85.8461 635.869 77.706 635.897 69.2186C635.883 65.0336 637.148 60.9492 639.513 57.5389C641.884 53.943 644.301 50.5818 645.922 46.5164C648.943 38.7143 648.943 30.0766 648.98 21.8145C648.98 19.4861 648.98 17.0638 648.98 14.6414H643.267C643.047 21.3357 643.386 28.0487 642.69 34.7241C642.325 38.9119 641.221 42.9967 639.431 46.7793C637.49 50.6475 634.56 53.8773 632.582 57.7173C628.655 65.3973 630.293 73.6782 631.154 81.8559C632.07 90.3058 630.431 98.2863 625.661 105.328C621.175 111.9 614.024 115.871 609.52 122.434C604.585 129.635 605.162 138.48 604.502 146.845C603.276 162.252 592.939 174.749 580.515 182.635C568.503 190.25 553.241 194.794 539.105 192.221C531.986 191.067 525.396 187.663 520.254 182.485C515.044 177.03 509.862 170.017 501.421 171.51C493.502 172.899 491.991 181.781 495.085 188.212C498.482 195.263 506.667 197.864 510.577 204.53C512.298 207.616 513.358 211.042 513.687 214.581C514.015 218.12 513.604 221.691 512.481 225.054C510.201 232.142 504.671 237.616 498.281 240.93C484.428 248.103 466.237 244.31 454.801 233.973C449.418 229.091 444.813 223.139 438.431 219.543C430.347 214.998 421.869 216.839 413.117 216.435C408.709 216.205 404.384 215.118 400.372 213.233V219.655C403.113 220.726 405.958 221.487 408.859 221.927C417.264 223.185 426.685 220.19 434.577 224.162" fill="white"></path> <path d="M412.183 237.531C417.552 237.788 422.759 239.496 427.277 242.482C431.795 245.468 435.463 249.626 437.91 254.534C442.982 264.862 441.572 276.814 435.639 286.4C432.608 291.1 428.943 295.336 424.753 298.981C420.871 302.483 416 305.487 413.556 310.342C412.376 312.689 411.932 315.352 412.282 317.968C412.633 320.584 413.762 323.026 415.515 324.96C419.177 329.072 425.247 330.18 430.219 328.293C440.4 324.434 441.086 312.088 448.631 305.553C454.517 300.455 463.279 301.525 470.439 300.859C475.319 300.399 480.089 299.319 483.138 295C486.067 290.85 485.097 285.799 481.48 282.494C478.816 280.044 473.185 277.612 476.088 273.152C479.603 267.735 486.754 269.913 491.735 271.397C497.759 273.19 504.47 274.918 510.348 271.66C512.653 270.196 514.689 268.327 516.363 266.139C517.965 264.261 519.75 261.952 522.296 261.51C527.999 260.525 531.588 268.129 532.431 272.711C533.694 279.612 533.209 286.475 535.937 293.066C536.55 294.55 538.684 294.85 539.892 294.127C541.394 293.254 541.54 291.536 540.927 290.071C538.537 284.288 539.096 277.65 538.089 271.556C537.257 266.106 534.378 261.206 530.068 257.905C528.082 256.396 525.674 255.581 523.202 255.581C520.729 255.581 518.322 256.396 516.335 257.905C512.389 260.872 510.027 266.486 504.845 267.416C498.867 268.486 492.943 265.116 487.203 264.149C481.709 263.21 476.115 263.989 472.307 268.467C468.983 272.383 468.406 277.809 471.757 281.893C473.671 284.212 480.546 287.104 478.834 290.897C476.82 295.376 470.109 295 466.145 295.226C462.065 295.3 457.998 295.724 453.986 296.493C450.216 297.354 446.738 299.234 443.915 301.939C440.253 305.441 438.312 310.041 435.932 314.426C433.551 318.81 429.972 323.861 424.304 323.223C418.482 322.575 416.248 316.059 419.663 311.515C422.968 307.131 428.086 304.107 431.94 300.249C435.98 296.292 439.423 291.742 442.158 286.747C445.178 281.142 446.762 274.843 446.762 268.439C446.762 262.035 445.178 255.736 442.158 250.131C436.088 239.043 424.433 232.152 412.146 231.569C408.429 231.4 408.484 237.334 412.146 237.503" fill="white"></path> </g> </svg> 