<?xml version="1.0" encoding="UTF-8"?> <svg xmlns="http://www.w3.org/2000/svg" width="72" height="22" viewBox="0 0 72 22" fill="none"> <path d="M31.625 21.3791H25.8532L29.4633 0.6875H35.2347L31.625 21.3791Z" fill="#00579F"></path> <path d="M52.548 1.19342C51.4096 0.774758 49.6039 0.3125 47.3712 0.3125C41.6715 0.3125 37.6577 3.12993 37.6331 7.158C37.5857 10.1299 40.5068 11.7806 42.6915 12.7715C44.9245 13.7841 45.6836 14.445 45.6836 15.3476C45.6609 16.7337 43.8792 17.3727 42.2175 17.3727C39.9131 17.3727 38.6784 17.0433 36.8021 16.2721L36.042 15.9415L35.2344 20.5863C36.5881 21.158 39.0821 21.6653 41.6714 21.6875C47.7276 21.6875 51.6703 18.9137 51.717 14.6211C51.74 12.2656 50.1976 10.4608 46.8722 8.98596C44.8535 8.03921 43.6172 7.40083 43.6172 6.43214C43.6409 5.55151 44.6629 4.64952 46.9417 4.64952C48.818 4.60535 50.1967 5.02343 51.2411 5.4418L51.7631 5.66152L52.548 1.19342Z" fill="#00579F"></path> <path d="M60.2192 14.0488C60.6945 12.8601 62.5235 8.25945 62.5235 8.25945C62.4995 8.30362 62.9979 7.0488 63.2829 6.27847L63.6862 8.06138C63.6862 8.06138 64.7792 13.0143 65.0166 14.0488C64.1145 14.0488 61.3592 14.0488 60.2192 14.0488ZM67.3436 0.6875H62.8792C61.5025 0.6875 60.4565 1.0614 59.8625 2.40429L51.2893 21.3788H57.3454C57.3454 21.3788 58.3425 18.8249 58.5568 18.2749C59.2212 18.2749 65.1125 18.2749 65.9672 18.2749C66.1329 19.0014 66.6559 21.3788 66.6559 21.3788H72L67.3436 0.6875Z" fill="#00579F"></path> <path d="M21.0323 0.6875L15.3799 14.7972L14.7622 11.9356C13.7172 8.63364 10.4398 5.04617 6.78241 3.26239L11.9598 21.3571H18.0633L27.1355 0.6875H21.0323Z" fill="#00579F"></path> <path d="M10.1312 0.6875H0.845001L0.75 1.10558C7.9938 2.82266 12.7912 6.96161 14.7623 11.9364L12.7436 2.42682C12.4112 1.10529 11.3899 0.731093 10.1312 0.6875Z" fill="#FAA61A"></path> </svg> 