<?xml version="1.0" encoding="UTF-8"?> <svg xmlns="http://www.w3.org/2000/svg" width="83" height="96" viewBox="0 0 83 96" fill="none"> <path d="M0 29.7687C0 26.1986 1.90326 22.8993 4.99375 21.112L36.4938 2.89518C39.5909 1.10404 43.4091 1.10404 46.5063 2.89518L78.0062 21.112C81.0967 22.8993 83 26.1986 83 29.7687V66.2313C83 69.8014 81.0967 73.1007 78.0063 74.888L46.5062 93.1048C43.4091 94.896 39.5909 94.896 36.4937 93.1048L4.99375 74.888C1.90326 73.1007 0 69.8014 0 66.2313V29.7687Z" fill="#1C4F4A"></path> <path fill-rule="evenodd" clip-rule="evenodd" d="M52.6951 51.8783C51.8754 51.8783 51.1913 51.5231 50.7693 50.8779C45.9981 43.5952 39.4774 39.83 30.8358 39.3684C28.4651 39.2417 27.9838 35.8637 29.1081 33.9153C32.0158 28.8751 36.8736 25.79 42.7474 25.79C45.8901 25.79 48.2988 26.6236 50.9608 28.1601C58.3083 32.4012 60.8456 41.8695 56.6026 49.2159C55.7318 50.7239 54.3982 51.878 52.6954 51.878L52.6951 51.8783ZM42.7478 27.0858C37.3329 27.0858 32.9061 29.9261 30.2304 34.5632C29.5433 35.7535 29.7034 38.0108 30.9052 38.075C39.8617 38.5534 46.9097 42.6223 51.8534 50.1681C52.5187 51.1841 54.5582 50.1675 55.2333 48.9985C57.2667 45.4788 57.9499 41.8727 56.8748 37.8598C55.7723 33.7432 53.3491 31.0341 49.7653 28.9658C47.6341 27.7356 45.2079 27.0854 42.7478 27.0854V27.0858Z" fill="url(#paint0_linear_296_332)"></path> <path fill-rule="evenodd" clip-rule="evenodd" d="M49.8271 41.1527C46.6336 41.1527 46.6326 41.3877 46.6326 38.5487C43.7939 38.5487 44.0292 38.547 44.0292 35.3551C44.0292 33.9534 45.6493 34.2058 46.6326 34.2055C46.6326 31.3658 46.6339 31.6015 49.8271 31.6015C51.2292 31.6015 50.9764 33.2226 50.9764 34.2055C53.8157 34.2052 53.5804 34.2075 53.5804 37.3991C53.5804 38.8008 51.96 38.5483 50.9764 38.5487C50.9764 39.5316 51.2292 41.1527 49.8271 41.1527ZM47.9283 39.8577H49.6803C49.6803 36.8819 49.3086 37.2536 52.2844 37.2536V35.5016C49.3086 35.5019 49.6803 35.8736 49.6803 32.8975H47.9283C47.9283 35.873 48.3 35.5016 45.3249 35.5016V37.2539C48.3004 37.2536 47.9283 36.8822 47.9283 39.8577Z" fill="url(#paint1_linear_296_332)"></path> <path fill-rule="evenodd" clip-rule="evenodd" d="M34.7499 75.2934C34.3924 75.2934 34.102 75.003 34.102 74.6458V68.5264H27.5525C23.7023 68.5721 24.2494 64.7351 24.2494 62.589L22.007 60.7469C21.1536 60.0472 22.6736 59.2227 23.4557 58.6092C21.456 57.6496 21.8141 58.2498 21.8141 55.2179L20.1055 54.4349C18.9327 54.0677 18.2414 53.4772 18.0508 52.6796C17.7714 51.5116 18.7243 50.457 18.9622 50.2149L22.8263 45.0677C22.5015 43.5944 22.3369 42.0858 22.3369 40.5781C22.3369 13.1403 64 13.141 64 40.5781C64 45.3682 59.675 55.9581 56.1969 59.7818V74.5042C56.1969 75.3569 54.9015 75.3566 54.9015 74.5042V59.5257C54.9015 59.3585 54.9666 59.1977 55.0823 59.0769C58.3592 55.6694 62.7043 45.1232 62.7043 40.5778C62.7043 14.9092 23.6333 14.8418 23.6333 40.5778C23.6333 42.0871 23.8092 43.5973 24.1563 45.0677C24.2004 45.2551 24.1596 45.4518 24.0439 45.6054L19.902 51.1101C18.9706 52.012 19.0659 52.7603 20.5275 53.2108L22.7326 54.2152C22.963 54.3205 23.1105 54.5503 23.1105 54.8041V57.0079C24.0588 57.4629 25.2566 57.8265 25.3205 58.4079C25.384 58.989 24.2824 59.6103 23.4534 60.2601C26.0205 62.3686 25.5457 61.4161 25.5457 64.763C25.5457 65.7826 25.5995 67.2556 27.5363 67.2316L34.7512 67.231C35.1087 67.231 35.3987 67.5214 35.3987 67.8785V74.6462C35.3974 75.0036 35.1074 75.2937 34.7496 75.2937L34.7499 75.2934Z" fill="white"></path> <defs> <linearGradient id="paint0_linear_296_332" x1="42.5" y1="24.5" x2="45" y2="37.5" gradientUnits="userSpaceOnUse"> <stop stop-color="white"></stop> <stop offset="1" stop-color="white"></stop> </linearGradient> <linearGradient id="paint1_linear_296_332" x1="46" y1="30" x2="48.8048" y2="41.1575" gradientUnits="userSpaceOnUse"> <stop stop-color="white"></stop> <stop offset="0.669044" stop-color="white"></stop> </linearGradient> </defs> </svg> 